<?xml version="1.0" standalone="no"?>
<!DOCTYPE svg PUBLIC "-//W3C//DTD SVG 1.1//EN" "http://www.w3.org/Graphics/SVG/1.1/DTD/svg11.dtd" >
<svg xmlns="http://www.w3.org/2000/svg" xmlns:xlink="http://www.w3.org/1999/xlink" version="1.1">
<metadata>
Created by FontForge 20190801 at Sat Aug 15 02:35:08 2015
 By root
Copyright \(c\) 2011 by Jonas Hecksher, Playtypea, e-types AS. All rights reserved, Design Modifications, additions and new styles 2015, Cannot Into Space Fonts.
</metadata>
<defs>
<font id="Gamestation-Condensed" horiz-adv-x="435" >
  <font-face 
    font-family="Gamestation"
    font-weight="400"
    font-stretch="condensed"
    units-per-em="1000"
    panose-1="2 11 0 0 0 0 0 0 0 0"
    ascent="800"
    descent="-200"
    x-height="484"
    cap-height="649"
    bbox="-140 -220 944 937"
    underline-thickness="50"
    underline-position="-150"
    stemh="59"
    stemv="90"
    unicode-range="U+000D-FB04"
  />
<missing-glyph horiz-adv-x="195" 
 />
    <glyph glyph-name=".notdef" horiz-adv-x="195" 
 />
    <glyph glyph-name="NULL" horiz-adv-x="0" 
 />
    <glyph glyph-name="NULL" horiz-adv-x="0" 
 />
    <glyph glyph-name="CR" unicode="&#xd;" horiz-adv-x="250" 
 />
    <glyph glyph-name="space" unicode=" " horiz-adv-x="173" 
 />
    <glyph glyph-name="exclam" unicode="!" horiz-adv-x="210" 
d="M150 649l-26 -470h-38l-26 470h90zM149 0h-87v108h87v-108z" />
    <glyph glyph-name="quotedbl" unicode="&#x22;" horiz-adv-x="332" 
d="M128 429h-64v220h64v-220zM269 429h-65v220h65v-220z" />
    <glyph glyph-name="numbersign" unicode="#" 
d="M177 261h63l20 127h-64zM390 199h-109l-30 -199h-49l29 199h-63l-29 -199h-50l30 199h-74v62h83l19 127h-102v62h111l28 189h49l-27 -189h63l27 189h50l-28 -189h72v-62h-82l-18 -127h100v-62z" />
    <glyph glyph-name="dollar" unicode="$" 
d="M241 64c45 3 81 18 81 76v74c0 63 -29 76 -81 76v-226zM198 571c-54 -4 -82 -16 -82 -80v-64c0 -56 33 -65 82 -65v209zM393 173c0 -131 -56 -173 -152 -181v-90l-43 -42v130c-37 0 -84 5 -143 16v79c3 0 60 -15 63 -15c18 -3 57 -8 80 -8v228h-22
c-90 0 -131 43 -131 156v42c0 47 11 82 33 107c23 25 62 39 120 43v29l43 42v-70c33 0 73 -4 121 -11v-71c-62 9 -102 14 -121 15v-210h22c93 0 130 -36 130 -152v-37z" />
    <glyph glyph-name="percent" unicode="%" horiz-adv-x="641" 
d="M271 537v-125c0 -44 -13 -72 -37 -84c-26 -13 -45 -15 -81 -15s-55 2 -81 15c-25 12 -37 39 -37 84v125c0 45 10 75 31 90c22 15 50 22 87 22s65 -7 86 -22s32 -45 32 -90zM153 365c38 0 59 4 59 51v125c0 51 -20 56 -59 56c-40 0 -60 -5 -60 -56v-125
c0 -47 22 -51 60 -51zM474 660l-243 -670h-58l243 670h58zM607 214v-125c0 -44 -13 -72 -37 -84c-26 -13 -45 -15 -81 -15s-55 2 -81 15c-25 12 -37 39 -37 84v125c0 45 10 75 31 90c22 15 50 22 87 22s65 -7 86 -22s32 -45 32 -90zM489 42c38 0 59 4 59 51v125
c0 51 -20 56 -59 56c-40 0 -60 -5 -60 -56v-125c0 -47 22 -51 60 -51z" />
    <glyph glyph-name="ampersand" unicode="&#x26;" horiz-adv-x="477" 
d="M176 310l-26 -15c-18 -11 -34 -40 -34 -72v-122c0 -33 32 -49 98 -49h8c49 0 82 9 99 28zM409 301v-92c0 -45 -5 -83 -16 -112c20 -25 35 -38 45 -38h20v-59h-48c-18 0 -36 11 -55 34c-32 -29 -80 -44 -146 -44c-109 0 -164 38 -164 115v109c0 51 23 90 69 117l35 22
l-29 46c-16 24 -23 47 -23 69v97c0 63 41 95 124 95c34 0 68 -5 102 -15v-73c-37 17 -72 25 -103 25c-33 0 -59 -3 -59 -40v-74c0 -10 2 -19 7 -27l182 -293c6 13 7 96 7 112z" />
    <glyph glyph-name="quotesingle" unicode="'" horiz-adv-x="192" 
d="M128 429h-64v220h64v-220z" />
    <glyph glyph-name="parenleft" unicode="(" horiz-adv-x="248" 
d="M229 -127h-61c-73 144 -109 278 -109 403c0 71 10 138 28 201c19 63 46 130 81 202h61c-33 -77 -59 -147 -77 -210s-27 -128 -27 -193c0 -66 9 -131 27 -196c19 -65 44 -134 77 -207z" />
    <glyph glyph-name="parenright" unicode=")" horiz-adv-x="248" 
d="M189 276c0 -125 -36 -259 -109 -403h-60c32 73 57 142 76 207s28 130 28 196c0 65 -9 128 -28 191c-18 63 -43 133 -76 212h60c35 -72 62 -139 81 -202s28 -130 28 -201z" />
    <glyph glyph-name="asterisk" unicode="*" horiz-adv-x="299" 
d="M279 496l-100 -29l68 -106l-46 -41l-52 119l-52 -119l-45 41l70 106l-102 29l17 69l97 -54l-10 138h55l-10 -138l94 54z" />
    <glyph glyph-name="plus" unicode="+" horiz-adv-x="375" 
d="M212 515v-166h118v-67h-118v-167h-50v167h-117v67h117v166h50z" />
    <glyph glyph-name="comma" unicode="," horiz-adv-x="192" 
d="M143 108l-70 -220h-44l35 220h79z" />
    <glyph glyph-name="hyphen" unicode="-" horiz-adv-x="269" 
d="M239 250h-209v72h209v-72z" />
    <glyph glyph-name="period" unicode="." horiz-adv-x="192" 
d="M140 0h-87v108h87v-108z" />
    <glyph glyph-name="slash" unicode="/" horiz-adv-x="316" 
d="M308 660l-243 -670h-57l243 670h57z" />
    <glyph glyph-name="zero" unicode="0" 
d="M389 485v-329c0 -108 -47 -155 -120 -164c-15 -1 -32 -2 -52 -2c-56 0 -107 6 -137 42c-21 24 -34 69 -34 124v328c0 87 25 141 75 161c33 13 53 15 96 15c57 0 107 -6 137 -43c22 -26 35 -74 35 -132zM321 151v340c0 47 -8 78 -24 91c-15 13 -42 19 -79 19
c-39 0 -66 -6 -81 -19s-23 -44 -23 -91v-340c0 -43 8 -71 24 -83c16 -13 43 -19 80 -19c38 0 64 6 80 19c15 12 23 40 23 83z" />
    <glyph glyph-name="one" unicode="1" 
d="M305 0h-66v559l-147 -129v82l148 137h65v-649z" />
    <glyph glyph-name="two" unicode="2" 
d="M228 660c94 0 153 -26 153 -141v-106c0 -36 -7 -63 -21 -82s-39 -39 -75 -61l-112 -69c-33 -20 -50 -49 -50 -88v-43h258v-70h-327v116c0 39 12 73 25 94c12 19 45 46 62 58c9 6 22 14 38 23l81 48c32 19 48 48 48 87v89c0 31 -7 52 -22 62s-39 15 -72 15
c-35 0 -82 -7 -143 -21v70c52 13 105 19 157 19z" />
    <glyph glyph-name="three" unicode="3" 
d="M296 344c40 -9 81 -22 81 -85v-130c0 -48 -18 -84 -39 -103c-34 -30 -84 -36 -138 -36c-41 0 -88 6 -142 19v72c60 -17 110 -25 149 -25c67 0 100 25 100 75v111c0 58 -50 62 -93 62h-79l37 62h29c44 0 94 5 94 64v116c0 34 -30 51 -90 51c-39 0 -84 -5 -137 -16v69
c42 6 88 9 136 9c54 0 94 -8 120 -23c26 -16 39 -44 39 -85v-125c0 -48 -34 -71 -67 -78v-4z" />
    <glyph glyph-name="four" unicode="4" 
d="M374 142h-30v-142h-63v142h-242v79l221 428h84v-438h52zM281 211v359l-182 -359h182z" />
    <glyph glyph-name="five" unicode="5" 
d="M299 260c0 56 -37 62 -78 62h-144v327h280l-37 -68h-176v-197h113c42 0 71 -12 94 -42c12 -17 19 -38 19 -65v-148c0 -118 -73 -139 -161 -139c-41 0 -89 6 -144 18v72c58 -16 107 -24 146 -24c50 0 88 13 88 75v129z" />
    <glyph glyph-name="six" unicode="6" 
d="M382 251v-95c0 -70 -16 -118 -51 -140s-63 -26 -114 -26c-55 0 -104 5 -132 42c-20 25 -32 70 -32 124v328c0 117 51 164 131 174c14 1 31 2 52 2c30 0 71 -3 123 -9v-68c-54 9 -98 13 -133 13c-39 0 -67 -6 -82 -19c-16 -13 -24 -44 -24 -91v-102h110c45 0 62 1 96 -10
c41 -13 56 -55 56 -123zM315 151v97c0 32 -6 53 -18 63c-13 10 -39 15 -79 15h-98v-175c0 -43 7 -71 21 -83c15 -13 40 -19 77 -19s63 6 76 18c14 12 21 40 21 84z" />
    <glyph glyph-name="seven" unicode="7" 
d="M389 584l-186 -584h-72l195 584h-279v65h342v-65z" />
    <glyph glyph-name="eight" unicode="8" 
d="M306 342c40 -12 84 -42 84 -104v-119c0 -47 -14 -81 -41 -100s-71 -29 -132 -29s-105 10 -132 29s-41 52 -41 98v121c0 62 44 92 84 104v4c-39 12 -67 34 -67 93v101c0 105 72 120 156 120c83 0 156 -15 156 -120v-101c0 -59 -28 -81 -67 -93v-4zM217 602
c-51 0 -88 -8 -88 -67v-105c0 -26 7 -43 20 -52c12 -9 35 -14 68 -14c32 0 55 5 68 14s20 26 20 52v105c0 59 -37 67 -88 67zM217 308c-52 0 -100 -3 -100 -73v-121c0 -24 8 -41 23 -51s40 -15 77 -15c36 0 62 5 77 15s23 27 23 51v121c0 70 -48 73 -100 73z" />
    <glyph glyph-name="nine" unicode="9" 
d="M201 51c82 0 114 24 114 129v85h-110c-45 0 -62 -1 -96 10c-41 13 -56 55 -56 123v96c0 70 16 118 51 140s63 26 114 26c55 0 104 -5 132 -41c20 -26 32 -71 32 -125v-328c0 -64 -14 -109 -43 -136c-28 -27 -73 -40 -136 -40c-42 0 -84 4 -126 11v67
c46 -11 87 -17 124 -17zM315 499c0 43 -7 71 -21 84c-15 12 -40 18 -77 18s-63 -6 -76 -18c-14 -12 -21 -40 -21 -84v-98c0 -32 6 -53 18 -63c13 -10 39 -15 80 -15h97v176z" />
    <glyph glyph-name="colon" unicode=":" horiz-adv-x="192" 
d="M140 376h-87v108h87v-108zM140 0h-87v108h87v-108z" />
    <glyph glyph-name="semicolon" unicode=";" horiz-adv-x="192" 
d="M140 376h-87v108h87v-108zM143 108l-70 -220h-44l35 220h79z" />
    <glyph glyph-name="less" unicode="&#x3c;" horiz-adv-x="375" 
d="M330 143v-81l-285 213v72l285 213v-81l-226 -171z" />
    <glyph glyph-name="equal" unicode="=" horiz-adv-x="375" 
d="M330 362h-285v67h285v-67zM330 202h-285v67h285v-67z" />
    <glyph glyph-name="greater" unicode="&#x3e;" horiz-adv-x="375" 
d="M45 62v81l227 165l-227 171v81l285 -213v-72z" />
    <glyph glyph-name="question" unicode="?" horiz-adv-x="400" 
d="M203 659c94 0 152 -26 152 -141v-50c0 -50 -16 -91 -35 -114c-19 -22 -46 -47 -66 -64c-18 -15 -36 -41 -36 -76v-43h-63v43c0 67 18 99 45 127c35 35 83 60 83 140v30c0 31 -8 52 -23 62s-39 15 -72 15c-35 0 -82 -7 -143 -21v73c53 13 105 19 158 19zM230 0h-87v108h87
v-108z" />
    <glyph glyph-name="at" unicode="@" horiz-adv-x="553" 
d="M450 -65c-34 -15 -128 -25 -178 -25c-93 0 -176 23 -212 100c-10 22 -15 47 -15 76v307c0 121 77 163 155 179c23 5 47 7 72 7c60 0 101 -9 149 -31s87 -72 87 -154v-249c0 -66 -26 -89 -74 -89h-24c-28 0 -57 11 -63 37c-5 -15 -12 -24 -23 -29c-10 -5 -31 -8 -62 -8
c-41 0 -69 9 -86 28c-18 18 -26 56 -26 114v110c0 109 39 131 127 131c89 0 119 -21 119 -131v-179c0 -21 11 -24 29 -24c19 0 28 2 28 24v277c0 83 -69 105 -124 115c-18 3 -37 5 -57 5c-43 0 -75 -7 -109 -21c-32 -14 -59 -46 -59 -99v-327c0 -76 63 -99 114 -108
c18 -3 36 -4 55 -4c43 0 146 15 177 26v-58zM275 107c54 0 66 8 66 77v120c0 38 -3 61 -11 70c-7 9 -25 13 -55 13s-48 -4 -55 -13c-8 -9 -11 -33 -11 -70v-120c0 -34 3 -55 11 -64s26 -13 55 -13z" />
    <glyph glyph-name="A" unicode="A" horiz-adv-x="489" 
d="M478 0h-76l-55 197h-209l-55 -197h-72l194 649h84zM329 264l-83 293h-7l-82 -293h172z" />
    <glyph glyph-name="B" unicode="B" horiz-adv-x="460" 
d="M326 343c44 -10 89 -41 89 -105v-109c0 -47 -14 -81 -41 -100s-71 -29 -132 -29h-179v649h174c42 0 75 -6 99 -17c40 -19 57 -42 57 -106v-87c0 -59 -28 -80 -67 -92v-4zM239 365c53 0 86 14 86 77v76c0 59 -37 67 -88 67h-101v-220h103zM342 133v98c0 36 -11 55 -33 64
c-24 9 -34 9 -67 9h-106v-237h106c37 0 63 5 78 15s22 27 22 51z" />
    <glyph glyph-name="C" unicode="C" horiz-adv-x="423" 
d="M254 593c-73 0 -136 -19 -136 -118v-304c0 -75 46 -112 139 -112c40 0 84 8 132 24v-74c-43 -13 -89 -19 -136 -19c-137 0 -205 59 -205 176v308c0 124 68 186 205 186c45 0 90 -6 133 -19v-72c-48 16 -92 24 -132 24z" />
    <glyph glyph-name="D" unicode="D" horiz-adv-x="509" 
d="M461 463v-287c0 -117 -68 -176 -204 -176h-194v649h194c136 0 204 -62 204 -186zM392 464c0 99 -63 118 -136 118h-120v-516h116c93 0 140 37 140 112v286z" />
    <glyph glyph-name="E" unicode="E" 
d="M398 0h-335v649h327v-68h-254v-212h229v-68h-229v-233h262v-68z" />
    <glyph glyph-name="F" unicode="F" horiz-adv-x="420" 
d="M398 581h-262v-212h237v-68h-237v-301h-73v649h335v-68z" />
    <glyph glyph-name="G" unicode="G" horiz-adv-x="500" 
d="M440 568c-32 10 -127 24 -166 24c-103 0 -154 -39 -154 -118v-306c0 -74 54 -98 104 -107c16 -3 34 -5 53 -5c33 0 69 6 107 18v227h-88l-26 68h182v-349c-66 -20 -125 -30 -180 -30c-91 0 -174 23 -209 100c-10 22 -15 47 -15 76v307c0 121 75 163 153 179
c23 5 46 7 71 7c60 0 116 -5 168 -16v-75z" />
    <glyph glyph-name="H" unicode="H" horiz-adv-x="530" 
d="M467 0h-72v301h-259v-301h-73v649h73v-280h259v280h72v-649z" />
    <glyph glyph-name="I" unicode="I" horiz-adv-x="199" 
d="M136 0h-73v649h73v-649z" />
    <glyph glyph-name="J" unicode="J" horiz-adv-x="302" 
d="M95 50c57 0 72 14 72 89v510h72v-506c0 -62 -10 -103 -31 -123s-55 -30 -104 -30c-41 0 -70 4 -89 11v65c31 -11 57 -16 80 -16z" />
    <glyph glyph-name="K" unicode="K" horiz-adv-x="457" 
d="M464 0h-94l-233 345l218 304h88l-219 -300zM136 0h-73v649h73v-649z" />
    <glyph glyph-name="L" unicode="L" horiz-adv-x="390" 
d="M375 0h-312v649h73v-581h239v-68z" />
    <glyph glyph-name="M" unicode="M" horiz-adv-x="646" 
d="M583 0h-64v549h-4l-156 -549h-66l-161 549h-4v-549h-65v649h109l156 -540l2 -1l148 541h105v-649z" />
    <glyph glyph-name="N" unicode="N" horiz-adv-x="542" 
d="M479 0h-87l-265 545v-545h-64v649h88l265 -536v536h63v-649z" />
    <glyph glyph-name="O" unicode="O" horiz-adv-x="509" 
d="M460 474v-308c0 -112 -65 -153 -137 -169c-21 -5 -45 -7 -69 -7c-136 0 -204 59 -204 176v307c0 124 68 186 204 186c137 0 206 -62 206 -185zM254 596c-73 0 -135 -22 -135 -120v-309c0 -75 45 -112 136 -112c89 0 134 37 134 112v309c0 80 -45 120 -135 120z" />
    <glyph glyph-name="P" unicode="P" horiz-adv-x="428" 
d="M394 521v-135c0 -55 -16 -94 -49 -117c-32 -23 -77 -35 -136 -35h-73v-234h-73v649h159c53 0 105 -3 137 -32c20 -19 35 -51 35 -96zM323 509c0 70 -54 79 -106 79h-82v-293h83c29 0 54 7 74 22c20 14 31 39 31 74v118z" />
    <glyph glyph-name="Q" unicode="Q" horiz-adv-x="507" 
d="M512 0h-259c-137 0 -205 59 -205 176v297c0 124 68 186 205 186s205 -62 205 -185v-268c0 -62 -22 -112 -66 -151h120v-55zM254 596c-74 0 -136 -21 -136 -120v-299c0 -75 45 -112 136 -112c90 0 135 37 135 112v299c0 80 -45 120 -135 120z" />
    <glyph glyph-name="R" unicode="R" horiz-adv-x="459" 
d="M405 410c0 -84 -61 -121 -126 -121l156 -289h-89l-140 277h-70v-277h-73v649h171c61 0 105 -8 131 -24c27 -17 40 -51 40 -103v-112zM231 341c59 0 101 10 101 81v90c0 49 -31 73 -94 73h-102v-244h95z" />
    <glyph glyph-name="S" unicode="S" horiz-adv-x="427" 
d="M256 372c93 0 130 -36 130 -152v-47c0 -69 -15 -117 -45 -143c-29 -27 -75 -40 -138 -40c-40 0 -89 5 -148 16v81c59 -17 110 -25 153 -25c34 0 61 5 79 16c18 10 27 31 27 62v84c0 63 -28 76 -81 76h-57c-90 0 -131 43 -131 156v52c0 51 14 89 41 114s77 37 150 37
c35 0 77 -4 126 -11v-73c-56 11 -99 17 -131 17c-46 0 -77 -6 -93 -18c-15 -13 -22 -34 -22 -63v-74c0 -56 32 -65 81 -65h59z" />
    <glyph glyph-name="T" unicode="T" horiz-adv-x="439" 
d="M421 581h-164v-581h-74v581h-165v68h403v-68z" />
    <glyph glyph-name="U" unicode="U" horiz-adv-x="507" 
d="M254 55c71 0 120 21 120 112v482h69v-483c0 -117 -63 -176 -190 -176c-105 0 -190 35 -190 176v483h70v-482c0 -91 51 -112 121 -112z" />
    <glyph glyph-name="V" unicode="V" horiz-adv-x="489" 
d="M478 649l-194 -649h-84l-189 649h76l156 -557h7l156 557h72z" />
    <glyph glyph-name="W" unicode="W" horiz-adv-x="726" 
d="M720 649l-157 -649h-84l-117 540l-119 -540h-85l-152 649h77l121 -557h2l120 557h78l120 -557h2l121 557h73z" />
    <glyph glyph-name="X" unicode="X" horiz-adv-x="453" 
d="M447 0h-83l-137 264l-138 -264h-83l179 331l-171 318h83l130 -251l129 251h84l-172 -318z" />
    <glyph glyph-name="Y" unicode="Y" horiz-adv-x="438" 
d="M432 649l-177 -384v-265h-73v262l-176 387h83l130 -305l130 305h83z" />
    <glyph glyph-name="Z" unicode="Z" 
d="M405 0h-375v68l287 513h-279v68h363v-68l-287 -513h291v-68z" />
    <glyph glyph-name="bracketleft" unicode="[" horiz-adv-x="248" 
d="M233 -190h-170v926h170v-48h-105v-830h105v-48z" />
    <glyph glyph-name="backslash" unicode="\" horiz-adv-x="316" 
d="M308 -10h-57l-243 669h57z" />
    <glyph glyph-name="bracketright" unicode="]" horiz-adv-x="248" 
d="M185 -190h-170v48h104v830h-104v48h170v-926z" />
    <glyph glyph-name="asciicircum" unicode="^" horiz-adv-x="241" 
d="M167 680l59 -227h-51l-55 187l-54 -187h-51l57 227h95z" />
    <glyph glyph-name="underscore" unicode="_" 
d="M382 -141h-329v71h329v-71z" />
    <glyph glyph-name="grave" unicode="`" horiz-adv-x="179" 
d="M164 553h-55l-94 127h82z" />
    <glyph glyph-name="a" unicode="a" horiz-adv-x="404" 
d="M345 0h-65v46c-6 -37 -42 -56 -110 -56c-50 0 -84 10 -104 31c-19 20 -28 61 -28 123c0 54 9 91 27 112c18 20 52 30 104 30h109v77c0 27 -7 45 -19 54s-35 14 -69 14c-37 0 -79 -4 -125 -12v66c50 6 95 9 135 9c60 0 100 -10 118 -29c18 -20 27 -61 27 -123v-342z
M104 141c0 -69 11 -92 64 -92h14c38 0 96 -2 96 49v132h-105c-61 0 -69 -10 -69 -89z" />
    <glyph glyph-name="b" unicode="b" horiz-adv-x="434" 
d="M389 357v-199c0 -109 -44 -157 -117 -166c-15 -1 -31 -2 -51 -2c-53 0 -79 4 -114 26c-34 22 -48 72 -48 142v542h67v-145c0 -21 -1 -94 -1 -115c2 15 13 28 31 39c19 10 47 15 83 15c100 0 150 -46 150 -137zM320 145v190c0 41 -7 68 -21 79c-15 11 -41 16 -78 16
c-35 0 -60 -6 -74 -19s-21 -38 -21 -76v-190c0 -41 7 -67 21 -78c13 -12 38 -18 75 -18s63 6 77 18c14 11 21 37 21 78z" />
    <glyph glyph-name="c" unicode="c" horiz-adv-x="348" 
d="M321 4c-33 -9 -72 -14 -116 -14c-45 0 -59 -1 -94 12c-32 11 -45 30 -57 71c-6 20 -9 45 -9 75v178c0 50 6 90 23 116c17 24 30 38 60 45c32 6 46 7 84 7c35 0 69 -5 104 -15v-66c-39 13 -77 20 -112 20c-37 0 -62 -6 -73 -18s-17 -37 -17 -76v-198c0 -35 6 -59 19 -70
c13 -12 39 -18 79 -18c35 0 72 6 109 19v-68z" />
    <glyph glyph-name="d" unicode="d" horiz-adv-x="428" 
d="M192 494c43 0 115 -12 116 -62h2c-1 55 -2 96 -2 123v145h68v-700h-66v57c0 -17 -11 -33 -33 -46c-22 -14 -51 -21 -89 -21c-52 0 -89 11 -111 33c-21 22 -32 62 -32 121v213c0 111 55 137 147 137zM203 52c58 0 105 9 105 75v239c0 43 -33 65 -99 65
c-40 0 -67 -4 -79 -12s-18 -26 -18 -53v-239c0 -65 36 -75 91 -75z" />
    <glyph glyph-name="e" unicode="e" horiz-adv-x="401" 
d="M206 494c99 0 151 -36 151 -165v-107h-244v-73c0 -76 46 -94 108 -94c34 0 75 8 122 24v-69c-45 -13 -89 -20 -131 -20c-111 0 -167 49 -167 148v191c0 129 58 165 161 165zM202 434c-53 0 -89 -11 -89 -77v-76h177v76c0 66 -34 77 -88 77z" />
    <glyph glyph-name="f" unicode="f" horiz-adv-x="285" 
d="M228 651c-49 0 -70 -17 -70 -83v-84h121v-59h-121v-425h-67v425h-83v59h83v78c0 112 49 148 135 148c19 0 40 -2 61 -5v-59c-18 3 -37 5 -59 5z" />
    <glyph glyph-name="g" unicode="g" horiz-adv-x="427" 
d="M45 334c0 124 51 160 149 160c63 0 100 -19 111 -57v47h63v-530c0 -69 -14 -115 -43 -139c-29 -23 -72 -35 -129 -35c-52 0 -93 4 -125 11v64c57 -9 101 -14 131 -14c61 0 99 19 99 95v116c-3 -52 -66 -62 -111 -62c-56 0 -94 11 -115 33c-20 22 -30 60 -30 114v197z
M301 131v219c0 31 -7 53 -19 65c-13 11 -40 17 -79 17c-38 0 -63 -6 -74 -17s-17 -33 -17 -65v-219c0 -33 6 -55 18 -65c12 -11 37 -16 74 -16c34 0 59 6 74 17s23 32 23 64z" />
    <glyph glyph-name="h" unicode="h" horiz-adv-x="430" 
d="M245 494c86 0 126 -33 126 -139v-355h-67v349c0 41 -10 64 -36 74c-11 4 -25 6 -42 6c-42 0 -69 -6 -81 -18c-13 -12 -19 -33 -19 -62v-349h-67v700h67v-275c7 46 47 69 119 69z" />
    <glyph glyph-name="i" unicode="i" horiz-adv-x="185" 
d="M126 565h-67v94h67v-94zM126 0h-67v484h67v-484z" />
    <glyph glyph-name="j" unicode="j" horiz-adv-x="185" 
d="M127 565h-68v94h68v-94zM-4 -161c45 0 63 19 63 81v564h68v-557c0 -111 -38 -147 -121 -147c-13 0 -25 1 -38 4v59c12 -3 21 -4 28 -4z" />
    <glyph glyph-name="k" unicode="k" horiz-adv-x="386" 
d="M384 0h-84l-166 265l153 219h83l-158 -219zM126 0h-67v700h67v-700z" />
    <glyph glyph-name="l" unicode="l" horiz-adv-x="185" 
d="M126 0h-67v700h67v-700z" />
    <glyph glyph-name="m" unicode="m" horiz-adv-x="668" 
d="M486 494c84 0 123 -35 123 -139v-355h-67v349c0 41 -10 64 -36 74c-11 4 -25 6 -42 6c-40 0 -65 -6 -77 -17c-11 -11 -16 -32 -16 -63v-349h-68v349c0 64 -28 80 -77 80c-40 0 -67 -5 -80 -16s-20 -33 -20 -64v-349h-67v484h67v-59c7 46 48 69 122 69
c61 0 99 -22 114 -66c11 51 71 66 124 66z" />
    <glyph glyph-name="n" unicode="n" horiz-adv-x="430" 
d="M245 494c86 0 126 -33 126 -139v-355h-67v350c0 41 -10 64 -36 74c-11 4 -25 6 -42 6c-40 0 -66 -6 -80 -17c-13 -11 -20 -32 -20 -63v-350h-67v484h67v-59c7 46 47 69 119 69z" />
    <glyph glyph-name="o" unicode="o" horiz-adv-x="426" 
d="M380 321v-168c0 -81 -19 -132 -66 -150c-35 -13 -56 -13 -102 -13c-57 0 -83 0 -120 24c-35 21 -47 68 -47 139v168c0 84 18 141 66 160c35 14 54 13 101 13c48 0 66 1 102 -13c33 -14 46 -36 57 -79c6 -22 9 -49 9 -81zM311 140v196c0 45 -7 72 -21 83
c-13 11 -39 16 -78 16c-38 0 -64 -5 -78 -16c-13 -11 -20 -38 -20 -83v-196c0 -40 5 -66 25 -78c22 -14 38 -13 73 -13c36 0 51 -1 74 13c20 12 25 38 25 78z" />
    <glyph glyph-name="p" unicode="p" horiz-adv-x="434" 
d="M221 -10c-35 0 -84 11 -95 41v-239h-67v692h66v-52h1c5 41 47 62 124 62c48 0 84 -13 106 -40s33 -60 33 -97v-199c0 -109 -44 -157 -117 -166c-15 -1 -31 -2 -51 -2zM320 147v178c0 45 -7 73 -21 86c-15 12 -41 18 -78 18s-62 -6 -75 -18s-20 -41 -20 -86v-178
c0 -41 7 -67 21 -78c13 -12 38 -18 75 -18s63 6 77 18c14 11 21 37 21 78z" />
    <glyph glyph-name="q" unicode="q" horiz-adv-x="434" 
d="M229 494c103 0 160 -31 160 -157v-545h-67v239c-10 -27 -47 -41 -110 -41c-55 0 -102 4 -127 43c-18 27 -26 71 -26 125v179c0 128 64 157 170 157zM322 148v177c0 45 -7 74 -20 86s-39 18 -75 18c-45 0 -73 -6 -83 -18c-11 -12 -16 -41 -16 -86v-177c0 -41 7 -67 21 -78
c14 -12 40 -18 77 -18c38 0 63 6 76 19c13 12 20 38 20 77z" />
    <glyph glyph-name="r" unicode="r" horiz-adv-x="263" 
d="M122 405c0 51 60 89 99 89h33v-77h-37c-54 0 -91 -10 -91 -76v-341h-67v484h63v-79z" />
    <glyph glyph-name="s" unicode="s" horiz-adv-x="362" 
d="M153 217c-67 0 -115 35 -115 118v45c0 76 54 114 162 114c12 0 48 -3 110 -8v-65c-43 9 -81 14 -113 14c-36 0 -61 -5 -74 -14c-12 -9 -19 -25 -19 -47v-41c0 -33 23 -49 67 -49h42c77 0 115 -38 115 -114v-42c0 -52 -14 -88 -41 -108s-66 -30 -117 -30
c-39 0 -81 4 -125 12v69c60 -13 102 -19 126 -19c30 0 53 4 68 12c15 7 22 23 22 47v49c0 48 -27 57 -67 57h-41z" />
    <glyph glyph-name="t" unicode="t" horiz-adv-x="302" 
d="M157 136c0 -74 18 -87 76 -87c8 0 26 3 54 8v-59c-24 -5 -50 -8 -76 -8c-90 0 -122 32 -122 151v284h-81v59h81v150h68v-150h130v-59h-130v-289z" />
    <glyph glyph-name="u" unicode="u" horiz-adv-x="430" 
d="M185 -10c-87 0 -126 33 -126 139v355h67v-350c0 -41 10 -64 36 -73c11 -5 25 -7 42 -7c38 0 64 5 78 14s22 26 22 51v365h67v-484h-67v59c-7 -46 -47 -69 -119 -69z" />
    <glyph glyph-name="v" unicode="v" horiz-adv-x="347" 
d="M343 484l-127 -484h-81l-130 484h71l100 -406h4l98 406h65z" />
    <glyph glyph-name="w" unicode="w" horiz-adv-x="594" 
d="M585 484l-119 -484h-80l-88 391l-86 -391h-81l-122 484h74l89 -398h4l86 398h76l88 -398h5l85 398h69z" />
    <glyph glyph-name="x" unicode="x" horiz-adv-x="359" 
d="M352 0h-74l-99 191l-97 -191h-74l135 249l-128 235h74l90 -177l91 177h74l-127 -235z" />
    <glyph glyph-name="y" unicode="y" horiz-adv-x="345" 
d="M341 484l-183 -692h-70l57 201l-140 491h73l101 -395h2l91 395h69z" />
    <glyph glyph-name="z" unicode="z" horiz-adv-x="341" 
d="M315 0h-285v61l204 362h-196v61h273v-61l-204 -362h208v-61z" />
    <glyph glyph-name="braceleft" unicode="{" horiz-adv-x="248" 
d="M161 -77c0 -38 19 -65 46 -65h8v-48h-15c-25 0 -48 0 -65 12c-11 9 -24 25 -29 44c-7 25 -11 58 -11 96v230c0 37 -3 60 -7 69c-5 8 -18 12 -40 12v52c22 0 35 4 40 13c4 8 7 31 7 68v178c0 51 5 99 24 123c12 15 18 21 37 25s22 4 44 4h15v-48h-8c-27 0 -46 -27 -46 -65
v-182c0 -82 -13 -119 -59 -140v-4c47 -20 59 -57 59 -140v-234z" />
    <glyph glyph-name="bar" unicode="|" horiz-adv-x="251" 
d="M146 -10h-41v669h41v-669z" />
    <glyph glyph-name="braceright" unicode="}" horiz-adv-x="248" 
d="M86 623c0 38 -18 65 -45 65h-8v48h14c25 0 49 0 65 -12c11 -9 25 -25 30 -44c7 -25 11 -58 11 -96v-178c0 -37 2 -60 7 -68c4 -9 18 -13 40 -13v-52c-22 0 -36 -4 -40 -12c-5 -9 -7 -32 -7 -69v-230c0 -51 -5 -99 -25 -123c-12 -15 -17 -21 -36 -25s-23 -4 -45 -4h-14v48
h8c27 0 45 27 45 65v234c0 83 13 120 60 140v4c-47 21 -60 58 -60 140v182z" />
    <glyph glyph-name="asciitilde" unicode="~" 
d="M140 296c-46 0 -70 -22 -89 -61v81c19 30 49 45 92 45c18 0 46 -10 81 -29c35 -20 59 -30 71 -30c40 0 70 21 89 62v-81c-18 -31 -49 -46 -92 -46c-16 0 -42 10 -77 30c-35 19 -60 29 -75 29z" />
    <glyph glyph-name="exclamdown" unicode="&#xa1;" horiz-adv-x="210" 
d="M60 -165l26 470h38l26 -470h-90zM62 484h87v-108h-87v108z" />
    <glyph glyph-name="cent" unicode="&#xa2;" 
d="M264 -10h-43v83c-62 0 -109 15 -128 75c-6 21 -10 49 -10 83v178c0 65 11 113 40 137c29 22 53 29 98 30v83h43v-83c32 -2 62 -7 90 -14v-66c-43 13 -80 20 -112 20c-38 0 -62 -5 -73 -16s-17 -37 -17 -78v-200c0 -36 6 -59 19 -70s39 -16 79 -16c35 0 72 6 109 19v-68
c-24 -8 -56 -13 -95 -14v-83z" />
    <glyph glyph-name="sterling" unicode="&#xa3;" 
d="M402 0h-345v65h83v252h-83v62h83v92c0 73 9 126 39 155c28 29 59 33 111 33c30 0 55 -2 76 -5v-60c-17 3 -34 5 -51 5h-7c-41 0 -68 -7 -81 -22s-19 -49 -19 -100v-98h128v-62h-128v-252h194v-65z" />
    <glyph glyph-name="currency" unicode="&#xa4;" 
d="M404 339c0 -57 -15 -112 -46 -163l40 -54l-19 -26l-41 54c-39 -41 -79 -61 -122 -61c-41 0 -80 20 -118 59l-41 -54l-19 26l40 54c-31 51 -46 106 -46 163s15 112 46 163l-40 54l19 26l41 -54c38 39 77 59 118 59c45 0 86 -19 122 -57l41 54l19 -26l-40 -54
c31 -51 46 -106 46 -163zM374 339c0 56 -15 104 -45 145s-67 61 -109 61c-44 0 -82 -20 -112 -59c-31 -40 -46 -90 -46 -149c0 -58 15 -107 46 -147c30 -41 68 -61 111 -61s80 21 110 62s45 91 45 148z" />
    <glyph glyph-name="yen" unicode="&#xa5;" 
d="M382 113h-127v-113h-73v113h-129v71h129v78l-6 13h-123v71h91l-138 303h83l129 -303h2l129 303h83l-139 -303h89v-71h-122l-5 -10v-81h127v-71z" />
    <glyph glyph-name="brokenbar" unicode="&#xa6;" horiz-adv-x="199" 
d="M120 298h-41v351h41v-351zM120 -190h-41v351h41v-351z" />
    <glyph glyph-name="section" unicode="&#xa7;" 
d="M181 362c-40 0 -65 -7 -65 -55v-79c0 -33 28 -49 83 -49h58c38 0 62 11 62 59v67c0 38 -25 57 -74 57h-64zM386 253c0 -49 -22 -88 -50 -99c23 -21 35 -48 35 -80v-51c0 -52 -15 -88 -45 -108c-29 -20 -70 -30 -122 -30c-43 0 -87 4 -132 12v69c46 -11 91 -17 134 -17
c30 0 55 4 72 11c17 8 26 24 26 48v47c0 48 -27 57 -67 57h-65c-67 0 -122 35 -122 118v75c0 39 16 67 49 85c-23 17 -34 43 -34 80v55c0 76 56 114 169 114c43 0 82 -4 118 -13v-64c-39 11 -80 16 -121 16c-37 0 -62 -5 -77 -14c-15 -10 -23 -26 -23 -47v-39
c0 -33 23 -49 68 -49h71c77 0 116 -38 116 -114v-62z" />
    <glyph glyph-name="dieresis" unicode="&#xa8;" horiz-adv-x="240" 
d="M90 565h-67v94h67v-94zM218 565h-68v94h68v-94z" />
    <glyph glyph-name="copyright" unicode="&#xa9;" horiz-adv-x="538" 
d="M391 253c0 -89 -37 -111 -112 -111c-44 0 -76 9 -93 26s-26 48 -26 95v136c0 92 45 121 119 121s112 -22 112 -111v-27h-55v19c0 58 -13 63 -59 63c-47 0 -59 -12 -59 -73v-120c0 -64 11 -73 59 -73c27 0 44 4 50 11s9 24 9 52v20h55v-28zM508 474v-308
c0 -116 -80 -154 -155 -169c-24 -5 -48 -7 -74 -7c-94 0 -180 23 -218 100c-11 22 -16 47 -16 76v307c0 123 81 163 161 179c23 5 48 7 73 7c68 0 131 -15 174 -50c30 -24 55 -72 55 -135zM449 164v317c0 81 -61 105 -114 115c-18 3 -36 5 -55 5c-44 0 -78 -7 -113 -21
c-33 -14 -63 -45 -63 -99v-317c0 -77 68 -99 121 -107c18 -3 37 -5 56 -5c40 0 69 6 104 19c33 12 64 41 64 93z" />
    <glyph glyph-name="ordfeminine" unicode="&#xaa;" horiz-adv-x="239" 
d="M162 582c0 31 -17 34 -43 34c-25 0 -51 -2 -77 -6v45c31 3 58 5 82 5c37 0 61 -6 72 -17c11 -12 16 -36 16 -73v-194h-48v27c-10 -21 -29 -32 -57 -32c-58 0 -81 14 -81 89c0 69 24 84 81 84h55v38zM77 458c0 -33 5 -47 29 -47h8c32 0 48 7 48 22v72h-53
c-28 0 -32 -9 -32 -47zM26 273v56h186v-56h-186z" />
    <glyph glyph-name="guillemotleft" unicode="&#xab;" horiz-adv-x="320" 
d="M162 70h-57l-75 192l75 192h57l-69 -192zM290 70h-57l-75 192l75 192h57l-69 -192z" />
    <glyph glyph-name="logicalnot" unicode="&#xac;" horiz-adv-x="375" 
d="M45 349h285v-234h-50v167h-235v67z" />
    <glyph glyph-name="uni00AD" unicode="&#xad;" horiz-adv-x="180" 
d="M181 233h-181v63h181v-63z" />
    <glyph glyph-name="registered" unicode="&#xae;" horiz-adv-x="538" 
d="M508 474v-308c0 -116 -80 -154 -155 -169c-24 -5 -48 -7 -74 -7c-94 0 -180 23 -218 100c-11 22 -16 47 -16 76v307c0 123 81 163 161 179c23 5 48 7 73 7c68 0 131 -15 174 -50c30 -24 55 -72 55 -135zM449 164v317c0 81 -61 105 -114 115c-18 3 -36 5 -55 5
c-44 0 -78 -7 -113 -21c-33 -14 -63 -45 -63 -99v-317c0 -77 68 -99 121 -107c18 -3 37 -5 56 -5c40 0 69 6 104 19c33 12 64 41 64 93zM386 368c0 -51 -30 -75 -68 -75l86 -163h-61l-76 156h-35v-156h-51v389h103c38 0 64 -5 79 -15c16 -10 23 -30 23 -61v-75zM335 437
c0 34 -18 34 -49 34h-54v-137h50c22 0 36 2 42 7c7 4 11 15 11 32v64z" />
    <glyph glyph-name="macron" unicode="&#xaf;" horiz-adv-x="224" 
d="M194 590h-164v59h164v-59z" />
    <glyph glyph-name="degree" unicode="&#xb0;" horiz-adv-x="305" 
d="M260 549v-79c0 -66 -26 -92 -72 -96c-9 -1 -21 -1 -35 -1c-36 0 -69 0 -88 23c-12 15 -20 41 -20 74v79c0 45 9 75 27 89c19 14 46 21 81 21s62 -7 80 -21s27 -44 27 -89zM153 421c35 0 55 3 55 49v87c0 51 -15 54 -55 54s-55 -3 -55 -54v-87c0 -46 19 -49 55 -49z" />
    <glyph glyph-name="plusminus" unicode="&#xb1;" horiz-adv-x="375" 
d="M212 515v-166h118v-67h-118v-167h-50v167h-117v67h117v166h50zM330 0h-285v67h285v-67z" />
    <glyph glyph-name="twosuperior" unicode="&#xb2;" horiz-adv-x="284" 
d="M254 273h-223v81c0 102 101 100 148 139c12 9 18 21 18 34v44c0 21 -24 32 -70 32c-23 0 -53 -4 -88 -13v57c34 7 66 11 95 11c42 0 72 -6 91 -18c18 -12 27 -33 27 -64v-60c0 -53 -50 -84 -84 -96c-22 -7 -41 -16 -58 -26c-18 -11 -27 -22 -27 -34v-29h171v-58z" />
    <glyph glyph-name="threesuperior" unicode="&#xb3;" horiz-adv-x="284" 
d="M206 408c0 37 -31 40 -64 40h-58v49h58c27 0 55 1 55 32v40c0 34 -30 35 -62 35c-19 0 -49 -2 -89 -6v56c35 3 67 5 96 5c74 0 111 -24 111 -73v-59c0 -26 -14 -43 -41 -51l1 -1c33 -9 50 -30 50 -64v-53c0 -32 -10 -54 -30 -67s-50 -20 -91 -20c-34 0 -70 3 -107 8v60
c35 -9 71 -14 107 -14c43 0 64 13 64 40v43z" />
    <glyph glyph-name="acute" unicode="&#xb4;" horiz-adv-x="179" 
d="M164 680l-93 -127h-56l68 127h81z" />
    <glyph glyph-name="mu" unicode="&#xb5;" horiz-adv-x="430" 
d="M371 0h-66v59c-8 -46 -48 -69 -120 -69c-22 0 -42 3 -59 8v-207h-67v693h67v-350c0 -41 10 -64 36 -73c11 -5 25 -7 42 -7c38 0 64 5 78 14s22 26 22 51v365h67v-484z" />
    <glyph glyph-name="paragraph" unicode="&#xb6;" horiz-adv-x="430" 
d="M374 633l-17 -17c-10 -11 -16 -23 -16 -37v-765h-39v792h-113v-792h-40v538c-50 0 -82 9 -97 28c-15 18 -22 58 -22 121c0 57 6 96 17 117s32 31 63 31h264v-16z" />
    <glyph glyph-name="periodcentered" unicode="&#xb7;" horiz-adv-x="192" 
d="M140 280h-87v108h87v-108z" />
    <glyph glyph-name="cedilla" unicode="&#xb8;" horiz-adv-x="178" 
d="M115 -133c0 31 -33 41 -59 41h-24c11 26 23 57 36 92h48l-20 -52c37 -1 70 -27 70 -78c0 -59 -41 -90 -85 -90c-25 0 -45 6 -61 19l16 45c15 -11 29 -17 44 -17c23 0 35 13 35 40z" />
    <glyph glyph-name="onesuperior" unicode="&#xb9;" horiz-adv-x="284" 
d="M193 273h-53v298l-84 -71v68l90 81h47v-376z" />
    <glyph glyph-name="ordmasculine" unicode="&#xba;" horiz-adv-x="252" 
d="M227 558v-93c0 -41 -8 -69 -29 -80c-23 -13 -38 -14 -72 -14s-65 0 -82 23c-12 14 -18 40 -18 71v93c0 44 7 74 28 88c23 13 38 14 72 14c45 0 81 -4 94 -45c4 -15 7 -34 7 -57zM126 412c35 0 48 2 48 46v109c0 48 -12 52 -48 52c-38 0 -49 -3 -49 -52v-109
c0 -44 14 -46 49 -46zM26 273v56h201v-56h-201z" />
    <glyph glyph-name="guillemotright" unicode="&#xbb;" horiz-adv-x="320" 
d="M162 262l-75 -192h-57l69 192l-69 192h57zM290 262l-75 -192h-57l69 192l-69 192h57z" />
    <glyph glyph-name="onequarter" unicode="&#xbc;" horiz-adv-x="717" 
d="M247 273h-53v298l-84 -71v68l90 81h47v-376zM174 0l309 649h61l-309 -649h-61zM681 85h-36v-85h-54v85h-165v50l157 241h62v-240h36v-51zM591 136l-1 169l-108 -169h109z" />
    <glyph glyph-name="onehalf" unicode="&#xbd;" horiz-adv-x="717" 
d="M247 273h-53v298l-84 -71v68l90 81h47v-376zM174 0l309 649h61l-309 -649h-61zM669 0h-223v81c0 102 101 100 149 139c11 9 17 21 17 34v44c0 21 -23 32 -70 32c-23 0 -52 -4 -87 -13v57c33 7 65 11 95 11c42 0 72 -6 90 -18s28 -33 28 -64v-60c0 -53 -51 -84 -85 -96
c-21 -7 -41 -16 -58 -26c-17 -11 -26 -22 -26 -34v-29h170v-58z" />
    <glyph glyph-name="threequarters" unicode="&#xbe;" horiz-adv-x="717" 
d="M206 408c0 37 -31 40 -64 40h-58v49h58c27 0 55 1 55 32v40c0 34 -30 35 -62 35c-19 0 -49 -2 -89 -6v56c35 3 67 5 96 5c74 0 111 -24 111 -73v-59c0 -26 -14 -43 -41 -51l1 -1c33 -9 50 -30 50 -64v-53c0 -32 -10 -54 -30 -67s-50 -20 -91 -20c-34 0 -70 3 -107 8v60
c35 -9 71 -14 107 -14c43 0 64 13 64 40v43zM681 85h-36v-85h-54v85h-165v50l157 241h62v-240h36v-51zM591 136l-1 169l-108 -169h109zM174 0l309 649h61l-309 -649h-61z" />
    <glyph glyph-name="questiondown" unicode="&#xbf;" horiz-adv-x="400" 
d="M197 -175c-94 0 -152 26 -152 141v50c0 93 46 132 89 167c22 17 49 44 49 87v43h68v-24c0 -67 -20 -119 -48 -146c-35 -34 -86 -60 -86 -140v-30c0 -31 8 -52 23 -62s39 -15 72 -15c35 0 82 7 143 21v-73c-53 -13 -105 -19 -158 -19zM174 484h87v-108h-87v108z" />
    <glyph glyph-name="Agrave" unicode="&#xc0;" horiz-adv-x="489" 
d="M478 0h-76l-55 197h-209l-55 -197h-72l194 649h84zM329 264l-83 293h-7l-82 -293h172zM269 693h-55l-94 127h82z" />
    <glyph glyph-name="Aacute" unicode="&#xc1;" horiz-adv-x="489" 
d="M478 0h-76l-55 197h-209l-55 -197h-72l194 649h84zM329 264l-83 293h-7l-82 -293h172zM352 830l-94 -127h-55l67 127h82z" />
    <glyph glyph-name="Acircumflex" unicode="&#xc2;" horiz-adv-x="489" 
d="M478 0h-76l-55 197h-209l-55 -197h-72l194 649h84zM329 264l-83 293h-7l-82 -293h172zM158 703l51 127h80l49 -127h-43l-47 87l-47 -87h-43z" />
    <glyph glyph-name="Atilde" unicode="&#xc3;" horiz-adv-x="489" 
d="M478 0h-76l-55 197h-209l-55 -197h-72l194 649h84zM329 264l-83 293h-7l-82 -293h172zM285 759c26 0 36 19 49 43v-69c-12 -26 -28 -39 -49 -39c-13 0 -29 6 -49 18c-21 12 -35 18 -45 18c-20 0 -36 -13 -48 -39v73c12 19 28 29 48 29c12 0 29 -6 49 -17s35 -17 45 -17z
" />
    <glyph glyph-name="Adieresis" unicode="&#xc4;" horiz-adv-x="489" 
d="M478 0h-76l-55 197h-209l-55 -197h-72l194 649h84zM329 264l-83 293h-7l-82 -293h172zM210 715h-67v94h67v-94zM338 715h-68v94h68v-94z" />
    <glyph glyph-name="Aring" unicode="&#xc5;" horiz-adv-x="489" 
d="M478 0h-76l-55 198h-208l-56 -198h-72l171 560c-29 11 -43 40 -43 86v13c0 69 23 98 71 102c8 1 20 1 35 1c35 0 68 0 86 -24c12 -17 19 -44 19 -79v-13c0 -43 -13 -71 -39 -85zM245 596c34 0 55 3 55 47v14c0 48 -17 52 -55 52c-39 0 -56 -4 -56 -52v-14
c0 -45 19 -47 56 -47zM329 264l-80 281h-13l-79 -281h172z" />
    <glyph glyph-name="AE" unicode="&#xc6;" horiz-adv-x="692" 
d="M655 0h-312v197h-185l-76 -197h-82l269 649h378v-68h-231v-212h207v-68h-207v-233h239v-68zM343 264v317h-36l-123 -317h159z" />
    <glyph glyph-name="Ccedilla" unicode="&#xc7;" horiz-adv-x="423" 
d="M254 593c-73 0 -136 -19 -136 -118v-304c0 -75 46 -112 139 -112c40 0 84 8 132 24v-74c-39 -11 -79 -18 -120 -19l-15 -42c36 -1 69 -27 69 -78c0 -59 -40 -90 -84 -90c-25 0 -45 6 -61 19l16 45c15 -11 29 -17 43 -17c23 0 35 13 35 40c0 31 -32 41 -58 41h-25
c11 25 22 53 34 83c-117 9 -175 67 -175 175v308c0 124 68 186 205 186c45 0 90 -6 133 -19v-72c-48 16 -92 24 -132 24z" />
    <glyph glyph-name="Egrave" unicode="&#xc8;" 
d="M398 0h-335v649h327v-68h-254v-212h229v-68h-229v-233h262v-68zM262 703h-56l-93 127h81z" />
    <glyph glyph-name="Eacute" unicode="&#xc9;" 
d="M398 0h-335v649h327v-68h-254v-212h229v-68h-229v-233h262v-68zM314 830l-93 -127h-56l68 127h81z" />
    <glyph glyph-name="Ecircumflex" unicode="&#xca;" 
d="M398 0h-335v649h327v-68h-254v-212h229v-68h-229v-233h262v-68zM135 703l51 127h80l50 -127h-44l-46 87l-47 -87h-44z" />
    <glyph glyph-name="Edieresis" unicode="&#xcb;" 
d="M398 0h-335v649h327v-68h-254v-212h229v-68h-229v-233h262v-68zM200 715h-68v94h68v-94zM327 715h-67v94h67v-94z" />
    <glyph glyph-name="Igrave" unicode="&#xcc;" horiz-adv-x="199" 
d="M136 0h-73v649h73v-649zM130 703h-56l-94 127h82z" />
    <glyph glyph-name="Iacute" unicode="&#xcd;" horiz-adv-x="199" 
d="M136 0h-73v649h73v-649zM212 830l-93 -127h-56l68 127h81z" />
    <glyph glyph-name="Icircumflex" unicode="&#xce;" horiz-adv-x="199" 
d="M136 0h-73v649h73v-649zM8 703l51 127h81l49 -127h-43l-47 87l-47 -87h-44z" />
    <glyph glyph-name="Idieresis" unicode="&#xcf;" horiz-adv-x="199" 
d="M136 0h-73v649h73v-649zM71 715h-68v94h68v-94zM198 715h-67v94h67v-94z" />
    <glyph glyph-name="Eth" unicode="&#xd0;" horiz-adv-x="509" 
d="M63 301h-48v68h48v280h194c136 0 204 -62 204 -186v-287c0 -117 -68 -176 -204 -176h-194v301zM392 464c0 99 -63 118 -136 118h-120v-213h79v-68h-79v-235h116c93 0 140 37 140 112v286z" />
    <glyph glyph-name="Ntilde" unicode="&#xd1;" horiz-adv-x="542" 
d="M479 0h-87l-265 545v-545h-64v649h88l265 -536v536h63v-649zM318 759c26 0 36 19 49 43v-69c-12 -26 -28 -39 -49 -39c-13 0 -29 6 -49 18c-21 12 -35 18 -45 18c-20 0 -36 -13 -48 -39v73c12 19 28 29 48 29c12 0 29 -6 49 -17s35 -17 45 -17z" />
    <glyph glyph-name="Ograve" unicode="&#xd2;" horiz-adv-x="509" 
d="M460 474v-308c0 -112 -65 -153 -137 -169c-21 -5 -45 -7 -69 -7c-136 0 -204 59 -204 176v307c0 124 68 186 204 186c137 0 206 -62 206 -185zM254 596c-73 0 -135 -22 -135 -120v-309c0 -75 45 -112 136 -112c89 0 134 37 134 112v309c0 80 -45 120 -135 120zM277 703
h-56l-93 127h81z" />
    <glyph glyph-name="Oacute" unicode="&#xd3;" horiz-adv-x="509" 
d="M460 474v-308c0 -112 -65 -153 -137 -169c-21 -5 -45 -7 -69 -7c-136 0 -204 59 -204 176v307c0 124 68 186 204 186c137 0 206 -62 206 -185zM254 596c-73 0 -135 -22 -135 -120v-309c0 -75 45 -112 136 -112c89 0 134 37 134 112v309c0 80 -45 120 -135 120zM352 830
l-94 -127h-55l67 127h82z" />
    <glyph glyph-name="Ocircumflex" unicode="&#xd4;" horiz-adv-x="509" 
d="M460 474v-308c0 -112 -65 -153 -137 -169c-21 -5 -45 -7 -69 -7c-136 0 -204 59 -204 176v307c0 124 68 186 204 186c137 0 206 -62 206 -185zM254 596c-73 0 -135 -22 -135 -120v-309c0 -75 45 -112 136 -112c89 0 134 37 134 112v309c0 80 -45 120 -135 120zM165 703
l51 127h80l50 -127h-44l-46 87l-47 -87h-44z" />
    <glyph glyph-name="Otilde" unicode="&#xd5;" horiz-adv-x="509" 
d="M460 474v-308c0 -112 -65 -153 -137 -169c-21 -5 -45 -7 -69 -7c-136 0 -204 59 -204 176v307c0 124 68 186 204 186c137 0 206 -62 206 -185zM254 596c-73 0 -135 -22 -135 -120v-309c0 -75 45 -112 136 -112c89 0 134 37 134 112v309c0 80 -45 120 -135 120zM278 759
c26 0 36 19 48 43v-69c-11 -26 -27 -39 -48 -39c-13 0 -30 6 -50 18s-35 18 -44 18c-20 0 -36 -13 -49 -39v73c12 19 28 29 49 29c12 0 28 -6 49 -17c20 -11 35 -17 45 -17z" />
    <glyph glyph-name="Odieresis" unicode="&#xd6;" horiz-adv-x="509" 
d="M460 474v-308c0 -112 -65 -153 -137 -169c-21 -5 -45 -7 -69 -7c-136 0 -204 59 -204 176v307c0 124 68 186 204 186c137 0 206 -62 206 -185zM254 596c-73 0 -135 -22 -135 -120v-309c0 -75 45 -112 136 -112c89 0 134 37 134 112v309c0 80 -45 120 -135 120zM218 715
h-68v94h68v-94zM345 715h-67v94h67v-94z" />
    <glyph glyph-name="multiply" unicode="&#xd7;" horiz-adv-x="375" 
d="M89 494l98 -132l100 133l35 -48l-99 -132l99 -132l-35 -48l-100 132l-98 -131l-36 47l99 132l-99 132z" />
    <glyph glyph-name="Oslash" unicode="&#xd8;" horiz-adv-x="509" 
d="M460 474v-308c0 -112 -65 -153 -137 -169c-21 -5 -45 -7 -69 -7c-136 0 -204 59 -204 176v307c0 124 68 186 204 186c137 0 206 -62 206 -185zM254 596c-73 0 -135 -22 -135 -120v-309c0 -13 1 -22 2 -27l235 426c-22 20 -56 30 -102 30zM389 167v309c0 11 0 21 -2 31
l-235 -424c22 -19 56 -28 103 -28c89 0 134 37 134 112z" />
    <glyph glyph-name="Ugrave" unicode="&#xd9;" horiz-adv-x="507" 
d="M254 55c71 0 120 21 120 112v482h69v-483c0 -117 -63 -176 -190 -176c-105 0 -190 35 -190 176v483h70v-482c0 -91 51 -112 121 -112zM300 703h-55l-94 127h82z" />
    <glyph glyph-name="Uacute" unicode="&#xda;" horiz-adv-x="507" 
d="M254 55c71 0 120 21 120 112v482h69v-483c0 -117 -63 -176 -190 -176c-105 0 -190 35 -190 176v483h70v-482c0 -91 51 -112 121 -112zM345 830l-94 -127h-55l67 127h82z" />
    <glyph glyph-name="Ucircumflex" unicode="&#xdb;" horiz-adv-x="507" 
d="M254 55c71 0 120 21 120 112v482h69v-483c0 -117 -63 -176 -190 -176c-105 0 -190 35 -190 176v483h70v-482c0 -91 51 -112 121 -112zM158 703l51 127h81l49 -127h-43l-47 87l-47 -87h-44z" />
    <glyph glyph-name="Udieresis" unicode="&#xdc;" horiz-adv-x="507" 
d="M254 55c71 0 120 21 120 112v482h69v-483c0 -117 -63 -176 -190 -176c-105 0 -190 35 -190 176v483h70v-482c0 -91 51 -112 121 -112zM218 715h-67v94h67v-94zM346 715h-68v94h68v-94z" />
    <glyph glyph-name="Yacute" unicode="&#xdd;" horiz-adv-x="438" 
d="M432 649l-177 -384v-265h-73v262l-176 387h83l130 -305l130 305h83zM314 830l-93 -127h-56l68 127h81z" />
    <glyph glyph-name="Thorn" unicode="&#xde;" horiz-adv-x="428" 
d="M323 394c0 70 -54 79 -106 79h-81v-293h82c29 0 54 7 74 22c20 14 31 39 31 74v118zM136 0h-73v649h73v-115h86c53 0 105 -3 137 -32c20 -19 35 -51 35 -96v-135c0 -55 -16 -94 -49 -117c-32 -23 -77 -35 -136 -35h-73v-119z" />
    <glyph glyph-name="germandbls" unicode="&#xdf;" horiz-adv-x="452" 
d="M320 343c45 -10 87 -40 87 -105v-109c0 -47 -14 -81 -41 -100s-71 -29 -132 -29h-45v64h49c36 0 62 5 77 15s23 27 23 51v101c0 36 -12 55 -33 64c-25 9 -35 9 -67 9h-49v61h46c52 0 85 14 85 77v86c0 58 -41 67 -91 67c-42 0 -70 -6 -82 -18c-13 -12 -19 -40 -19 -83
v-494h-69v474c0 72 12 121 36 147c24 25 68 38 134 38c42 0 75 -6 98 -17c41 -19 58 -42 58 -106v-97c0 -60 -26 -80 -65 -92v-4z" />
    <glyph glyph-name="agrave" unicode="&#xe0;" horiz-adv-x="404" 
d="M345 0h-65v46c-6 -37 -42 -56 -110 -56c-50 0 -84 10 -104 31c-19 20 -28 61 -28 123c0 54 9 91 27 112c18 20 52 30 104 30h109v77c0 27 -7 45 -19 54s-35 14 -69 14c-37 0 -79 -4 -125 -12v66c50 6 95 9 135 9c60 0 100 -10 118 -29c18 -20 27 -61 27 -123v-342z
M104 141c0 -69 11 -92 64 -92h14c38 0 96 -2 96 49v132h-105c-61 0 -69 -10 -69 -89zM239 553h-55l-94 127h82z" />
    <glyph glyph-name="aacute" unicode="&#xe1;" horiz-adv-x="404" 
d="M345 0h-65v46c-6 -37 -42 -56 -110 -56c-50 0 -84 10 -104 31c-19 20 -28 61 -28 123c0 54 9 91 27 112c18 20 52 30 104 30h109v77c0 27 -7 45 -19 54s-35 14 -69 14c-37 0 -79 -4 -125 -12v66c50 6 95 9 135 9c60 0 100 -10 118 -29c18 -20 27 -61 27 -123v-342z
M104 141c0 -69 11 -92 64 -92h14c38 0 96 -2 96 49v132h-105c-61 0 -69 -10 -69 -89zM292 680l-94 -127h-55l67 127h82z" />
    <glyph glyph-name="acircumflex" unicode="&#xe2;" horiz-adv-x="404" 
d="M345 0h-65v46c-6 -37 -42 -56 -110 -56c-50 0 -84 10 -104 31c-19 20 -28 61 -28 123c0 54 9 91 27 112c18 20 52 30 104 30h109v77c0 27 -7 45 -19 54s-35 14 -69 14c-37 0 -79 -4 -125 -12v66c50 6 95 9 135 9c60 0 100 -10 118 -29c18 -20 27 -61 27 -123v-342z
M104 141c0 -69 11 -92 64 -92h14c38 0 96 -2 96 49v132h-105c-61 0 -69 -10 -69 -89zM105 553l51 127h80l50 -127h-44l-46 87l-47 -87h-44z" />
    <glyph glyph-name="atilde" unicode="&#xe3;" horiz-adv-x="404" 
d="M345 0h-65v46c-6 -37 -42 -56 -110 -56c-50 0 -84 10 -104 31c-19 20 -28 61 -28 123c0 54 9 91 27 112c18 20 52 30 104 30h109v77c0 27 -7 45 -19 54s-35 14 -69 14c-37 0 -79 -4 -125 -12v66c50 6 95 9 135 9c60 0 100 -10 118 -29c18 -20 27 -61 27 -123v-342z
M104 141c0 -69 11 -92 64 -92h14c38 0 96 -2 96 49v132h-105c-61 0 -69 -10 -69 -89zM249 609c26 0 36 19 49 43v-69c-12 -26 -28 -39 -49 -39c-13 0 -29 6 -49 18c-21 12 -35 18 -45 18c-20 0 -36 -13 -48 -39v73c12 19 28 29 48 29c12 0 29 -6 49 -17s35 -17 45 -17z" />
    <glyph glyph-name="adieresis" unicode="&#xe4;" horiz-adv-x="404" 
d="M345 0h-65v46c-6 -37 -42 -56 -110 -56c-50 0 -84 10 -104 31c-19 20 -28 61 -28 123c0 54 9 91 27 112c18 20 52 30 104 30h109v77c0 27 -7 45 -19 54s-35 14 -69 14c-37 0 -79 -4 -125 -12v66c50 6 95 9 135 9c60 0 100 -10 118 -29c18 -20 27 -61 27 -123v-342z
M104 141c0 -69 11 -92 64 -92h14c38 0 96 -2 96 49v132h-105c-61 0 -69 -10 -69 -89zM165 565h-67v94h67v-94zM293 565h-68v94h68v-94z" />
    <glyph glyph-name="aring" unicode="&#xe5;" horiz-adv-x="404" 
d="M345 0h-65v46c-6 -37 -42 -56 -110 -56c-50 0 -84 10 -104 31c-19 20 -28 61 -28 123c0 54 9 91 27 112c18 20 52 30 104 30h109v77c0 27 -7 45 -19 54s-35 14 -69 14c-37 0 -79 -4 -125 -12v66c50 6 95 9 135 9c60 0 100 -10 118 -29c18 -20 27 -61 27 -123v-342z
M104 141c0 -69 11 -92 64 -92h14c38 0 96 -2 96 49v132h-105c-61 0 -69 -10 -69 -89zM302 663v-12c0 -43 -7 -71 -29 -84c-23 -13 -37 -14 -72 -14s-49 0 -72 14c-21 13 -28 41 -28 84v12c0 45 6 76 28 90c23 14 37 14 72 14c34 0 66 -1 83 -24c11 -17 18 -46 18 -80z
M201 595c38 0 53 2 53 49v27c0 51 -14 54 -53 54s-52 -3 -52 -54v-27c0 -47 14 -49 52 -49z" />
    <glyph glyph-name="ae" unicode="&#xe6;" horiz-adv-x="630" 
d="M438 494c100 0 148 -35 148 -165v-107h-236v-73c0 -76 41 -94 103 -94c32 0 71 8 119 24v-69c-46 -13 -89 -20 -130 -20c-64 0 -109 19 -136 57c-7 -38 -52 -57 -133 -57c-53 0 -89 10 -107 30c-19 19 -28 59 -28 120c0 56 8 94 26 115s53 31 105 31h112v75
c0 61 -33 70 -85 70c-55 0 -99 -6 -131 -17v66c38 9 84 14 140 14c59 0 99 -12 118 -35c25 23 63 35 115 35zM435 434c-53 0 -85 -11 -85 -77v-76h168v76c0 67 -28 77 -83 77zM176 47c48 0 105 -2 105 62v121h-108c-61 0 -69 -10 -69 -89c0 -77 11 -94 72 -94z" />
    <glyph glyph-name="ccedilla" unicode="&#xe7;" horiz-adv-x="348" 
d="M231 -133c0 31 -32 41 -58 41h-25c12 27 23 55 33 82c-47 2 -87 8 -110 43c-17 24 -26 65 -26 115v178c0 50 6 90 23 116c17 24 30 38 60 45c32 6 46 7 84 7c35 0 69 -5 104 -15v-66c-39 13 -77 20 -112 20c-38 0 -63 -5 -74 -16s-16 -37 -16 -78v-200
c0 -35 6 -58 19 -69c12 -11 39 -17 79 -17c35 0 72 6 109 19v-68c-29 -7 -60 -12 -93 -13l-16 -43c37 -1 70 -27 70 -78c0 -59 -41 -90 -85 -90c-24 0 -45 6 -60 19l15 45c15 -11 30 -17 44 -17c23 0 35 13 35 40z" />
    <glyph glyph-name="egrave" unicode="&#xe8;" horiz-adv-x="401" 
d="M206 494c99 0 151 -36 151 -165v-107h-244v-73c0 -76 46 -94 108 -94c34 0 75 8 122 24v-69c-45 -13 -89 -20 -131 -20c-111 0 -167 49 -167 148v191c0 129 58 165 161 165zM202 434c-53 0 -89 -11 -89 -77v-76h177v76c0 66 -34 77 -88 77zM239 553h-55l-94 127h82z" />
    <glyph glyph-name="eacute" unicode="&#xe9;" horiz-adv-x="401" 
d="M206 494c99 0 151 -36 151 -165v-107h-244v-73c0 -76 46 -94 108 -94c34 0 75 8 122 24v-69c-45 -13 -89 -20 -131 -20c-111 0 -167 49 -167 148v191c0 129 58 165 161 165zM202 434c-53 0 -89 -11 -89 -77v-76h177v76c0 66 -34 77 -88 77zM299 680l-93 -127h-56l68 127
h81z" />
    <glyph glyph-name="ecircumflex" unicode="&#xea;" horiz-adv-x="401" 
d="M206 494c99 0 151 -36 151 -165v-107h-244v-73c0 -76 46 -94 108 -94c34 0 75 8 122 24v-69c-45 -13 -89 -20 -131 -20c-111 0 -167 49 -167 148v191c0 129 58 165 161 165zM202 434c-53 0 -89 -11 -89 -77v-76h177v76c0 66 -34 77 -88 77zM105 553l51 127h80l50 -127
h-44l-46 87l-47 -87h-44z" />
    <glyph glyph-name="edieresis" unicode="&#xeb;" horiz-adv-x="401" 
d="M206 494c99 0 151 -36 151 -165v-107h-244v-73c0 -76 46 -94 108 -94c34 0 75 8 122 24v-69c-45 -13 -89 -20 -131 -20c-111 0 -167 49 -167 148v191c0 129 58 165 161 165zM202 434c-53 0 -89 -11 -89 -77v-76h177v76c0 66 -34 77 -88 77zM165 565h-67v94h67v-94z
M293 565h-68v94h68v-94z" />
    <glyph glyph-name="igrave" unicode="&#xec;" horiz-adv-x="185" 
d="M127 0h-68v484h68v-484zM169 553h-56l-93 127h81z" />
    <glyph glyph-name="iacute" unicode="&#xed;" horiz-adv-x="185" 
d="M127 0h-68v484h68v-484zM209 680l-94 -127h-56l68 127h82z" />
    <glyph glyph-name="icircumflex" unicode="&#xee;" horiz-adv-x="185" 
d="M127 0h-68v484h68v-484zM5 553l51 127h81l49 -127h-43l-47 87l-47 -87h-44z" />
    <glyph glyph-name="idieresis" unicode="&#xef;" horiz-adv-x="185" 
d="M127 0h-68v484h68v-484zM64 565h-68v94h68v-94zM191 565h-67v94h67v-94z" />
    <glyph glyph-name="eth" unicode="&#xf0;" horiz-adv-x="426" 
d="M142 565v57l57 23c-9 13 -22 31 -40 55h80l23 -30l76 30v-57l-46 -18c57 -93 86 -195 86 -304v-168c0 -81 -15 -132 -61 -150c-36 -14 -57 -13 -105 -13s-69 -1 -105 13c-31 12 -43 33 -53 74c-5 20 -7 45 -7 76v168c0 82 15 138 61 158c34 14 58 15 104 15
c29 0 52 -1 70 -4c-16 40 -33 76 -53 109zM311 140v196c0 45 -7 73 -21 84c-13 11 -39 16 -78 16c-38 0 -64 -5 -78 -16c-13 -11 -20 -39 -20 -84v-196c0 -41 7 -66 21 -76c14 -11 40 -16 77 -16c38 0 63 5 78 16c14 10 21 35 21 76z" />
    <glyph glyph-name="ntilde" unicode="&#xf1;" horiz-adv-x="430" 
d="M245 494c86 0 126 -33 126 -139v-355h-67v350c0 41 -10 64 -36 74c-11 4 -25 6 -42 6c-40 0 -66 -6 -80 -17c-13 -11 -20 -32 -20 -63v-350h-67v484h67v-59c7 46 47 69 119 69zM255 609c26 0 36 19 49 43v-69c-12 -26 -28 -39 -49 -39c-13 0 -29 6 -49 18
c-21 12 -35 18 -45 18c-20 0 -36 -13 -48 -39v73c12 19 28 29 48 29c12 0 29 -6 49 -17s35 -17 45 -17z" />
    <glyph glyph-name="ograve" unicode="&#xf2;" horiz-adv-x="426" 
d="M380 321v-168c0 -81 -19 -132 -66 -150c-35 -13 -56 -13 -102 -13c-57 0 -83 0 -120 24c-35 21 -47 68 -47 139v168c0 84 18 141 66 160c35 14 54 13 101 13c48 0 66 1 102 -13c33 -14 46 -36 57 -79c6 -22 9 -49 9 -81zM311 140v196c0 45 -7 72 -21 83
c-13 11 -39 16 -78 16c-38 0 -64 -5 -78 -16c-13 -11 -20 -38 -20 -83v-196c0 -40 5 -66 25 -78c22 -14 38 -13 73 -13c36 0 51 -1 74 13c20 12 25 38 25 78zM247 553h-56l-93 127h81z" />
    <glyph glyph-name="oacute" unicode="&#xf3;" horiz-adv-x="426" 
d="M380 321v-168c0 -81 -19 -132 -66 -150c-35 -13 -56 -13 -102 -13c-57 0 -83 0 -120 24c-35 21 -47 68 -47 139v168c0 84 18 141 66 160c35 14 54 13 101 13c48 0 66 1 102 -13c33 -14 46 -36 57 -79c6 -22 9 -49 9 -81zM311 140v196c0 45 -7 72 -21 83
c-13 11 -39 16 -78 16c-38 0 -64 -5 -78 -16c-13 -11 -20 -38 -20 -83v-196c0 -40 5 -66 25 -78c22 -14 38 -13 73 -13c36 0 51 -1 74 13c20 12 25 38 25 78zM307 680l-94 -127h-55l67 127h82z" />
    <glyph glyph-name="ocircumflex" unicode="&#xf4;" horiz-adv-x="426" 
d="M380 321v-168c0 -81 -19 -132 -66 -150c-35 -13 -56 -13 -102 -13c-57 0 -83 0 -120 24c-35 21 -47 68 -47 139v168c0 84 18 141 66 160c35 14 54 13 101 13c48 0 66 1 102 -13c33 -14 46 -36 57 -79c6 -22 9 -49 9 -81zM311 140v196c0 45 -7 72 -21 83
c-13 11 -39 16 -78 16c-38 0 -64 -5 -78 -16c-13 -11 -20 -38 -20 -83v-196c0 -40 5 -66 25 -78c22 -14 38 -13 73 -13c36 0 51 -1 74 13c20 12 25 38 25 78zM123 553l51 127h80l50 -127h-44l-46 87l-47 -87h-44z" />
    <glyph glyph-name="otilde" unicode="&#xf5;" horiz-adv-x="426" 
d="M380 321v-168c0 -81 -19 -132 -66 -150c-35 -13 -56 -13 -102 -13c-57 0 -83 0 -120 24c-35 21 -47 68 -47 139v168c0 84 18 141 66 160c35 14 54 13 101 13c48 0 66 1 102 -13c33 -14 46 -36 57 -79c6 -22 9 -49 9 -81zM311 140v196c0 45 -7 72 -21 83
c-13 11 -39 16 -78 16c-38 0 -64 -5 -78 -16c-13 -11 -20 -38 -20 -83v-196c0 -40 5 -66 25 -78c22 -14 38 -13 73 -13c36 0 51 -1 74 13c20 12 25 38 25 78zM260 609c27 0 37 19 49 43v-69c-11 -26 -28 -39 -49 -39c-13 0 -29 6 -49 18s-35 18 -44 18
c-21 0 -37 -13 -49 -39v73c12 19 28 29 49 29c12 0 28 -6 48 -17c21 -11 36 -17 45 -17z" />
    <glyph glyph-name="odieresis" unicode="&#xf6;" horiz-adv-x="426" 
d="M380 321v-168c0 -81 -19 -132 -66 -150c-35 -13 -56 -13 -102 -13c-57 0 -83 0 -120 24c-35 21 -47 68 -47 139v168c0 84 18 141 66 160c35 14 54 13 101 13c48 0 66 1 102 -13c33 -14 46 -36 57 -79c6 -22 9 -49 9 -81zM311 140v196c0 45 -7 72 -21 83
c-13 11 -39 16 -78 16c-38 0 -64 -5 -78 -16c-13 -11 -20 -38 -20 -83v-196c0 -40 5 -66 25 -78c22 -14 38 -13 73 -13c36 0 51 -1 74 13c20 12 25 38 25 78zM183 565h-67v94h67v-94zM311 565h-68v94h68v-94z" />
    <glyph glyph-name="divide" unicode="&#xf7;" horiz-adv-x="375" 
d="M330 282h-285v67h285v-67zM231 447h-87v108h87v-108zM231 71h-87v108h87v-108z" />
    <glyph glyph-name="oslash" unicode="&#xf8;" horiz-adv-x="426" 
d="M380 321v-168c0 -81 -19 -132 -66 -150c-35 -13 -56 -13 -102 -13c-57 0 -83 0 -120 24c-35 21 -47 68 -47 139v168c0 84 18 141 66 160c35 14 54 13 101 13c48 0 66 1 102 -13c33 -14 46 -36 57 -79c6 -22 9 -49 9 -81zM280 426c-12 6 -35 9 -68 9c-38 0 -64 -5 -78 -16
c-13 -11 -20 -38 -20 -83v-196c0 -21 2 -37 5 -48zM311 140v196c0 20 -2 38 -6 53l-159 -332c12 -5 34 -8 66 -8c36 0 51 -1 74 13c20 12 25 38 25 78z" />
    <glyph glyph-name="ugrave" unicode="&#xf9;" horiz-adv-x="430" 
d="M185 -10c-87 0 -126 33 -126 139v355h67v-350c0 -41 10 -64 36 -73c11 -5 25 -7 42 -7c38 0 64 5 78 14s22 26 22 51v365h67v-484h-67v59c-7 -46 -47 -69 -119 -69zM254 553h-55l-94 127h82z" />
    <glyph glyph-name="uacute" unicode="&#xfa;" horiz-adv-x="430" 
d="M185 -10c-87 0 -126 33 -126 139v355h67v-350c0 -41 10 -64 36 -73c11 -5 25 -7 42 -7c38 0 64 5 78 14s22 26 22 51v365h67v-484h-67v59c-7 -46 -47 -69 -119 -69zM314 680l-93 -127h-56l68 127h81z" />
    <glyph glyph-name="ucircumflex" unicode="&#xfb;" horiz-adv-x="430" 
d="M185 -10c-87 0 -126 33 -126 139v355h67v-350c0 -41 10 -64 36 -73c11 -5 25 -7 42 -7c38 0 64 5 78 14s22 26 22 51v365h67v-484h-67v59c-7 -46 -47 -69 -119 -69zM120 553l51 127h80l50 -127h-44l-46 87l-47 -87h-44z" />
    <glyph glyph-name="udieresis" unicode="&#xfc;" horiz-adv-x="430" 
d="M185 -10c-87 0 -126 33 -126 139v355h67v-350c0 -41 10 -64 36 -73c11 -5 25 -7 42 -7c38 0 64 5 78 14s22 26 22 51v365h67v-484h-67v59c-7 -46 -47 -69 -119 -69zM180 565h-67v94h67v-94zM308 565h-68v94h68v-94z" />
    <glyph glyph-name="yacute" unicode="&#xfd;" horiz-adv-x="345" 
d="M341 484l-183 -692h-70l57 201l-140 491h73l101 -395h2l91 395h69zM269 680l-93 -127h-56l68 127h81z" />
    <glyph glyph-name="thorn" unicode="&#xfe;" horiz-adv-x="434" 
d="M320 147v178c0 45 -7 73 -21 86c-15 12 -41 18 -78 18s-63 -6 -77 -18c-15 -13 -22 -41 -22 -86v-178c0 -41 8 -67 22 -78c15 -12 41 -18 78 -18s63 6 77 18c14 11 21 37 21 78zM221 -10c-35 0 -84 11 -95 41v-239h-67v908h67v-268c5 41 47 62 124 62
c48 0 84 -13 106 -40s33 -60 33 -97v-199c0 -109 -44 -157 -117 -166c-15 -1 -31 -2 -51 -2z" />
    <glyph glyph-name="ydieresis" unicode="&#xff;" horiz-adv-x="345" 
d="M341 484l-183 -692h-70l57 201l-140 491h73l101 -395h2l91 395h69zM135 565h-67v94h67v-94zM263 565h-68v94h68v-94z" />
    <glyph glyph-name="Amacron" unicode="&#x100;" horiz-adv-x="489" 
d="M478 0h-76l-55 197h-209l-55 -197h-72l194 649h84zM329 264l-83 293h-7l-82 -293h172zM325 739h-164v59h164v-59z" />
    <glyph glyph-name="amacron" unicode="&#x101;" horiz-adv-x="404" 
d="M345 0h-65v46c-6 -37 -42 -56 -110 -56c-50 0 -84 10 -104 31c-19 20 -28 61 -28 123c0 54 9 91 27 112c18 20 52 30 104 30h109v77c0 27 -7 45 -19 54s-35 14 -69 14c-37 0 -79 -4 -125 -12v66c50 6 95 9 135 9c60 0 100 -10 118 -29c18 -20 27 -61 27 -123v-342z
M104 141c0 -69 11 -92 64 -92h14c38 0 96 -2 96 49v132h-105c-61 0 -69 -10 -69 -89zM284 590h-164v59h164v-59z" />
    <glyph glyph-name="Abreve" unicode="&#x102;" horiz-adv-x="489" 
d="M478 0h-76l-55 197h-209l-55 -197h-72l194 649h84zM329 264l-83 293h-7l-82 -293h172zM242 762c38 0 51 26 61 68h28c-4 -72 -33 -127 -89 -127s-85 54 -88 127h27c11 -43 22 -68 61 -68z" />
    <glyph glyph-name="abreve" unicode="&#x103;" horiz-adv-x="404" 
d="M345 0h-65v46c-6 -37 -42 -56 -110 -56c-50 0 -84 10 -104 31c-19 20 -28 61 -28 123c0 54 9 91 27 112c18 20 52 30 104 30h109v77c0 27 -7 45 -19 54s-35 14 -69 14c-37 0 -79 -4 -125 -12v66c50 6 95 9 135 9c60 0 100 -10 118 -29c18 -20 27 -61 27 -123v-342z
M104 141c0 -69 11 -92 64 -92h14c38 0 96 -2 96 49v132h-105c-61 0 -69 -10 -69 -89zM287 680c-2 -74 -32 -127 -88 -127s-87 53 -89 127h41c3 -45 19 -68 48 -68s45 23 48 68h40z" />
    <glyph glyph-name="Aogonek" unicode="&#x104;" horiz-adv-x="489" 
d="M461 -186c-48 0 -75 19 -75 80c0 27 6 63 16 106l-55 197h-209l-55 -197h-72l194 649h84l189 -649c-22 -35 -32 -67 -32 -97c0 -22 9 -33 29 -33c4 0 12 2 23 7v-53c-10 -7 -23 -10 -37 -10zM329 264l-83 293h-7l-82 -293h172z" />
    <glyph glyph-name="aogonek" unicode="&#x105;" horiz-adv-x="404" 
d="M327 -186c-47 0 -74 19 -74 80c0 33 9 69 27 106v46c-6 -37 -42 -56 -110 -56c-50 0 -84 10 -104 31c-19 20 -28 61 -28 123c0 54 9 91 27 112c18 20 52 30 104 30h109v77c0 27 -7 45 -19 54s-35 14 -69 14c-37 0 -79 -4 -125 -12v66c50 6 95 9 135 9
c60 0 100 -10 118 -29c18 -20 27 -61 27 -123v-342c-22 -32 -33 -64 -33 -97c0 -22 10 -33 29 -33c4 0 12 2 24 7v-53c-11 -7 -24 -10 -38 -10zM104 141c0 -70 11 -94 64 -94h14c38 0 96 -2 96 49v134h-105c-61 0 -69 -10 -69 -89z" />
    <glyph glyph-name="Cacute" unicode="&#x106;" horiz-adv-x="423" 
d="M254 593c-73 0 -136 -19 -136 -118v-304c0 -75 46 -112 139 -112c40 0 84 8 132 24v-74c-43 -13 -89 -19 -136 -19c-137 0 -205 59 -205 176v308c0 124 68 186 205 186c45 0 90 -6 133 -19v-72c-48 16 -92 24 -132 24zM348 830l-94 -127h-55l67 127h82z" />
    <glyph glyph-name="cacute" unicode="&#x107;" horiz-adv-x="348" 
d="M321 4c-33 -9 -72 -14 -116 -14c-45 0 -59 -1 -94 12c-32 11 -45 30 -57 71c-6 20 -9 45 -9 75v178c0 50 6 90 23 116c17 24 30 38 60 45c32 6 46 7 84 7c35 0 69 -5 104 -15v-66c-39 13 -77 20 -112 20c-37 0 -62 -6 -73 -18s-17 -37 -17 -76v-198c0 -35 6 -59 19 -70
c13 -12 39 -18 79 -18c35 0 72 6 109 19v-68zM306 680l-94 -127h-55l67 127h82z" />
    <glyph glyph-name="Ccircumflex" unicode="&#x108;" horiz-adv-x="423" 
d="M254 593c-73 0 -136 -19 -136 -118v-304c0 -75 46 -112 139 -112c40 0 84 8 132 24v-74c-43 -13 -89 -19 -136 -19c-137 0 -205 59 -205 176v308c0 124 68 186 205 186c45 0 90 -6 133 -19v-72c-48 16 -92 24 -132 24zM158 703l51 127h81l49 -127h-43l-47 87l-47 -87h-44
z" />
    <glyph glyph-name="ccircumflex" unicode="&#x109;" horiz-adv-x="348" 
d="M321 4c-33 -9 -72 -14 -116 -14c-45 0 -59 -1 -94 12c-32 11 -45 30 -57 71c-6 20 -9 45 -9 75v178c0 50 6 90 23 116c17 24 30 38 60 45c32 6 46 7 84 7c35 0 69 -5 104 -15v-66c-39 13 -77 20 -112 20c-37 0 -62 -6 -73 -18s-17 -37 -17 -76v-198c0 -35 6 -59 19 -70
c13 -12 39 -18 79 -18c35 0 72 6 109 19v-68zM114 553l51 127h80l50 -127h-44l-46 87l-47 -87h-44z" />
    <glyph glyph-name="Cdotaccent" unicode="&#x10a;" horiz-adv-x="423" 
d="M254 593c-73 0 -136 -19 -136 -118v-304c0 -75 46 -112 139 -112c40 0 84 8 132 24v-74c-43 -13 -89 -19 -136 -19c-137 0 -205 59 -205 176v308c0 124 68 186 205 186c45 0 90 -6 133 -19v-72c-48 16 -92 24 -132 24zM285 732h-67v98h67v-98z" />
    <glyph glyph-name="cdotaccent" unicode="&#x10b;" horiz-adv-x="348" 
d="M321 4c-33 -9 -72 -14 -116 -14c-45 0 -59 -1 -94 12c-32 11 -45 30 -57 71c-6 20 -9 45 -9 75v178c0 50 6 90 23 116c17 24 30 38 60 45c32 6 46 7 84 7c35 0 69 -5 104 -15v-66c-39 13 -77 20 -112 20c-37 0 -62 -6 -73 -18s-17 -37 -17 -76v-198c0 -35 6 -59 19 -70
c13 -12 39 -18 79 -18c35 0 72 6 109 19v-68zM237 568h-67v98h67v-98z" />
    <glyph glyph-name="Ccaron" unicode="&#x10c;" horiz-adv-x="423" 
d="M254 593c-73 0 -136 -19 -136 -118v-304c0 -75 46 -112 139 -112c40 0 84 8 132 24v-74c-43 -13 -89 -19 -136 -19c-137 0 -205 59 -205 176v308c0 124 68 186 205 186c45 0 90 -6 133 -19v-72c-48 16 -92 24 -132 24zM188 703l-51 127h44l47 -87l47 87h43l-49 -127h-81z
" />
    <glyph glyph-name="ccaron" unicode="&#x10d;" horiz-adv-x="348" 
d="M321 4c-33 -9 -72 -14 -116 -14c-45 0 -59 -1 -94 12c-32 11 -45 30 -57 71c-6 20 -9 45 -9 75v178c0 50 6 90 23 116c17 24 30 38 60 45c32 6 46 7 84 7c35 0 69 -5 104 -15v-66c-39 13 -77 20 -112 20c-37 0 -62 -6 -73 -18s-17 -37 -17 -76v-198c0 -35 6 -59 19 -70
c13 -12 39 -18 79 -18c35 0 72 6 109 19v-68zM160 553l-51 127h43l48 -87l46 87h44l-50 -127h-80z" />
    <glyph glyph-name="Dcaron" unicode="&#x10e;" horiz-adv-x="509" 
d="M461 463v-287c0 -117 -68 -176 -204 -176h-194v649h194c136 0 204 -62 204 -186zM392 464c0 99 -63 118 -136 118h-120v-516h116c93 0 140 37 140 112v286zM215 718l-51 127h44l47 -87l47 87h43l-49 -127h-81z" />
    <glyph glyph-name="dcaron" unicode="&#x10f;" horiz-adv-x="454" 
d="M192 494c43 0 115 -12 116 -62h2c-1 55 -2 96 -2 123v138h68v-693h-66v57c0 -17 -11 -33 -33 -46c-22 -14 -51 -21 -89 -21c-52 0 -89 11 -111 33c-21 22 -32 62 -32 121v213c0 111 55 137 147 137zM203 52c58 0 105 9 105 75v239c0 43 -33 65 -99 65
c-40 0 -67 -4 -79 -12s-18 -26 -18 -53v-239c0 -65 36 -75 91 -75zM527 679l-62 -150h-43l35 150h70z" />
    <glyph glyph-name="Dcroat" unicode="&#x110;" horiz-adv-x="509" 
d="M63 301h-48v68h48v280h194c136 0 204 -62 204 -186v-287c0 -117 -68 -176 -204 -176h-194v301zM392 464c0 99 -63 118 -136 118h-120v-213h79v-68h-79v-235h116c93 0 140 37 140 112v286z" />
    <glyph glyph-name="dcroat" unicode="&#x111;" horiz-adv-x="428" 
d="M192 494c43 0 115 -12 116 -62h2c-1 53 -2 94 -2 121h-78v52h78v95h68v-95h49v-52h-49v-553h-66v54c-1 -17 -13 -31 -34 -44c-22 -14 -51 -20 -88 -20c-52 0 -89 11 -111 33c-21 22 -32 62 -32 121v213c0 111 55 137 147 137zM203 52c58 0 105 9 105 75v239
c0 43 -33 65 -99 65c-40 0 -67 -4 -79 -12s-18 -26 -18 -53v-239c0 -65 36 -75 91 -75z" />
    <glyph glyph-name="Emacron" unicode="&#x112;" 
d="M398 0h-335v649h327v-68h-254v-212h229v-68h-229v-233h262v-68zM308 739h-163v59h163v-59z" />
    <glyph glyph-name="emacron" unicode="&#x113;" horiz-adv-x="401" 
d="M206 494c99 0 151 -36 151 -165v-107h-244v-73c0 -76 46 -94 108 -94c34 0 75 8 122 24v-69c-45 -13 -89 -20 -131 -20c-111 0 -167 49 -167 148v191c0 129 58 165 161 165zM202 434c-53 0 -89 -11 -89 -77v-76h177v76c0 66 -34 77 -88 77zM296 584h-180v63h180v-63z" />
    <glyph glyph-name="Ebreve" unicode="&#x114;" 
d="M398 0h-335v649h327v-68h-254v-212h229v-68h-229v-233h262v-68zM229 762c37 0 51 26 61 68h27c-3 -72 -32 -127 -88 -127c-57 0 -86 54 -89 127h27c12 -43 23 -68 62 -68z" />
    <glyph glyph-name="ebreve" unicode="&#x115;" horiz-adv-x="401" 
d="M206 494c99 0 151 -36 151 -165v-107h-244v-73c0 -76 46 -94 108 -94c34 0 75 8 122 24v-69c-45 -13 -89 -20 -131 -20c-111 0 -167 49 -167 148v191c0 129 58 165 161 165zM202 434c-53 0 -89 -11 -89 -77v-76h177v76c0 66 -34 77 -88 77zM297 680
c-2 -74 -32 -127 -88 -127c-57 0 -87 53 -89 127h41c3 -45 18 -68 48 -68c29 0 45 23 48 68h40z" />
    <glyph glyph-name="Edotaccent" unicode="&#x116;" 
d="M398 0h-335v649h327v-68h-254v-212h229v-68h-229v-233h262v-68zM260 732h-68v98h68v-98z" />
    <glyph glyph-name="edotaccent" unicode="&#x117;" horiz-adv-x="401" 
d="M206 494c99 0 151 -36 151 -165v-107h-244v-73c0 -76 46 -94 108 -94c34 0 75 8 122 24v-69c-45 -13 -89 -20 -131 -20c-111 0 -167 49 -167 148v191c0 129 58 165 161 165zM202 434c-53 0 -89 -11 -89 -77v-76h177v76c0 66 -34 77 -88 77zM237 568h-67v98h67v-98z" />
    <glyph glyph-name="Eogonek" unicode="&#x118;" 
d="M328 -186c-47 0 -74 20 -74 80c0 33 9 69 27 106h-218v649h327v-68h-254v-212h229v-68h-229v-233h262v-68h-61c-16 -33 -24 -66 -24 -97c0 -22 10 -33 29 -33c4 0 12 2 23 7v-53c-10 -7 -23 -10 -37 -10z" />
    <glyph glyph-name="eogonek" unicode="&#x119;" horiz-adv-x="401" 
d="M113 149c0 -77 47 -94 111 -94c32 0 72 8 119 24v-69c-27 -8 -51 -13 -72 -16c-14 -31 -21 -62 -21 -91c0 -22 10 -33 29 -33c4 0 12 2 23 7v-53c-10 -7 -23 -10 -37 -10c-47 0 -74 20 -74 80c0 32 7 64 21 96h-9c-86 0 -158 38 -158 148v191c0 129 58 165 161 165
c99 0 151 -36 151 -165v-107h-244v-73zM204 434c-55 0 -91 -9 -91 -77v-76h177v76c0 66 -32 77 -86 77z" />
    <glyph glyph-name="Ecaron" unicode="&#x11a;" 
d="M398 0h-335v649h327v-68h-254v-212h229v-68h-229v-233h262v-68zM187 703l-51 127h43l48 -87l46 87h44l-50 -127h-80z" />
    <glyph glyph-name="ecaron" unicode="&#x11b;" horiz-adv-x="401" 
d="M206 494c99 0 151 -36 151 -165v-107h-244v-73c0 -76 46 -94 108 -94c34 0 75 8 122 24v-69c-45 -13 -89 -20 -131 -20c-111 0 -167 49 -167 148v191c0 129 58 165 161 165zM202 434c-53 0 -89 -11 -89 -77v-76h177v76c0 66 -34 77 -88 77zM164 553l-51 127h43l47 -87
l47 87h43l-49 -127h-80z" />
    <glyph glyph-name="Gcircumflex" unicode="&#x11c;" horiz-adv-x="500" 
d="M440 568c-32 10 -127 24 -166 24c-103 0 -154 -39 -154 -118v-306c0 -74 54 -98 104 -107c16 -3 34 -5 53 -5c33 0 69 6 107 18v227h-114v68h182v-349c-66 -20 -125 -30 -180 -30c-91 0 -174 23 -209 100c-10 22 -15 47 -15 76v307c0 121 75 163 153 179c23 5 46 7 71 7
c60 0 116 -5 168 -16v-75zM159 718l51 127h80l50 -127h-44l-46 87l-47 -87h-44z" />
    <glyph glyph-name="gcircumflex" unicode="&#x11d;" horiz-adv-x="427" 
d="M45 334c0 124 51 160 149 160c63 0 100 -19 111 -57v47h63v-530c0 -69 -14 -115 -43 -139c-29 -23 -72 -35 -129 -35c-52 0 -93 4 -125 11v64c57 -9 101 -14 131 -14c61 0 99 19 99 95v116c-3 -52 -66 -62 -111 -62c-56 0 -94 11 -115 33c-20 22 -30 60 -30 114v197z
M301 131v219c0 31 -7 53 -19 65c-13 11 -40 17 -79 17c-38 0 -63 -6 -74 -17s-17 -33 -17 -65v-219c0 -33 6 -55 18 -65c12 -11 37 -16 74 -16c34 0 59 6 74 17s23 32 23 64zM119 553l51 127h80l49 -127h-43l-47 87l-47 -87h-43z" />
    <glyph glyph-name="Gbreve" unicode="&#x11e;" horiz-adv-x="500" 
d="M440 568c-32 10 -127 24 -166 24c-103 0 -154 -39 -154 -118v-306c0 -74 54 -98 104 -107c16 -3 34 -5 53 -5c33 0 69 6 107 18v227h-114v68h182v-349c-66 -20 -125 -30 -180 -30c-91 0 -174 23 -209 100c-10 22 -15 47 -15 76v307c0 121 75 163 153 179c23 5 46 7 71 7
c60 0 116 -5 168 -16v-75zM338 845c-2 -74 -32 -127 -88 -127s-87 53 -89 127h41c3 -45 19 -68 48 -68s45 23 48 68h40z" />
    <glyph glyph-name="gbreve" unicode="&#x11f;" horiz-adv-x="427" 
d="M45 334c0 124 51 160 149 160c63 0 100 -19 111 -57v47h63v-530c0 -69 -14 -115 -43 -139c-29 -23 -72 -35 -129 -35c-52 0 -93 4 -125 11v64c57 -9 101 -14 131 -14c61 0 99 19 99 95v116c-3 -52 -66 -62 -111 -62c-56 0 -94 11 -115 33c-20 22 -30 60 -30 114v197z
M301 131v219c0 31 -7 53 -19 65c-13 11 -40 17 -79 17c-38 0 -63 -6 -74 -17s-17 -33 -17 -65v-219c0 -33 6 -55 18 -65c12 -11 37 -16 74 -16c34 0 59 6 74 17s23 32 23 64zM287 680c-2 -74 -32 -127 -88 -127s-87 53 -89 127h41c3 -45 19 -68 48 -68s45 23 48 68h40z" />
    <glyph glyph-name="Gdotaccent" unicode="&#x120;" horiz-adv-x="500" 
d="M440 568c-32 10 -127 24 -166 24c-103 0 -154 -39 -154 -118v-306c0 -74 54 -98 104 -107c16 -3 34 -5 53 -5c33 0 69 6 107 18v227h-114v68h182v-349c-66 -20 -125 -30 -180 -30c-91 0 -174 23 -209 100c-10 22 -15 47 -15 76v307c0 121 75 163 153 179c23 5 46 7 71 7
c60 0 116 -5 168 -16v-75zM284 733h-68v98h68v-98z" />
    <glyph glyph-name="gdotaccent" unicode="&#x121;" horiz-adv-x="427" 
d="M45 334c0 124 51 160 149 160c63 0 100 -19 111 -57v47h63v-530c0 -69 -14 -115 -43 -139c-29 -23 -72 -35 -129 -35c-52 0 -93 4 -125 11v64c57 -9 101 -14 131 -14c61 0 99 19 99 95v116c-3 -52 -66 -62 -111 -62c-56 0 -94 11 -115 33c-20 22 -30 60 -30 114v197z
M301 131v219c0 31 -7 53 -19 65c-13 11 -40 17 -79 17c-38 0 -63 -6 -74 -17s-17 -33 -17 -65v-219c0 -33 6 -55 18 -65c12 -11 37 -16 74 -16c34 0 59 6 74 17s23 32 23 64zM242 568h-68v98h68v-98z" />
    <glyph glyph-name="Gcommaaccent" unicode="&#x122;" horiz-adv-x="500" 
d="M440 568c-32 10 -127 24 -166 24c-103 0 -154 -39 -154 -118v-306c0 -74 54 -98 104 -107c16 -3 34 -5 53 -5c33 0 69 6 107 18v227h-114v68h182v-349c-66 -20 -125 -30 -180 -30c-91 0 -174 23 -209 100c-10 22 -15 47 -15 76v307c0 121 75 163 153 179c23 5 46 7 71 7
c60 0 116 -5 168 -16v-75zM302 -40l-62 -150h-43l35 150h70z" />
    <glyph glyph-name="gcommaaccent" unicode="&#x123;" horiz-adv-x="427" 
d="M45 334c0 124 51 160 149 160c63 0 100 -19 111 -57v47h63v-500c0 -69 -14 -115 -43 -139c-29 -23 -72 -35 -129 -35c-52 0 -93 4 -125 11v64c57 -9 101 -14 131 -14c61 0 103 20 103 95v86c-2 -52 -70 -62 -115 -62c-56 0 -94 11 -115 33c-20 22 -30 60 -30 114v197z
M301 131v219c0 31 -7 53 -19 65c-13 11 -40 17 -79 17c-38 0 -63 -6 -74 -17s-17 -33 -17 -65v-219c0 -33 6 -55 18 -65c12 -11 37 -16 74 -16c34 0 59 6 74 17s23 32 23 64zM287 689l-63 -150h-42l34 150h71z" />
    <glyph glyph-name="Hcircumflex" unicode="&#x124;" horiz-adv-x="530" 
d="M467 0h-72v301h-259v-301h-73v649h73v-280h259v280h72v-649zM173 703l51 127h80l49 -127h-43l-47 87l-47 -87h-43z" />
    <glyph glyph-name="hcircumflex" unicode="&#x125;" horiz-adv-x="430" 
d="M245 494c86 0 126 -33 126 -139v-355h-67v349c0 41 -10 64 -36 74c-11 4 -25 6 -42 6c-42 0 -69 -6 -81 -18c-13 -12 -19 -33 -19 -62v-349h-67v700h67v-275c7 46 47 69 119 69zM8 733l51 127h80l49 -127h-43l-47 87l-47 -87h-43z" />
    <glyph glyph-name="Hbar" unicode="&#x126;" horiz-adv-x="530" 
d="M467 0h-72v241h-259v-241h-73v649h73v-180h259v180h72v-649zM136 309h259v92h-259v-92z" />
    <glyph glyph-name="hbar" unicode="&#x127;" horiz-adv-x="430" 
d="M245 494c86 0 126 -33 126 -139v-355h-67v349c0 41 -10 64 -36 74c-11 4 -25 6 -42 6c-42 0 -69 -6 -81 -18c-13 -12 -19 -33 -19 -62v-349h-67v553h-45v52h45v95h67v-95h83v-52h-83v-128c7 46 47 69 119 69z" />
    <glyph glyph-name="Itilde" unicode="&#x128;" horiz-adv-x="199" 
d="M136 0h-73v649h73v-649zM146 774c27 0 37 19 49 43v-69c-11 -26 -28 -39 -49 -39c-13 0 -29 6 -49 18s-35 18 -44 18c-21 0 -37 -13 -49 -39v73c12 19 28 29 49 29c12 0 28 -6 48 -17c21 -11 36 -17 45 -17z" />
    <glyph glyph-name="itilde" unicode="&#x129;" horiz-adv-x="185" 
d="M127 0h-68v484h68v-484zM131 609c26 0 36 19 48 43v-69c-11 -26 -27 -39 -48 -39c-13 0 -30 6 -50 18s-35 18 -44 18c-20 0 -36 -13 -49 -39v73c12 19 28 29 49 29c12 0 28 -6 49 -17c20 -11 35 -17 45 -17z" />
    <glyph glyph-name="Imacron" unicode="&#x12a;" horiz-adv-x="199" 
d="M136 0h-73v649h73v-649zM182 739h-164v59h164v-59z" />
    <glyph glyph-name="imacron" unicode="&#x12b;" horiz-adv-x="185" 
d="M127 0h-68v484h68v-484zM183 591h-181v63h181v-63z" />
    <glyph glyph-name="Ibreve" unicode="&#x12c;" horiz-adv-x="199" 
d="M136 0h-73v649h73v-649zM188 845c-2 -74 -32 -127 -88 -127s-87 53 -89 127h41c3 -45 19 -68 48 -68s45 23 48 68h40z" />
    <glyph glyph-name="ibreve" unicode="&#x12d;" horiz-adv-x="185" 
d="M127 0h-68v484h68v-484zM182 680c-2 -74 -33 -127 -89 -127s-87 53 -88 127h40c3 -45 19 -68 48 -68s45 23 48 68h41z" />
    <glyph glyph-name="Iogonek" unicode="&#x12e;" horiz-adv-x="199" 
d="M119 -186c-48 0 -75 19 -75 80c0 31 6 66 19 106v649h73v-649c-22 -31 -32 -64 -32 -97c0 -22 9 -33 29 -33c4 0 12 2 23 7v-53c-10 -7 -23 -10 -37 -10z" />
    <glyph glyph-name="iogonek" unicode="&#x12f;" horiz-adv-x="185" 
d="M107 -186c-48 0 -75 19 -75 80c0 33 9 69 27 106v484h68v-484c-24 -30 -35 -62 -35 -97c0 -22 9 -33 29 -33c4 0 12 2 23 7v-53c-10 -7 -23 -10 -37 -10z" />
    <glyph glyph-name="Idotaccent" unicode="&#x130;" horiz-adv-x="199" 
d="M136 0h-73v649h73v-649zM133 713h-68v98h68v-98z" />
    <glyph glyph-name="dotlessi" unicode="&#x131;" horiz-adv-x="185" 
d="M127 0h-68v484h68v-484z" />
    <glyph glyph-name="IJ" unicode="&#x132;" horiz-adv-x="451" 
d="M136 0h-73v649h73v-649zM388 143c0 -61 -11 -101 -31 -120s-55 -28 -104 -28c-9 0 -38 2 -89 6v65c10 0 39 -7 52 -9c11 -1 20 -2 28 -2c28 0 47 5 57 15c9 9 14 32 14 69v510h73v-506z" />
    <glyph glyph-name="ij" unicode="&#x133;" horiz-adv-x="358" 
d="M126 565h-67v95h67v-95zM126 0h-67v484h67v-484zM299 565h-67v95h67v-95zM299 -40c0 -60 -9 -100 -26 -119c-18 -19 -49 -28 -94 -28c-18 0 -30 0 -39 1v56c3 -1 8 -1 14 -1c29 0 49 5 61 15c11 10 17 33 17 69v531h67v-524z" />
    <glyph glyph-name="Jcircumflex" unicode="&#x134;" horiz-adv-x="302" 
d="M95 50c57 0 72 14 72 89v510h72v-506c0 -62 -10 -103 -31 -123s-55 -30 -104 -30c-41 0 -70 4 -89 11v65c31 -11 57 -16 80 -16zM112 712l51 127h80l50 -127h-44l-46 87l-48 -87h-43z" />
    <glyph glyph-name="jcircumflex" unicode="&#x135;" horiz-adv-x="185" 
d="M127 484v-557c0 -60 -9 -100 -27 -119s-49 -28 -94 -28c-17 0 -30 0 -38 1v56c3 -1 7 -1 13 -1c29 0 50 5 61 15s17 33 17 69v564h68zM5 553l51 127h81l49 -127h-43l-47 87l-47 -87h-44z" />
    <glyph glyph-name="Kcommaaccent" unicode="&#x136;" horiz-adv-x="457" 
d="M464 0h-94l-233 345l218 304h88l-219 -300zM136 0h-73v649h73v-649zM293 -40l-62 -150h-48l35 150h75z" />
    <glyph glyph-name="kcommaaccent" unicode="&#x137;" horiz-adv-x="386" 
d="M384 0h-84l-166 265l153 219h83l-158 -219zM126 0h-67v693h67v-693zM242 -40l-63 -150h-42l34 150h71z" />
    <glyph glyph-name="kgreenlandic" unicode="&#x138;" 
d="M429 0h-94l-203 250l188 234h87l-189 -230zM131 0h-68v484h68v-484z" />
    <glyph glyph-name="Lacute" unicode="&#x139;" horiz-adv-x="390" 
d="M375 0h-312v649h73v-581h239v-68zM220 830l-94 -127h-55l67 127h82z" />
    <glyph glyph-name="lacute" unicode="&#x13a;" horiz-adv-x="185" 
d="M126 0h-67v700h67v-700zM208 868l-94 -127h-55l67 127h82z" />
    <glyph glyph-name="Lcommaaccent" unicode="&#x13b;" horiz-adv-x="390" 
d="M375 0h-312v649h73v-581h239v-68zM271 -40l-62 -150h-48l34 150h76z" />
    <glyph glyph-name="lcommaaccent" unicode="&#x13c;" horiz-adv-x="185" 
d="M126 0h-67v693h67v-693zM137 -40l-63 -150h-42l34 150h71z" />
    <glyph glyph-name="Lcaron" unicode="&#x13d;" horiz-adv-x="390" 
d="M375 0h-312v649h73v-581h239v-68zM292 649l-62 -150h-48l34 150h76z" />
    <glyph glyph-name="lcaron" unicode="&#x13e;" horiz-adv-x="219" 
d="M126 0h-67v693h67v-693zM272 679l-63 -150h-42l34 150h71z" />
    <glyph glyph-name="Ldot" unicode="&#x13f;" horiz-adv-x="390" 
d="M375 0h-312v649h73v-581h239v-68zM248 283h-68v98h68v-98z" />
    <glyph glyph-name="ldot" unicode="&#x140;" horiz-adv-x="225" 
d="M126 0h-67v693h67v-693zM239 370h-68v98h68v-98z" />
    <glyph glyph-name="Lslash" unicode="&#x141;" horiz-adv-x="405" 
d="M234 343l-83 -32v-243h239v-68h-312v283l-63 -24v71l63 24v295h73v-267l83 32v-71z" />
    <glyph glyph-name="lslash" unicode="&#x142;" horiz-adv-x="185" 
d="M185 423l-59 -32v-391h-67v355l-59 -32v71l59 32v274h67v-238l59 32v-71z" />
    <glyph glyph-name="Nacute" unicode="&#x143;" horiz-adv-x="542" 
d="M479 0h-87l-265 545v-545h-64v649h88l265 -536v536h63v-649zM359 830l-93 -127h-56l68 127h81z" />
    <glyph glyph-name="nacute" unicode="&#x144;" horiz-adv-x="430" 
d="M245 494c86 0 126 -33 126 -139v-355h-67v350c0 41 -10 64 -36 74c-11 4 -25 6 -42 6c-40 0 -66 -6 -80 -17c-13 -11 -20 -32 -20 -63v-350h-67v484h67v-59c7 46 47 69 119 69zM314 680l-93 -127h-56l68 127h81z" />
    <glyph glyph-name="Ncommaaccent" unicode="&#x145;" horiz-adv-x="542" 
d="M479 0h-87l-265 545v-545h-64v649h88l265 -536v536h63v-649zM326 -40l-63 -150h-48l35 150h76z" />
    <glyph glyph-name="ncommaaccent" unicode="&#x146;" horiz-adv-x="430" 
d="M245 494c86 0 126 -33 126 -139v-355h-67v350c0 41 -10 64 -36 74c-11 4 -25 6 -42 6c-40 0 -66 -6 -80 -17c-13 -11 -20 -32 -20 -63v-350h-67v484h67v-59c7 46 47 69 119 69zM258 -40l-62 -150h-43l35 150h70z" />
    <glyph glyph-name="Ncaron" unicode="&#x147;" horiz-adv-x="542" 
d="M479 0h-87l-265 545v-545h-64v649h88l265 -536v536h63v-649zM245 703l-51 127h43l47 -87l47 87h43l-49 -127h-80z" />
    <glyph glyph-name="ncaron" unicode="&#x148;" horiz-adv-x="430" 
d="M245 494c86 0 126 -33 126 -139v-355h-67v350c0 41 -10 64 -36 74c-11 4 -25 6 -42 6c-40 0 -66 -6 -80 -17c-13 -11 -20 -32 -20 -63v-350h-67v484h67v-59c7 46 47 69 119 69zM164 553l-51 127h43l47 -87l47 87h43l-49 -127h-80z" />
    <glyph glyph-name="napostrophe" unicode="&#x149;" horiz-adv-x="430" 
d="M245 494c86 0 126 -33 126 -139v-355h-67v350c0 41 -10 64 -36 74c-11 4 -25 6 -42 6c-40 0 -66 -6 -80 -17c-13 -11 -20 -32 -20 -63v-350h-67v484h67v-59c7 46 47 69 119 69zM166 679l-56 -140h-44l27 140h73z" />
    <glyph glyph-name="Eng" unicode="&#x14a;" horiz-adv-x="542" 
d="M413 -36l-286 581v-545h-64v649h88l265 -536v536h63v-690c0 -49 -8 -87 -24 -112s-47 -37 -94 -37h-20v64c51 0 72 29 72 90z" />
    <glyph glyph-name="eng" unicode="&#x14b;" horiz-adv-x="430" 
d="M245 494c86 0 126 -33 126 -139v-436c0 -48 -8 -83 -24 -106c-16 -22 -48 -33 -95 -33h-19v64c50 0 71 21 71 80v426c0 41 -10 64 -36 74c-11 4 -25 6 -42 6c-40 0 -66 -6 -80 -17c-13 -11 -20 -32 -20 -63v-350h-67v484h67v-59c7 46 47 69 119 69z" />
    <glyph glyph-name="Omacron" unicode="&#x14c;" horiz-adv-x="509" 
d="M460 474v-308c0 -112 -65 -153 -137 -169c-21 -5 -45 -7 -69 -7c-136 0 -204 59 -204 176v307c0 124 68 186 204 186c137 0 206 -62 206 -185zM254 596c-73 0 -135 -22 -135 -120v-309c0 -75 45 -112 136 -112c89 0 134 37 134 112v309c0 80 -45 120 -135 120zM331 739
h-164v59h164v-59z" />
    <glyph glyph-name="omacron" unicode="&#x14d;" horiz-adv-x="426" 
d="M380 321v-168c0 -81 -19 -132 -66 -150c-35 -13 -56 -13 -102 -13c-57 0 -83 0 -120 24c-35 21 -47 68 -47 139v168c0 84 18 141 66 160c35 14 54 13 101 13c48 0 66 1 102 -13c33 -14 46 -36 57 -79c6 -22 9 -49 9 -81zM311 140v196c0 45 -7 72 -21 83
c-13 11 -39 16 -78 16c-38 0 -64 -5 -78 -16c-13 -11 -20 -38 -20 -83v-196c0 -40 5 -66 25 -78c22 -14 38 -13 73 -13c36 0 51 -1 74 13c20 12 25 38 25 78zM304 589h-181v63h181v-63z" />
    <glyph glyph-name="Obreve" unicode="&#x14e;" horiz-adv-x="509" 
d="M460 474v-308c0 -112 -65 -153 -137 -169c-21 -5 -45 -7 -69 -7c-136 0 -204 59 -204 176v307c0 124 68 186 204 186c137 0 206 -62 206 -185zM254 596c-73 0 -135 -22 -135 -120v-309c0 -75 45 -112 136 -112c89 0 134 37 134 112v309c0 80 -45 120 -135 120zM343 845
c-2 -74 -33 -127 -89 -127s-86 53 -88 127h40c3 -45 19 -68 48 -68s45 23 48 68h41z" />
    <glyph glyph-name="obreve" unicode="&#x14f;" horiz-adv-x="426" 
d="M380 321v-168c0 -81 -19 -132 -66 -150c-35 -13 -56 -13 -102 -13c-57 0 -83 0 -120 24c-35 21 -47 68 -47 139v168c0 84 18 141 66 160c35 14 54 13 101 13c48 0 66 1 102 -13c33 -14 46 -36 57 -79c6 -22 9 -49 9 -81zM311 140v196c0 45 -7 72 -21 83
c-13 11 -39 16 -78 16c-38 0 -64 -5 -78 -16c-13 -11 -20 -38 -20 -83v-196c0 -40 5 -66 25 -78c22 -14 38 -13 73 -13c36 0 51 -1 74 13c20 12 25 38 25 78zM298 680c-2 -74 -33 -127 -89 -127s-86 53 -88 127h40c3 -45 19 -68 48 -68s45 23 48 68h41z" />
    <glyph glyph-name="Ohungarumlaut" unicode="&#x150;" horiz-adv-x="509" 
d="M460 474v-308c0 -112 -65 -153 -137 -169c-21 -5 -45 -7 -69 -7c-136 0 -204 59 -204 176v307c0 124 68 186 204 186c137 0 206 -62 206 -185zM254 596c-73 0 -135 -22 -135 -120v-309c0 -75 45 -112 136 -112c89 0 134 37 134 112v309c0 80 -45 120 -135 120zM213 703
h-57l53 128h57zM308 703h-57l53 128h57z" />
    <glyph glyph-name="ohungarumlaut" unicode="&#x151;" horiz-adv-x="426" 
d="M380 321v-168c0 -81 -19 -132 -66 -150c-35 -13 -56 -13 -102 -13c-57 0 -83 0 -120 24c-35 21 -47 68 -47 139v168c0 84 18 141 66 160c35 14 54 13 101 13c48 0 66 1 102 -13c33 -14 46 -36 57 -79c6 -22 9 -49 9 -81zM311 140v196c0 45 -7 72 -21 83
c-13 11 -39 16 -78 16c-38 0 -64 -5 -78 -16c-13 -11 -20 -38 -20 -83v-196c0 -40 5 -66 25 -78c22 -14 38 -13 73 -13c36 0 51 -1 74 13c20 12 25 38 25 78zM185 552h-57l52 128h57zM280 552h-57l52 128h57z" />
    <glyph glyph-name="OE" unicode="&#x152;" horiz-adv-x="738" 
d="M269 582c-74 0 -136 -19 -136 -118v-286c0 -75 46 -112 139 -112h94v516h-97zM701 0h-434c-136 0 -204 59 -204 176v287c0 124 68 186 204 186h426v-68h-254v-212h229v-68h-229v-233h262v-68z" />
    <glyph glyph-name="oe" unicode="&#x153;" horiz-adv-x="668" 
d="M311 149v187c0 45 -7 72 -21 83c-13 11 -39 16 -78 16c-38 0 -64 -5 -78 -16c-13 -11 -20 -38 -20 -83v-196c0 -40 5 -66 25 -78c22 -14 38 -13 73 -13c36 0 62 6 76 19c15 13 23 40 23 81zM472 494c99 0 151 -36 151 -165v-107h-243v-73c0 -77 46 -94 110 -94
c32 0 72 8 119 24v-69c-47 -13 -94 -20 -140 -20c-47 0 -88 17 -124 52c-26 -35 -71 -52 -133 -52c-57 0 -83 0 -120 24c-35 21 -47 68 -47 139v168c0 84 18 141 66 160c35 14 54 13 101 13c69 0 114 -17 136 -50c20 33 61 50 124 50zM470 434c-55 0 -90 -10 -90 -77v-76
h176v76c0 66 -33 77 -86 77z" />
    <glyph glyph-name="Racute" unicode="&#x154;" horiz-adv-x="459" 
d="M405 410c0 -84 -61 -121 -126 -121l156 -289h-89l-140 277h-70v-277h-73v649h171c61 0 105 -8 131 -24c27 -17 40 -51 40 -103v-112zM231 341c59 0 101 10 101 81v90c0 49 -31 73 -94 73h-102v-244h95zM311 830l-93 -127h-56l68 127h81z" />
    <glyph glyph-name="racute" unicode="&#x155;" horiz-adv-x="263" 
d="M122 405c0 51 60 89 99 89h33v-77h-37c-54 0 -91 -10 -91 -76v-341h-67v484h63v-79zM236 680l-93 -127h-56l68 127h81z" />
    <glyph glyph-name="Rcommaaccent" unicode="&#x156;" horiz-adv-x="459" 
d="M405 410c0 -84 -61 -121 -126 -121l156 -289h-89l-140 277h-70v-277h-73v649h171c61 0 105 -8 131 -24c27 -17 40 -51 40 -103v-112zM231 341c59 0 101 10 101 81v90c0 49 -31 73 -94 73h-102v-244h95zM292 -40l-62 -150h-48l34 150h76z" />
    <glyph glyph-name="rcommaaccent" unicode="&#x157;" horiz-adv-x="263" 
d="M122 419c0 51 68 74 108 74h24v-80h-37c-32 0 -55 -5 -70 -14c-14 -9 -21 -29 -21 -58v-341h-67v484h63v-65zM148 -40l-62 -150h-43l34 150h71z" />
    <glyph glyph-name="Rcaron" unicode="&#x158;" horiz-adv-x="459" 
d="M405 410c0 -84 -61 -121 -126 -121l156 -289h-89l-140 277h-70v-277h-73v649h171c61 0 105 -8 131 -24c27 -17 40 -51 40 -103v-112zM231 341c59 0 101 10 101 81v90c0 49 -31 73 -94 73h-102v-244h95zM180 703l-51 127h44l47 -87l46 87h44l-50 -127h-80z" />
    <glyph glyph-name="rcaron" unicode="&#x159;" horiz-adv-x="263" 
d="M122 405c0 51 60 89 99 89h33v-77h-37c-54 0 -91 -10 -91 -76v-341h-67v484h63v-79zM98 553l-51 127h44l47 -87l47 87h43l-49 -127h-81z" />
    <glyph glyph-name="Sacute" unicode="&#x15a;" horiz-adv-x="427" 
d="M256 372c93 0 130 -36 130 -152v-47c0 -69 -15 -117 -45 -143c-29 -27 -75 -40 -138 -40c-40 0 -89 5 -148 16v81c59 -17 110 -25 153 -25c34 0 61 5 79 16c18 10 27 31 27 62v84c0 63 -28 76 -81 76h-57c-90 0 -131 43 -131 156v52c0 51 14 89 41 114s77 37 150 37
c35 0 77 -4 126 -11v-73c-56 11 -99 17 -131 17c-46 0 -77 -6 -93 -18c-15 -13 -22 -34 -22 -63v-74c0 -56 32 -65 81 -65h59zM323 830l-93 -127h-56l68 127h81z" />
    <glyph glyph-name="sacute" unicode="&#x15b;" horiz-adv-x="362" 
d="M153 217c-67 0 -115 35 -115 118v45c0 76 54 114 162 114c12 0 48 -3 110 -8v-65c-43 9 -81 14 -113 14c-36 0 -61 -5 -74 -14c-12 -9 -19 -25 -19 -47v-41c0 -33 23 -49 67 -49h42c77 0 115 -38 115 -114v-42c0 -52 -14 -88 -41 -108s-66 -30 -117 -30
c-39 0 -81 4 -125 12v69c60 -13 102 -19 126 -19c30 0 53 4 68 12c15 7 22 23 22 47v49c0 48 -27 57 -67 57h-41zM280 680l-94 -127h-55l67 127h82z" />
    <glyph glyph-name="Scircumflex" unicode="&#x15c;" horiz-adv-x="427" 
d="M256 372c93 0 130 -36 130 -152v-47c0 -69 -15 -117 -45 -143c-29 -27 -75 -40 -138 -40c-40 0 -89 5 -148 16v81c59 -17 110 -25 153 -25c34 0 61 5 79 16c18 10 27 31 27 62v84c0 63 -28 76 -81 76h-57c-90 0 -131 43 -131 156v52c0 51 14 89 41 114s77 37 150 37
c35 0 77 -4 126 -11v-73c-56 11 -99 17 -131 17c-46 0 -77 -6 -93 -18c-15 -13 -22 -34 -22 -63v-74c0 -56 32 -65 81 -65h59zM130 703l51 127h80l50 -127h-44l-46 87l-48 -87h-43z" />
    <glyph glyph-name="scircumflex" unicode="&#x15d;" horiz-adv-x="362" 
d="M153 217c-67 0 -115 35 -115 118v45c0 76 54 114 162 114c12 0 48 -3 110 -8v-65c-43 9 -81 14 -113 14c-36 0 -61 -5 -74 -14c-12 -9 -19 -25 -19 -47v-41c0 -33 23 -49 67 -49h42c77 0 115 -38 115 -114v-42c0 -52 -14 -88 -41 -108s-66 -30 -117 -30
c-39 0 -81 4 -125 12v69c60 -13 102 -19 126 -19c30 0 53 4 68 12c15 7 22 23 22 47v49c0 48 -27 57 -67 57h-41zM88 553l51 127h80l50 -127h-44l-46 87l-48 -87h-43z" />
    <glyph glyph-name="Scedilla" unicode="&#x15e;" horiz-adv-x="427" 
d="M256 372c93 0 130 -36 130 -152v-47c0 -64 -13 -109 -38 -136s-64 -43 -116 -46l-16 -43c37 -1 70 -27 70 -78c0 -59 -41 -90 -85 -90c-25 0 -45 6 -61 19l16 45c15 -11 29 -17 44 -17c23 0 35 13 35 40c0 31 -33 41 -59 41h-24c12 27 23 55 33 82c-36 1 -79 7 -130 16
v81c59 -17 110 -25 153 -25c34 0 61 5 79 16c18 10 27 31 27 62v84c0 63 -28 76 -81 76h-57c-90 0 -131 43 -131 156v52c0 51 14 89 41 114s77 37 150 37c35 0 77 -4 126 -11v-73c-56 11 -99 17 -131 17c-46 0 -77 -6 -93 -18c-15 -13 -22 -34 -22 -63v-74
c0 -56 32 -65 81 -65h59z" />
    <glyph glyph-name="scedilla" unicode="&#x15f;" horiz-adv-x="362" 
d="M153 217c-67 0 -115 35 -115 118v45c0 76 54 114 162 114c12 0 48 -3 110 -8v-65c-43 9 -81 14 -113 14c-36 0 -61 -5 -74 -14c-12 -9 -19 -25 -19 -47v-41c0 -33 23 -49 67 -49h42c77 0 115 -38 115 -114v-42c0 -101 -53 -130 -128 -136l-16 -44c36 -1 70 -27 70 -78
c0 -59 -41 -90 -85 -90c-25 0 -45 6 -61 19l16 45c15 -11 29 -17 43 -17c24 0 36 13 36 40c0 31 -33 41 -59 41h-25c13 29 24 56 33 83c-37 1 -72 5 -107 11v69c60 -13 102 -19 126 -19c30 0 53 4 68 12c15 7 22 23 22 47v49c0 48 -27 57 -67 57h-41z" />
    <glyph glyph-name="Scaron" unicode="&#x160;" horiz-adv-x="427" 
d="M256 372c93 0 130 -36 130 -152v-47c0 -69 -15 -117 -45 -143c-29 -27 -75 -40 -138 -40c-40 0 -89 5 -148 16v81c59 -17 110 -25 153 -25c34 0 61 5 79 16c18 10 27 31 27 62v84c0 63 -28 76 -81 76h-57c-90 0 -131 43 -131 156v52c0 51 14 89 41 114s77 37 150 37
c35 0 77 -4 126 -11v-73c-56 11 -99 17 -131 17c-46 0 -77 -6 -93 -18c-15 -13 -22 -34 -22 -63v-74c0 -56 32 -65 81 -65h59zM164 703l-51 127h43l47 -87l47 87h43l-49 -127h-80z" />
    <glyph glyph-name="scaron" unicode="&#x161;" horiz-adv-x="362" 
d="M153 217c-67 0 -115 35 -115 118v45c0 76 54 114 162 114c12 0 48 -3 110 -8v-65c-43 9 -81 14 -113 14c-36 0 -61 -5 -74 -14c-12 -9 -19 -25 -19 -47v-41c0 -33 23 -49 67 -49h42c77 0 115 -38 115 -114v-42c0 -52 -14 -88 -41 -108s-66 -30 -117 -30
c-39 0 -81 4 -125 12v69c60 -13 102 -19 126 -19c30 0 53 4 68 12c15 7 22 23 22 47v49c0 48 -27 57 -67 57h-41zM143 553l-51 127h44l47 -87l47 87h43l-49 -127h-81z" />
    <glyph glyph-name="Tcommaaccent" unicode="&#x162;" horiz-adv-x="439" 
d="M421 581h-164v-581h-74v581h-165v68h403v-68zM263 -40l-63 -150h-48l35 150h76z" />
    <glyph glyph-name="tcommaaccent" unicode="&#x163;" horiz-adv-x="302" 
d="M157 136c0 -74 18 -87 76 -87c8 0 26 3 54 8v-59c-24 -5 -50 -8 -76 -8c-43 0 -74 9 -94 29c-19 19 -28 59 -28 122v286h-81v57h81v150h68v-150h130v-57h-130v-291zM199 -40l-62 -150h-43l34 150h71z" />
    <glyph glyph-name="Tcaron" unicode="&#x164;" horiz-adv-x="439" 
d="M421 581h-164v-581h-74v581h-165v68h403v-68zM181 703l-51 127h43l48 -87l46 87h44l-50 -127h-80z" />
    <glyph glyph-name="tcaron" unicode="&#x165;" horiz-adv-x="302" 
d="M157 136c0 -74 18 -87 76 -87c8 0 26 3 54 8v-59c-24 -5 -50 -8 -76 -8c-43 0 -74 9 -94 29c-19 19 -28 59 -28 122v286h-81v57h81v150h68v-150h130v-57h-130v-291zM311 703l-63 -150h-42l34 150h71z" />
    <glyph glyph-name="Tbar" unicode="&#x166;" horiz-adv-x="439" 
d="M421 581h-164v-212h75v-68h-75v-301h-74v301h-75v68h75v212h-165v68h403v-68z" />
    <glyph glyph-name="tbar" unicode="&#x167;" horiz-adv-x="302" 
d="M157 136c0 -73 18 -84 76 -84c18 0 36 2 54 5v-59c-21 -3 -47 -5 -76 -5c-59 0 -100 10 -115 69c-5 20 -7 46 -7 79v121h-81v57h81v108h-81v57h81v150h68v-150h130v-57h-130v-108h130v-57h-130v-126z" />
    <glyph glyph-name="Utilde" unicode="&#x168;" horiz-adv-x="507" 
d="M254 55c71 0 120 21 120 112v482h69v-483c0 -117 -63 -176 -190 -176c-105 0 -190 35 -190 176v483h70v-482c0 -91 51 -112 121 -112zM300 774c26 0 36 19 49 43v-69c-12 -26 -28 -39 -49 -39c-13 0 -29 6 -49 18c-21 12 -35 18 -45 18c-20 0 -36 -13 -48 -39v73
c12 19 28 29 48 29c12 0 29 -6 49 -17s35 -17 45 -17z" />
    <glyph glyph-name="utilde" unicode="&#x169;" horiz-adv-x="430" 
d="M185 -10c-87 0 -126 33 -126 139v355h67v-350c0 -41 10 -64 36 -73c11 -5 25 -7 42 -7c38 0 64 5 78 14s22 26 22 51v365h67v-484h-67v59c-7 -46 -47 -69 -119 -69zM251 609c27 0 37 19 49 43v-69c-11 -26 -28 -39 -49 -39c-13 0 -29 6 -49 18s-35 18 -44 18
c-21 0 -37 -13 -49 -39v73c12 19 28 29 49 29c12 0 28 -6 48 -17c21 -11 36 -17 45 -17z" />
    <glyph glyph-name="Umacron" unicode="&#x16a;" horiz-adv-x="507" 
d="M254 55c71 0 120 21 120 112v482h69v-483c0 -117 -63 -176 -190 -176c-105 0 -190 35 -190 176v483h70v-482c0 -91 51 -112 121 -112zM332 739h-163v59h163v-59z" />
    <glyph glyph-name="umacron" unicode="&#x16b;" horiz-adv-x="430" 
d="M185 -10c-87 0 -126 33 -126 139v355h67v-350c0 -41 10 -64 36 -73c11 -5 25 -7 42 -7c38 0 64 5 78 14s22 26 22 51v365h67v-484h-67v59c-7 -46 -47 -69 -119 -69zM305 588h-180v63h180v-63z" />
    <glyph glyph-name="Ubreve" unicode="&#x16c;" horiz-adv-x="507" 
d="M254 55c71 0 120 21 120 112v482h69v-483c0 -117 -63 -176 -190 -176c-105 0 -190 35 -190 176v483h70v-482c0 -91 51 -112 121 -112zM342 845c-2 -74 -32 -127 -88 -127c-57 0 -87 53 -89 127h41c3 -45 18 -68 48 -68c29 0 45 23 48 68h40z" />
    <glyph glyph-name="ubreve" unicode="&#x16d;" horiz-adv-x="430" 
d="M185 -10c-87 0 -126 33 -126 139v355h67v-350c0 -41 10 -64 36 -73c11 -5 25 -7 42 -7c38 0 64 5 78 14s22 26 22 51v365h67v-484h-67v59c-7 -46 -47 -69 -119 -69zM299 680c-2 -74 -32 -127 -88 -127s-87 53 -89 127h41c3 -45 19 -68 48 -68s45 23 48 68h40z" />
    <glyph glyph-name="Uring" unicode="&#x16e;" horiz-adv-x="538" 
d="M254 55c71 0 120 21 120 112v482h69v-483c0 -117 -63 -176 -190 -176c-105 0 -190 35 -190 176v483h70v-482c0 -91 51 -112 121 -112zM359 813v-12c0 -43 -7 -71 -29 -84c-23 -13 -37 -14 -72 -14s-49 0 -72 14c-21 13 -28 41 -28 84v12c0 45 6 76 28 90
c23 14 37 14 72 14c34 0 66 -1 83 -24c11 -17 18 -46 18 -80zM258 745c38 0 53 2 53 49v27c0 51 -14 54 -53 54s-52 -3 -52 -54v-27c0 -47 14 -49 52 -49z" />
    <glyph glyph-name="uring" unicode="&#x16f;" horiz-adv-x="430" 
d="M185 -10c-87 0 -126 33 -126 139v355h67v-350c0 -41 10 -64 36 -73c11 -5 25 -7 42 -7c38 0 64 5 78 14s22 26 22 51v365h67v-484h-67v59c-7 -46 -47 -69 -119 -69zM314 663v-12c0 -43 -7 -71 -29 -84c-23 -13 -37 -14 -72 -14s-49 0 -72 14c-21 13 -28 41 -28 84v12
c0 45 6 76 28 90c23 14 37 14 72 14c34 0 66 -1 83 -24c11 -17 18 -46 18 -80zM213 595c38 0 53 2 53 49v27c0 51 -14 54 -53 54s-52 -3 -52 -54v-27c0 -47 14 -49 52 -49z" />
    <glyph glyph-name="Uhungarumlaut" unicode="&#x170;" horiz-adv-x="507" 
d="M254 55c71 0 120 21 120 112v482h69v-483c0 -117 -63 -176 -190 -176c-105 0 -190 35 -190 176v483h70v-482c0 -91 51 -112 121 -112zM214 703h-57l52 128h57zM309 703h-57l53 128h57z" />
    <glyph glyph-name="uhungarumlaut" unicode="&#x171;" horiz-adv-x="430" 
d="M185 -10c-87 0 -126 33 -126 139v355h67v-350c0 -41 10 -64 36 -73c11 -5 25 -7 42 -7c38 0 64 5 78 14s22 26 22 51v365h67v-484h-67v59c-7 -46 -47 -69 -119 -69zM176 552h-57l52 128h57zM271 552h-57l52 128h57z" />
    <glyph glyph-name="Uogonek" unicode="&#x172;" horiz-adv-x="507" 
d="M254 55c71 0 120 21 120 112v482h69v-483c0 -105 -51 -163 -154 -174c-13 -30 -20 -60 -20 -89c0 -22 10 -33 30 -33c3 0 11 2 23 7v-53c-11 -7 -23 -10 -38 -10c-46 0 -74 20 -74 80c0 31 8 63 23 97c-114 5 -170 64 -170 175v483h70v-482c0 -91 51 -112 121 -112z" />
    <glyph glyph-name="uogonek" unicode="&#x173;" horiz-adv-x="430" 
d="M185 -10c-87 0 -126 33 -126 139v355h67v-350c0 -41 10 -64 36 -73c11 -5 25 -7 42 -7c38 0 64 5 78 14s22 26 22 51v365h67v-484c-15 -19 -35 -60 -35 -97c0 -22 10 -33 29 -33c4 0 12 2 24 7v-53c-11 -7 -24 -10 -38 -10c-47 0 -74 19 -74 80c0 33 9 69 27 106v59
c-7 -46 -47 -69 -119 -69z" />
    <glyph glyph-name="Wcircumflex" unicode="&#x174;" horiz-adv-x="726" 
d="M720 649l-157 -649h-84l-117 540l-119 -540h-85l-152 649h77l121 -557h2l120 557h78l120 -557h2l121 557h73zM274 703l51 127h80l50 -127h-44l-46 87l-48 -87h-43z" />
    <glyph glyph-name="wcircumflex" unicode="&#x175;" horiz-adv-x="594" 
d="M585 484l-119 -484h-80l-88 391l-86 -391h-81l-122 484h74l89 -398h4l86 398h76l88 -398h5l85 398h69zM208 553l51 127h80l50 -127h-44l-46 87l-48 -87h-43z" />
    <glyph glyph-name="Ycircumflex" unicode="&#x176;" horiz-adv-x="438" 
d="M432 649l-177 -384v-265h-73v262l-176 387h83l130 -305l130 305h83zM129 703l51 127h80l50 -127h-44l-46 87l-47 -87h-44z" />
    <glyph glyph-name="ycircumflex" unicode="&#x177;" horiz-adv-x="345" 
d="M341 484l-183 -692h-70l57 201l-140 491h73l101 -395h2l91 395h69zM84 553l51 127h80l50 -127h-44l-46 87l-47 -87h-44z" />
    <glyph glyph-name="Ydieresis" unicode="&#x178;" horiz-adv-x="438" 
d="M432 649l-177 -384v-265h-73v262l-176 387h83l130 -305l130 305h83zM188 715h-68v94h68v-94zM315 715h-67v94h67v-94z" />
    <glyph glyph-name="Zacute" unicode="&#x179;" 
d="M405 0h-375v68l287 513h-279v68h363v-68l-287 -513h291v-68zM309 830l-94 -127h-55l67 127h82z" />
    <glyph glyph-name="zacute" unicode="&#x17a;" horiz-adv-x="341" 
d="M315 0h-285v61l204 362h-196v61h273v-61l-204 -362h208v-61zM264 680l-94 -127h-55l67 127h82z" />
    <glyph glyph-name="Zdotaccent" unicode="&#x17b;" 
d="M405 0h-375v68l287 513h-279v68h363v-68l-287 -513h291v-68zM245 732h-67v98h67v-98z" />
    <glyph glyph-name="zdotaccent" unicode="&#x17c;" horiz-adv-x="341" 
d="M315 0h-285v61l204 362h-196v61h273v-61l-204 -362h208v-61zM204 568h-67v98h67v-98z" />
    <glyph glyph-name="Zcaron" unicode="&#x17d;" 
d="M405 0h-375v68l287 513h-279v68h363v-68l-287 -513h291v-68zM171 703l-51 127h44l47 -87l46 87h44l-50 -127h-80z" />
    <glyph glyph-name="zcaron" unicode="&#x17e;" horiz-adv-x="341" 
d="M315 0h-285v61l204 362h-196v61h273v-61l-204 -362h208v-61zM126 553l-51 127h44l47 -87l46 87h44l-50 -127h-80z" />
    <glyph glyph-name="longs" unicode="&#x17f;" horiz-adv-x="224" 
d="M236 652c-59 0 -78 -11 -78 -84v-568h-67v425h-83v59h83v78c0 113 34 148 120 148c29 0 55 -2 76 -5v-58c-18 3 -35 5 -51 5z" />
    <glyph glyph-name="florin" unicode="&#x192;" 
d="M316 601c-49 0 -68 -18 -68 -84v-151h107v-62h-107v-344c0 -114 -48 -148 -134 -148c-20 0 -41 2 -62 5v58c17 -3 37 -5 60 -5c49 0 68 18 68 84v350h-93v62h93v145c0 114 47 148 134 148c20 0 41 -2 62 -5v-58c-18 3 -38 5 -60 5z" />
    <glyph glyph-name="Scommaaccent" unicode="&#x218;" horiz-adv-x="427" 
d="M256 372c93 0 130 -36 130 -152v-47c0 -69 -15 -117 -45 -143c-29 -27 -75 -40 -138 -40c-40 0 -89 5 -148 16v81c59 -17 110 -25 153 -25c34 0 61 5 79 16c18 10 27 31 27 62v84c0 63 -28 76 -81 76h-57c-90 0 -131 43 -131 156v52c0 51 14 89 41 114s77 37 150 37
c35 0 77 -4 126 -11v-73c-56 11 -99 17 -131 17c-46 0 -77 -6 -93 -18c-15 -13 -22 -34 -22 -63v-74c0 -56 32 -65 81 -65h59zM267 -40l-62 -150h-48l34 150h76z" />
    <glyph glyph-name="scommaaccent" unicode="&#x219;" horiz-adv-x="362" 
d="M153 217c-67 0 -115 35 -115 118v45c0 76 54 114 162 114c12 0 48 -3 110 -8v-65c-43 9 -81 14 -113 14c-36 0 -61 -5 -74 -14c-12 -9 -19 -25 -19 -47v-41c0 -33 23 -49 67 -49h42c77 0 115 -38 115 -114v-42c0 -52 -14 -88 -41 -108s-66 -30 -117 -30
c-39 0 -81 4 -125 12v69c60 -13 102 -19 126 -19c30 0 53 4 68 12c15 7 22 23 22 47v49c0 48 -27 57 -67 57h-41zM239 -40l-62 -150h-43l35 150h70z" />
    <glyph glyph-name="uni021A" unicode="&#x21a;" horiz-adv-x="439" 
d="M421 581h-164v-581h-74v581h-165v68h403v-68zM260 -40l-63 -150h-42l34 150h71z" />
    <glyph glyph-name="uni021B" unicode="&#x21b;" horiz-adv-x="302" 
d="M157 136c0 -74 18 -87 76 -87c8 0 26 3 54 8v-59c-24 -5 -50 -8 -76 -8c-43 0 -74 9 -94 29c-19 19 -28 59 -28 122v286h-81v57h81v150h68v-150h130v-57h-130v-291zM194 -62l-62 -150h-43l35 150h70z" />
    <glyph glyph-name="dotlessj" unicode="&#x237;" horiz-adv-x="185" 
d="M127 484v-557c0 -60 -9 -100 -27 -119s-49 -28 -94 -28c-17 0 -30 0 -38 1v56c3 -1 7 -1 13 -1c29 0 50 5 61 15s17 33 17 69v564h68z" />
    <glyph glyph-name="apostrophe" unicode="&#x2bc;" horiz-adv-x="167" 
d="M133 649l-56 -140h-44l27 140h73z" />
    <glyph glyph-name="circumflex" unicode="&#x2c6;" horiz-adv-x="241" 
d="M30 553l51 127h80l50 -127h-44l-46 87l-47 -87h-44z" />
    <glyph glyph-name="caron" unicode="&#x2c7;" horiz-adv-x="241" 
d="M81 553l-51 127h44l47 -87l46 87h44l-50 -127h-80z" />
    <glyph glyph-name="uni02C9" unicode="&#x2c9;" horiz-adv-x="223" 
d="M194 590h-164v59h164v-59z" />
    <glyph glyph-name="breve" unicode="&#x2d8;" horiz-adv-x="207" 
d="M192 680c-2 -74 -32 -127 -88 -127c-57 0 -87 53 -89 127h41c3 -45 18 -68 48 -68c29 0 45 23 48 68h40z" />
    <glyph glyph-name="dotaccent" unicode="&#x2d9;" horiz-adv-x="185" 
d="M127 568h-68v98h68v-98z" />
    <glyph glyph-name="ring" unicode="&#x2da;" horiz-adv-x="404" 
d="M298 663v-12c0 -43 -7 -71 -28 -84c-23 -13 -38 -14 -73 -14c-34 0 -48 0 -71 14c-22 13 -28 41 -28 84v12c0 45 6 76 28 90c23 14 36 14 71 14c34 0 66 -1 83 -24c11 -17 18 -46 18 -80zM197 595c38 0 54 2 54 49v27c0 51 -15 54 -54 54s-52 -3 -52 -54v-27
c0 -47 14 -49 52 -49z" />
    <glyph glyph-name="ogonek" unicode="&#x2db;" horiz-adv-x="152" 
d="M96 -186c-47 0 -74 19 -74 80c0 33 9 69 27 106h56c-16 -33 -24 -66 -24 -97c0 -22 10 -33 29 -33c4 0 12 2 24 7v-53c-11 -7 -24 -10 -38 -10z" />
    <glyph glyph-name="tilde" unicode="&#x2dc;" horiz-adv-x="236" 
d="M165 609c26 0 36 19 49 43v-69c-12 -26 -28 -39 -49 -39c-13 0 -29 6 -49 18c-21 12 -35 18 -45 18c-20 0 -36 -13 -48 -39v73c12 19 28 29 48 29c12 0 29 -6 49 -17s35 -17 45 -17z" />
    <glyph glyph-name="hungarumlaut" unicode="&#x2dd;" horiz-adv-x="235" 
d="M72 552h-57l53 128h57zM167 552h-57l53 128h57z" />
    <glyph glyph-name="tonos" unicode="&#x384;" horiz-adv-x="226" 
d="M132 540h-37l-22 170h81z" />
    <glyph glyph-name="dieresistonos" unicode="&#x385;" horiz-adv-x="330" 
d="M90 568h-67v94h67v-94zM308 568h-68v94h68v-94zM182 553h-37l-22 170h81z" />
    <glyph glyph-name="Alphatonos" unicode="&#x386;" horiz-adv-x="489" 
d="M478 0h-76l-55 197h-209l-55 -197h-72l194 649h84zM329 264l-83 293h-7l-82 -293h172zM94 479h-38l-21 170h81z" />
    <glyph glyph-name="Epsilontonos" unicode="&#x388;" horiz-adv-x="539" 
d="M501 0h-334v649h327v-68h-255v-212h230v-68h-230v-233h262v-68zM95 489h-37l-22 170h81z" />
    <glyph glyph-name="Etatonos" unicode="&#x389;" horiz-adv-x="645" 
d="M582 0h-73v301h-258v-301h-73v649h73v-280h258v280h73v-649zM95 489h-37l-22 170h81z" />
    <glyph glyph-name="Iotatonos" unicode="&#x38a;" horiz-adv-x="299" 
d="M236 0h-73v649h73v-649zM95 489h-37l-22 170h81z" />
    <glyph glyph-name="Omicrontonos" unicode="&#x38c;" horiz-adv-x="593" 
d="M543 474v-308c0 -112 -64 -153 -136 -169c-22 -5 -45 -7 -70 -7c-136 0 -204 59 -204 176v307c0 124 68 186 204 186c137 0 206 -62 206 -185zM338 596c-74 0 -135 -22 -135 -120v-309c0 -75 45 -112 135 -112s135 37 135 112v309c0 80 -45 120 -135 120zM80 489h-37
l-22 170h81z" />
    <glyph glyph-name="Upsilontonos" unicode="&#x38e;" horiz-adv-x="589" 
d="M583 649l-177 -384v-265h-73v262l-176 387h83l130 -305l130 305h83zM95 489h-37l-22 170h81z" />
    <glyph glyph-name="Omegatonos" unicode="&#x38f;" horiz-adv-x="598" 
d="M387 64c45 33 86 94 86 183v229c0 80 -46 120 -138 120c-93 0 -139 -40 -139 -120v-229c0 -89 41 -150 86 -183v-64h-161v68h79c-37 28 -74 93 -74 168v238c0 123 70 185 209 185c138 0 208 -62 208 -185v-238c0 -74 -37 -140 -73 -168h78v-68h-161v64zM63 488h-37
l-22 170h81z" />
    <glyph glyph-name="iotadieresistonos" unicode="&#x390;" horiz-adv-x="185" 
d="M127 136c0 -60 11 -79 54 -83v-60c-59 0 -100 10 -115 69c-5 20 -7 46 -7 79v343h68v-348zM17 568h-67v94h67v-94zM235 568h-68v94h68v-94zM110 553h-38l-22 170h81z" />
    <glyph glyph-name="Alpha" unicode="&#x391;" horiz-adv-x="489" 
d="M478 0h-76l-55 197h-209l-55 -197h-72l194 649h84zM329 264l-83 293h-7l-82 -293h172z" />
    <glyph glyph-name="Beta" unicode="&#x392;" horiz-adv-x="460" 
d="M326 343c44 -10 89 -41 89 -105v-109c0 -47 -14 -81 -41 -100s-71 -29 -132 -29h-179v649h174c42 0 75 -6 99 -17c40 -19 57 -42 57 -106v-87c0 -59 -28 -80 -67 -92v-4zM239 365c53 0 86 14 86 77v76c0 59 -37 67 -88 67h-101v-220h103zM342 133v98c0 36 -11 55 -33 64
c-24 9 -34 9 -67 9h-106v-237h106c37 0 63 5 78 15s22 27 22 51z" />
    <glyph glyph-name="Gamma" unicode="&#x393;" horiz-adv-x="398" 
d="M375 581h-239v-581h-73v649h312v-68z" />
    <glyph glyph-name="uni0394" unicode="&#x394;" horiz-adv-x="489" 
d="M478 0h-467l194 649h84zM239 557l-137 -489h281l-137 489h-7z" />
    <glyph glyph-name="Epsilon" unicode="&#x395;" 
d="M398 0h-335v649h327v-68h-254v-212h229v-68h-229v-233h262v-68z" />
    <glyph glyph-name="Zeta" unicode="&#x396;" 
d="M405 0h-375v68l287 513h-279v68h363v-68l-287 -513h291v-68z" />
    <glyph glyph-name="Eta" unicode="&#x397;" horiz-adv-x="530" 
d="M467 0h-72v301h-259v-301h-73v649h73v-280h259v280h72v-649z" />
    <glyph glyph-name="Theta" unicode="&#x398;" horiz-adv-x="509" 
d="M161 294v60h186v-60h-186zM460 474v-308c0 -112 -65 -153 -137 -169c-21 -5 -45 -7 -69 -7c-136 0 -204 59 -204 176v307c0 124 68 186 204 186c137 0 206 -62 206 -185zM254 596c-73 0 -135 -22 -135 -120v-309c0 -75 45 -112 136 -112c89 0 134 37 134 112v309
c0 80 -45 120 -135 120z" />
    <glyph glyph-name="Iota" unicode="&#x399;" horiz-adv-x="199" 
d="M136 0h-73v649h73v-649z" />
    <glyph glyph-name="Kappa" unicode="&#x39a;" horiz-adv-x="457" 
d="M464 0h-94l-233 345l218 304h88l-219 -300zM136 0h-73v649h73v-649z" />
    <glyph glyph-name="Lambda" unicode="&#x39b;" horiz-adv-x="489" 
d="M239 557l-156 -557h-72l194 649h84l189 -649h-76l-156 557h-7z" />
    <glyph glyph-name="Mu" unicode="&#x39c;" horiz-adv-x="646" 
d="M583 0h-64v549h-4l-156 -549h-66l-161 549h-4v-549h-65v649h109l156 -540l2 -1l148 541h105v-649z" />
    <glyph glyph-name="Nu" unicode="&#x39d;" horiz-adv-x="542" 
d="M479 0h-87l-265 545v-545h-64v649h88l265 -536v536h63v-649z" />
    <glyph glyph-name="Xi" unicode="&#x39e;" horiz-adv-x="473" 
d="M38 0v72h397v-72h-397zM38 577v72h397v-72h-397zM90 299v72h293v-72h-293z" />
    <glyph glyph-name="Omicron" unicode="&#x39f;" horiz-adv-x="509" 
d="M460 474v-308c0 -112 -65 -153 -137 -169c-21 -5 -45 -7 -69 -7c-136 0 -204 59 -204 176v307c0 124 68 186 204 186c137 0 206 -62 206 -185zM254 596c-73 0 -135 -22 -135 -120v-309c0 -75 45 -112 136 -112c89 0 134 37 134 112v309c0 80 -45 120 -135 120z" />
    <glyph glyph-name="Pi" unicode="&#x3a0;" horiz-adv-x="515" 
d="M452 0h-72v582h-244v-582h-73v649h389v-649z" />
    <glyph glyph-name="Rho" unicode="&#x3a1;" horiz-adv-x="428" 
d="M394 521v-133c0 -56 -16 -96 -48 -119s-78 -35 -137 -35h-73v-234h-73v649h159c53 0 105 -3 137 -32c20 -19 35 -51 35 -96zM323 509c0 70 -54 79 -106 79h-82v-293h83c29 0 54 7 74 22c20 14 31 39 31 74v118z" />
    <glyph glyph-name="Sigma" unicode="&#x3a3;" 
d="M390 649v-68h-282l182 -205v-78l-183 -230h291v-68h-357v90l188 246l-188 215v98h349z" />
    <glyph glyph-name="Tau" unicode="&#x3a4;" horiz-adv-x="439" 
d="M421 581h-164v-581h-74v581h-165v68h403v-68z" />
    <glyph glyph-name="Upsilon" unicode="&#x3a5;" horiz-adv-x="438" 
d="M432 649l-177 -384v-265h-73v262l-176 387h83l130 -305l130 305h83z" />
    <glyph glyph-name="Phi" unicode="&#x3a6;" horiz-adv-x="539" 
d="M308 0h-73v61c-71 0 -121 20 -157 71c-19 27 -28 62 -28 104v167c0 65 17 112 53 141c35 29 79 43 132 43v62h73v-62c99 0 182 -50 182 -183v-168c0 -84 -47 -139 -96 -158c-26 -11 -55 -16 -86 -16v-62zM122 406v-169c0 -80 50 -110 113 -110v397
c-75 0 -113 -39 -113 -118zM308 127c60 0 108 32 108 110v169c0 81 -48 118 -108 118v-397z" />
    <glyph glyph-name="Chi" unicode="&#x3a7;" horiz-adv-x="453" 
d="M447 0h-83l-137 264l-138 -264h-83l179 331l-171 318h83l130 -251l129 251h84l-172 -318z" />
    <glyph glyph-name="Psi" unicode="&#x3a8;" horiz-adv-x="521" 
d="M298 0h-73v231c-118 10 -177 68 -177 175v243h70v-242c0 -64 36 -101 107 -110v352h73v-352c70 9 106 46 106 110v242h69v-243c0 -105 -58 -163 -175 -174v-232z" />
    <glyph glyph-name="Omega" unicode="&#x3a9;" horiz-adv-x="527" 
d="M316 64c45 33 86 94 86 183v229c0 80 -46 120 -139 120c-92 0 -138 -40 -138 -120v-229c0 -89 40 -150 86 -183v-64h-161v68h78c-36 28 -73 93 -73 168v238c0 123 69 185 208 185s209 -62 209 -185v-238c0 -74 -37 -140 -74 -168h79v-68h-161v64z" />
    <glyph glyph-name="Omega" unicode="&#x2126;" horiz-adv-x="527" 
d="M316 64c45 33 86 94 86 183v229c0 80 -46 120 -139 120c-92 0 -138 -40 -138 -120v-229c0 -89 40 -150 86 -183v-64h-161v68h78c-36 28 -73 93 -73 168v238c0 123 69 185 208 185s209 -62 209 -185v-238c0 -74 -37 -140 -74 -168h79v-68h-161v64z" />
    <glyph glyph-name="Iotadieresis" unicode="&#x3aa;" horiz-adv-x="199" 
d="M136 0h-73v649h73v-649zM69 715h-67v94h67v-94zM197 715h-68v94h68v-94z" />
    <glyph glyph-name="Upsilondieresis" unicode="&#x3ab;" horiz-adv-x="438" 
d="M432 649l-177 -384v-265h-73v262l-176 387h83l130 -305l130 305h83zM191 695h-68v94h68v-94zM318 695h-67v94h67v-94z" />
    <glyph glyph-name="alphatonos" unicode="&#x3ac;" horiz-adv-x="428" 
d="M376 103c0 -38 15 -47 46 -49l-24 -61c-48 3 -76 23 -84 58c-12 -35 -17 -44 -50 -54c-18 -5 -43 -7 -76 -7c-52 0 -89 11 -111 33c-21 22 -32 62 -32 121v213c0 111 55 137 147 137c44 0 114 -13 118 -62v52h66v-381zM203 52c58 0 105 9 105 75v239c0 43 -33 65 -99 65
c-40 0 -67 -4 -79 -12s-18 -26 -18 -53v-239c0 -65 36 -75 91 -75zM224 540h-38l-22 170h81z" />
    <glyph glyph-name="epsilontonos" unicode="&#x3ad;" horiz-adv-x="373" 
d="M116 131c0 -70 54 -75 107 -75c31 0 73 7 127 22v-71c-57 -11 -104 -17 -142 -17c-49 0 -73 2 -110 20c-34 16 -53 53 -53 114v50c0 49 28 80 83 91v2c-33 7 -69 31 -69 79v39c0 69 29 92 75 102c20 5 48 7 84 7c40 0 79 -3 117 -9v-65c-35 8 -70 12 -105 12h-12
c-60 0 -90 -17 -90 -52v-30c0 -59 49 -64 93 -64h66v-62h-78c-44 0 -93 -4 -93 -62v-31zM230 540h-38l-22 170h81z" />
    <glyph glyph-name="etatonos" unicode="&#x3ae;" horiz-adv-x="430" 
d="M371 -64c0 -66 8 -80 59 -80v-64h-7c-47 0 -79 11 -95 33c-16 23 -24 58 -24 106v419c0 41 -10 64 -36 74c-11 4 -25 6 -42 6c-40 0 -66 -6 -80 -17c-13 -11 -20 -32 -20 -63v-350h-67v484h67v-59c7 46 47 69 119 69c86 0 126 -33 126 -139v-419zM243 540h-37l-22 170h81
z" />
    <glyph glyph-name="iotatonos" unicode="&#x3af;" horiz-adv-x="194" 
d="M127 136c0 -60 11 -79 54 -83v-60c-59 0 -100 10 -115 69c-5 20 -7 46 -7 79v343h68v-348zM116 540h-38l-22 170h81z" />
    <glyph glyph-name="upsilondieresistonos" unicode="&#x3b0;" horiz-adv-x="437" 
d="M218 -10c-58 0 -92 2 -124 32c-30 28 -35 73 -35 144v318h67v-319c0 -47 5 -78 17 -91c11 -14 36 -21 77 -21c36 0 50 2 69 27c23 30 24 91 24 159c0 57 -11 138 -32 245h63c13 -52 22 -94 28 -125c5 -31 8 -67 8 -107c0 -98 -6 -177 -42 -219c-31 -37 -61 -43 -120 -43z
M143 568h-67v94h67v-94zM361 568h-68v94h68v-94zM236 553h-38l-22 170h81z" />
    <glyph glyph-name="alpha" unicode="&#x3b1;" horiz-adv-x="428" 
d="M376 103c0 -38 15 -47 46 -49l-24 -61c-48 3 -76 23 -84 58c-12 -35 -17 -44 -50 -54c-18 -5 -43 -7 -76 -7c-52 0 -89 11 -111 33c-21 22 -32 62 -32 121v213c0 111 55 137 147 137c44 0 114 -13 118 -62v52h66v-381zM203 52c58 0 105 9 105 75v239c0 43 -33 65 -99 65
c-40 0 -67 -4 -79 -12s-18 -26 -18 -53v-239c0 -65 36 -75 91 -75z" />
    <glyph glyph-name="beta" unicode="&#x3b2;" horiz-adv-x="452" 
d="M320 342c44 -10 87 -40 87 -104v-100c0 -48 -14 -83 -42 -105s-72 -33 -131 -33c-34 0 -69 8 -106 25v-234h-69v690c0 71 11 119 35 143c24 23 69 35 135 35c42 0 75 -6 98 -17c41 -19 58 -42 58 -106v-97c0 -60 -27 -81 -65 -93v-4zM320 528c0 58 -41 67 -91 67
c-42 0 -70 -6 -82 -18c-13 -12 -19 -40 -19 -83v-405c33 -17 70 -25 110 -25c35 0 61 6 76 19c16 13 24 31 24 56v92c0 36 -12 55 -33 64c-25 9 -35 9 -67 9h-34v61h31c52 0 85 14 85 77v86z" />
    <glyph glyph-name="gamma" unicode="&#x3b3;" horiz-adv-x="353" 
d="M182 76c45 95 90 257 90 408h66c0 -153 -46 -320 -137 -501v-192h-67v226l-135 467h72l108 -408h3z" />
    <glyph glyph-name="delta" unicode="&#x3b4;" horiz-adv-x="425" 
d="M198 632c-19 0 -31 -2 -31 -24c0 -7 3 -14 10 -23s19 -24 38 -44c64 -71 105 -120 122 -145c27 -46 42 -94 43 -143v-100c0 -81 -19 -132 -66 -150c-35 -13 -56 -13 -102 -13c-57 0 -83 0 -120 24c-35 21 -47 68 -47 139v90c0 81 14 133 51 164c33 27 52 33 97 52l3 2
c-50 55 -78 88 -86 101c-10 16 -15 34 -15 55c0 63 43 76 99 76h126v-61h-122zM311 140v97c0 35 -6 66 -18 91s-33 55 -65 90h-1c-26 -10 -45 -18 -56 -24c-23 -13 -47 -38 -53 -73c-3 -18 -4 -43 -4 -74v-107c0 -40 5 -66 25 -78c22 -14 38 -13 73 -13c36 0 51 -1 74 13
c20 12 25 38 25 78z" />
    <glyph glyph-name="epsilon" unicode="&#x3b5;" horiz-adv-x="373" 
d="M116 131c0 -70 54 -75 107 -75c31 0 73 7 127 22v-71c-57 -11 -104 -17 -142 -17c-49 0 -73 2 -110 20c-34 16 -53 53 -53 114v50c0 49 28 80 83 91v2c-33 7 -69 31 -69 79v39c0 69 29 92 75 102c20 5 48 7 84 7c40 0 79 -3 117 -9v-65c-35 8 -70 12 -105 12h-12
c-60 0 -90 -17 -90 -52v-30c0 -59 49 -64 93 -64h66v-62h-78c-44 0 -93 -4 -93 -62v-31z" />
    <glyph glyph-name="zeta" unicode="&#x3b6;" horiz-adv-x="314" 
d="M266 693c16 0 30 -17 30 -37c0 -63 -57 -91 -109 -93c-42 -67 -63 -133 -63 -196v-236c0 -33 4 -56 20 -65c17 -10 25 -10 51 -10c84 0 122 -30 122 -138c0 -34 -6 -76 -19 -126h-59c10 48 15 81 15 100c0 81 -12 98 -74 98c-58 0 -102 8 -117 65c-6 19 -8 43 -8 74v223
c0 45 7 84 20 116c14 31 33 63 57 95h-117v63h156c35 45 67 67 95 67z" />
    <glyph glyph-name="eta" unicode="&#x3b7;" horiz-adv-x="430" 
d="M371 -64c0 -66 8 -80 59 -80v-64h-7c-47 0 -79 11 -95 33c-16 23 -24 58 -24 106v419c0 41 -10 64 -36 74c-11 4 -25 6 -42 6c-40 0 -66 -6 -80 -17c-13 -11 -20 -32 -20 -63v-350h-67v484h67v-59c7 46 47 69 119 69c86 0 126 -33 126 -139v-419z" />
    <glyph glyph-name="theta" unicode="&#x3b8;" 
d="M389 484v-328c0 -108 -47 -155 -120 -164c-15 -1 -32 -2 -52 -2c-56 0 -107 6 -137 42c-21 24 -34 69 -34 124v327c0 87 25 141 75 161c33 13 53 15 96 15c57 0 107 -6 137 -43c22 -26 35 -74 35 -132zM321 151v154h-207v-154c0 -43 8 -71 24 -83c16 -13 43 -19 80 -19
c38 0 64 6 80 19c15 12 23 40 23 83zM114 490v-121h207v121c0 47 -8 78 -24 91c-15 13 -42 19 -79 19c-39 0 -66 -6 -81 -19s-23 -44 -23 -91z" />
    <glyph glyph-name="iota" unicode="&#x3b9;" horiz-adv-x="194" 
d="M127 136c0 -60 11 -79 54 -83v-60c-59 0 -100 10 -115 69c-5 20 -7 46 -7 79v343h68v-348z" />
    <glyph glyph-name="kappa" unicode="&#x3ba;" horiz-adv-x="395" 
d="M407 0h-95l-180 250l168 234h85l-167 -230zM131 0h-68v484h68v-484z" />
    <glyph glyph-name="lambda" unicode="&#x3bb;" horiz-adv-x="362" 
d="M163 700l187 -700h-71l-100 406h-4l-98 -406h-65l134 508l-18 65c-8 32 -24 74 -47 127h82z" />
    <glyph glyph-name="uni03BC" unicode="&#x3bc;" horiz-adv-x="430" 
d="M371 0h-66v59c-8 -46 -48 -69 -120 -69c-22 0 -42 3 -59 8v-206h-67v692h67v-350c0 -41 10 -64 36 -73c11 -5 25 -7 42 -7c38 0 64 5 78 14s22 26 22 51v365h67v-484z" />
    <glyph glyph-name="nu" unicode="&#x3bd;" horiz-adv-x="347" 
d="M343 484l-127 -484h-81l-130 484h71l100 -406h4l98 406h65z" />
    <glyph glyph-name="xi" unicode="&#x3be;" horiz-adv-x="395" 
d="M137 348c-32 7 -65 30 -65 78v125c0 20 2 37 8 50h-80v59h231c53 0 98 -3 137 -8v-65c-43 7 -89 11 -138 11c-60 0 -90 -17 -90 -52v-116c0 -59 50 -64 94 -64h81v-62h-94c-43 0 -93 -4 -93 -62v-111c0 -70 55 -75 108 -75c62 0 104 -10 126 -30s33 -56 33 -108
c0 -35 -8 -77 -25 -126h-59c14 40 21 74 21 101c0 37 -7 62 -23 76c-15 14 -44 21 -88 21c-90 0 -163 20 -163 139v130c0 63 39 76 79 85v4z" />
    <glyph glyph-name="omicron" unicode="&#x3bf;" horiz-adv-x="426" 
d="M380 321v-168c0 -81 -19 -132 -66 -150c-35 -13 -56 -13 -102 -13c-57 0 -83 0 -120 24c-35 21 -47 68 -47 139v168c0 84 18 141 66 160c35 14 54 13 101 13c48 0 66 1 102 -13c33 -14 46 -36 57 -79c6 -22 9 -49 9 -81zM311 140v196c0 45 -7 72 -21 83
c-13 11 -39 16 -78 16c-38 0 -64 -5 -78 -16c-13 -11 -20 -38 -20 -83v-196c0 -40 5 -66 25 -78c22 -14 38 -13 73 -13c36 0 51 -1 74 13c20 12 25 38 25 78z" />
    <glyph glyph-name="pi" unicode="&#x3c0;" horiz-adv-x="441" 
d="M347 131c0 -73 18 -84 76 -84h5v-53c-5 0 -22 -1 -27 -1c-47 0 -79 9 -96 28c-18 18 -26 57 -26 116v288h-122v-425h-68v425h-74v59h407v-59h-75v-294z" />
    <glyph glyph-name="rho" unicode="&#x3c1;" horiz-adv-x="434" 
d="M125 44c0 -21 1 -94 1 -115v-137h-67v544c0 81 20 130 67 147c35 12 50 11 95 11c44 0 60 1 95 -11s50 -31 63 -72c7 -21 10 -46 10 -75v-199c0 -98 -50 -147 -150 -147c-36 0 -64 5 -83 16c-18 10 -29 23 -31 38zM320 149v190c0 41 -7 67 -21 79c-14 11 -40 17 -77 17
s-63 -6 -78 -17c-14 -12 -22 -38 -22 -79v-190c0 -38 8 -63 23 -76s40 -19 76 -19c37 0 63 6 78 17c14 11 21 37 21 78z" />
    <glyph glyph-name="uni03C2" unicode="&#x3c2;" horiz-adv-x="0" 
 />
    <glyph glyph-name="sigma" unicode="&#x3c3;" 
d="M212 494c14 0 122 -10 135 -10h95v-59h-86c16 -22 24 -57 24 -106v-166c0 -81 -19 -132 -66 -150c-35 -13 -56 -13 -102 -13c-57 0 -83 0 -120 24c-35 21 -47 68 -47 139v168c0 84 18 141 66 160c35 14 54 13 101 13zM311 140v196c0 45 -7 72 -21 83
c-13 11 -39 16 -78 16c-38 0 -64 -5 -78 -16c-13 -11 -20 -38 -20 -83v-196c0 -40 5 -66 25 -78c22 -14 38 -13 73 -13c36 0 51 -1 74 13c20 12 25 38 25 78z" />
    <glyph glyph-name="tau" unicode="&#x3c4;" horiz-adv-x="309" 
d="M175 136c0 -62 9 -84 53 -84c8 0 22 2 39 5v-59c-21 -3 -39 -5 -54 -5c-78 0 -106 43 -106 148v284h-99v59h279v-59h-112v-289z" />
    <glyph glyph-name="upsilon" unicode="&#x3c5;" horiz-adv-x="434" 
d="M218 -10c-58 0 -92 2 -124 32c-30 28 -35 73 -35 144v318h67v-319c0 -47 5 -78 17 -91c11 -14 36 -21 77 -21c36 0 50 2 69 27c23 30 24 91 24 159c0 57 -11 138 -32 245h63c13 -52 22 -94 28 -125c5 -31 8 -67 8 -107c0 -98 -6 -177 -42 -219c-31 -37 -61 -43 -120 -43z
" />
    <glyph glyph-name="phi" unicode="&#x3c6;" horiz-adv-x="488" 
d="M212 -208v198c-51 1 -80 7 -115 29c-34 22 -50 67 -50 134v168c0 119 38 165 120 172v-60c-34 -6 -51 -38 -51 -97v-196c0 -74 40 -89 96 -91v283c0 67 8 110 24 131c15 21 45 31 89 31c46 0 77 -11 93 -32c15 -22 23 -69 23 -141v-168c0 -66 -16 -112 -50 -133
c-35 -22 -63 -29 -113 -30v-198h-66zM372 336c0 67 -5 97 -50 97c-19 0 -31 -7 -36 -21c-6 -14 -8 -40 -8 -78v-285c30 2 53 9 69 22c17 12 25 35 25 69v196z" />
    <glyph glyph-name="chi" unicode="&#x3c7;" horiz-adv-x="359" 
d="M145 171l-129 313h70l94 -229l96 229h68l-129 -311l161 -381h-73l-124 295l-121 -296h-71z" />
    <glyph glyph-name="psi" unicode="&#x3c8;" horiz-adv-x="562" 
d="M59 484h65v-261c0 -41 1 -72 4 -94c6 -41 28 -68 58 -74c13 -3 34 -4 62 -4v433h66v-433c36 0 54 -1 80 10c21 8 28 19 35 47c9 34 8 65 8 115v261h66v-258c0 -54 0 -96 -10 -134c-8 -33 -13 -54 -32 -71s-28 -23 -58 -28c-35 -5 -49 -4 -89 -4v-197h-66v197
c-36 0 -50 0 -82 3c-28 3 -36 8 -56 20c-19 11 -24 27 -34 50c-11 24 -13 58 -16 95c-1 20 -1 43 -1 69v258z" />
    <glyph glyph-name="omega" unicode="&#x3c9;" horiz-adv-x="612" 
d="M45 252c0 104 7 148 29 232h63c-16 -81 -24 -163 -24 -245c0 -57 2 -99 8 -126c11 -54 26 -63 75 -63c32 0 53 11 63 34s15 64 15 124v180h65v-180c0 -59 5 -100 16 -123c10 -23 31 -35 63 -35c35 0 49 3 64 29c7 13 12 32 15 57c2 25 3 59 3 103c0 57 -10 138 -31 245
h63c13 -52 22 -94 27 -125s8 -67 8 -107c0 -94 -4 -169 -35 -214c-26 -38 -54 -48 -107 -48c-67 0 -98 25 -118 92c-21 -67 -53 -92 -119 -92c-54 0 -90 18 -111 54c-21 35 -32 105 -32 208z" />
    <glyph glyph-name="iotadieresis" unicode="&#x3ca;" horiz-adv-x="194" 
d="M127 136c0 -60 11 -79 54 -83v-60c-59 0 -100 10 -115 69c-5 20 -7 46 -7 79v343h68v-348zM64 565h-68v94h68v-94zM191 565h-67v94h67v-94z" />
    <glyph glyph-name="upsilondieresis" unicode="&#x3cb;" horiz-adv-x="437" 
d="M218 -10c-58 0 -92 2 -124 32c-30 28 -35 73 -35 144v318h67v-319c0 -47 5 -78 17 -91c11 -14 36 -21 77 -21c36 0 50 2 69 27c23 30 24 91 24 159c0 57 -11 138 -32 245h63c13 -52 22 -94 28 -125c5 -31 8 -67 8 -107c0 -98 -6 -177 -42 -219c-31 -37 -61 -43 -120 -43z
M190 565h-68v94h68v-94zM317 565h-67v94h67v-94z" />
    <glyph glyph-name="omicrontonos" unicode="&#x3cc;" horiz-adv-x="426" 
d="M380 321v-168c0 -81 -19 -132 -66 -150c-35 -13 -56 -13 -102 -13c-57 0 -83 0 -120 24c-35 21 -47 68 -47 139v168c0 84 18 141 66 160c35 14 54 13 101 13c48 0 66 1 102 -13c33 -14 46 -36 57 -79c6 -22 9 -49 9 -81zM311 140v196c0 45 -7 72 -21 83
c-13 11 -39 16 -78 16c-38 0 -64 -5 -78 -16c-13 -11 -20 -38 -20 -83v-196c0 -40 5 -66 25 -78c22 -14 38 -13 73 -13c36 0 51 -1 74 13c20 12 25 38 25 78zM232 540h-38l-21 170h81z" />
    <glyph glyph-name="upsilontonos" unicode="&#x3cd;" horiz-adv-x="437" 
d="M218 -10c-58 0 -92 2 -124 32c-30 28 -35 73 -35 144v318h67v-319c0 -47 5 -78 17 -91c11 -14 36 -21 77 -21c36 0 50 2 69 27c23 30 24 91 24 159c0 57 -11 138 -32 245h63c13 -52 22 -94 28 -125c5 -31 8 -67 8 -107c0 -98 -6 -177 -42 -219c-31 -37 -61 -43 -120 -43z
M237 506h-37l-22 170h81z" />
    <glyph glyph-name="omegatonos" unicode="&#x3ce;" horiz-adv-x="612" 
d="M45 252c0 104 7 148 29 232h63c-16 -81 -24 -163 -24 -245c0 -57 2 -99 8 -126c11 -54 26 -63 75 -63c32 0 53 11 63 34s15 64 15 124v180h65v-180c0 -59 5 -100 16 -123c10 -23 31 -35 63 -35c35 0 49 3 64 29c7 13 12 32 15 57c2 25 3 59 3 103c0 57 -10 138 -31 245
h63c13 -52 22 -94 27 -125s8 -67 8 -107c0 -94 -4 -169 -35 -214c-26 -38 -54 -48 -107 -48c-67 0 -98 25 -118 92c-21 -67 -53 -92 -119 -92c-54 0 -90 18 -111 54c-21 35 -32 105 -32 208zM325 540h-38l-21 170h81z" />
    <glyph glyph-name="uni0400" unicode="&#x400;" 
d="M398 0h-335v649h327v-68h-254v-212h229v-68h-229v-233h262v-68zM292 718h-56l-93 127h81z" />
    <glyph glyph-name="afii10023" unicode="&#x401;" 
d="M398 0h-335v649h327v-68h-254v-212h229v-68h-229v-233h262v-68zM200 721h-67v94h67v-94zM328 721h-68v94h68v-94z" />
    <glyph glyph-name="afii10051" unicode="&#x402;" horiz-adv-x="563" 
d="M376 389c86 0 128 -33 128 -139c0 -68 -7 -119 -19 -175c-17 -81 -34 -145 -57 -224c-9 -30 -14 -46 -15 -49h-75c0 3 36 115 36 118c5 19 31 107 35 128c7 32 20 94 23 133c1 21 2 42 2 63c0 41 -10 64 -35 74c-12 4 -26 6 -43 6c-40 0 -66 -5 -80 -16
c-13 -11 -19 -30 -19 -56v-252h-74v581h-165v68h403v-68h-164v-256c11 43 50 64 119 64z" />
    <glyph glyph-name="afii10052" unicode="&#x403;" horiz-adv-x="368" 
d="M345 581h-209v-581h-73v649h282v-68zM304 830l-94 -127h-55l67 127h82z" />
    <glyph glyph-name="afii10053" unicode="&#x404;" horiz-adv-x="423" 
d="M254 593c-73 0 -136 -19 -136 -118v-107h247v-67h-247v-130c0 -75 46 -112 139 -112c40 0 84 8 132 24v-74c-43 -13 -89 -19 -136 -19c-137 0 -205 59 -205 176v308c0 124 68 186 205 186c45 0 90 -6 133 -19v-72c-48 16 -92 24 -132 24z" />
    <glyph glyph-name="afii10054" unicode="&#x405;" horiz-adv-x="427" 
d="M256 372c93 0 130 -36 130 -152v-47c0 -71 -15 -119 -45 -144c-30 -26 -78 -39 -143 -39c-37 0 -84 5 -143 16v81c58 -17 106 -25 145 -25s67 5 86 15s28 31 28 63v84c0 63 -28 76 -81 76h-57c-90 0 -131 43 -131 156v52c0 51 14 89 41 114c28 25 78 37 152 37
c34 0 75 -4 124 -11v-73c-56 11 -99 17 -128 17c-48 0 -80 -6 -95 -18c-16 -12 -23 -33 -23 -63v-74c0 -56 32 -65 81 -65h59z" />
    <glyph glyph-name="afii10055" unicode="&#x406;" horiz-adv-x="199" 
d="M136 0h-73v649h73v-649z" />
    <glyph glyph-name="afii10056" unicode="&#x407;" horiz-adv-x="199" 
d="M136 0h-73v649h73v-649zM69 725h-67v94h67v-94zM197 725h-68v94h68v-94z" />
    <glyph glyph-name="afii10057" unicode="&#x408;" horiz-adv-x="302" 
d="M239 649v-506c0 -61 -10 -101 -30 -120c-21 -19 -56 -28 -105 -28c-8 0 -38 2 -89 6v65c52 -7 79 -11 80 -11c29 0 48 5 57 15c10 9 15 32 15 69v510h72z" />
    <glyph glyph-name="afii10058" unicode="&#x409;" horiz-adv-x="750" 
d="M29 70c42 0 57 25 57 83v496h372v-280h73c95 0 185 -7 185 -132v-96c0 -94 -57 -141 -171 -141h-159v577h-228v-433c0 -98 -30 -144 -103 -144h-43v70h17zM539 66c52 0 106 9 106 79v81c0 31 -8 51 -23 61c-15 9 -42 14 -81 14h-83v-235h81z" />
    <glyph glyph-name="afii10059" unicode="&#x40a;" horiz-adv-x="750" 
d="M531 369c95 0 185 -7 185 -132v-96c0 -94 -57 -141 -171 -141h-159v301h-250v-301h-73v649h73v-280h250v280h72v-280h73zM539 66c52 0 106 9 106 79v81c0 31 -8 51 -23 61c-15 9 -42 14 -81 14h-83v-235h81z" />
    <glyph glyph-name="afii10060" unicode="&#x40b;" horiz-adv-x="563" 
d="M376 389c86 0 128 -33 128 -139v-250h-70v244c0 41 -10 64 -35 74c-12 4 -26 6 -43 6c-40 0 -66 -5 -80 -16c-13 -11 -19 -30 -19 -56v-252h-74v581h-165v68h403v-68h-164v-256c11 43 50 64 119 64z" />
    <glyph glyph-name="afii10061" unicode="&#x40c;" horiz-adv-x="450" 
d="M137 0h-74v649h74v-281c42 0 52 12 69 49l67 139c20 42 37 68 50 78s37 15 72 15h34v-68h-38c-13 0 -24 -5 -34 -16c-9 -11 -20 -30 -31 -55l-48 -104c-16 -39 -30 -62 -63 -73c19 -6 56 -50 111 -131l136 -202h-93l-134 202c-29 43 -49 71 -62 82s-25 17 -36 17v-301z
M299 845l-93 -127h-56l68 127h81z" />
    <glyph glyph-name="uni040D" unicode="&#x40d;" horiz-adv-x="542" 
d="M152 0h-88v649h67v-536l261 536h88v-649h-67v545zM309 718h-55l-94 127h82z" />
    <glyph glyph-name="afii10062" unicode="&#x40e;" horiz-adv-x="403" 
d="M398 649l-173 -534c-13 -41 -29 -72 -49 -93c-19 -21 -46 -32 -81 -32c-19 0 -40 3 -63 10v70c15 -5 31 -7 45 -7c22 0 39 7 51 20s23 34 33 64l15 46l-171 456h81l125 -360l114 360h73zM290 845c-2 -74 -33 -127 -89 -127s-87 53 -88 127h40c3 -45 19 -68 48 -68
s45 23 48 68h41z" />
    <glyph glyph-name="afii10145" unicode="&#x40f;" horiz-adv-x="530" 
d="M302 -166h-68v166h-171v649h73v-582h259v582h72v-649h-165v-166z" />
    <glyph glyph-name="afii10017" unicode="&#x410;" horiz-adv-x="489" 
d="M478 0h-76l-55 197h-209l-55 -197h-72l194 649h84zM329 264l-83 293h-7l-82 -293h172z" />
    <glyph glyph-name="afii10018" unicode="&#x411;" horiz-adv-x="428" 
d="M209 369c94 0 185 -7 185 -132v-96c0 -94 -57 -141 -172 -141h-159v649h267v-69h-194v-211h73zM217 66c52 0 106 9 106 79v81c0 29 -9 49 -25 60s-43 17 -80 17h-83v-237h82z" />
    <glyph glyph-name="afii10019" unicode="&#x412;" horiz-adv-x="460" 
d="M326 343c44 -10 89 -41 89 -105v-109c0 -47 -14 -81 -41 -100s-71 -29 -132 -29h-179v649h174c42 0 75 -6 99 -17c40 -19 57 -42 57 -106v-87c0 -59 -28 -80 -67 -92v-4zM239 365c53 0 86 14 86 77v76c0 59 -37 67 -88 67h-101v-220h103zM342 133v98c0 36 -11 55 -33 64
c-24 9 -34 9 -67 9h-106v-237h106c37 0 63 5 78 15s22 27 22 51z" />
    <glyph glyph-name="afii10020" unicode="&#x413;" horiz-adv-x="368" 
d="M345 581h-209v-581h-73v649h282v-68z" />
    <glyph glyph-name="afii10021" unicode="&#x414;" horiz-adv-x="500" 
d="M122 649h304v-575h48v-240h-63v166h-332v-166h-64v240h42c23 45 39 103 49 174c10 70 16 169 16 296v105zM190 528c0 -160 -20 -359 -60 -454h225v500h-165v-46z" />
    <glyph glyph-name="afii10022" unicode="&#x415;" 
d="M398 0h-335v649h327v-68h-254v-212h229v-68h-229v-233h262v-68z" />
    <glyph glyph-name="afii10024" unicode="&#x416;" horiz-adv-x="716" 
d="M321 368v281h73v-281c21 0 36 3 43 9c8 5 17 19 27 40l66 139c21 42 37 68 50 78s37 15 73 15h33v-68h-38c-13 0 -24 -5 -33 -16c-10 -11 -21 -30 -32 -55l-47 -104c-17 -39 -31 -62 -63 -73c18 -6 55 -50 110 -131l136 -202h-86l-138 202c-29 43 -51 70 -64 82
c-13 11 -26 17 -37 17v-301h-73v301c-11 0 -24 -6 -37 -17c-13 -12 -35 -39 -64 -82l-138 -202h-87l137 202c55 81 92 125 110 131c-33 11 -46 35 -63 73l-47 104c-11 25 -22 44 -32 55s-21 16 -33 16h-38v68h33c36 0 60 -5 73 -15c12 -10 29 -36 50 -78l66 -139
c10 -21 19 -35 27 -40c7 -6 21 -9 43 -9z" />
    <glyph glyph-name="afii10025" unicode="&#x417;" 
d="M294 344c40 -9 81 -22 81 -85v-130c0 -48 -18 -84 -40 -103c-33 -30 -84 -36 -138 -36c-50 0 -102 6 -156 19v74c60 -17 110 -25 149 -25c53 0 115 4 115 75v109c0 41 -34 62 -101 62h-101v62h88c68 0 102 21 102 64v109c0 35 -33 52 -98 52c-22 0 -51 -2 -88 -5
c-37 -4 -56 -6 -57 -6v68c61 5 109 8 144 8c55 0 96 -8 124 -24c29 -16 43 -44 43 -85v-121c0 -48 -35 -71 -67 -78v-4z" />
    <glyph glyph-name="afii10026" unicode="&#x418;" horiz-adv-x="542" 
d="M152 0h-88v649h67v-536l261 536h88v-649h-67v545z" />
    <glyph glyph-name="afii10027" unicode="&#x419;" horiz-adv-x="544" 
d="M152 0h-88v649h67v-536l261 536h88v-649h-67v545zM281 763c34 0 45 28 54 67h34c-4 -72 -47 -127 -103 -127c-57 0 -101 54 -104 127h65c6 -26 13 -44 20 -53c6 -9 18 -14 34 -14z" />
    <glyph glyph-name="afii10028" unicode="&#x41a;" horiz-adv-x="450" 
d="M137 0h-74v649h74v-281c42 0 52 12 69 49l67 139c20 42 37 68 50 78s37 15 72 15h34v-68h-38c-13 0 -24 -5 -34 -16c-9 -11 -20 -30 -31 -55l-48 -104c-16 -39 -30 -62 -63 -73c19 -6 56 -50 111 -131l136 -202h-93l-134 202c-29 43 -49 71 -62 82s-25 17 -36 17v-301z
" />
    <glyph glyph-name="afii10029" unicode="&#x41b;" horiz-adv-x="525" 
d="M44 68c32 0 42 10 42 53v528h376v-649h-73v577h-231v-479c0 -74 -32 -98 -88 -98h-67v68h41z" />
    <glyph glyph-name="afii10030" unicode="&#x41c;" horiz-adv-x="646" 
d="M583 0h-64v549h-4l-156 -549h-66l-161 549h-4v-549h-65v649h109l156 -540l2 -1l148 541h105v-649z" />
    <glyph glyph-name="afii10031" unicode="&#x41d;" horiz-adv-x="530" 
d="M467 0h-72v301h-259v-301h-73v649h73v-280h259v280h72v-649z" />
    <glyph glyph-name="afii10032" unicode="&#x41e;" horiz-adv-x="509" 
d="M460 474v-308c0 -112 -65 -153 -137 -169c-21 -5 -45 -7 -69 -7c-136 0 -204 59 -204 176v307c0 124 68 186 204 186c137 0 206 -62 206 -185zM254 596c-73 0 -135 -22 -135 -120v-309c0 -75 45 -112 136 -112c89 0 134 37 134 112v309c0 80 -45 120 -135 120z" />
    <glyph glyph-name="afii10033" unicode="&#x41f;" horiz-adv-x="515" 
d="M452 0h-72v582h-244v-582h-73v649h389v-649z" />
    <glyph glyph-name="afii10034" unicode="&#x420;" horiz-adv-x="428" 
d="M394 521v-135c0 -55 -16 -94 -49 -117c-32 -23 -77 -35 -136 -35h-73v-234h-73v649h159c53 0 105 -3 137 -32c20 -19 35 -51 35 -96zM323 509c0 70 -54 79 -106 79h-82v-293h83c29 0 54 7 74 22c20 14 31 39 31 74v118z" />
    <glyph glyph-name="afii10035" unicode="&#x421;" horiz-adv-x="423" 
d="M254 593c-73 0 -136 -19 -136 -118v-304c0 -75 46 -112 139 -112c40 0 84 8 132 24v-74c-43 -13 -89 -19 -136 -19c-137 0 -205 59 -205 176v308c0 124 68 186 205 186c45 0 90 -6 133 -19v-72c-48 16 -92 24 -132 24z" />
    <glyph glyph-name="afii10036" unicode="&#x422;" horiz-adv-x="439" 
d="M421 581h-164v-581h-74v581h-165v68h403v-68z" />
    <glyph glyph-name="afii10037" unicode="&#x423;" horiz-adv-x="403" 
d="M398 649l-173 -534c-13 -41 -29 -72 -49 -93c-19 -21 -46 -32 -81 -32c-19 0 -40 3 -63 10v70c15 -5 31 -7 45 -7c22 0 39 7 51 20s23 34 33 64l15 46l-171 456h81l125 -360l114 360h73z" />
    <glyph glyph-name="afii10038" unicode="&#x424;" horiz-adv-x="539" 
d="M308 0h-73v61c-71 0 -121 20 -157 71c-19 27 -28 62 -28 104v167c0 65 17 112 53 141c35 29 79 43 132 43v62h73v-62c99 0 182 -50 182 -183v-168c0 -84 -47 -139 -96 -158c-26 -11 -55 -16 -86 -16v-62zM122 406v-169c0 -80 50 -110 113 -110v397
c-75 0 -113 -39 -113 -118zM308 127c60 0 108 32 108 110v169c0 81 -48 118 -108 118v-397z" />
    <glyph glyph-name="afii10039" unicode="&#x425;" horiz-adv-x="453" 
d="M447 0h-83l-137 264l-138 -264h-83l179 331l-171 318h83l130 -251l129 251h84l-172 -318z" />
    <glyph glyph-name="afii10040" unicode="&#x426;" horiz-adv-x="530" 
d="M467 -166h-68v166h-336v649h73v-582h259v582h72v-815z" />
    <glyph glyph-name="afii10041" unicode="&#x427;" horiz-adv-x="458" 
d="M322 298c-9 -56 -74 -69 -129 -69c-94 0 -141 46 -141 139v281h72v-275c0 -53 29 -80 88 -80c43 0 72 6 87 19s23 33 23 61v275h73v-649h-73v298z" />
    <glyph glyph-name="afii10042" unicode="&#x428;" horiz-adv-x="697" 
d="M634 0h-571v649h73v-582h176v582h73v-582h176v582h73v-649z" />
    <glyph glyph-name="afii10043" unicode="&#x429;" horiz-adv-x="697" 
d="M566 0h-503v649h73v-582h176v582h73v-582h176v582h73v-815h-68v166z" />
    <glyph glyph-name="afii10044" unicode="&#x42a;" horiz-adv-x="510" 
d="M291 369c95 0 185 -7 185 -132v-96c0 -94 -57 -141 -171 -141h-159v581h-139v68h211v-280h73zM299 66c52 0 106 9 106 79v81c0 31 -8 52 -23 62s-42 15 -81 15h-83v-237h81z" />
    <glyph glyph-name="afii10045" unicode="&#x42b;" horiz-adv-x="605" 
d="M542 0h-73v649h73v-649zM209 369c94 0 185 -7 185 -132v-96c0 -94 -57 -141 -172 -141h-159v649h73v-280h73zM217 66c52 0 106 9 106 79v81c0 31 -8 52 -23 62c-16 10 -43 15 -82 15h-83v-237h82z" />
    <glyph glyph-name="afii10046" unicode="&#x42c;" horiz-adv-x="428" 
d="M209 369c94 0 185 -7 185 -132v-96c0 -94 -57 -141 -172 -141h-159v649h73v-280h73zM217 66c52 0 106 9 106 79v81c0 31 -8 52 -23 62c-16 10 -43 15 -82 15h-83v-237h82z" />
    <glyph glyph-name="afii10047" unicode="&#x42d;" horiz-adv-x="422" 
d="M305 475c0 99 -64 118 -137 118c-40 0 -84 -8 -132 -24v72c44 13 88 19 134 19c136 0 204 -62 204 -186v-308c0 -117 -68 -176 -204 -176c-48 0 -93 6 -137 19v74c48 -16 92 -24 132 -24c93 0 140 37 140 112v130h-248v67h248v107z" />
    <glyph glyph-name="afii10048" unicode="&#x42e;" horiz-adv-x="701" 
d="M136 0h-73v649h73v-288h105v112c0 124 68 186 204 186c137 0 206 -62 206 -185v-308c0 -112 -64 -153 -136 -169c-22 -5 -45 -7 -70 -7c-136 0 -204 59 -204 176v133h-105v-299zM446 596c-74 0 -135 -22 -135 -120v-309c0 -75 45 -112 135 -112s135 37 135 112v309
c0 80 -45 120 -135 120z" />
    <glyph glyph-name="afii10049" unicode="&#x42f;" horiz-adv-x="459" 
d="M180 289c-65 0 -126 37 -126 121v112c0 51 13 85 39 102c25 17 70 25 132 25h171v-649h-73v277h-70l-140 -277h-89zM127 512v-90c0 -26 7 -46 21 -60s40 -21 80 -21h95v244h-102c-63 0 -94 -24 -94 -73z" />
    <glyph glyph-name="afii10065" unicode="&#x430;" horiz-adv-x="404" 
d="M345 0h-65v46c-6 -37 -42 -56 -110 -56c-50 0 -84 10 -104 31c-19 20 -28 61 -28 123c0 54 9 91 27 112c18 20 52 30 104 30h109v77c0 27 -7 45 -19 54s-35 14 -69 14c-37 0 -79 -4 -125 -12v66c50 6 95 9 135 9c60 0 100 -10 118 -29c18 -20 27 -61 27 -123v-342z
M104 141c0 -70 11 -94 64 -94h14c38 0 96 -2 96 49v134h-105c-61 0 -69 -10 -69 -89z" />
    <glyph glyph-name="afii10066" unicode="&#x431;" 
d="M244 494c88 0 138 -43 138 -154v-184c0 -70 -16 -118 -51 -140s-63 -26 -114 -26c-55 0 -104 5 -132 42c-20 25 -32 70 -32 124v371c0 117 51 164 131 174c14 1 31 2 52 2c30 0 71 -3 123 -9v-68c-54 9 -98 13 -133 13c-39 0 -67 -6 -82 -19c-16 -13 -24 -44 -24 -91v-77
c24 21 84 42 124 42zM228 426c-41 0 -90 -23 -108 -54v-221c0 -43 7 -71 21 -83c15 -13 40 -19 77 -19s63 6 76 18c14 12 21 40 21 84v188c0 74 -26 87 -87 87z" />
    <glyph glyph-name="afii10067" unicode="&#x432;" horiz-adv-x="430" 
d="M363 349c0 -60 -26 -75 -65 -87v-4c58 -13 87 -46 87 -101v-29c0 -48 -12 -81 -34 -100c-23 -19 -64 -28 -124 -28h-164v484h159c51 0 98 -2 120 -33c18 -23 21 -41 21 -85v-17zM228 280c53 0 71 8 71 72v6c0 25 -5 42 -14 51s-29 13 -59 13h-95v-142h97zM316 131v32
c0 17 -6 31 -16 42c-11 11 -33 16 -65 16h-104v-156h100c35 0 58 5 69 14c10 9 16 27 16 52z" />
    <glyph glyph-name="afii10068" unicode="&#x433;" horiz-adv-x="315" 
d="M293 418h-162v-418h-68v484h230v-66z" />
    <glyph glyph-name="afii10069" unicode="&#x434;" horiz-adv-x="400" 
d="M266 64v356h-113v-25c0 -127 -13 -237 -40 -331h153zM93 450v34h233v-420h36v-198h-57v134h-235v-134h-58v198h35c30 93 46 221 46 386z" />
    <glyph glyph-name="afii10070" unicode="&#x435;" horiz-adv-x="401" 
d="M206 494c99 0 151 -36 151 -165v-107h-244v-73c0 -77 47 -94 111 -94c32 0 72 8 119 24v-69c-47 -13 -94 -20 -140 -20c-86 0 -158 38 -158 148v191c0 129 58 165 161 165zM204 434c-55 0 -91 -9 -91 -77v-76h177v76c0 66 -32 77 -86 77z" />
    <glyph glyph-name="afii10072" unicode="&#x436;" horiz-adv-x="546" 
d="M242 273v211h63v-211c15 0 26 2 31 7c6 4 12 14 20 30l48 105c15 31 27 51 37 58c9 7 28 11 55 11h37v-51h-30c-16 0 -32 -18 -48 -53l-36 -78c-13 -30 -28 -48 -46 -54c14 -5 41 -37 82 -98l102 -150h-80l-99 150c-22 32 -37 52 -46 61c-10 9 -19 13 -27 13v-224h-63
v224c-8 0 -17 -4 -27 -13c-9 -9 -25 -29 -46 -61l-99 -150h-81l102 150c41 61 68 93 82 98c-18 6 -33 24 -46 54l-36 78c-16 35 -32 53 -48 53h-29v51h37c27 0 45 -4 55 -11s22 -27 37 -58l48 -105c8 -16 14 -26 19 -30c6 -5 16 -7 32 -7z" />
    <glyph glyph-name="afii10073" unicode="&#x437;" horiz-adv-x="376" 
d="M317 346c0 -47 -32 -72 -63 -79v-4c51 -11 77 -40 77 -89v-50c0 -119 -81 -134 -170 -134c-38 0 -83 6 -135 17v71c54 -15 99 -22 135 -22c51 0 99 5 99 75v31c0 58 -50 62 -93 62h-78v62h66c44 0 93 5 93 64v30c0 35 -30 52 -90 52c-47 0 -87 -4 -122 -12v65
c38 6 78 9 122 9c36 0 63 -2 84 -7c46 -10 75 -33 75 -102v-39z" />
    <glyph glyph-name="afii10074" unicode="&#x438;" horiz-adv-x="449" 
d="M146 0h-87v484h63v-391l180 391h88v-484h-64v400z" />
    <glyph glyph-name="afii10075" unicode="&#x439;" horiz-adv-x="449" 
d="M259 612c33 0 45 28 54 67h34c-4 -72 -47 -127 -104 -127s-101 54 -103 127h64c7 -26 14 -44 20 -53c7 -9 18 -14 35 -14zM146 0h-87v484h63v-391l180 391h88v-484h-64v400z" />
    <glyph glyph-name="afii10076" unicode="&#x43a;" horiz-adv-x="377" 
d="M58 0v484h67v-209c18 0 31 3 40 10c10 7 20 22 31 45l37 79c14 31 28 51 43 61c14 9 35 14 63 14h26v-51h-15c-25 0 -46 -18 -63 -53l-28 -62c-18 -41 -36 -64 -54 -70c14 -5 41 -37 82 -98l102 -150h-84l-99 150c-14 22 -27 38 -39 49c-21 18 -18 18 -42 18v-217h-67z
" />
    <glyph glyph-name="afii10077" unicode="&#x43b;" horiz-adv-x="428" 
d="M0 50c59 0 80 10 80 84v350h290v-484h-67v418h-157v-277c0 -59 -7 -103 -33 -124c-25 -21 -47 -24 -89 -24c-10 0 -18 0 -24 1v56z" />
    <glyph glyph-name="afii10078" unicode="&#x43c;" horiz-adv-x="556" 
d="M493 0h-62v402h-4l-112 -402h-68l-116 402h-4v-402h-64v484h109l110 -394h3l103 394h105v-484z" />
    <glyph glyph-name="afii10079" unicode="&#x43d;" horiz-adv-x="431" 
d="M372 0h-67v217h-179v-217h-67v484h67v-201h179v201h67v-484z" />
    <glyph glyph-name="afii10080" unicode="&#x43e;" horiz-adv-x="426" 
d="M380 321v-168c0 -81 -19 -132 -66 -150c-35 -13 -56 -13 -102 -13c-57 0 -83 0 -120 24c-35 21 -47 68 -47 139v168c0 84 18 141 66 160c35 14 54 13 101 13c48 0 66 1 102 -13c33 -14 46 -36 57 -79c6 -22 9 -49 9 -81zM311 140v196c0 45 -7 72 -21 83
c-13 11 -39 16 -78 16c-38 0 -64 -5 -78 -16c-13 -11 -20 -38 -20 -83v-196c0 -40 5 -66 25 -78c22 -14 38 -13 73 -13c36 0 51 -1 74 13c20 12 25 38 25 78z" />
    <glyph glyph-name="afii10081" unicode="&#x43f;" horiz-adv-x="433" 
d="M370 0h-68v418h-171v-418h-68v484h307v-484z" />
    <glyph glyph-name="afii10082" unicode="&#x440;" horiz-adv-x="434" 
d="M221 -10c-35 0 -84 11 -95 41v-229h-67v682h67v-52c5 41 47 62 124 62c48 0 84 -13 106 -40s33 -60 33 -97v-199c0 -109 -44 -157 -117 -166c-15 -1 -31 -2 -51 -2zM320 147v178c0 45 -7 73 -21 86c-15 12 -41 18 -78 18s-63 -6 -77 -18c-15 -13 -22 -41 -22 -86v-178
c0 -41 8 -67 22 -78c15 -12 41 -18 78 -18s63 6 77 18c14 11 21 37 21 78z" />
    <glyph glyph-name="afii10083" unicode="&#x441;" horiz-adv-x="348" 
d="M321 4c-33 -9 -72 -14 -116 -14c-45 0 -59 -1 -94 12c-32 11 -45 30 -57 71c-6 20 -9 45 -9 75v178c0 50 6 90 23 116c17 24 30 38 60 45c32 6 46 7 84 7c35 0 69 -5 104 -15v-66c-39 13 -77 20 -112 20c-38 0 -63 -5 -74 -16s-16 -37 -16 -78v-200c0 -35 6 -58 19 -69
c12 -11 39 -17 79 -17c35 0 72 6 109 19v-68z" />
    <glyph glyph-name="afii10084" unicode="&#x442;" horiz-adv-x="388" 
d="M370 418h-142v-418h-67v418h-143v66h352v-66z" />
    <glyph glyph-name="afii10085" unicode="&#x443;" horiz-adv-x="345" 
d="M341 484l-180 -682h-71l55 191l-140 491h73l101 -395h2l91 395h69z" />
    <glyph glyph-name="afii10086" unicode="&#x444;" horiz-adv-x="682" 
d="M375 -198h-67v210c-33 -15 -65 -22 -96 -22c-57 0 -83 0 -120 24c-35 21 -47 68 -47 139v168c0 84 18 141 66 160c35 14 54 13 101 13c32 0 64 -8 96 -23v222h67v-222c34 15 65 23 95 23c47 0 65 1 101 -13c33 -14 46 -36 57 -79c6 -22 9 -49 9 -81v-168
c0 -81 -19 -132 -66 -150c-35 -13 -55 -13 -101 -13c-28 0 -60 7 -95 22v-210zM212 49c64 0 96 24 96 72v239c0 50 -32 75 -96 75c-38 0 -64 -5 -78 -16c-13 -11 -20 -38 -20 -83v-196c0 -40 5 -66 25 -78c22 -14 38 -13 73 -13zM375 117c0 -54 49 -68 95 -68
c35 0 50 -1 73 13c20 12 25 38 25 78v196c0 45 -7 72 -20 83c-14 11 -40 16 -78 16c-63 0 -95 -24 -95 -71v-247z" />
    <glyph glyph-name="afii10087" unicode="&#x445;" horiz-adv-x="389" 
d="M382 0h-82l-106 191l-105 -191h-81l142 249l-135 235h82l97 -177l99 177h81l-142 -235z" />
    <glyph glyph-name="afii10088" unicode="&#x446;" horiz-adv-x="440" 
d="M377 -134h-65v134h-249v484h68v-418h179v418h67v-618z" />
    <glyph glyph-name="afii10089" unicode="&#x447;" horiz-adv-x="430" 
d="M185 153c-87 0 -126 33 -126 139v192h67v-187c0 -41 10 -64 36 -73c11 -5 25 -7 42 -7c40 0 66 6 80 17c13 11 20 32 20 63v187h67v-484h-66v222c-7 -46 -47 -69 -120 -69z" />
    <glyph glyph-name="afii10090" unicode="&#x448;" horiz-adv-x="613" 
d="M550 0h-487v484h68v-418h141v418h69v-418h141v418h68v-484z" />
    <glyph glyph-name="afii10091" unicode="&#x449;" horiz-adv-x="613" 
d="M485 0h-422v484h68v-418h141v418h69v-418h141v418h68v-618h-65v134z" />
    <glyph glyph-name="afii10092" unicode="&#x44a;" horiz-adv-x="482" 
d="M317 0h-164v418h-135v66h204v-175h101c44 0 76 -7 96 -21s30 -42 30 -83v-100c0 -70 -44 -105 -132 -105zM312 58c38 0 71 7 71 59v61c0 63 -17 71 -69 71h-93v-191h91z" />
    <glyph glyph-name="afii10093" unicode="&#x44b;" horiz-adv-x="544" 
d="M485 0h-68v484h68v-484zM227 0h-164v484h69v-175h101c44 0 76 -7 96 -21s30 -42 30 -83v-100c0 -70 -44 -105 -132 -105zM222 58c38 0 71 7 71 59v61c0 63 -17 71 -69 71h-93v-191h91z" />
    <glyph glyph-name="afii10094" unicode="&#x44c;" horiz-adv-x="400" 
d="M234 0h-171v484h69v-175h108c44 0 77 -7 97 -21s30 -42 30 -83v-100c0 -70 -44 -105 -133 -105zM230 58c37 0 71 7 71 59v61c0 63 -18 71 -70 71h-100v-191h99z" />
    <glyph glyph-name="afii10095" unicode="&#x44d;" horiz-adv-x="348" 
d="M27 4v68c38 -13 74 -19 110 -19c39 0 66 6 78 17c13 11 19 34 19 69v73h-183v68h183v59c0 41 -5 67 -16 78s-36 16 -74 16c-35 0 -73 -7 -112 -20v66c35 10 69 15 104 15c38 0 52 -1 84 -7c30 -7 43 -21 60 -45c17 -26 23 -66 23 -116v-178c0 -80 -20 -130 -66 -146
c-35 -13 -49 -12 -94 -12c-44 0 -83 5 -116 14z" />
    <glyph glyph-name="afii10096" unicode="&#x44e;" horiz-adv-x="606" 
d="M131 0h-68v484h68v-218h94v55c0 84 18 141 66 160c35 14 54 13 101 13c48 0 66 1 102 -13c33 -14 46 -36 57 -79c6 -22 9 -49 9 -81v-168c0 -81 -19 -132 -66 -150c-35 -13 -56 -13 -102 -13c-57 0 -83 0 -120 24c-35 21 -47 68 -47 139v58h-94v-211zM491 140v196
c0 45 -7 72 -21 83c-13 11 -39 16 -78 16c-38 0 -64 -5 -78 -16c-13 -11 -20 -38 -20 -83v-196c0 -40 5 -66 25 -78c22 -14 38 -13 73 -13c36 0 51 -1 74 13c20 12 25 38 25 78z" />
    <glyph glyph-name="afii10097" unicode="&#x44f;" horiz-adv-x="420" 
d="M104 0h-89l141 206c-74 0 -111 34 -111 101v52c0 51 8 84 26 101c17 16 50 24 100 24h186v-484h-67v194h-61zM178 422c-50 0 -65 -9 -65 -71v-14c0 -64 6 -81 49 -81h128v166h-112z" />
    <glyph glyph-name="uni0450" unicode="&#x450;" horiz-adv-x="401" 
d="M206 494c99 0 151 -36 151 -165v-107h-244v-73c0 -77 47 -94 111 -94c32 0 72 8 119 24v-69c-47 -13 -94 -20 -140 -20c-86 0 -158 38 -158 148v191c0 129 58 165 161 165zM204 434c-55 0 -91 -9 -91 -77v-76h177v76c0 66 -32 77 -86 77zM241 553h-56l-93 127h81z" />
    <glyph glyph-name="afii10071" unicode="&#x451;" horiz-adv-x="401" 
d="M206 494c99 0 151 -36 151 -165v-107h-244v-73c0 -77 47 -94 111 -94c32 0 72 8 119 24v-69c-47 -13 -94 -20 -140 -20c-86 0 -158 38 -158 148v191c0 129 58 165 161 165zM204 434c-55 0 -91 -9 -91 -77v-76h177v76c0 66 -32 77 -86 77zM182 565h-68v94h68v-94zM309 565
h-67v94h67v-94z" />
    <glyph glyph-name="afii10099" unicode="&#x452;" horiz-adv-x="430" 
d="M306 317c0 76 -19 100 -80 100c-40 0 -67 -5 -80 -16s-20 -30 -20 -56v-345h-67v553h-45v52h45v88h66v-88h84v-52h-84l1 -135c11 43 51 64 119 64c93 0 129 -40 129 -159c0 -162 -55 -385 -92 -513h-73c24 79 46 166 67 262c20 95 30 177 30 245z" />
    <glyph glyph-name="afii10100" unicode="&#x453;" horiz-adv-x="315" 
d="M293 418h-162v-418h-68v484h230v-66zM291 680l-94 -127h-55l67 127h82z" />
    <glyph glyph-name="afii10101" unicode="&#x454;" horiz-adv-x="348" 
d="M321 4c-33 -9 -72 -14 -116 -14c-45 0 -59 -1 -94 12c-32 11 -45 30 -57 71c-6 20 -9 45 -9 75v178c0 50 6 90 23 116c17 24 30 38 60 45c32 6 46 7 84 7c35 0 69 -5 104 -15v-66c-39 13 -77 20 -112 20c-38 0 -63 -5 -74 -16s-16 -37 -16 -78v-59h183v-68h-183v-73
c0 -35 6 -58 19 -69c12 -11 39 -17 79 -17c35 0 72 6 109 19v-68z" />
    <glyph glyph-name="afii10102" unicode="&#x455;" horiz-adv-x="362" 
d="M153 217c-67 0 -115 35 -115 118v45c0 76 54 114 162 114c12 0 48 -3 110 -8v-65c-43 9 -81 14 -113 14c-36 0 -61 -5 -74 -14c-12 -9 -19 -25 -19 -47v-41c0 -33 23 -49 67 -49h42c77 0 115 -38 115 -114v-42c0 -52 -14 -88 -41 -108s-66 -30 -117 -30
c-39 0 -81 4 -125 12v69c60 -13 102 -19 126 -19c30 0 53 4 68 12c15 7 22 23 22 47v49c0 48 -27 57 -67 57h-41z" />
    <glyph glyph-name="afii10103" unicode="&#x456;" horiz-adv-x="186" 
d="M127 0h-68v484h68v-484zM127 568h-68v98h68v-98z" />
    <glyph glyph-name="afii10104" unicode="&#x457;" horiz-adv-x="185" 
d="M17 568h-67v94h67v-94zM235 568h-68v94h68v-94zM110 553h-38l-22 170h81zM127 0h-68v484h68v-484z" />
    <glyph glyph-name="afii10105" unicode="&#x458;" horiz-adv-x="184" 
d="M127 565h-68v94h68v-94zM-4 -161c45 0 63 19 63 81v564h68v-557c0 -111 -38 -147 -121 -147c-13 0 -25 1 -38 4v59c12 -3 21 -4 28 -4z" />
    <glyph glyph-name="afii10106" unicode="&#x459;" horiz-adv-x="635" 
d="M2 50c60 0 80 10 80 84v350h292v-175h101c44 0 76 -7 97 -21c20 -14 30 -42 30 -83v-100c0 -70 -45 -105 -133 -105h-164v426h-156v-284c0 -59 -7 -104 -33 -125s-48 -24 -90 -24c-10 0 -18 0 -24 1v56zM464 58c38 0 72 7 72 59v61c0 63 -18 71 -70 71h-92v-191h90z" />
    <glyph glyph-name="afii10107" unicode="&#x45a;" horiz-adv-x="627" 
d="M461 0h-163v249h-167v-249h-68v484h68v-175h167v175h69v-175h100c45 0 77 -7 97 -21s30 -42 30 -83v-100c0 -70 -44 -105 -133 -105zM457 58c37 0 71 7 71 59v61c0 63 -18 71 -70 71h-92v-191h91z" />
    <glyph glyph-name="afii10108" unicode="&#x45b;" horiz-adv-x="430" 
d="M245 494c86 0 126 -33 126 -139v-355h-67v349c0 41 -10 64 -36 74c-11 4 -25 6 -42 6c-42 0 -69 -6 -81 -18c-13 -12 -19 -33 -19 -62v-349h-67v553h-45v52h45v95h67v-95h83v-52h-83v-128c7 46 47 69 119 69z" />
    <glyph glyph-name="afii10109" unicode="&#x45c;" horiz-adv-x="377" 
d="M58 0v484h67v-209c18 0 31 3 40 10c10 7 20 22 31 45l37 79c14 31 28 51 43 61c14 9 35 14 63 14h26v-51h-15c-25 0 -46 -18 -63 -53l-28 -62c-18 -41 -36 -64 -54 -70c14 -5 41 -37 82 -98l102 -150h-84l-99 150c-14 22 -27 38 -39 49c-21 18 -18 18 -42 18v-217h-67z
M307 700l-94 -127h-55l67 127h82z" />
    <glyph glyph-name="uni045D" unicode="&#x45d;" horiz-adv-x="449" 
d="M146 0h-87v484h63v-391l180 391h88v-484h-64v400zM302 553h-55l-94 127h82z" />
    <glyph glyph-name="afii10110" unicode="&#x45e;" horiz-adv-x="345" 
d="M341 484l-181 -684h-70l55 193l-140 491h73l101 -395l93 395h69zM152 680c7 -44 18 -67 57 -67c27 0 44 22 51 67h34c-4 -72 -45 -127 -102 -127c-56 0 -102 55 -105 127h65z" />
    <glyph glyph-name="afii10193" unicode="&#x45f;" horiz-adv-x="463" 
d="M332 484h68v-484h-134v-134h-66v134h-137v484h68v-418h201v418z" />
    <glyph glyph-name="uni0462" unicode="&#x462;" horiz-adv-x="510" 
d="M346 501h-127v-106h87c113 0 170 -43 170 -130v-115c0 -92 -50 -127 -107 -142c-20 -5 -41 -8 -64 -8h-159v501h-128v68h128v80h74v-80h126v-68zM299 61c52 0 104 9 104 79v98c0 81 -34 96 -102 96h-82v-273h80z" />
    <glyph glyph-name="uni0463" unicode="&#x463;" horiz-adv-x="485" 
d="M18 418v66h130v216h69v-216h143v-66h-143v-109h108c44 0 76 -7 97 -21c20 -14 30 -42 30 -83v-100c0 -70 -45 -105 -133 -105h-171v418h-130zM314 58c38 0 72 7 72 59v61c0 63 -18 71 -70 71h-100v-191h98z" />
    <glyph glyph-name="uni0472" unicode="&#x472;" horiz-adv-x="509" 
d="M460 474v-308c0 -112 -65 -153 -137 -169c-21 -5 -45 -7 -69 -7c-136 0 -204 59 -204 176v307c0 124 68 186 204 186c137 0 206 -62 206 -185zM254 596c-73 0 -135 -22 -135 -120v-125c23 20 47 30 74 30c7 0 29 -7 66 -21c37 -15 61 -22 72 -22c23 0 43 10 58 30v108
c0 80 -45 120 -135 120zM389 167v126c-16 -19 -35 -29 -58 -29c-11 0 -35 7 -73 22c-37 15 -59 22 -65 22c-27 0 -51 -10 -74 -31v-110c0 -75 45 -112 136 -112c89 0 134 37 134 112z" />
    <glyph glyph-name="uni0473" unicode="&#x473;" horiz-adv-x="426" 
d="M380 321v-168c0 -81 -19 -132 -66 -150c-35 -13 -56 -13 -102 -13c-57 0 -83 0 -120 24c-35 21 -47 68 -47 139v168c0 84 18 141 66 160c35 14 54 13 101 13c48 0 66 1 102 -13c33 -14 46 -36 57 -79c6 -22 9 -49 9 -81zM311 140v77c-12 -14 -27 -21 -43 -21
c-7 0 -23 5 -49 16c-25 11 -42 16 -52 16c-19 0 -36 -7 -53 -22v-66c0 -40 5 -66 25 -78c22 -14 38 -13 73 -13c36 0 51 -1 74 13c20 12 25 38 25 78zM114 336v-66c16 14 34 21 53 21c10 0 27 -5 51 -15c24 -11 40 -16 50 -16c17 0 31 7 43 22v54c0 45 -7 72 -21 83
c-13 11 -39 16 -78 16c-38 0 -64 -5 -78 -16c-13 -11 -20 -38 -20 -83z" />
    <glyph glyph-name="uni0474" unicode="&#x474;" horiz-adv-x="540" 
d="M540 604l-29 -58c-24 21 -42 32 -56 32c-18 0 -33 -17 -42 -50l-155 -528h-66l-189 649h80l126 -472c11 -39 17 -64 19 -74c2 7 8 32 19 74l109 392c17 61 45 91 85 91c26 0 59 -19 99 -56z" />
    <glyph glyph-name="uni0475" unicode="&#x475;" horiz-adv-x="436" 
d="M437 444l-29 -62c-26 20 -47 30 -63 30s-28 -17 -37 -52l-102 -360h-58l-138 484h64l79 -290c8 -29 15 -61 23 -97c6 28 14 59 23 92l56 206c16 57 34 99 86 99c24 0 56 -17 96 -50z" />
    <glyph glyph-name="uni048A" unicode="&#x48a;" horiz-adv-x="542" 
d="M152 0h-88v649h67v-536l261 536h88v-649h-67v545zM281 763c34 0 45 28 54 67h34c-4 -72 -47 -127 -103 -127c-57 0 -101 54 -104 127h65c6 -26 13 -44 20 -53c6 -9 18 -14 34 -14z" />
    <glyph glyph-name="uni048B" unicode="&#x48b;" horiz-adv-x="456" 
d="M146 0h-87v484h63v-391l188 391h88v-484h-64v400zM254 612c33 0 44 28 54 67h33c-4 -72 -47 -127 -103 -127c-57 0 -101 54 -104 127h65c7 -26 13 -44 20 -53s18 -14 35 -14z" />
    <glyph glyph-name="uni048C" unicode="&#x48c;" horiz-adv-x="428" 
d="M209 369c94 0 185 -7 185 -132v-96c0 -94 -57 -141 -172 -141h-159v511h-47v63h47v75h73v-75h64v-63h-64v-142h73zM217 66c52 0 106 9 106 79v81c0 29 -9 49 -25 60s-43 17 -80 17h-83v-237h82z" />
    <glyph glyph-name="uni048D" unicode="&#x48d;" horiz-adv-x="400" 
d="M16 511v63h47v75h69v-75h68v-63h-68v-202h108c44 0 77 -7 97 -21s30 -42 30 -83v-100c0 -70 -44 -105 -133 -105h-171v511h-47zM230 58c37 0 71 7 71 59v61c0 63 -18 71 -70 71h-100v-191h99z" />
    <glyph glyph-name="uni048E" unicode="&#x48e;" horiz-adv-x="428" 
d="M358 181l-51 67c-26 -9 -59 -14 -98 -14h-73v-234h-73v649h159c53 0 105 -3 137 -32c20 -19 35 -51 35 -96v-135c0 -49 -13 -85 -39 -109l37 -50zM323 509c0 70 -54 79 -106 79h-82v-293h83c18 0 34 2 48 7l-41 55l35 47l50 -67c8 16 13 34 13 54v118z" />
    <glyph glyph-name="uni048F" unicode="&#x48f;" horiz-adv-x="434" 
d="M221 -10c-35 0 -84 11 -95 41v-217h-67v670h66v-52h1c5 41 47 62 124 62c48 0 84 -13 106 -40s33 -60 33 -97v-199c0 -56 -12 -98 -35 -125l41 -54l-35 -46l-52 69c-23 -8 -52 -12 -87 -12zM320 147v178c0 45 -7 73 -21 86c-15 12 -41 18 -78 18s-63 -6 -77 -18
c-15 -13 -22 -41 -22 -86v-178c0 -41 8 -67 22 -78c15 -12 41 -18 78 -18c17 0 33 1 47 3l-42 55l36 47l49 -67c5 15 8 34 8 58z" />
    <glyph glyph-name="afii10050" unicode="&#x490;" horiz-adv-x="420" 
d="M398 581h-262v-581h-73v649h277v113h58v-181z" />
    <glyph glyph-name="afii10098" unicode="&#x491;" horiz-adv-x="330" 
d="M308 418h-177v-418h-68v484h192v92h53v-158z" />
    <glyph glyph-name="uni0492" unicode="&#x492;" horiz-adv-x="420" 
d="M8 301v68h55v280h335v-68h-262v-212h182v-68h-182v-301h-73v301h-55z" />
    <glyph glyph-name="uni0493" unicode="&#x493;" horiz-adv-x="338" 
d="M17 264h46v220h252v-66h-184v-154h102v-66h-102v-198h-68v198h-46v66z" />
    <glyph glyph-name="uni0494" unicode="&#x494;" horiz-adv-x="503" 
d="M267 431c120 0 174 -119 174 -286c0 -193 -64 -335 -202 -335c-71 0 -159 50 -168 129h64c9 -36 63 -56 102 -56c98 0 140 113 140 253c0 129 -29 230 -119 230c-34 0 -75 -14 -123 -41v-325h-72v649h311v-68h-239v-193c47 29 91 43 132 43z" />
    <glyph glyph-name="uni0495" unicode="&#x495;" horiz-adv-x="412" 
d="M302 37c0 95 -42 158 -113 158c-20 0 -44 -4 -71 -13v-182h-68v484h288v-57h-220v-182c25 11 52 16 79 16c50 0 91 -21 123 -62s48 -93 48 -155c0 -135 -65 -234 -165 -234c-72 0 -139 44 -147 126h62c10 -45 38 -67 85 -67c64 0 99 80 99 168z" />
    <glyph glyph-name="uni0496" unicode="&#x496;" horiz-adv-x="716" 
d="M730 -180h-60v180h-37l-138 202c-29 43 -51 70 -64 82c-13 11 -26 17 -37 17v-301h-73v301c-11 0 -24 -6 -37 -17c-13 -12 -35 -39 -64 -82l-138 -202h-87l137 202c55 81 92 125 110 131c-33 11 -46 35 -63 73l-47 104c-11 25 -22 44 -32 55s-21 16 -33 16h-38v68h33
c36 0 60 -5 73 -15c12 -10 29 -36 50 -78l66 -139c10 -21 19 -35 27 -40c7 -6 21 -9 43 -9v281h73v-281c21 0 36 3 43 9c8 5 17 19 27 40l66 139c21 42 37 68 50 78s37 15 73 15h33v-68h-38c-13 0 -24 -5 -33 -16c-10 -11 -21 -30 -32 -55l-47 -104c-17 -39 -31 -62 -63 -73
c18 -6 55 -50 110 -131l91 -135h56v-247z" />
    <glyph glyph-name="uni0497" unicode="&#x497;" horiz-adv-x="557" 
d="M569 -180h-60v180h-30l-99 150c-15 22 -28 39 -38 51c-15 17 -18 23 -37 23v-224h-63v224c-19 0 -22 -6 -37 -23c-10 -12 -23 -29 -38 -51l-99 -150h-79l102 150c41 61 68 93 82 98c-18 6 -33 24 -46 54l-36 78c-16 35 -32 53 -48 53h-29v51h36c27 0 45 -4 55 -11
c9 -7 22 -27 36 -58l49 -105c7 -16 14 -26 20 -30c5 -5 16 -7 32 -7v211h63v-211c15 0 26 2 32 7c6 4 13 14 20 30l49 105c14 31 26 51 36 58s28 11 55 11h36v-51h-30c-16 0 -32 -18 -48 -53l-36 -78c-13 -30 -28 -48 -46 -54c14 -5 41 -37 82 -98l56 -83h58v-247z" />
    <glyph glyph-name="uni0498" unicode="&#x498;" 
d="M296 334c40 -9 81 -22 81 -85v-120c0 -106 -63 -133 -138 -138c5 -33 7 -58 7 -75c0 -64 -31 -106 -79 -106c-24 0 -51 10 -78 29v57c21 -15 41 -22 60 -22c31 0 52 31 52 73c0 14 -1 28 -4 43c-42 1 -89 7 -139 19v72c60 -17 108 -25 142 -25c52 0 107 5 107 75v101
c0 58 -50 62 -93 62h-94v62h81c44 0 94 5 94 64v100c0 35 -30 52 -90 52c-22 0 -49 -2 -82 -5c-33 -4 -52 -6 -55 -6v65c60 5 106 8 136 8c53 0 93 -8 120 -24c26 -16 39 -44 39 -85v-109c0 -48 -34 -71 -67 -78v-4z" />
    <glyph glyph-name="uni0499" unicode="&#x499;" horiz-adv-x="373" 
d="M335 346c0 -48 -36 -72 -68 -79v-2c55 -11 83 -42 83 -91v-50c0 -99 -57 -127 -127 -132c5 -33 8 -58 8 -76c0 -64 -31 -106 -79 -106c-24 0 -51 10 -78 29v57c21 -15 41 -22 60 -22c31 0 52 31 52 73c0 14 -1 28 -4 43h-3c-33 0 -78 6 -134 17v71c53 -15 98 -22 134 -22
c51 0 100 5 100 75v31c0 58 -50 62 -93 62h-79v62h66c44 0 94 5 94 64v30c0 35 -30 52 -90 52h-12c-39 0 -76 -4 -110 -12v65c37 6 78 9 121 9c36 0 64 -2 84 -7c47 -10 75 -33 75 -102v-39z" />
    <glyph glyph-name="uni049A" unicode="&#x49a;" horiz-adv-x="458" 
d="M476 -180h-60v180h-40l-138 202c-30 43 -51 70 -64 82c-14 11 -26 17 -37 17v-301h-73v649h73v-281c20 0 36 6 46 18c11 12 26 37 45 76l46 92c20 41 38 68 53 79s40 16 76 16h26v-68h-31c-27 0 -51 -24 -72 -71l-33 -73c-17 -36 -49 -88 -81 -99c18 -6 56 -51 114 -136
l90 -135h60v-247z" />
    <glyph glyph-name="uni049B" unicode="&#x49b;" horiz-adv-x="377" 
d="M389 -180h-57v180h-33l-99 150c-15 22 -27 39 -37 51c-16 17 -18 23 -38 23v-224h-62v484h62v-211c17 0 29 4 38 11s19 22 30 46l37 79c14 31 28 51 42 61c13 9 33 14 61 14h20v-51h-14c-25 0 -46 -18 -63 -53l-28 -62c-18 -41 -36 -64 -54 -70c14 -5 41 -37 82 -98
l56 -83h57v-247z" />
    <glyph glyph-name="uni049C" unicode="&#x49c;" horiz-adv-x="458" 
d="M183 77v197c-16 18 -32 27 -46 27v-301h-73v649h73v-281c18 0 34 6 46 18v178h35v-122l56 112c20 41 38 68 53 79c14 11 40 16 76 16h26v-68h-31c-27 0 -51 -24 -72 -71l-33 -73c-24 -51 -49 -83 -75 -96v-6c19 -11 55 -56 108 -133l136 -202h-86l-158 229v-152h-35z" />
    <glyph glyph-name="uni049D" unicode="&#x49d;" horiz-adv-x="377" 
d="M157 57v150c-11 11 -21 17 -32 17v-224h-62v484h62v-211c14 0 25 2 32 6v165h35v-116l38 81c14 31 28 51 42 61c13 9 33 14 61 14h20v-51h-14c-25 0 -46 -18 -63 -53l-28 -62c-18 -41 -36 -64 -54 -70c14 -5 41 -37 82 -98l101 -150h-78c-36 54 -71 108 -107 162v-105
h-35z" />
    <glyph glyph-name="uni049E" unicode="&#x49e;" horiz-adv-x="458" 
d="M64 649h73v-68h71v-52h-71v-161c20 0 36 6 46 18c11 12 26 37 45 76l46 92c20 41 38 68 53 79s40 16 76 16h26v-68h-31c-27 0 -51 -24 -72 -71l-33 -73c-17 -36 -49 -88 -81 -99c18 -6 56 -51 114 -136l136 -202h-86l-138 202c-30 43 -51 70 -64 82c-14 11 -26 17 -37 17
v-301h-73v529h-72v52h72v68z" />
    <glyph glyph-name="uni049F" unicode="&#x49f;" horiz-adv-x="377" 
d="M63 0v360h-48v52h48v72h62v-72h53v-52h-53v-87c17 0 29 4 38 11s19 22 30 46l37 79c14 31 28 51 42 61c13 9 33 14 61 14h20v-51h-14c-25 0 -46 -18 -63 -53l-28 -62c-18 -41 -36 -64 -54 -70c14 -5 41 -37 82 -98l101 -150h-78l-99 150c-15 22 -27 39 -37 51
c-16 17 -18 23 -38 23v-224h-62z" />
    <glyph glyph-name="uni04A0" unicode="&#x4a0;" horiz-adv-x="578" 
d="M257 0h-74v581h-165v68h239v-281c20 0 36 6 46 18c11 12 26 37 45 76l46 92c20 41 37 68 52 79s41 16 77 16h26v-68h-31c-27 0 -51 -24 -72 -71l-33 -73c-17 -36 -49 -88 -81 -99c18 -6 56 -51 114 -136l136 -202h-86l-138 202c-30 43 -51 70 -64 82
c-14 11 -26 17 -37 17v-301z" />
    <glyph glyph-name="uni04A1" unicode="&#x4a1;" horiz-adv-x="473" 
d="M302 150c-22 32 -37 52 -47 61s-19 13 -27 13v-224h-67v418h-143v66h210v-211c17 0 29 4 37 11s18 22 29 46l37 79c14 31 28 51 42 61c13 9 34 14 61 14h26v-51h-14c-26 0 -47 -18 -63 -53l-29 -62c-17 -41 -35 -64 -54 -70c14 -5 41 -37 83 -98l101 -150h-83z" />
    <glyph glyph-name="uni04A2" unicode="&#x4a2;" horiz-adv-x="530" 
d="M514 -180h-60v180h-59v301h-259v-301h-73v649h73v-280h259v280h72v-582h47v-247z" />
    <glyph glyph-name="uni04A3" unicode="&#x4a3;" horiz-adv-x="433" 
d="M416 -180h-60v180h-54v217h-171v-217h-68v484h68v-201h171v201h68v-417h46v-247z" />
    <glyph glyph-name="uni04A4" unicode="&#x4a4;" horiz-adv-x="593" 
d="M467 0h-72v301h-259v-301h-73v649h73v-280h259v280h198v-68h-126v-581z" />
    <glyph glyph-name="uni04A5" unicode="&#x4a5;" horiz-adv-x="491" 
d="M370 0h-68v217h-171v-217h-68v484h68v-201h171v201h189v-65h-121v-419z" />
    <glyph glyph-name="uni04A6" unicode="&#x4a6;" horiz-adv-x="820" 
d="M554 -117c99 0 141 102 141 242c0 147 -40 220 -120 220c-34 0 -75 -14 -123 -41v-304h-72v582h-244v-582h-73v649h389v-282c47 29 91 43 132 43c120 0 174 -110 174 -276c0 -193 -63 -324 -201 -324c-73 0 -159 41 -169 119h64c10 -35 62 -46 102 -46z" />
    <glyph glyph-name="uni04A7" unicode="&#x4a7;" horiz-adv-x="664" 
d="M554 37c0 95 -42 158 -113 158c-20 0 -44 -4 -71 -13v-182h-68v418h-171v-418h-68v484h307v-239c25 11 52 16 79 16c50 0 91 -21 123 -62s48 -93 48 -155c0 -135 -65 -234 -165 -234c-72 0 -139 44 -147 126h62c10 -45 38 -67 85 -67c64 0 99 80 99 168z" />
    <glyph glyph-name="uni04A8" unicode="&#x4a8;" horiz-adv-x="525" 
d="M491 258c0 -110 -43 -190 -99 -232c33 -28 67 -43 99 -44v-76c-66 6 -121 36 -165 90c-12 -4 -30 -6 -54 -6c-148 0 -228 136 -228 339c0 97 20 177 60 238c41 63 98 94 170 94c52 0 96 -20 131 -59l-37 -50c-24 29 -55 44 -96 44c-53 0 -94 -29 -125 -86
c-25 -45 -37 -105 -37 -180c0 -77 11 -138 35 -185c31 -61 72 -91 122 -91l19 2c-24 58 -36 124 -36 197c0 133 32 212 126 212c77 0 115 -69 115 -207zM348 76c50 29 83 90 83 181c0 68 -12 142 -55 142c-26 0 -44 -15 -53 -46c-6 -19 -9 -52 -9 -100
c0 -73 11 -132 34 -177z" />
    <glyph glyph-name="uni04A9" unicode="&#x4a9;" horiz-adv-x="391" 
d="M169 216c0 71 33 123 86 123c59 0 89 -43 89 -128c0 -79 -17 -139 -51 -180c14 -17 31 -31 51 -44v-71c-44 25 -78 53 -102 84c-13 -5 -27 -7 -42 -7c-108 0 -165 102 -165 249c0 148 56 253 165 253c38 0 69 -13 94 -38l-40 -43c-14 16 -31 24 -51 24
c-77 0 -105 -83 -105 -193c0 -109 25 -195 101 -195h7c-25 53 -37 108 -37 166zM289 212c0 44 -5 71 -34 71c-20 0 -30 -23 -30 -70c0 -54 10 -98 30 -133c23 25 34 69 34 132z" />
    <glyph glyph-name="uni04AA" unicode="&#x4aa;" horiz-adv-x="423" 
d="M254 593c-73 0 -136 -19 -136 -118v-304c0 -75 46 -112 139 -112c40 0 84 8 132 24v-74c-43 -12 -84 -18 -124 -19c6 -35 10 -62 10 -81c0 -61 -31 -102 -77 -102c-24 0 -49 9 -76 28v56c21 -15 40 -22 59 -22c30 0 50 30 50 71c0 13 -2 30 -7 51
c-117 9 -176 67 -176 175v308c0 124 68 186 205 186c45 0 90 -6 133 -19v-72c-48 16 -92 24 -132 24z" />
    <glyph glyph-name="uni04AB" unicode="&#x4ab;" horiz-adv-x="348" 
d="M143 -131c30 0 51 30 51 71c0 17 -3 33 -7 50c-46 0 -70 4 -100 25c-31 21 -42 68 -42 133v178c0 50 6 90 23 116c17 24 30 38 60 45c32 6 46 7 84 7c35 0 69 -5 104 -15v-66c-39 13 -77 20 -112 20c-38 0 -63 -5 -74 -16s-16 -37 -16 -78v-200c0 -35 6 -58 19 -69
c12 -11 39 -17 79 -17c35 0 72 6 109 19v-68c-25 -7 -57 -12 -94 -13c7 -36 10 -63 10 -82c0 -61 -30 -102 -76 -102c-24 0 -50 9 -76 28v56c20 -15 40 -22 58 -22z" />
    <glyph glyph-name="uni04AC" unicode="&#x4ac;" horiz-adv-x="439" 
d="M302 -180h-60v180h-59v581h-165v68h403v-68h-164v-514h45v-247z" />
    <glyph glyph-name="uni04AD" unicode="&#x4ad;" horiz-adv-x="388" 
d="M273 -180h-60v180h-52v418h-143v66h352v-66h-142v-351h45v-247z" />
    <glyph glyph-name="uni04AE" unicode="&#x4ae;" horiz-adv-x="438" 
d="M432 649l-177 -384v-265h-73v262l-176 387h83l130 -305l130 305h83z" />
    <glyph glyph-name="uni04AF" unicode="&#x4af;" horiz-adv-x="347" 
d="M207 -208h-67v229l-135 463h71l100 -366h4l98 366h65l-136 -483v-209z" />
    <glyph glyph-name="uni04B0" unicode="&#x4b0;" horiz-adv-x="438" 
d="M30 301v68h104l-128 280h83l130 -305l130 305h83l-129 -280h90v-68h-121l-17 -36v-265h-73v262l-18 39h-134z" />
    <glyph glyph-name="uni04B1" unicode="&#x4b1;" horiz-adv-x="347" 
d="M23 -68v68h117v21l-135 463h71l100 -366h4l98 366h65l-136 -480v-4h118v-68h-118v-140h-67v140h-117z" />
    <glyph glyph-name="uni04B2" unicode="&#x4b2;" horiz-adv-x="453" 
d="M469 -180h-60v180h-45l-137 264l-138 -264h-83l179 331l-171 318h83l130 -251l129 251h84l-172 -318l142 -264h59v-247z" />
    <glyph glyph-name="uni04B3" unicode="&#x4b3;" horiz-adv-x="359" 
d="M373 -180h-60v180h-35l-99 191l-97 -191h-74l135 249l-128 235h74l90 -177l91 177h74l-127 -235l98 -182h58v-247z" />
    <glyph glyph-name="uni04B4" unicode="&#x4b4;" horiz-adv-x="694" 
d="M604 68v-248h-64v180h-367v581h-156v68h387v-68h-157v-513h240v581h73v-581h44z" />
    <glyph glyph-name="uni04B5" unicode="&#x4b5;" horiz-adv-x="518" 
d="M497 66v-213h-57v147h-300v418h-126v66h318v-66h-125v-352h179v418h68v-418h43z" />
    <glyph glyph-name="uni04B6" unicode="&#x4b6;" horiz-adv-x="458" 
d="M322 298c-9 -56 -74 -69 -129 -69c-94 0 -141 46 -141 139v281h72v-275c0 -53 29 -80 88 -80c43 0 72 6 87 19s23 33 23 61v275h73v-582h44v-247h-60v180h-57v298z" />
    <glyph glyph-name="uni04B7" unicode="&#x4b7;" horiz-adv-x="430" 
d="M185 153c-87 0 -126 33 -126 139v192h67v-187c0 -41 10 -64 36 -73c11 -5 25 -7 42 -7c40 0 66 6 80 17c13 11 20 32 20 63v187h67v-417h45v-247h-60v180h-51v222c-7 -46 -47 -69 -120 -69z" />
    <glyph glyph-name="uni04B8" unicode="&#x4b8;" horiz-adv-x="458" 
d="M240 295c50 4 82 18 82 79v275h73v-649h-73v298c-6 -35 -33 -56 -82 -65v-115h-35v111h-12c-94 0 -141 46 -141 139v281h72v-275c0 -52 27 -79 81 -80v130h35v-129z" />
    <glyph glyph-name="uni04B9" unicode="&#x4b9;" horiz-adv-x="430" 
d="M227 217c51 3 77 16 77 80v187h67v-484h-66v222c-6 -36 -32 -58 -78 -66v-88h-36v85h-6c-87 0 -126 33 -126 139v192h67v-187c0 -36 4 -49 22 -65c10 -9 24 -14 43 -15v157h36v-157z" />
    <glyph glyph-name="uni04BA" unicode="&#x4ba;" horiz-adv-x="469" 
d="M272 420c85 0 149 -36 149 -139v-281h-72v275c0 23 -8 42 -23 57s-40 23 -73 23c-43 0 -74 -6 -91 -19s-26 -34 -26 -61v-275h-73v649h73v-298c9 55 81 69 136 69z" />
    <glyph glyph-name="uni04BB" unicode="&#x4bb;" horiz-adv-x="430" 
d="M245 494c86 0 126 -33 126 -139v-355h-67v349c0 41 -10 64 -36 74c-11 4 -25 6 -42 6c-42 0 -69 -6 -81 -18c-13 -12 -19 -33 -19 -62v-349h-67v700h67v-275c7 46 47 69 119 69z" />
    <glyph glyph-name="uni04BC" unicode="&#x4bc;" horiz-adv-x="563" 
d="M513 288h-344v-109c0 -83 55 -125 167 -125c41 0 94 11 158 32v-70c-63 -17 -125 -26 -186 -26c-63 0 -113 16 -152 47c-38 31 -58 81 -58 149v255c0 79 17 136 51 169s89 50 163 50c70 0 120 -16 153 -48c32 -32 48 -89 48 -171v-153zM443 357v135
c0 69 -45 104 -133 104c-44 0 -78 -7 -103 -22c-26 -15 -38 -43 -38 -82v-135h274zM54 407c0 -38 14 -50 44 -50v-59c-61 0 -97 22 -97 99c0 19 2 41 7 65l51 -16c-3 -13 -5 -26 -5 -39z" />
    <glyph glyph-name="uni04BD" unicode="&#x4bd;" horiz-adv-x="453" 
d="M257 494c100 0 152 -36 152 -165v-107h-244v-73c0 -77 47 -94 110 -94c33 0 72 8 120 24v-69c-48 -13 -94 -20 -141 -20c-85 0 -157 38 -157 148v84c-61 0 -98 22 -98 99c0 19 3 41 7 65l51 -16c-3 -13 -4 -26 -4 -39c0 -38 14 -50 44 -50v48c0 129 58 165 160 165z
M256 434c-55 0 -91 -9 -91 -77v-76h176v76c0 66 -32 77 -85 77z" />
    <glyph glyph-name="uni04BE" unicode="&#x4be;" horiz-adv-x="563" 
d="M513 288h-344v-109c0 -83 55 -125 167 -125c41 0 94 11 158 32v-70c-63 -17 -125 -26 -186 -26c-63 0 -113 16 -152 47c-38 31 -58 81 -58 149v255c0 79 17 136 51 169s89 50 163 50c70 0 120 -16 153 -48c32 -32 48 -89 48 -171v-153zM443 357v135
c0 69 -45 104 -133 104c-44 0 -78 -7 -103 -22c-26 -15 -38 -43 -38 -82v-135h274zM54 407c0 -38 14 -50 44 -50v-59c-61 0 -97 22 -97 99c0 19 2 41 7 65l51 -16c-3 -13 -5 -26 -5 -39zM356 -186c-48 0 -75 19 -75 80c0 33 9 69 27 106h57c-16 -33 -24 -66 -24 -97
c0 -22 9 -33 29 -33c4 0 12 2 23 7v-53c-10 -7 -23 -10 -37 -10z" />
    <glyph glyph-name="uni04BF" unicode="&#x4bf;" horiz-adv-x="453" 
d="M299 -183c-48 0 -75 19 -75 80c0 33 9 69 27 106h57c-16 -33 -24 -66 -24 -97c0 -22 9 -33 29 -33c4 0 12 2 23 7v-53c-10 -7 -23 -10 -37 -10zM257 494c100 0 152 -36 152 -165v-107h-244v-73c0 -77 47 -94 110 -94c33 0 72 8 120 24v-69c-48 -13 -94 -20 -141 -20
c-85 0 -157 38 -157 148v84c-61 0 -98 22 -98 99c0 19 3 41 7 65l51 -16c-3 -13 -4 -26 -4 -39c0 -38 14 -50 44 -50v48c0 129 58 165 160 165zM256 434c-55 0 -91 -9 -91 -77v-76h176v76c0 66 -32 77 -85 77z" />
    <glyph glyph-name="uni04C0" unicode="&#x4c0;" horiz-adv-x="199" 
d="M136 0h-73v649h73v-649z" />
    <glyph glyph-name="uni04C1" unicode="&#x4c1;" horiz-adv-x="716" 
d="M321 368v281h73v-281c21 0 36 3 43 9c8 5 17 19 27 40l66 139c21 42 37 68 50 78s37 15 73 15h33v-68h-38c-13 0 -24 -5 -33 -16c-10 -11 -21 -30 -32 -55l-47 -104c-17 -39 -31 -62 -63 -73c18 -6 55 -50 110 -131l136 -202h-86l-138 202c-29 43 -51 70 -64 82
c-13 11 -26 17 -37 17v-301h-73v301c-11 0 -24 -6 -37 -17c-13 -12 -35 -39 -64 -82l-138 -202h-87l137 202c55 81 92 125 110 131c-33 11 -46 35 -63 73l-47 104c-11 25 -22 44 -32 55s-21 16 -33 16h-38v68h33c36 0 60 -5 73 -15c12 -10 29 -36 50 -78l66 -139
c10 -21 19 -35 27 -40c7 -6 21 -9 43 -9zM446 845c-2 -74 -32 -127 -88 -127s-87 53 -89 127h41c3 -45 19 -68 48 -68s45 23 48 68h40z" />
    <glyph glyph-name="uni04C2" unicode="&#x4c2;" horiz-adv-x="546" 
d="M242 273v211h63v-211c15 0 26 2 31 7c6 4 12 14 20 30l48 105c15 31 27 51 37 58c9 7 28 11 55 11h37v-51h-30c-16 0 -32 -18 -48 -53l-36 -78c-13 -30 -28 -48 -46 -54c14 -5 41 -37 82 -98l102 -150h-80l-99 150c-22 32 -37 52 -46 61c-10 9 -19 13 -27 13v-224h-63
v224c-8 0 -17 -4 -27 -13c-9 -9 -25 -29 -46 -61l-99 -150h-81l102 150c41 61 68 93 82 98c-18 6 -33 24 -46 54l-36 78c-16 35 -32 53 -48 53h-29v51h37c27 0 45 -4 55 -11s22 -27 37 -58l48 -105c8 -16 14 -26 19 -30c6 -5 16 -7 32 -7zM362 680c-2 -74 -33 -127 -89 -127
s-87 53 -88 127h40c3 -45 19 -68 48 -68s45 23 48 68h41z" />
    <glyph glyph-name="uni04C3" unicode="&#x4c3;" horiz-adv-x="500" 
d="M254 364c117 0 186 -95 186 -251c0 -184 -69 -304 -203 -304c-71 0 -161 51 -169 129h63c13 -36 62 -56 104 -56c93 0 136 93 136 223c0 115 -44 199 -129 199h-106v-304h-73v649h73v-285c28 0 47 7 59 22c11 14 26 51 45 111c14 46 26 77 34 92c16 29 51 60 91 60
c25 0 38 0 39 -1v-74c-3 0 -23 1 -26 1c-20 0 -35 -6 -46 -19s-22 -41 -35 -85c-16 -55 -31 -91 -43 -107z" />
    <glyph glyph-name="uni04C4" unicode="&#x4c4;" horiz-adv-x="407" 
d="M214 275c96 0 162 -97 162 -226c0 -135 -71 -239 -171 -239c-74 0 -137 50 -146 132h61c11 -43 39 -65 85 -65c65 0 106 74 106 164c0 98 -41 162 -114 162h-71v-203h-67v484h67v-209c17 0 30 4 38 13c8 8 16 24 24 48l34 99c16 44 31 49 82 49h13v-68h-18
c-15 0 -25 -3 -30 -10s-13 -27 -22 -59c-9 -29 -20 -53 -33 -72z" />
    <glyph glyph-name="uni04C5" unicode="&#x4c5;" horiz-adv-x="492" 
d="M434 84h66l-68 -283h-63l50 199h-58v581h-191v-378c0 -79 -8 -135 -24 -166s-43 -47 -83 -47c-16 0 -35 4 -56 12l12 66c11 -6 21 -9 30 -9c18 0 31 9 38 28c6 19 10 55 10 110v452h337v-565z" />
    <glyph glyph-name="uni04C6" unicode="&#x4c6;" horiz-adv-x="492" 
d="M409 84h67l-69 -283h-63l51 199h-54v418h-171v-205c0 -82 -8 -140 -24 -174s-43 -51 -83 -51c-16 0 -35 4 -56 12l12 66c11 -6 21 -9 30 -9c19 0 32 10 41 29c8 19 12 56 12 109v289h307v-400z" />
    <glyph glyph-name="uni04C7" unicode="&#x4c7;" horiz-adv-x="530" 
d="M467 649v-519c0 -115 -18 -198 -56 -247c-37 -49 -90 -73 -157 -73c-53 0 -96 12 -128 36c-33 24 -51 55 -55 93h64c10 -37 49 -56 117 -56c49 0 84 19 108 56c23 37 35 103 35 197v165h-259v-301h-73v649h73v-280h259v280h72z" />
    <glyph glyph-name="uni04C8" unicode="&#x4c8;" horiz-adv-x="433" 
d="M210 -131c64 0 92 69 92 158v190h-171v-217h-68v484h68v-201h171v201h68v-450c0 -135 -60 -224 -160 -224c-73 0 -139 44 -147 126h62c9 -45 38 -67 85 -67z" />
    <glyph glyph-name="uni04C9" unicode="&#x4c9;" horiz-adv-x="530" 
d="M475 -180h-60l38 180h-58v301h-259v-301h-73v649h73v-280h259v280h72v-582h60z" />
    <glyph glyph-name="uni04CA" unicode="&#x4ca;" horiz-adv-x="433" 
d="M377 -180h-60l39 180h-54v217h-171v-217h-68v484h68v-201h171v201h68v-417h60z" />
    <glyph glyph-name="uni04CB" unicode="&#x4cb;" horiz-adv-x="458" 
d="M322 298c-9 -56 -74 -69 -129 -69c-94 0 -141 46 -141 139v281h72v-275c0 -53 29 -80 88 -80c43 0 72 6 87 19s23 33 23 61v275h73v-649h-59v-180h-60v247h46v231z" />
    <glyph glyph-name="uni04CC" unicode="&#x4cc;" horiz-adv-x="430" 
d="M185 153c-87 0 -126 33 -126 139v192h67v-187c0 -41 10 -64 36 -73c11 -5 25 -7 42 -7c40 0 66 6 80 17c13 11 20 32 20 63v187h67v-484h-51v-180h-60v247h45v155c-7 -46 -47 -69 -120 -69z" />
    <glyph glyph-name="uni04CD" unicode="&#x4cd;" horiz-adv-x="646" 
d="M590 -180h-60l38 180h-49v549h-4l-156 -549h-66l-161 549h-4v-549h-65v649h109l156 -540l2 -1l148 541h105v-582h59z" />
    <glyph glyph-name="uni04CE" unicode="&#x4ce;" horiz-adv-x="556" 
d="M500 -180h-60l39 180h-48v402h-4l-112 -402h-68l-116 402h-4v-402h-64v484h109l110 -394h3l103 394h105v-417h60z" />
    <glyph glyph-name="uni04CF" unicode="&#x4cf;" horiz-adv-x="199" 
d="M136 0h-73v649h73v-649z" />
    <glyph glyph-name="uni04D0" unicode="&#x4d0;" horiz-adv-x="489" 
d="M478 0h-76l-55 197h-209l-55 -197h-72l194 649h84zM329 264l-83 293h-7l-82 -293h172zM333 845c-2 -74 -32 -127 -88 -127c-57 0 -87 53 -89 127h41c3 -45 18 -68 48 -68c29 0 45 23 48 68h40z" />
    <glyph glyph-name="uni04D1" unicode="&#x4d1;" horiz-adv-x="404" 
d="M345 0h-65v46c-6 -37 -42 -56 -110 -56c-50 0 -84 10 -104 31c-19 20 -28 61 -28 123c0 54 9 91 27 112c18 20 52 30 104 30h109v77c0 27 -7 45 -19 54s-35 14 -69 14c-37 0 -79 -4 -125 -12v66c50 6 95 9 135 9c60 0 100 -10 118 -29c18 -20 27 -61 27 -123v-342z
M104 141c0 -70 11 -94 64 -94h14c38 0 96 -2 96 49v134h-105c-61 0 -69 -10 -69 -89zM290 680c-2 -74 -32 -127 -88 -127s-87 53 -89 127h41c3 -45 19 -68 48 -68s45 23 48 68h40z" />
    <glyph glyph-name="uni04D2" unicode="&#x4d2;" horiz-adv-x="489" 
d="M478 0h-76l-55 197h-209l-55 -197h-72l194 649h84zM329 264l-83 293h-7l-82 -293h172zM215 730h-68v94h68v-94zM342 730h-67v94h67v-94z" />
    <glyph glyph-name="uni04D3" unicode="&#x4d3;" horiz-adv-x="404" 
d="M345 0h-65v46c-6 -37 -42 -56 -110 -56c-50 0 -84 10 -104 31c-19 20 -28 61 -28 123c0 54 9 91 27 112c18 20 52 30 104 30h109v77c0 27 -7 45 -19 54s-35 14 -69 14c-37 0 -79 -4 -125 -12v66c50 6 95 9 135 9c60 0 100 -10 118 -29c18 -20 27 -61 27 -123v-342z
M104 141c0 -70 11 -94 64 -94h14c38 0 96 -2 96 49v134h-105c-61 0 -69 -10 -69 -89zM172 565h-68v94h68v-94zM299 565h-67v94h67v-94z" />
    <glyph glyph-name="uni04D4" unicode="&#x4d4;" horiz-adv-x="692" 
d="M655 0h-312v197h-185l-76 -197h-82l269 649h378v-68h-231v-212h207v-68h-207v-233h239v-68zM343 264v317h-36l-123 -317h159z" />
    <glyph glyph-name="uni04D5" unicode="&#x4d5;" horiz-adv-x="630" 
d="M438 494c100 0 148 -35 148 -165v-107h-236v-73c0 -76 41 -94 103 -94c32 0 71 8 119 24v-69c-46 -13 -89 -20 -130 -20c-64 0 -109 19 -136 57c-7 -38 -52 -57 -133 -57c-53 0 -89 10 -107 30c-19 19 -28 59 -28 120c0 56 8 94 26 115s53 31 105 31h112v75
c0 61 -33 70 -85 70c-55 0 -99 -6 -131 -17v66c38 9 84 14 140 14c59 0 99 -12 118 -35c25 23 63 35 115 35zM435 434c-53 0 -85 -11 -85 -77v-76h168v76c0 67 -28 77 -83 77zM176 47c48 0 105 -2 105 62v121h-108c-61 0 -69 -10 -69 -89c0 -77 11 -94 72 -94z" />
    <glyph glyph-name="uni04D6" unicode="&#x4d6;" 
d="M398 0h-335v649h327v-68h-254v-212h229v-68h-229v-233h262v-68zM306 845c-2 -74 -32 -127 -88 -127c-57 0 -87 53 -89 127h41c3 -45 18 -68 48 -68c29 0 45 23 48 68h40z" />
    <glyph glyph-name="uni04D7" unicode="&#x4d7;" horiz-adv-x="401" 
d="M206 494c99 0 151 -36 151 -165v-107h-244v-73c0 -77 47 -94 111 -94c32 0 72 8 119 24v-69c-47 -13 -94 -20 -140 -20c-86 0 -158 38 -158 148v191c0 129 58 165 161 165zM204 434c-55 0 -91 -9 -91 -77v-76h177v76c0 66 -32 77 -86 77zM289 680
c-2 -74 -33 -127 -89 -127s-86 53 -88 127h40c3 -45 19 -68 48 -68s45 23 48 68h41z" />
    <glyph glyph-name="uni04D8" unicode="&#x4d8;" horiz-adv-x="511" 
d="M47 362h344v109c0 83 -56 125 -167 125c-42 0 -95 -11 -159 -32v70c63 17 126 26 187 26c62 0 112 -16 151 -47s58 -81 58 -149v-255c0 -79 -17 -136 -51 -169s-88 -50 -162 -50c-70 0 -121 16 -153 48s-48 89 -48 171v153zM117 293v-135c0 -69 44 -104 133 -104
c43 0 78 8 103 23s38 42 38 81v135h-274z" />
    <glyph glyph-name="uni04D9" unicode="&#x4d9;" horiz-adv-x="401" 
d="M198 -10c-100 0 -151 36 -151 165v107h243v73c0 77 -47 94 -110 94c-32 0 -72 -8 -119 -24v69c47 13 94 20 140 20c85 0 158 -38 158 -148v-191c0 -129 -59 -165 -161 -165zM200 50c54 0 90 9 90 77v76h-176v-76c0 -66 32 -77 86 -77z" />
    <glyph glyph-name="uni04DA" unicode="&#x4da;" horiz-adv-x="511" 
d="M47 362h344v109c0 83 -56 125 -167 125c-42 0 -95 -11 -159 -32v70c63 17 126 26 187 26c62 0 112 -16 151 -47s58 -81 58 -149v-255c0 -79 -17 -136 -51 -169s-88 -50 -162 -50c-70 0 -121 16 -153 48s-48 89 -48 171v153zM117 293v-135c0 -69 44 -104 133 -104
c43 0 78 8 103 23s38 42 38 81v135h-274zM225 730h-67v94h67v-94zM353 730h-68v94h68v-94z" />
    <glyph glyph-name="uni04DB" unicode="&#x4db;" horiz-adv-x="401" 
d="M197 -10c-100 0 -152 36 -152 165v107h244v73c0 77 -47 94 -110 94c-33 0 -73 -8 -120 -24v69c47 13 94 20 141 20c85 0 157 -38 157 -148v-191c0 -129 -58 -165 -160 -165zM198 50c55 0 91 9 91 77v76h-176v-76c0 -66 31 -77 85 -77zM170 565h-67v94h67v-94zM298 565
h-68v94h68v-94z" />
    <glyph glyph-name="uni04DC" unicode="&#x4dc;" horiz-adv-x="716" 
d="M321 368v281h73v-281c21 0 36 3 43 9c8 5 17 19 27 40l66 139c21 42 37 68 50 78s37 15 73 15h33v-68h-38c-13 0 -24 -5 -33 -16c-10 -11 -21 -30 -32 -55l-47 -104c-17 -39 -31 -62 -63 -73c18 -6 55 -50 110 -131l136 -202h-86l-138 202c-29 43 -51 70 -64 82
c-13 11 -26 17 -37 17v-301h-73v301c-11 0 -24 -6 -37 -17c-13 -12 -35 -39 -64 -82l-138 -202h-87l137 202c55 81 92 125 110 131c-33 11 -46 35 -63 73l-47 104c-11 25 -22 44 -32 55s-21 16 -33 16h-38v68h33c36 0 60 -5 73 -15c12 -10 29 -36 50 -78l66 -139
c10 -21 19 -35 27 -40c7 -6 21 -9 43 -9zM328 730h-68v94h68v-94zM455 730h-67v94h67v-94z" />
    <glyph glyph-name="uni04DD" unicode="&#x4dd;" horiz-adv-x="567" 
d="M253 273v211h62v-211c16 0 27 2 32 7c5 4 12 14 19 30l49 105c14 31 26 51 36 58s28 11 55 11h37v-51h-29c-17 0 -33 -18 -48 -53l-36 -78c-13 -30 -29 -48 -47 -54c14 -5 42 -37 83 -98l101 -150h-79l-99 150c-22 32 -37 52 -47 61s-19 13 -27 13v-224h-62v224
c-9 0 -18 -4 -27 -13c-10 -9 -25 -29 -47 -61l-99 -150h-80l101 150c41 61 69 93 83 98c-18 6 -34 24 -47 54l-36 78c-15 35 -31 53 -48 53h-29v51h38c27 0 45 -4 55 -11c9 -7 22 -27 36 -58l49 -105c7 -16 14 -26 19 -30c5 -5 16 -7 32 -7zM254 565h-68v94h68v-94zM381 565
h-67v94h67v-94z" />
    <glyph glyph-name="uni04DE" unicode="&#x4de;" 
d="M294 344c40 -9 81 -22 81 -85v-130c0 -48 -18 -84 -40 -103c-33 -30 -84 -36 -138 -36c-50 0 -102 6 -156 19v74c60 -17 110 -25 149 -25c53 0 115 4 115 75v109c0 41 -34 62 -101 62h-101v62h88c68 0 102 21 102 64v109c0 35 -33 52 -98 52c-22 0 -51 -2 -88 -5
c-37 -4 -56 -6 -57 -6v68c61 5 109 8 144 8c55 0 96 -8 124 -24c29 -16 43 -44 43 -85v-121c0 -48 -35 -71 -67 -78v-4zM175 730h-68v94h68v-94zM302 730h-67v94h67v-94z" />
    <glyph glyph-name="uni04DF" unicode="&#x4df;" horiz-adv-x="373" 
d="M318 346c0 -48 -36 -72 -68 -79v-2c55 -11 82 -42 82 -91v-50c0 -49 -14 -84 -42 -104s-70 -30 -128 -30c-34 0 -78 6 -134 17v71c53 -15 98 -22 133 -22c52 0 101 5 101 75v31c0 58 -50 62 -93 62h-79v62h66c44 0 94 5 94 64v30c0 35 -30 52 -90 52h-12
c-39 0 -76 -4 -110 -12v65c37 6 78 9 121 9c36 0 64 -2 84 -7c46 -10 75 -33 75 -102v-39z" />
    <glyph glyph-name="uni04E0" unicode="&#x4e0;" horiz-adv-x="453" 
d="M319 186c0 86 -49 131 -116 131h-29v68l143 197h-272v67h349v-67l-144 -201c76 -14 136 -81 136 -192c0 -131 -76 -201 -177 -201c-93 0 -153 65 -180 195l61 21c10 -73 56 -150 119 -150c61 0 110 52 110 132z" />
    <glyph glyph-name="uni04E1" unicode="&#x4e1;" horiz-adv-x="409" 
d="M222 260c84 -5 146 -95 146 -213c0 -67 -17 -124 -49 -170c-32 -45 -73 -68 -122 -68c-91 0 -153 76 -160 188l64 7c9 -71 38 -128 96 -128c64 0 105 76 105 164c0 94 -46 151 -116 151h-31v71l114 159c-34 -2 -57 -3 -69 -3h-147v67h294v-54z" />
    <glyph glyph-name="uni04E2" unicode="&#x4e2;" horiz-adv-x="542" 
d="M152 0h-88v649h67v-536l261 536h88v-649h-67v545zM353 755h-164v59h164v-59z" />
    <glyph glyph-name="uni04E3" unicode="&#x4e3;" horiz-adv-x="449" 
d="M146 0h-87v484h63v-391l180 391h88v-484h-64v400zM310 590h-164v59h164v-59z" />
    <glyph glyph-name="uni04E4" unicode="&#x4e4;" horiz-adv-x="542" 
d="M152 0h-88v649h67v-536l261 536h88v-649h-67v545zM241 730h-68v94h68v-94zM368 730h-67v94h67v-94z" />
    <glyph glyph-name="uni04E5" unicode="&#x4e5;" horiz-adv-x="449" 
d="M146 0h-87v484h63v-391l180 391h88v-484h-64v400zM198 565h-67v94h67v-94zM326 565h-68v94h68v-94z" />
    <glyph glyph-name="uni04E6" unicode="&#x4e6;" horiz-adv-x="509" 
d="M460 474v-308c0 -112 -65 -153 -137 -169c-21 -5 -45 -7 -69 -7c-136 0 -204 59 -204 176v307c0 124 68 186 204 186c137 0 206 -62 206 -185zM254 596c-73 0 -135 -22 -135 -120v-309c0 -75 45 -112 136 -112c89 0 134 37 134 112v309c0 80 -45 120 -135 120zM224 730
h-67v94h67v-94zM352 730h-68v94h68v-94z" />
    <glyph glyph-name="uni04E7" unicode="&#x4e7;" horiz-adv-x="426" 
d="M380 321v-168c0 -81 -19 -132 -66 -150c-35 -13 -56 -13 -102 -13c-57 0 -83 0 -120 24c-35 21 -47 68 -47 139v168c0 84 18 141 66 160c35 14 54 13 101 13c48 0 66 1 102 -13c33 -14 46 -36 57 -79c6 -22 9 -49 9 -81zM311 140v196c0 45 -7 72 -21 83
c-13 11 -39 16 -78 16c-38 0 -64 -5 -78 -16c-13 -11 -20 -38 -20 -83v-196c0 -40 5 -66 25 -78c22 -14 38 -13 73 -13c36 0 51 -1 74 13c20 12 25 38 25 78zM183 565h-67v94h67v-94zM311 565h-68v94h68v-94z" />
    <glyph glyph-name="uni04E8" unicode="&#x4e8;" horiz-adv-x="509" 
d="M460 474v-308c0 -112 -65 -153 -137 -169c-21 -5 -45 -7 -69 -7c-136 0 -204 59 -204 176v307c0 124 68 186 204 186c137 0 206 -62 206 -185zM389 167v134h-270v-134c0 -75 45 -112 136 -112c89 0 134 37 134 112zM254 596c-73 0 -135 -22 -135 -120v-107h270v107
c0 80 -45 120 -135 120z" />
    <glyph glyph-name="uni04E9" unicode="&#x4e9;" horiz-adv-x="426" 
d="M380 321v-168c0 -81 -19 -132 -66 -150c-35 -13 -56 -13 -102 -13c-57 0 -83 0 -120 24c-35 21 -47 68 -47 139v168c0 84 18 141 66 160c35 14 54 13 101 13c48 0 66 1 102 -13c33 -14 46 -36 57 -79c6 -22 9 -49 9 -81zM114 336v-63h197v63c0 45 -7 72 -21 83
c-13 11 -39 16 -78 16c-38 0 -64 -5 -78 -16c-13 -11 -20 -38 -20 -83zM311 140v69h-197v-69c0 -40 5 -66 25 -78c22 -14 38 -13 73 -13c36 0 51 -1 74 13c20 12 25 38 25 78z" />
    <glyph glyph-name="uni04EA" unicode="&#x4ea;" horiz-adv-x="509" 
d="M460 474v-308c0 -112 -65 -153 -137 -169c-21 -5 -45 -7 -69 -7c-136 0 -204 59 -204 176v307c0 124 68 186 204 186c137 0 206 -62 206 -185zM389 167v134h-270v-134c0 -75 45 -112 136 -112c89 0 134 37 134 112zM254 596c-73 0 -135 -22 -135 -120v-107h270v107
c0 80 -45 120 -135 120zM224 730h-67v94h67v-94zM352 730h-68v94h68v-94z" />
    <glyph glyph-name="uni04EB" unicode="&#x4eb;" horiz-adv-x="426" 
d="M380 321v-168c0 -81 -19 -132 -66 -150c-35 -13 -56 -13 -102 -13c-57 0 -83 0 -120 24c-35 21 -47 68 -47 139v168c0 84 18 141 66 160c35 14 54 13 101 13c48 0 66 1 102 -13c33 -14 46 -36 57 -79c6 -22 9 -49 9 -81zM114 336v-63h197v63c0 45 -7 72 -21 83
c-13 11 -39 16 -78 16c-38 0 -64 -5 -78 -16c-13 -11 -20 -38 -20 -83zM311 140v69h-197v-69c0 -40 5 -66 25 -78c22 -14 38 -13 73 -13c36 0 51 -1 74 13c20 12 25 38 25 78zM183 565h-67v94h67v-94zM311 565h-68v94h68v-94z" />
    <glyph glyph-name="uni04EC" unicode="&#x4ec;" horiz-adv-x="422" 
d="M305 475c0 99 -64 118 -137 118c-40 0 -84 -8 -132 -24v72c44 13 88 19 134 19c136 0 204 -62 204 -186v-308c0 -117 -68 -176 -204 -176c-48 0 -93 6 -137 19v74c48 -16 92 -24 132 -24c93 0 140 37 140 112v130h-248v67h248v107zM181 730h-68v94h68v-94zM308 730h-67
v94h67v-94z" />
    <glyph glyph-name="uni04ED" unicode="&#x4ed;" horiz-adv-x="348" 
d="M27 4v68c38 -13 74 -19 110 -19c39 0 66 6 78 17c13 11 19 34 19 69v73h-183v68h183v59c0 41 -5 67 -16 78s-36 16 -74 16c-35 0 -73 -7 -112 -20v66c35 10 69 15 104 15c38 0 52 -1 84 -7c30 -7 43 -21 60 -45c17 -26 23 -66 23 -116v-178c0 -80 -20 -130 -66 -146
c-35 -13 -49 -12 -94 -12c-44 0 -83 5 -116 14zM144 565h-67v94h67v-94zM272 565h-68v94h68v-94z" />
    <glyph glyph-name="uni04EE" unicode="&#x4ee;" horiz-adv-x="403" 
d="M398 649l-173 -534c-13 -41 -29 -72 -49 -93c-19 -21 -46 -32 -81 -32c-19 0 -40 3 -63 10v70c15 -5 31 -7 45 -7c22 0 39 7 51 20s23 34 33 64l15 46l-171 456h81l125 -360l114 360h73zM283 755h-164v59h164v-59z" />
    <glyph glyph-name="uni04EF" unicode="&#x4ef;" horiz-adv-x="345" 
d="M341 484l-180 -682h-71l55 191l-140 491h73l101 -395h2l91 395h69zM254 590h-163v59h163v-59z" />
    <glyph glyph-name="uni04F0" unicode="&#x4f0;" horiz-adv-x="403" 
d="M398 649l-173 -534c-13 -41 -29 -72 -49 -93c-19 -21 -46 -32 -81 -32c-19 0 -40 3 -63 10v70c15 -5 31 -7 45 -7c22 0 39 7 51 20s23 34 33 64l15 46l-171 456h81l125 -360l114 360h73zM171 730h-67v94h67v-94zM299 730h-68v94h68v-94z" />
    <glyph glyph-name="uni04F1" unicode="&#x4f1;" horiz-adv-x="345" 
d="M341 484l-180 -682h-71l55 191l-140 491h73l101 -395h2l91 395h69zM143 565h-68v94h68v-94zM270 565h-67v94h67v-94z" />
    <glyph glyph-name="uni04F2" unicode="&#x4f2;" horiz-adv-x="403" 
d="M398 649l-173 -534c-13 -41 -29 -72 -49 -93c-19 -21 -46 -32 -81 -32c-19 0 -40 3 -63 10v70c15 -5 31 -7 45 -7c22 0 39 7 51 20s23 34 33 64l15 46l-171 456h81l125 -360l114 360h73zM181 717h-57l52 128h57zM276 717h-57l53 128h57z" />
    <glyph glyph-name="uni04F3" unicode="&#x4f3;" horiz-adv-x="345" 
d="M341 484l-180 -682h-71l55 191l-140 491h73l101 -395h2l91 395h69zM128 552h-57l52 128h57zM223 552h-57l52 128h57z" />
    <glyph glyph-name="uni04F4" unicode="&#x4f4;" horiz-adv-x="458" 
d="M322 298c-9 -56 -74 -69 -129 -69c-94 0 -141 46 -141 139v281h72v-275c0 -53 29 -80 88 -80c43 0 72 6 87 19s23 33 23 61v275h73v-649h-73v298zM199 730h-68v94h68v-94zM326 730h-67v94h67v-94z" />
    <glyph glyph-name="uni04F5" unicode="&#x4f5;" horiz-adv-x="430" 
d="M185 153c-87 0 -126 33 -126 139v192h67v-187c0 -41 10 -64 36 -73c11 -5 25 -7 42 -7c40 0 66 6 80 17c13 11 20 32 20 63v187h67v-484h-66v222c-7 -46 -47 -69 -120 -69zM185 565h-68v94h68v-94zM312 565h-67v94h67v-94z" />
    <glyph glyph-name="uni04F6" unicode="&#x4f6;" horiz-adv-x="368" 
d="M184 -180h-60v180h-61v649h282v-68h-209v-514h48v-247z" />
    <glyph glyph-name="uni04F7" unicode="&#x4f7;" horiz-adv-x="323" 
d="M176 -180h-60v180h-53v484h237v-66h-169v-351h45v-247z" />
    <glyph glyph-name="uni04F8" unicode="&#x4f8;" horiz-adv-x="605" 
d="M542 0h-73v649h73v-649zM209 369c94 0 185 -7 185 -132v-96c0 -94 -57 -141 -172 -141h-159v649h73v-280h73zM217 66c52 0 106 9 106 79v81c0 31 -8 52 -23 62c-16 10 -43 15 -82 15h-83v-237h82zM272 730h-67v94h67v-94zM400 730h-68v94h68v-94z" />
    <glyph glyph-name="uni04F9" unicode="&#x4f9;" horiz-adv-x="544" 
d="M485 0h-68v484h68v-484zM227 0h-164v484h69v-175h101c44 0 76 -7 96 -21s30 -42 30 -83v-100c0 -70 -44 -105 -132 -105zM222 58c38 0 71 7 71 59v61c0 63 -17 71 -69 71h-93v-191h91zM242 565h-68v94h68v-94zM369 565h-67v94h67v-94z" />
    <glyph glyph-name="Wgrave" unicode="&#x1e80;" horiz-adv-x="726" 
d="M720 649l-157 -649h-84l-117 540l-119 -540h-85l-152 649h77l121 -557h2l120 557h78l120 -557h2l121 557h73zM392 703h-55l-94 127h82z" />
    <glyph glyph-name="wgrave" unicode="&#x1e81;" horiz-adv-x="594" 
d="M585 484l-119 -484h-80l-88 391l-86 -391h-81l-122 484h74l89 -398h4l86 398h76l88 -398h5l85 398h69zM331 553h-56l-93 127h81z" />
    <glyph glyph-name="Wacute" unicode="&#x1e82;" horiz-adv-x="726" 
d="M720 649l-157 -649h-84l-117 540l-119 -540h-85l-152 649h77l121 -557h2l120 557h78l120 -557h2l121 557h73zM472 830l-94 -127h-55l67 127h82z" />
    <glyph glyph-name="wacute" unicode="&#x1e83;" horiz-adv-x="594" 
d="M585 484l-119 -484h-80l-88 391l-86 -391h-81l-122 484h74l89 -398h4l86 398h76l88 -398h5l85 398h69z" />
    <glyph glyph-name="Wdieresis" unicode="&#x1e84;" horiz-adv-x="726" 
d="M720 649l-157 -649h-84l-117 540l-119 -540h-85l-152 649h77l121 -557h2l120 557h78l120 -557h2l121 557h73zM332 735h-67v94h67v-94zM460 735h-68v94h68v-94z" />
    <glyph glyph-name="wdieresis" unicode="&#x1e85;" horiz-adv-x="594" 
d="M585 484l-119 -484h-80l-88 391l-86 -391h-81l-122 484h74l89 -398h4l86 398h76l88 -398h5l85 398h69zM268 565h-68v94h68v-94zM395 565h-67v94h67v-94z" />
    <glyph glyph-name="Ygrave" unicode="&#x1ef2;" horiz-adv-x="438" 
d="M432 649l-177 -384v-265h-73v262l-176 387h83l130 -305l130 305h83zM269 703h-55l-94 127h82z" />
    <glyph glyph-name="ygrave" unicode="&#x1ef3;" horiz-adv-x="345" 
d="M341 484l-183 -692h-70l57 201l-140 491h73l101 -395h2l91 395h69zM222 553h-55l-94 127h82z" />
    <glyph glyph-name="endash" unicode="&#x2013;" 
d="M382 254h-329v71h329v-71z" />
    <glyph glyph-name="emdash" unicode="&#x2014;" horiz-adv-x="614" 
d="M584 254h-554v71h554v-71z" />
    <glyph glyph-name="quoteleft" unicode="&#x2018;" horiz-adv-x="192" 
d="M148 649l-35 -220h-79l70 220h44z" />
    <glyph glyph-name="quoteright" unicode="&#x2019;" horiz-adv-x="192" 
d="M158 649l-70 -220h-44l35 220h79z" />
    <glyph glyph-name="quotesinglbase" unicode="&#x201a;" horiz-adv-x="192" 
d="M143 108l-70 -220h-44l35 220h79z" />
    <glyph glyph-name="quotedblleft" unicode="&#x201c;" horiz-adv-x="332" 
d="M189 429l71 220h44l-35 -220h-80zM48 429l71 220h44l-35 -220h-80z" />
    <glyph glyph-name="quotedblright" unicode="&#x201d;" horiz-adv-x="332" 
d="M143 649l-70 -220h-44l35 220h79zM284 649l-71 -220h-43l34 220h80z" />
    <glyph glyph-name="quotedblbase" unicode="&#x201e;" horiz-adv-x="332" 
d="M143 108l-70 -220h-44l35 220h79zM284 108l-71 -220h-43l34 220h80z" />
    <glyph glyph-name="dagger" unicode="&#x2020;" horiz-adv-x="365" 
d="M15 416v68h134v165h66v-165h135v-68h-135v-581h-66v581h-134z" />
    <glyph glyph-name="daggerdbl" unicode="&#x2021;" horiz-adv-x="365" 
d="M15 416v68h134v165h66v-165h135v-68h-135v-348h135v-68h-135v-165h-66v165h-134v68h134v348h-134z" />
    <glyph glyph-name="bullet" unicode="&#x2022;" horiz-adv-x="359" 
d="M179 448c66 0 120 -71 120 -159c0 -87 -54 -160 -119 -160c-66 0 -120 72 -120 160c0 87 54 159 119 159z" />
    <glyph glyph-name="ellipsis" unicode="&#x2026;" horiz-adv-x="531" 
d="M140 0h-87v108h87v-108zM309 0h-87v108h87v-108zM479 0h-87v108h87v-108z" />
    <glyph glyph-name="perthousand" unicode="&#x2030;" horiz-adv-x="919" 
d="M271 537v-125c0 -44 -13 -72 -37 -84c-26 -13 -45 -15 -81 -15s-55 2 -81 15c-25 12 -37 39 -37 84v125c0 45 10 75 31 90c22 15 50 22 87 22s65 -7 86 -22s32 -45 32 -90zM153 365c38 0 59 4 59 51v125c0 51 -20 56 -59 56c-40 0 -60 -5 -60 -56v-125
c0 -47 22 -51 60 -51zM474 660l-243 -670h-58l243 670h58zM607 214v-125c0 -44 -13 -72 -37 -84c-26 -13 -45 -15 -81 -15s-55 2 -81 15c-25 12 -37 39 -37 84v125c0 45 10 75 31 90c22 15 50 22 87 22s65 -7 86 -22s32 -45 32 -90zM489 42c38 0 59 4 59 51v125
c0 51 -20 56 -59 56c-40 0 -60 -5 -60 -56v-125c0 -47 22 -51 60 -51zM884 214v-125c0 -44 -13 -72 -37 -84c-26 -13 -45 -15 -80 -15c-37 0 -55 2 -81 15c-25 12 -38 39 -38 84v125c0 45 11 75 32 90s50 22 87 22c36 0 65 -7 86 -22s31 -45 31 -90zM767 42c37 0 59 4 59 51
v125c0 51 -20 56 -59 56c-41 0 -60 -5 -60 -56v-125c0 -47 22 -51 60 -51z" />
    <glyph glyph-name="guilsinglleft" unicode="&#x2039;" horiz-adv-x="192" 
d="M162 70h-57l-75 192l75 192h57l-69 -192z" />
    <glyph glyph-name="guilsinglright" unicode="&#x203a;" horiz-adv-x="192" 
d="M162 262l-75 -192h-57l69 192l-69 192h57z" />
    <glyph glyph-name="fraction" unicode="&#x2044;" horiz-adv-x="90" 
d="M-140 0l310 649h60l-309 -649h-61z" />
    <glyph glyph-name="zerosuperior" unicode="&#x2070;" horiz-adv-x="284" 
d="M142 271c-39 0 -69 7 -89 22c-21 14 -31 41 -31 81v181c0 40 10 67 31 82c20 15 50 22 89 22s69 -7 89 -22s31 -42 31 -82v-181c0 -40 -11 -67 -31 -81c-20 -15 -50 -22 -89 -22zM79 377c0 -49 21 -52 63 -52s63 3 63 52v175c0 49 -21 52 -63 52s-63 -3 -63 -52v-175z
" />
    <glyph glyph-name="foursuperior" unicode="&#x2074;" horiz-adv-x="284" 
d="M266 358h-36v-85h-54v85h-165v50l156 241h63v-240h36v-51zM176 409l-1 169l-109 -169h110z" />
    <glyph glyph-name="fivesuperior" unicode="&#x2075;" horiz-adv-x="284" 
d="M197 408c0 37 -24 41 -58 41h-103v200h210v-55h-153v-91h58c40 0 67 -6 81 -19s21 -33 21 -59v-67c0 -58 -42 -87 -125 -87c-18 0 -51 3 -98 10v60c37 -10 69 -15 97 -15c36 0 70 3 70 42v40z" />
    <glyph glyph-name="sixsuperior" unicode="&#x2076;" horiz-adv-x="284" 
d="M143 271c-62 0 -120 14 -120 97v192c0 66 41 99 123 99c30 0 63 -2 101 -6v-58c-32 6 -63 9 -95 9c-45 0 -72 -7 -72 -62v-39h70c57 0 110 -4 110 -79v-61c0 -83 -56 -92 -117 -92zM203 412c0 36 -29 39 -60 39h-63v-79c0 -31 21 -47 63 -47c35 0 60 2 60 40v47z" />
    <glyph glyph-name="sevensuperior" unicode="&#x2077;" horiz-adv-x="284" 
d="M248 595l-111 -322h-62l114 319h-167v57h226v-54z" />
    <glyph glyph-name="eightsuperior" unicode="&#x2078;" horiz-adv-x="284" 
d="M142 271c-41 0 -72 7 -91 20c-20 13 -30 35 -30 67v53c0 33 17 54 50 63v1c-27 8 -40 25 -40 52v59c0 49 37 73 111 73s111 -24 111 -73v-59c0 -26 -14 -43 -41 -51l1 -1c33 -9 50 -30 50 -64v-53c0 -32 -10 -54 -30 -67s-50 -20 -91 -20zM206 408c0 37 -31 40 -64 40
c-34 0 -65 -3 -65 -40v-43c0 -27 22 -40 65 -40s64 13 64 40v43zM142 497c27 0 55 1 55 32v40c0 23 -18 35 -55 35c-29 0 -55 -2 -55 -35v-40c0 -31 27 -32 55 -32z" />
    <glyph glyph-name="ninesuperior" unicode="&#x2079;" horiz-adv-x="284" 
d="M140 659c62 0 120 -10 120 -93v-196c0 -65 -42 -98 -123 -98c-36 0 -69 2 -101 5v58c32 -6 63 -9 95 -9c45 0 72 7 72 63v37h-70c-57 0 -110 4 -110 79v61c0 81 57 93 117 93zM80 517c0 -36 29 -39 60 -39h63v79c0 31 -21 47 -63 47c-35 0 -60 -2 -60 -40v-47z" />
    <glyph glyph-name="zeroinferior" unicode="&#x2080;" horiz-adv-x="284" 
d="M142 -2c-39 0 -69 7 -89 22c-21 14 -31 41 -31 81v181c0 40 10 67 31 82c20 15 50 22 89 22s69 -7 89 -22s31 -42 31 -82v-181c0 -40 -11 -67 -31 -81c-20 -15 -50 -22 -89 -22zM79 104c0 -49 21 -52 63 -52s63 3 63 52v175c0 49 -21 52 -63 52s-63 -3 -63 -52v-175z" />
    <glyph glyph-name="oneinferior" unicode="&#x2081;" horiz-adv-x="284" 
d="M193 0h-53v298l-84 -71v68l90 81h47v-376z" />
    <glyph glyph-name="twoinferior" unicode="&#x2082;" horiz-adv-x="284" 
d="M254 0h-223v81c0 102 101 100 148 139c12 9 18 21 18 34v44c0 21 -24 32 -70 32c-23 0 -53 -4 -88 -13v57c34 7 66 11 95 11c42 0 72 -6 91 -18c18 -12 27 -33 27 -64v-60c0 -53 -50 -84 -84 -96c-22 -7 -41 -16 -58 -26c-18 -11 -27 -22 -27 -34v-29h171v-58z" />
    <glyph glyph-name="threeinferior" unicode="&#x2083;" horiz-adv-x="284" 
d="M206 135c0 37 -31 40 -64 40h-58v49h58c27 0 55 1 55 32v40c0 34 -30 35 -62 35c-19 0 -49 -2 -89 -6v56c35 3 67 5 96 5c74 0 111 -24 111 -73v-59c0 -26 -14 -43 -41 -51l1 -1c33 -9 50 -30 50 -64v-53c0 -32 -10 -54 -30 -67s-50 -20 -91 -20c-34 0 -70 3 -107 8v60
c35 -9 71 -14 107 -14c43 0 64 13 64 40v43z" />
    <glyph glyph-name="fourinferior" unicode="&#x2084;" horiz-adv-x="284" 
d="M266 85h-36v-85h-54v85h-165v50l156 241h63v-240h36v-51zM176 136l-1 169l-109 -169h110z" />
    <glyph glyph-name="fiveinferior" unicode="&#x2085;" horiz-adv-x="284" 
d="M197 135c0 37 -24 41 -58 41h-103v200h210v-55h-153v-91h58c40 0 67 -6 81 -19s21 -33 21 -59v-67c0 -58 -42 -87 -125 -87c-18 0 -51 3 -98 10v60c37 -10 69 -15 97 -15c36 0 70 3 70 42v40z" />
    <glyph glyph-name="sixinferior" unicode="&#x2086;" horiz-adv-x="284" 
d="M143 -2c-62 0 -120 14 -120 97v192c0 66 41 99 123 99c30 0 63 -2 101 -6v-58c-32 6 -63 9 -95 9c-45 0 -72 -7 -72 -62v-39h70c57 0 110 -4 110 -79v-61c0 -83 -56 -92 -117 -92zM203 139c0 36 -29 39 -60 39h-63v-79c0 -31 21 -47 63 -47c35 0 60 2 60 40v47z" />
    <glyph glyph-name="seveninferior" unicode="&#x2087;" horiz-adv-x="284" 
d="M248 322l-111 -322h-62l114 319h-167v57h226v-54z" />
    <glyph glyph-name="eightinferior" unicode="&#x2088;" horiz-adv-x="284" 
d="M142 -2c-41 0 -72 7 -91 20c-20 13 -30 35 -30 67v53c0 33 17 54 50 63v1c-27 8 -40 25 -40 52v59c0 49 37 73 111 73s111 -24 111 -73v-59c0 -26 -14 -43 -41 -51l1 -1c33 -9 50 -30 50 -64v-53c0 -32 -10 -54 -30 -67s-50 -20 -91 -20zM206 135c0 37 -31 40 -64 40
c-34 0 -65 -3 -65 -40v-43c0 -27 22 -40 65 -40s64 13 64 40v43zM142 224c27 0 55 1 55 32v40c0 23 -18 35 -55 35c-29 0 -55 -2 -55 -35v-40c0 -31 27 -32 55 -32z" />
    <glyph glyph-name="nineinferior" unicode="&#x2089;" horiz-adv-x="284" 
d="M140 386c62 0 120 -10 120 -93v-196c0 -65 -42 -98 -123 -98c-36 0 -69 2 -101 5v58c32 -6 63 -9 95 -9c45 0 72 7 72 63v37h-70c-57 0 -110 4 -110 79v61c0 81 57 93 117 93zM80 244c0 -36 29 -39 60 -39h63v79c0 31 -21 47 -63 47c-35 0 -60 -2 -60 -40v-47z" />
    <glyph glyph-name="Euro" unicode="&#x20ac;" 
d="M296 573c-74 0 -138 -19 -138 -118v-29h204l-15 -71h-189v-71h167l-14 -71h-153v-42c0 -75 47 -112 141 -112c36 0 75 6 117 19v-74c-39 -9 -80 -14 -122 -14c-136 0 -205 59 -205 176v47h-69v71h69v71h-69v71h69v28c0 124 69 186 205 186c40 0 75 -4 106 -12l-14 -67
c-35 8 -65 12 -90 12z" />
    <glyph glyph-name="uni20AE" unicode="&#x20ae;" horiz-adv-x="439" 
d="M421 581h-164v-172l126 77v-71l-126 -77v-81l126 77v-71l-126 -77v-186h-74v141l-128 -78v71l128 78v81l-128 -78v71l128 78v217h-165v68h403v-68z" />
    <glyph glyph-name="uni20B4" unicode="&#x20b4;" horiz-adv-x="427" 
d="M49 279c12 71 55 93 126 93h58c32 0 54 6 66 18h-291v71h307v50c0 30 -8 51 -23 63c-16 12 -47 18 -95 18c-30 0 -72 -6 -128 -17v73c49 7 90 11 124 11c73 0 124 -12 151 -37c28 -25 42 -63 42 -114v-47h33v-71h-40c-14 -60 -55 -90 -125 -90h-57c-33 0 -55 -7 -67 -21
h289v-71h-303v-68c0 -32 10 -53 28 -63c19 -10 48 -15 87 -15c38 0 87 8 145 25v-81c-59 -11 -107 -16 -143 -16c-66 0 -113 13 -143 39c-30 25 -45 73 -45 144v35h-37v71h41z" />
    <glyph glyph-name="afii61352" unicode="&#x2116;" horiz-adv-x="889" 
d="M825 526v-109c0 -59 -16 -94 -51 -106c-27 -10 -41 -10 -75 -10c-42 0 -81 1 -103 28c-14 18 -23 49 -23 88v109c0 54 10 89 38 106c28 16 46 17 88 17s60 -1 89 -17c27 -17 37 -52 37 -106zM769 417v110c0 31 -5 51 -14 59c-10 7 -28 11 -56 11c-27 0 -36 1 -52 -9
s-18 -30 -18 -61v-110c0 -28 5 -46 15 -53s29 -11 55 -11s45 4 55 11s15 25 15 53zM479 0h-87l-265 545v-545h-64v649h88l265 -536v536h63v-649zM572 182v56h254v-56h-254z" />
    <glyph glyph-name="trademark" unicode="&#x2122;" horiz-adv-x="470" 
d="M326 457l54 192h58v-265h-42v178l-52 -178h-39l-54 180v-180h-43v265h60zM118 603v-219h-46v219h-66v46h177v-46h-65z" />
    <glyph glyph-name="estimated" unicode="&#x212e;" horiz-adv-x="621" 
d="M531 120c-48 -74 -126 -134 -224 -134c-79 0 -146 34 -201 101c-56 67 -83 147 -83 241c0 93 27 172 83 239c56 66 123 99 201 99c77 0 144 -33 199 -99c56 -67 84 -146 84 -239v-9h-459c-3 0 -5 -2 -5 -5v-185c0 -7 2 -14 8 -22c48 -67 106 -100 174 -100
c72 0 132 38 181 113h42zM486 343v184c0 9 -3 16 -8 22c-47 64 -104 96 -170 96c-68 0 -126 -33 -174 -99c-5 -7 -8 -15 -8 -23v-180c0 -3 2 -4 5 -4h351c3 0 4 1 4 4z" />
    <glyph glyph-name="onethird" unicode="&#x2153;" horiz-adv-x="717" 
d="M247 273h-53v298l-84 -71v68l90 81h47v-376zM174 0l309 649h61l-309 -649h-61zM622 135c0 37 -31 40 -65 40h-57v49h57c28 0 56 1 56 32v40c0 34 -31 35 -62 35c-20 0 -50 -2 -90 -6v56c35 3 67 5 96 5c74 0 111 -24 111 -73v-59c0 -26 -13 -43 -40 -51l1 -1
c33 -9 49 -30 49 -64v-53c0 -32 -10 -54 -30 -67c-19 -13 -50 -20 -91 -20c-34 0 -69 3 -106 8v60c35 -9 70 -14 106 -14c43 0 65 13 65 40v43z" />
    <glyph glyph-name="twothirds" unicode="&#x2154;" horiz-adv-x="717" 
d="M254 273h-223v81c0 102 101 100 148 139c12 9 18 21 18 34v44c0 21 -24 32 -70 32c-23 0 -53 -4 -88 -13v57c34 7 66 11 95 11c42 0 72 -6 91 -18c18 -12 27 -33 27 -64v-60c0 -53 -50 -84 -84 -96c-22 -7 -41 -16 -58 -26c-18 -11 -27 -22 -27 -34v-29h171v-58zM174 0
l309 649h61l-309 -649h-61zM622 135c0 37 -31 40 -65 40h-57v49h57c28 0 56 1 56 32v40c0 34 -31 35 -62 35c-20 0 -50 -2 -90 -6v56c35 3 67 5 96 5c74 0 111 -24 111 -73v-59c0 -26 -13 -43 -40 -51l1 -1c33 -9 49 -30 49 -64v-53c0 -32 -10 -54 -30 -67
c-19 -13 -50 -20 -91 -20c-34 0 -69 3 -106 8v60c35 -9 70 -14 106 -14c43 0 65 13 65 40v43z" />
    <glyph glyph-name="oneeighth" unicode="&#x215b;" horiz-adv-x="717" 
d="M247 273h-53v298l-84 -71v68l90 81h47v-376zM174 0l309 649h61l-309 -649h-61zM557 -2c-41 0 -71 7 -91 20s-29 35 -29 67v53c0 33 16 54 50 63l-1 1c-26 8 -40 25 -40 52v59c0 49 37 73 111 73s111 -24 111 -73v-59c0 -26 -13 -43 -40 -51l1 -1c33 -9 49 -30 49 -64v-53
c0 -32 -10 -54 -30 -67c-19 -13 -50 -20 -91 -20zM622 135c0 37 -31 40 -65 40c-33 0 -64 -3 -64 -40v-43c0 -27 21 -40 64 -40s65 13 65 40v43zM557 224c28 0 56 1 56 32v40c0 23 -19 35 -56 35c-29 0 -54 -2 -54 -35v-40c0 -31 26 -32 54 -32z" />
    <glyph glyph-name="threeeighths" unicode="&#x215c;" horiz-adv-x="717" 
d="M206 408c0 37 -31 40 -64 40h-58v49h58c27 0 55 1 55 32v40c0 34 -30 35 -62 35c-19 0 -49 -2 -89 -6v56c35 3 67 5 96 5c74 0 111 -24 111 -73v-59c0 -26 -14 -43 -41 -51l1 -1c33 -9 50 -30 50 -64v-53c0 -32 -10 -54 -30 -67s-50 -20 -91 -20c-34 0 -70 3 -107 8v60
c35 -9 71 -14 107 -14c43 0 64 13 64 40v43zM174 0l309 649h61l-309 -649h-61zM557 -2c-41 0 -71 7 -91 20s-29 35 -29 67v53c0 33 16 54 50 63l-1 1c-26 8 -40 25 -40 52v59c0 49 37 73 111 73s111 -24 111 -73v-59c0 -26 -13 -43 -40 -51l1 -1c33 -9 49 -30 49 -64v-53
c0 -32 -10 -54 -30 -67c-19 -13 -50 -20 -91 -20zM622 135c0 37 -31 40 -65 40c-33 0 -64 -3 -64 -40v-43c0 -27 21 -40 64 -40s65 13 65 40v43zM557 224c28 0 56 1 56 32v40c0 23 -19 35 -56 35c-29 0 -54 -2 -54 -35v-40c0 -31 26 -32 54 -32z" />
    <glyph glyph-name="fiveeighths" unicode="&#x215d;" horiz-adv-x="717" 
d="M197 408c0 37 -24 41 -58 41h-103v200h210v-55h-153v-91h58c40 0 67 -6 81 -19s21 -33 21 -59v-67c0 -58 -42 -87 -125 -87c-18 0 -51 3 -98 10v60c37 -10 69 -15 97 -15c36 0 70 3 70 42v40zM174 0l309 649h61l-309 -649h-61zM557 -2c-41 0 -71 7 -91 20s-29 35 -29 67
v53c0 33 16 54 50 63l-1 1c-26 8 -40 25 -40 52v59c0 49 37 73 111 73s111 -24 111 -73v-59c0 -26 -13 -43 -40 -51l1 -1c33 -9 49 -30 49 -64v-53c0 -32 -10 -54 -30 -67c-19 -13 -50 -20 -91 -20zM622 135c0 37 -31 40 -65 40c-33 0 -64 -3 -64 -40v-43
c0 -27 21 -40 64 -40s65 13 65 40v43zM557 224c28 0 56 1 56 32v40c0 23 -19 35 -56 35c-29 0 -54 -2 -54 -35v-40c0 -31 26 -32 54 -32z" />
    <glyph glyph-name="seveneighths" unicode="&#x215e;" horiz-adv-x="717" 
d="M248 595l-111 -322h-62l114 319h-167v57h226v-54zM174 0l309 649h61l-309 -649h-61zM557 -2c-41 0 -71 7 -91 20s-29 35 -29 67v53c0 33 16 54 50 63l-1 1c-26 8 -40 25 -40 52v59c0 49 37 73 111 73s111 -24 111 -73v-59c0 -26 -13 -43 -40 -51l1 -1
c33 -9 49 -30 49 -64v-53c0 -32 -10 -54 -30 -67c-19 -13 -50 -20 -91 -20zM622 135c0 37 -31 40 -65 40c-33 0 -64 -3 -64 -40v-43c0 -27 21 -40 64 -40s65 13 65 40v43zM557 224c28 0 56 1 56 32v40c0 23 -19 35 -56 35c-29 0 -54 -2 -54 -35v-40c0 -31 26 -32 54 -32z
" />
    <glyph glyph-name="partialdiff" unicode="&#x2202;" 
d="M53 156v105c0 60 12 101 36 122c23 21 62 31 116 31h110v72c0 47 -8 78 -24 91c-15 13 -43 19 -82 19c-27 0 -72 -5 -132 -15v70c51 6 93 9 123 9c57 0 110 -7 143 -43c23 -27 39 -74 39 -133v-328c0 -81 -22 -133 -68 -151c-33 -14 -54 -15 -96 -15c-51 0 -79 4 -114 26
s-51 70 -51 140zM218 356c-68 0 -98 -17 -98 -98v-107c0 -44 7 -72 21 -84c13 -12 39 -18 76 -18s62 6 77 19c14 12 21 40 21 83v205h-97z" />
    <glyph glyph-name="Delta" unicode="&#x2206;" horiz-adv-x="489" 
d="M478 0h-467l194 649h84zM239 557l-137 -489h281l-137 489h-7z" />
    <glyph glyph-name="product" unicode="&#x220f;" horiz-adv-x="460" 
d="M445 581h-67v-581h-73v581h-150v-581h-73v581h-67v68h430v-68z" />
    <glyph glyph-name="summation" unicode="&#x2211;" 
d="M390 649v-68h-257l180 -205v-78l-184 -230h269v-68h-335v90l194 246l-194 215v98h327z" />
    <glyph glyph-name="minus" unicode="&#x2212;" horiz-adv-x="375" 
d="M330 282h-285v67h285v-67z" />
    <glyph glyph-name="uni2215" unicode="&#x2215;" horiz-adv-x="316" 
d="M308 509l-243 -519h-57l243 519h57z" />
    <glyph glyph-name="uni2219" unicode="&#x2219;" horiz-adv-x="192" 
d="M140 280h-87v108h87v-108z" />
    <glyph glyph-name="radical" unicode="&#x221a;" horiz-adv-x="452" 
d="M104 427h-99v57h154l41 -328c2 -15 3 -29 3 -42h2c3 13 7 27 12 42l174 544h63l-236 -700h-57z" />
    <glyph glyph-name="infinity" unicode="&#x221e;" 
d="M391 317c0 -65 -37 -112 -86 -112c-15 0 -29 5 -41 16c-11 11 -25 26 -39 46l-7 9c-18 -24 -33 -42 -46 -53c-13 -12 -26 -18 -41 -18c-51 0 -87 44 -87 112s36 112 86 112c24 0 51 -22 63 -37c6 -9 15 -20 25 -35l21 29c16 20 35 43 66 43c51 0 86 -42 86 -112zM342 317
c0 29 -15 57 -37 57c-10 0 -19 -5 -27 -16l-30 -41l29 -40c8 -11 18 -17 28 -17c22 0 37 27 37 57zM93 317c0 -28 16 -57 37 -57c10 0 19 5 27 16l31 41l-30 40c-9 11 -18 17 -27 17c-23 0 -38 -27 -38 -57z" />
    <glyph glyph-name="integral" unicode="&#x222b;" 
d="M316 601c-49 0 -68 -18 -68 -84v-557c0 -114 -48 -148 -134 -148c-20 0 -41 2 -62 5v58c17 -3 37 -5 60 -5c49 0 68 18 68 84v557c0 114 47 148 134 148c20 0 41 -2 62 -5v-58c-18 3 -38 5 -60 5z" />
    <glyph glyph-name="approxequal" unicode="&#x2248;" 
d="M140 376c-46 0 -70 -22 -89 -61v81c19 30 49 45 92 45c18 0 46 -10 81 -29c35 -20 59 -30 71 -30c40 0 70 21 89 62v-81c-18 -31 -49 -46 -92 -46c-16 0 -42 10 -77 30c-35 19 -60 29 -75 29zM140 200c-46 0 -70 -22 -89 -61v81c19 30 49 45 92 45c18 0 46 -10 81 -29
c35 -20 59 -30 71 -30c40 0 70 21 89 62v-81c-18 -31 -49 -46 -92 -46c-16 0 -42 10 -77 30c-35 19 -60 29 -75 29z" />
    <glyph glyph-name="notequal" unicode="&#x2260;" horiz-adv-x="375" 
d="M45 73l60 129h-60v67h92l43 93h-135v67h167l60 127h57l-60 -127h61v-67h-92l-44 -93h136v-67h-167l-60 -129h-58z" />
    <glyph glyph-name="lessequal" unicode="&#x2264;" horiz-adv-x="375" 
d="M45 280v72l286 153v-77l-223 -112l223 -112v-77zM330 0h-285v71h285v-71z" />
    <glyph glyph-name="greaterequal" unicode="&#x2265;" horiz-adv-x="375" 
d="M331 352v-72l-286 -153v77l223 112l-223 112v77zM331 0h-285v71h285v-71z" />
    <glyph glyph-name="lozenge" unicode="&#x25ca;" horiz-adv-x="370" 
d="M347 333l-162 -386l-162 386l162 376zM278 333l-93 229l-96 -229l96 -239z" />
    <glyph glyph-name="ff" unicode="&#xfb00;" horiz-adv-x="547" 
d="M481 652c-58 0 -77 -11 -77 -84v-84h128v-59h-128v-425h-68v425h-178v-425h-67v425h-83v59h83v78c0 113 34 148 120 148c29 0 55 -2 76 -5v-58c-18 3 -35 5 -51 5c-59 0 -78 -11 -78 -84v-84h178v78c0 113 35 148 120 148c29 0 55 -2 76 -5v-58c-18 3 -35 5 -51 5z" />
    <glyph glyph-name="fi" unicode="&#xfb01;" horiz-adv-x="462" 
d="M404 602h-68v98h68v-98zM404 0h-68v484h68v-484zM236 652c-59 0 -78 -11 -78 -84v-84h129v-59h-129v-425h-67v425h-83v59h83v78c0 113 34 148 120 148c29 0 55 -2 76 -5v-58c-18 3 -35 5 -51 5z" />
    <glyph glyph-name="fl" unicode="&#xfb02;" horiz-adv-x="462" 
d="M404 0h-68v700h68v-700zM236 652c-59 0 -78 -11 -78 -84v-84h129v-59h-129v-425h-67v425h-83v59h83v78c0 113 34 148 120 148c29 0 55 -2 76 -5v-58c-18 3 -35 5 -51 5z" />
    <glyph glyph-name="ffi" unicode="&#xfb03;" horiz-adv-x="707" 
d="M481 652c-58 0 -77 -11 -77 -84v-84h128v-59h-128v-425h-68v425h-178v-425h-67v425h-83v59h83v78c0 113 34 148 120 148c29 0 55 -2 76 -5v-58c-18 3 -35 5 -51 5c-59 0 -78 -11 -78 -84v-84h178v78c0 113 35 148 120 148c29 0 55 -2 76 -5v-58c-18 3 -35 5 -51 5z
M649 605h-68v95h68v-95zM649 0h-68v484h68v-484z" />
    <glyph glyph-name="ffl" unicode="&#xfb04;" horiz-adv-x="707" 
d="M481 652c-58 0 -77 -11 -77 -84v-84h128v-59h-128v-425h-68v425h-178v-425h-67v425h-83v59h83v78c0 113 34 148 120 148c29 0 55 -2 76 -5v-58c-18 3 -35 5 -51 5c-59 0 -78 -11 -78 -84v-84h178v78c0 113 35 148 120 148c29 0 55 -2 76 -5v-58c-18 3 -35 5 -51 5zM649 0
h-68v700h68v-700z" />
    <glyph glyph-name="Eth.001" horiz-adv-x="487" 
d="M63 301h-48v68h48v280h171c137 0 205 -62 205 -186v-287c0 -117 -68 -176 -204 -176h-172v301zM369 464c0 99 -62 118 -136 118h-97v-213h79v-68h-79v-235h94c93 0 139 37 139 112v286z" />
    <glyph glyph-name="K.alt" horiz-adv-x="457" 
d="M464 0h-94l-233 345l218 304h88l-219 -300zM136 0h-73v649h73v-649z" />
    <glyph glyph-name="Kcommaaccent.alt" horiz-adv-x="457" 
d="M464 0h-94l-233 345l218 304h88l-219 -300zM136 0h-73v649h73v-649zM293 -40l-62 -150h-48l35 150h75z" />
    <glyph glyph-name="Q.alt" horiz-adv-x="509" 
d="M460 474v-308c0 -112 -65 -153 -137 -169c-21 -5 -45 -7 -69 -7c-136 0 -204 59 -204 176v307c0 124 68 186 204 186c137 0 206 -62 206 -185zM254 596c-73 0 -135 -22 -135 -120v-309c0 -75 45 -112 136 -112c89 0 134 37 134 112v309c0 80 -45 120 -135 120zM234 -124
v69h275v-69h-275z" />
    <glyph glyph-name="a.smcp" horiz-adv-x="437" 
d="M137 181h151l-72 232h-7zM308 117h-191l-36 -117h-70l164 484h84l159 -484h-74z" />
    <glyph glyph-name="aacute.smcp" horiz-adv-x="437" 
d="M137 181h151l-72 232h-7zM308 117h-191l-36 -117h-70l164 484h84l159 -484h-74zM338 680l-93 -127h-56l68 127h81z" />
    <glyph glyph-name="abreve.smcp" horiz-adv-x="437" 
d="M137 181h151l-72 232h-7zM308 117h-191l-36 -117h-70l164 484h84l159 -484h-74zM307 680c-2 -74 -33 -127 -89 -127s-86 53 -88 127h40c3 -45 19 -68 48 -68s45 23 48 68h41z" />
    <glyph glyph-name="acircumflex.smcp" horiz-adv-x="437" 
d="M137 181h151l-72 232h-7zM308 117h-191l-36 -117h-70l164 484h84l159 -484h-74zM128 553l51 127h81l49 -127h-43l-47 87l-47 -87h-44z" />
    <glyph glyph-name="acute.cap" horiz-adv-x="179" 
d="M164 870l-93 -127h-56l68 127h81z" />
    <glyph glyph-name="adieresis.smcp" horiz-adv-x="437" 
d="M137 181h151l-72 232h-7zM308 117h-191l-36 -117h-70l164 484h84l159 -484h-74zM188 565h-67v94h67v-94zM316 565h-68v94h68v-94z" />
    <glyph glyph-name="ae.smcp" horiz-adv-x="640" 
d="M313 181v237h-28l-115 -237h143zM602 0h-289v117h-175l-57 -117h-75l244 484h345v-66h-215v-132h190v-66h-190v-154h222v-66z" />
    <glyph glyph-name="afii10846" horiz-adv-x="0" 
 />
    <glyph glyph-name="agrave.smcp" horiz-adv-x="437" 
d="M137 181h151l-72 232h-7zM308 117h-191l-36 -117h-70l164 484h84l159 -484h-74zM236 553h-55l-94 127h82z" />
    <glyph glyph-name="amacron.smcp" horiz-adv-x="437" 
d="M137 181h151l-72 232h-7zM308 117h-191l-36 -117h-70l164 484h84l159 -484h-74zM300 590h-163v59h163v-59z" />
    <glyph glyph-name="ampersand.alt" horiz-adv-x="477" 
d="M176 310l-26 -15c-18 -11 -34 -40 -34 -72v-122c0 -33 32 -49 98 -49h8c49 0 82 9 99 28zM409 209c0 -45 -5 -83 -16 -112c20 -25 35 -38 45 -38h20v-59h-48c-18 0 -36 11 -55 34c-32 -29 -80 -44 -146 -44c-109 0 -164 38 -164 115v109c0 51 23 90 69 117l35 22l-29 46
c-16 24 -23 47 -23 69v92c0 30 10 54 31 72s52 27 93 27c34 0 68 -5 102 -15v-73c-37 17 -72 25 -103 25c-40 0 -59 -15 -59 -44v-69c0 -10 2 -19 7 -27l182 -293c1 12 2 26 2 42v147h57v-143z" />
    <glyph glyph-name="ampersand.smcp" horiz-adv-x="444" 
d="M212 433c-28 0 -45 -7 -45 -40v-17c0 -19 6 -37 18 -52l149 -196c1 8 1 17 1 26v123h58v-121c0 -30 -6 -55 -17 -76c9 -13 22 -19 40 -19h13v-61h-47c-16 0 -33 7 -50 21c-28 -21 -71 -31 -128 -31c-67 0 -160 21 -160 100v90c0 23 6 42 20 57c14 14 34 26 60 36l13 5
c-17 22 -33 44 -33 87v43c0 71 42 86 104 86h14c41 0 78 -3 93 -30c13 -22 14 -32 14 -70v-9h-63v8c0 35 -14 40 -45 40h-9zM111 104c0 -45 57 -53 98 -53h7c41 0 68 4 83 12l-134 175l-9 -4c-30 -13 -45 -29 -45 -50v-80z" />
    <glyph glyph-name="aogonek.smcp" horiz-adv-x="437" 
d="M398 -186c-48 0 -75 19 -75 80c0 23 7 58 21 106l-36 117h-191l-36 -117h-70l164 484h84l159 -484c-24 -27 -35 -59 -35 -97c0 -22 9 -33 29 -33c4 0 12 2 23 7v-53c-10 -7 -23 -10 -37 -10zM137 181h151l-72 232h-7z" />
    <glyph glyph-name="aring.smcp" horiz-adv-x="437" 
d="M162 447c-32 10 -45 38 -45 93v12c0 45 6 76 28 90c23 14 37 14 72 14c34 0 66 -1 82 -24c12 -17 18 -46 18 -80v-12c0 -53 -15 -84 -46 -93l147 -447h-74l-36 117h-191l-36 -117h-70zM137 181h151l-72 232h-7zM230 484c28 1 40 10 40 49v27c0 51 -14 54 -53 54
s-53 -3 -53 -54v-27c0 -47 15 -49 53 -49h13z" />
    <glyph glyph-name="asterisk.smcp" horiz-adv-x="299" 
d="M279 331l-100 -29l68 -106l-46 -41l-52 119l-52 -119l-45 41l70 106l-102 29l17 69l97 -54l-10 138h55l-10 -138l94 54z" />
    <glyph glyph-name="at.alt" horiz-adv-x="553" 
d="M450 15c-34 -15 -128 -25 -178 -25c-93 0 -176 23 -212 100c-10 22 -15 47 -15 76v307c0 121 77 163 155 179c23 5 47 7 72 7c60 0 101 -9 149 -31s87 -72 87 -154v-249c0 -66 -26 -89 -74 -89h-24c-28 0 -57 11 -63 37c-5 -15 -12 -24 -23 -29c-10 -5 -31 -8 -62 -8
c-41 0 -69 9 -86 28c-18 18 -26 56 -26 114v110c0 109 39 131 127 131c89 0 119 -21 119 -131v-179c0 -21 11 -24 29 -24c19 0 28 2 28 24v277c0 83 -69 105 -124 115c-18 3 -37 5 -57 5c-43 0 -75 -7 -109 -21c-32 -14 -59 -46 -59 -99v-327c0 -76 63 -99 114 -107
c18 -3 36 -5 55 -5c43 0 146 15 177 26v-58zM275 187c54 0 66 8 66 77v120c0 38 -3 61 -11 70c-7 9 -25 13 -55 13s-48 -4 -55 -13c-8 -9 -11 -33 -11 -70v-120c0 -34 3 -55 11 -64s26 -13 55 -13z" />
    <glyph glyph-name="at.smcp" horiz-adv-x="540" 
d="M381 180c0 -21 11 -24 29 -24c19 0 28 10 28 29v135c0 82 -63 105 -117 115c-18 3 -37 5 -56 5c-108 0 -161 -40 -161 -120v-156c0 -75 58 -103 108 -113c17 -4 35 -6 54 -6c56 0 116 7 180 22v-56c-46 -14 -107 -21 -182 -21c-91 0 -170 23 -204 100
c-10 22 -15 47 -15 76v146c0 80 34 132 79 154s83 32 140 32c59 0 99 -9 146 -31c46 -22 83 -73 83 -154v-128c0 -55 -32 -83 -74 -83h-24c-36 0 -57 12 -63 35c-11 -32 -33 -37 -70 -37c-41 0 -69 9 -86 28c-18 18 -26 56 -26 114v16c0 51 8 85 24 104c15 18 47 27 95 27
c44 0 76 -3 94 -31c17 -26 18 -50 18 -100v-78zM326 233v14c0 39 -3 62 -9 71c-6 8 -23 12 -50 12c-28 0 -45 -4 -50 -12c-6 -9 -8 -32 -8 -71v-14c0 -35 2 -57 8 -65s22 -12 50 -12s45 4 51 13c5 9 8 30 8 64z" />
    <glyph glyph-name="atilde.smcp" horiz-adv-x="437" 
d="M137 181h151l-72 232h-7zM308 117h-191l-36 -117h-70l164 484h84l159 -484h-74zM266 609c26 0 36 19 48 43v-69c-11 -26 -27 -39 -48 -39c-13 0 -30 6 -50 18s-35 18 -44 18c-20 0 -36 -13 -49 -39v73c12 19 28 29 49 29c12 0 28 -6 49 -17c20 -11 35 -17 45 -17z" />
    <glyph glyph-name="b.smcp" horiz-adv-x="430" 
d="M363 349c0 -60 -26 -75 -65 -87v-4c58 -13 87 -46 87 -101v-29c0 -48 -12 -81 -34 -100c-23 -19 -64 -28 -124 -28h-164v484h159c51 0 98 -2 120 -33c18 -23 21 -41 21 -85v-17zM228 280c53 0 71 8 71 72v6c0 25 -5 42 -14 51s-29 13 -59 13h-95v-142h97zM316 132v18
c0 65 -32 71 -81 71h-104v-156h100c35 0 58 5 69 15c10 9 16 27 16 52z" />
    <glyph glyph-name="backslash.smcp" horiz-adv-x="316" 
d="M251 -10l-243 504h57l243 -504h-57z" />
    <glyph glyph-name="braceleft.smcp" horiz-adv-x="248" 
d="M143 3c0 -38 19 -65 46 -65h45v-48h-52c-25 0 -48 0 -65 12c-11 9 -24 25 -29 44c-7 25 -11 58 -11 96v95c0 37 -3 60 -8 69c-5 8 -20 12 -44 12h-10v52h10c24 0 39 4 44 13c5 8 8 31 8 68v83c0 51 5 99 24 123c12 15 18 21 37 25s22 4 44 4h52v-48h-45
c-27 0 -46 -27 -46 -65v-87c0 -82 -13 -119 -59 -140v-4c47 -20 59 -57 59 -140v-99z" />
    <glyph glyph-name="braceright.smcp" horiz-adv-x="248" 
d="M106 473c0 38 -19 65 -46 65h-45v48h52c25 0 48 0 65 -12c11 -9 24 -25 29 -44c7 -25 12 -58 12 -96v-83c0 -37 2 -60 7 -68c5 -9 20 -13 44 -13h10v-52h-10c-24 0 -39 -4 -44 -12c-5 -9 -7 -32 -7 -69v-95c0 -51 -6 -99 -25 -123c-12 -15 -18 -21 -37 -25s-22 -4 -44 -4
h-52v48h45c27 0 46 27 46 65v99c0 83 12 120 59 140v4c-46 21 -59 58 -59 140v87z" />
    <glyph glyph-name="bracketleft.smcp" horiz-adv-x="248" 
d="M233 -110h-170v696h170v-48h-105v-600h105v-48z" />
    <glyph glyph-name="bracketright.smcp" horiz-adv-x="248" 
d="M185 -110h-170v48h104v600h-104v48h170v-696z" />
    <glyph glyph-name="breve.cap" horiz-adv-x="207" 
d="M104 802c37 0 51 26 60 68h28c-4 -72 -32 -127 -88 -127c-57 0 -86 54 -89 127h27c11 -43 22 -68 62 -68z" />
    <glyph glyph-name="c.smcp" horiz-adv-x="393" 
d="M116 169c0 -92 48 -112 119 -112c35 0 76 8 124 24v-74c-39 -11 -82 -17 -129 -17c-103 0 -182 36 -182 176v142c0 143 76 186 182 186c45 0 87 -6 126 -17v-72c-48 16 -89 24 -124 24c-39 0 -68 -8 -87 -23c-19 -16 -29 -48 -29 -95v-142z" />
    <glyph glyph-name="cacute.smcp" horiz-adv-x="393" 
d="M116 169c0 -92 48 -112 119 -112c35 0 76 8 124 24v-74c-39 -11 -82 -17 -129 -17c-103 0 -182 36 -182 176v142c0 143 76 186 182 186c45 0 87 -6 126 -17v-72c-48 16 -89 24 -124 24c-39 0 -68 -8 -87 -23c-19 -16 -29 -48 -29 -95v-142zM322 680l-94 -127h-55l67 127
h82z" />
    </font>
</defs>
</svg>
