<?xml version="1.0" standalone="no"?>
<!DOCTYPE svg PUBLIC "-//W3C//DTD SVG 20010904//EN"
 "http://www.w3.org/TR/2001/REC-SVG-20010904/DTD/svg10.dtd">
<svg version="1.0" xmlns="http://www.w3.org/2000/svg"
 width="700.000000pt" height="700.000000pt" viewBox="0 0 700.000000 700.000000"
 preserveAspectRatio="xMidYMid meet">
<metadata>
Created by potrace 1.14, written by Peter Selinger 2001-2017
</metadata>
<g transform="translate(0.000000,700.000000) scale(0.100000,-0.100000)"
fill="#000000" stroke="none">
<path d="M1357 4234 c-1 -1 -48 -5 -103 -8 -56 -3 -108 -8 -115 -10 -8 -3 -34
-7 -59 -10 -83 -8 -248 -46 -348 -80 -367 -125 -556 -349 -547 -647 5 -158 57
-270 190 -402 165 -165 442 -289 740 -332 90 -14 758 -14 850 -1 57 8 112 15
171 21 28 3 61 8 75 10 13 3 46 7 74 11 27 3 52 7 55 9 3 2 26 6 50 10 39 6
483 86 550 99 104 20 138 28 237 50 190 44 657 173 963 266 36 11 74 22 85 25
11 2 58 15 105 29 251 74 887 208 1145 240 40 5 124 17 154 21 148 23 366 23
466 1 39 -9 79 -19 91 -21 74 -17 185 -69 224 -105 35 -33 36 -60 3 -104 -38
-50 -171 -133 -268 -166 -92 -32 -148 -40 -450 -67 -156 -15 -475 -9 -700 12
-181 17 -285 27 -315 30 -147 18 -437 24 -590 12 -151 -11 -207 -28 -216 -64
-9 -35 25 -66 111 -98 338 -129 701 -231 985 -279 19 -3 46 -8 60 -11 14 -3
49 -7 78 -11 29 -3 62 -7 73 -9 54 -11 220 -19 374 -18 208 0 300 9 465 44
296 64 534 198 673 380 67 89 116 233 117 345 0 74 -34 195 -77 272 -53 95
-194 233 -307 299 -77 46 -266 128 -315 138 -9 2 -52 12 -96 24 -84 21 -117
28 -175 36 -19 3 -48 7 -65 10 -132 19 -439 25 -627 12 -101 -7 -293 -30 -388
-47 -30 -5 -73 -12 -95 -16 -188 -28 -648 -152 -1370 -369 -44 -13 -114 -33
-155 -44 -41 -11 -106 -29 -145 -40 -253 -71 -713 -181 -945 -225 -74 -15
-145 -28 -156 -30 -94 -18 -355 -54 -464 -64 -108 -9 -426 -9 -505 0 -33 4
-90 16 -126 27 -158 49 -189 118 -96 213 69 72 196 135 342 172 63 16 84 20
195 35 61 8 459 6 580 -3 30 -2 98 -7 150 -10 52 -4 109 -9 125 -11 17 -2 64
-6 105 -10 63 -4 166 -18 222 -29 324 -64 518 -53 650 37 37 24 48 38 48 58 0
34 -12 43 -90 68 -350 110 -624 193 -680 206 -8 2 -55 13 -105 25 -93 23 -106
25 -165 36 -19 4 -44 8 -55 11 -45 8 -224 32 -290 38 -68 6 -373 14 -378 9z"/>
</g>
</svg>
