<svg version="1.1" id="Слой_1" xmlns="http://www.w3.org/2000/svg" xmlns:xlink="http://www.w3.org/1999/xlink" x="0px" y="0px"
	 viewBox="0 0 100 100" style="enable-background:new 0 0 100 100;" xml:space="preserve">
<g id="_x31_8-plus">
	<g>
		<path style="fill:#FFFFFF;" d="M50,15.75c18.8855209,0,34.25,15.3644791,34.25,34.25S68.8855209,84.25,50,84.25
			S15.75,68.8855209,15.75,50S31.1144791,15.75,50,15.75 M50,11.75c-21.1249008,0-38.25,17.1250992-38.25,38.25
			S28.8750992,88.25,50,88.25S88.25,71.1249008,88.25,50S71.1249008,11.75,50,11.75L50,11.75z"/>
	</g>
	<g style="enable-background:new    ;">
		<path style="fill:#FFFFFF;" d="M29.4594727,57.7421875c1.5234375,0,2.5-0.2070312,2.9296875-0.6220703
			s0.6445312-1.2041016,0.6445312-2.3662109V43.1962891c0-0.7421875-0.0854492-1.2695312-0.2563477-1.5820312
			s-0.4858398-0.46875-0.9448242-0.46875c-0.2441406,0-0.6201172,0.0830078-1.1279297,0.2490234
			c-0.3222656,0.0976562-0.7617188,0.2539062-1.3183594,0.46875v-0.7617188l7.5732422-3.2666016h0.5273438v17.0947266
			c0,1.09375,0.1757812,1.8359375,0.5273438,2.2265625s1.25,0.5859375,2.6953125,0.5859375v0.7177734h-11.25V57.7421875z"/>
		<path style="fill:#FFFFFF;" d="M44.8549805,50.1835938c0.5957031-0.4980469,1.4599609-0.9326172,2.5927734-1.3037109v-0.2783203
			c-0.234375-0.0585938-0.6982422-0.3740234-1.3916016-0.9443359c-0.6933594-0.5722656-1.2060547-1.0917969-1.5380859-1.5605469
			c-0.4003906-0.5566406-0.6665039-1.0712891-0.7983398-1.5449219s-0.1977539-0.9697266-0.1977539-1.4873047
			c0-1.4550781,0.625-2.6904297,1.875-3.7060547s2.8857422-1.5234375,4.9077148-1.5234375
			c1.875,0,3.3125,0.4228516,4.3134766,1.2675781s1.5009766,1.8427734,1.5009766,2.9951172
			c0,1.1816406-0.5117188,2.1679688-1.5371094,2.9589844c-0.5664062,0.4394531-1.3476562,0.8349609-2.34375,1.1865234v0.2050781
			c1.4257812,1.0253906,2.4023438,1.8603516,2.9296875,2.5048828c0.8984375,1.09375,1.3476562,2.3681641,1.3476562,3.8232422
			c0,1.9238281-0.6640625,3.4228516-1.9921875,4.4970703S51.5,58.8847656,49.4399414,58.8847656
			c-1.5332031,0-2.9541016-0.4267578-4.2626953-1.2822266c-1.3085938-0.8535156-1.9628906-2.1162109-1.9628906-3.7861328
			C43.2143555,52.2832031,43.7612305,51.0722656,44.8549805,50.1835938z M47.2133789,56.0136719
			c0.4785156,1.2597656,1.328125,1.8896484,2.5488281,1.8896484c0.6928711,0,1.2963867-0.2587891,1.809082-0.7763672
			s0.7685547-1.3867188,0.7685547-2.6074219c0-1.1816406-0.3847656-2.1972656-1.15625-3.046875
			c-0.4785156-0.5273438-1.4262695-1.25-2.8422852-2.1679688c-0.5664062,0.8691406-0.9375,1.5332031-1.1132812,1.9921875
			c-0.2734375,0.6933594-0.4101562,1.5087891-0.4101562,2.4462891
			C46.8178711,54.5830078,46.949707,55.3398438,47.2133789,56.0136719z M52.1640625,44.3974609
			c0.234375-0.5371094,0.3515625-1.1914062,0.3515625-1.9628906c0-1.0839844-0.1992188-1.9746094-0.5996094-2.6738281
			c-0.4003906-0.6972656-1.09375-1.046875-2.0805664-1.046875c-0.7128906,0-1.2939453,0.234375-1.7431641,0.703125
			s-0.6738281,1.0546875-0.6738281,1.7578125c0,1.1132812,0.5615234,2.1679688,1.6845703,3.1640625
			c0.6542969,0.5859375,1.387207,1.0693359,2.1977539,1.4501953C51.7402344,45.1933594,52.0273438,44.7294922,52.1640625,44.3974609
			z"/>
		<path style="fill:#FFFFFF;" d="M58.1699219,52.1757812v-3.0908203h6.2851562v-6.2402344h3.046875v6.2402344h6.2832031v3.0908203
			h-6.2832031v6.2841797h-3.046875v-6.2841797H58.1699219z"/>
	</g>
</g>
<path d="M81.8536606,80.7630692"/>
</svg>
