<?xml version="1.0" encoding="utf-8"?>
<!-- Generator: Adobe Illustrator 24.0.3, SVG Export Plug-In . SVG Version: 6.00 Build 0)  -->
<svg version="1.1" id="Слой_1" xmlns="http://www.w3.org/2000/svg" xmlns:xlink="http://www.w3.org/1999/xlink" x="0px" y="0px"
	 viewBox="0 0 500 500" style="enable-background:new 0 0 500 500;" xml:space="preserve">
<rect style="display:none;" width="500" height="500"/>
<line style="fill:none;stroke:#FFFFFF;stroke-width:5;stroke-miterlimit:10;" x1="236" y1="304" x2="441" y2="304"/>
<g style="enable-background:new    ;">
	<path style="fill:#FFFFFF;" d="M267.1000061,320.2999878l9.2000122,30.3999939l10.1000061-32.2999878
		c0.5-1.7000122,1.3999939-2.5,2.7000122-2.5h0.2999878c0.3999939,0,0.8999939,0.1000061,1.6000061,0.2000122
		c0.7999878,0.2000122,1.2999878,0.2999878,1.6000061,0.2999878c0.6000061,0.1000061,1.5,0.1000061,2.6000061,0.1000061
		c1.2000122,0,2.1000061-0.1000061,2.7999878-0.2000122l2.1000061-0.3999939c0.1000061,0,0.3999939-0.1000061,0.7000122-0.1000061
		c1.7999878,0,2.7999878,0.7000122,2.7999878,2.1000061c0,1.2999878-0.6000061,1.8999939-1.8999939,1.8999939
		c-0.2999878,0-0.7999878,0-1.3999939-0.1000061s-1.1000061-0.2000122-1.3999939-0.2000122c-2,0-3.1000061,1.5-3.1000061,4.5
		v4.2000122v5.2999878v5.1000061v9.5c0,3,1,4.5,3,4.5c0.3999939,0,0.7999878-0.1000061,1.2999878-0.2000122
		c0.8999939-0.1000061,1.3999939-0.1000061,1.6000061-0.1000061c1.2999878,0,1.8999939,0.6000061,1.8999939,1.8999939
		c0,1.3999939-0.8999939,2.2000122-2.6000061,2.2000122c0.1000061,0-0.2000122,0-0.8999939-0.1000061
		c-2.7999878-0.2999878-5.1000061-0.5-7-0.5s-3.7000122,0.1000061-5.3999939,0.3999939
		c-0.7000122,0.1000061-1.3999939,0.2000122-1.8999939,0.2000122c-1.6000061,0-2.2999878-0.7000122-2.2999878-2
		c0-1.3999939,0.7999878-2.1000061,2.3999939-2.1000061c0.3999939,0,0.7000122,0,0.8999939,0.1000061
		c0.8999939,0.1000061,1.3999939,0.2000122,1.6000061,0.2000122c1.5,0,2.3999939-1.5,2.7000122-4.5
		c0.1000061-0.6000061,0.1000061-2.7000122,0.1000061-6.1000061c0-1.2999878,0-3.2000122,0.1000061-5.7000122v-5.3999939
		v-10.6000061c0-0.2000122-0.1000061-0.3999939-0.2999878-0.3999939c-0.1000061,0-0.2000122,0.1000061-0.3999939,0.3999939
		l-11,34.2000122c-0.5,1.5-1.6000061,2.2999878-3.3999939,2.2999878c-1,0-1.7999878-0.1000061-2.2999878-0.3999939
		s-0.8999939-0.8999939-1.2000122-1.7999878l-10.8999939-34.2000122c-0.1000061-0.2000122-0.2999878-0.3999939-0.3999939-0.3999939
		c-0.2000122,0-0.2000122,0.1000061-0.2000122,0.3999939l0.3999939,27.7000122c0,2.8999939,0.7999878,4.3999939,2.3999939,4.3999939
		c0.3999939,0,1,0,1.7999878,0h0.7000122c1.6000061,0,2.2999878,0.7000122,2.2999878,2c0,1.3999939-0.7999878,2-2.3999939,2
		c-0.2999878,0-0.7000122,0-1.2999878-0.1000061c-0.8999939-0.1000061-1.7999878-0.2999878-2.7999878-0.3999939
		c-0.7999878-0.1000061-1.7999878-0.2000122-3.1000061-0.2000122c-2.2000122,0-3.6000061,0.1000061-4.3000031,0.2000122l-2.5,0.5
		c-0.1000061,0-0.1999969,0-0.3999939,0.1000061c-0.1999969,0-0.3000031,0-0.3999939,0
		c-1.8000031,0-2.8000031-0.7000122-2.8000031-2.1000061c0-0.6000061,0.1999969-1,0.5-1.3999939
		c0.3999939-0.3999939,0.8000031-0.6000061,1.3000031-0.6000061c0.3999939,0,1,0.1000061,1.6000061,0.2000122
		s1,0.2000122,1.3000031,0.2000122c2,0,3.1000061-1.5,3.1000061-4.5v-24.1000061c0-3-1-4.5-3.1000061-4.5
		c-0.3000031,0-0.8000031,0.1000061-1.3999939,0.2000122c-0.6000061,0.1000061-1.1000061,0.1000061-1.3999939,0.1000061
		c-1.1999969,0-1.8999939-0.6000061-1.8999939-1.8999939c0-1.3999939,0.8999939-2.1000061,2.6999969-2.1000061
		c0.1999969,0,0.3999939,0,0.8000031,0.1000061l2.1000061,0.2000122c1,0.1000061,2,0.2000122,2.8999939,0.2000122
		c0.7999878,0,1.7999878-0.1000061,3.1000061-0.2000122c1.2999878-0.2000122,2.2000122-0.2000122,2.7999878-0.2000122
		c1.6000061,0,2.6000061,1,3.1000061,2.8999939L267.1000061,320.2999878z"/>
	<path style="fill:#FFFFFF;" d="M313.7000122,324.1000061c0-3-1-4.3999939-3.1000061-4.3999939
		c-0.6000061,0-1,0-1.2999878,0.1000061c-0.6000061,0.1000061-1.2000122,0.2000122-1.6000061,0.2000122
		c-0.5,0-1-0.2000122-1.2999878-0.6000061c-0.3999939-0.3999939-0.5-0.7999878-0.5-1.3999939
		c0-1.3999939,0.7999878-2.1000061,2.5-2.1000061c0,0,0.2999878,0,0.8999939,0.1000061
		c6,0.3999939,8.7999878,0.6000061,8.3999939,0.6000061h0.6000061l14.3999939-0.3999939
		c0.2999878,0,1.2999878-0.1000061,3.1000061-0.2000122c0.6000061,0,1.2000122-0.1000061,1.7000122-0.1000061
		c2.1000061,0,3.1000061,0.8999939,3.1000061,2.7999878c0,0.2999878-0.1000061,1.2999878-0.2000122,3.1000061
		c-0.1000061,1.2999878-0.1000061,2.5-0.1000061,3.5c0,1.3999939,0,2.3999939,0.1000061,2.8999939
		c0.1000061,1.2000122,0.2000122,2,0.2000122,2.6000061c0,1.5-0.7000122,2.2999878-2.1000061,2.2999878
		S336.4000244,332,336.4000244,329.8999939v-3.1000061c0-3.3999939-0.7000122-5.2999878-2.1000061-5.8999939
		c-1-0.3999939-3.7000122-0.7000122-8-0.7000122c-2.7999878,0-4.5,0.1000061-5,0.2000122
		C319.6000061,320.7999878,318.7000122,322,318.7000122,324v2.7000122c0,0.2999878,0,0.7999878,0,1.2999878
		c0,0.6000061,0,1,0,1.2000122V330c0,1.6000061,0.3999939,2.5,1.1000061,2.7999878
		c0.2999878,0.1000061,0.7000122,0.1000061,1.3999939,0.1000061h2.3999939c2.5,0,3.7000122-0.8999939,3.7000122-2.6000061
		c0-0.5-0.1000061-1.1000061-0.1000061-1.8999939C327.1000061,327.6000061,327,327,327,326.3999939
		C327,324.7999878,327.7000122,324,329.1000061,324s2.1000061,0.8999939,2.1000061,2.6000061
		c0,0.2999878-0.1000061,1.6000061-0.3999939,3.7000122c-0.2000122,1.7999878-0.2999878,3.5-0.2999878,4.8999939
		c0,0.7999878,0.1000061,2.2000122,0.2000122,4.2999878c0,0.2999878,0.1000061,1,0.2999878,2.1000061
		c0.1000061,0.8999939,0.2000122,1.6000061,0.2000122,2.1000061c0,1.3999939-0.7000122,2.2000122-2.2000122,2.2000122
		c-1.3999939,0-2.1000061-0.7999878-2.1000061-2.5c0-0.3999939,0-1.1000061,0.2000122-1.8999939
		c0.1000061-0.7999878,0.1000061-1.5,0.1000061-1.8999939c0-1.7000122-1.1000061-2.6000061-3.3999939-2.6000061h-2.7000122
		c-1.2000122,0-1.8999939,0.2000122-2.1000061,0.6000061c-0.2999878,0.3999939-0.3999939,1.2999878-0.3999939,2.6000061v3.7000122
		c0,0.6000061,0,1.5,0.1000061,2.6000061c0,1.2999878,0.1000061,2.2000122,0.1000061,2.6000061c0,1.6000061,0.3999939,2.6000061,1,3
		c0.3999939,0.2999878,1.5,0.3999939,3.1000061,0.3999939h8.2000122c2.3999939,0,4-0.2999878,4.8999939-1
		s1.2999878-2,1.2999878-3.8999939c0-0.6000061,0-1.5-0.1000061-2.7000122s-0.1000061-2.1000061-0.1000061-2.7000122
		c0-1.7999878,0.7000122-2.7000122,2.1000061-2.7000122c1.5,0,2.2000122,0.8999939,2.2000122,2.7999878
		c0,0.7000122,0,1.7999878-0.1000061,3.2999878s-0.1000061,2.6000061-0.1000061,3.2999878c0,0.6000061,0,1.3999939,0.1000061,2.5
		s0.1000061,1.8999939,0.1000061,2.5c0,1.8999939-0.8999939,2.7999878-2.7999878,2.7999878
		c-0.3999939,0-1.1000061,0-2.1000061-0.1000061c-0.5,0-1.3999939-0.1000061-2.6000061-0.1000061
		c0.2999878,0-1.2999878,0-4.7000122-0.1000061s-6.2999878-0.1000061-8.7999878-0.1000061
		c-3.7999878,0-7.3999939,0.1000061-11,0.3999939c-0.2000122,0-0.2999878,0-0.5,0.1000061c-0.2000122,0-0.2999878,0-0.3999939,0
		c-1.7000122,0-2.5-0.7000122-2.5-2.2000122c0-1.2999878,0.6000061-1.8999939,1.8999939-1.8999939
		c0.2000122,0,0.7000122,0,1.6000061,0.1000061c0.3999939,0.1000061,0.8999939,0.2000122,1.2999878,0.2000122
		c2,0,3.1000061-1.5,3.1000061-4.5v-24.3999634H313.7000122z"/>
	<path style="fill:#FFFFFF;" d="M362.8999939,318.5L379,352v-24.2000122c0-3.1000061,0-4.7999878-0.1000061-5.2000122
		c-0.3999939-2.1000061-1.3999939-3.1000061-3-3.1000061c-0.2999878,0-0.7999878,0.1000061-1.3999939,0.2000122
		s-1.1000061,0.2000122-1.3999939,0.2000122c-0.5,0-1-0.2000122-1.2999878-0.6000061
		C371.4000244,318.8999939,371.2000122,318.5,371.2000122,318c0-1.3999939,0.8999939-2.2000122,2.7000122-2.2000122
		c0.3999939,0,0.6000061,0,0.7999878,0.1000061l2.7000122,0.3999939C378.6000366,316.5,379.7000122,316.5,380.8000183,316.5
		c1,0,2.3999939-0.1000061,4.1000061-0.2999878c0.6000061-0.1000061,1.2999878-0.2000122,2.1000061-0.2999878
		c0.1000061,0,0.2000122,0,0.3999939-0.1000061c0.2000122,0,0.2999878,0,0.3999939,0
		c1.7000122,0,2.6000061,0.7000122,2.6000061,2.1000061c0,1.2999878-0.7999878,2-2.3999939,2c-0.2999878,0-0.5,0-0.7000122,0
		h-0.6000061c-1.2000122,0-2,0.2999878-2.3999939,0.7999878s-0.6000061,1.7000122-0.7000122,3.3999939V327.5v6.1000061v16
		c0,2.7999878-0.2999878,4.7000122-0.8999939,5.7999878C382.1000061,356.5,381,357.1000061,379.5,357.1000061
		c-2,0-3.6000061-1.3999939-5-4.2000122l-15.7999878-32.7000122v27.8999939c0,3,1,4.5,3.1000061,4.5
		c0.2999878,0,0.7999878,0,1.3999939-0.1000061s1.1000061-0.1000061,1.3999939-0.1000061
		c1.2999878,0,1.8999939,0.6000061,1.8999939,1.8999939c0,1.3999939-0.8999939,2-2.7000122,2c-0.1000061,0-0.2000122,0-0.3999939,0
		c-0.2000122,0-0.2999878-0.1000061-0.3999939-0.1000061l-2.5-0.3999939
		c-1.3999939-0.2000122-2.6000061-0.2999878-3.7999878-0.2999878c-1,0-2.3999939,0.1000061-4,0.2999878l-2.8999939,0.3999939
		c-0.1000061,0-0.2000122,0-0.3999939,0.1000061c-0.2000122,0-0.3999939,0-0.5,0
		c-1.7000122,0-2.6000061-0.7000122-2.6000061-2.1000061c0-1.2000122,0.6000061-1.8999939,1.8999939-1.8999939
		c0.2000122,0,0.7000122,0,1.6000061,0.1000061c0.3999939,0.1000061,0.8999939,0.2000122,1.2999878,0.2000122
		c2,0,3.1000061-1.5,3.1000061-4.5V344v-5.2999878V333.5V324c0-3-1-4.5-3.1000061-4.5c-0.2999878,0-0.7000122,0-1.2000122,0.1000061
		c-0.7999878,0.1000061-1.2999878,0.2000122-1.7000122,0.2000122c-1.2999878,0-1.8999939-0.7000122-1.8999939-2
		c0-1.3999939,0.8999939-2.1000061,2.6000061-2.1000061c0.2000122,0,0.6000061,0,1,0.1000061
		c2,0.2000122,3.5,0.2999878,4.6000061,0.2999878c0.6000061,0,1.5-0.1000061,2.7000122-0.2000122
		s2.1000061-0.2000122,2.7000122-0.2000122c1.2000122,0,2.1000061,0.3999939,2.5,1.2999878L362.8999939,318.5z"/>
	<path style="fill:#FFFFFF;" d="M403.3999939,325.2999878v3.7999878L403,334v9.2000122
		C403,346,403.2999878,348,403.8999939,349.3000183c0.6000061,1.2999878,1.7999878,2.2999878,3.5,3
		c1.6000061,0.7000122,3.2000122,1,4.8999939,1c2.2000122,0,4.1000061-0.3999939,5.6000061-1.2999878
		c1.6000061-0.7999878,2.6000061-2,3-3.3999939s0.7000122-3.2000122,0.7999878-5.3999939v-15.3999939
		c0-3,0-4.7999878-0.1000061-5.2000122c-0.3999939-2-1.3999939-3.1000061-3-3.1000061c-0.2999878,0-0.7000122,0-1.2000122,0.1000061
		c-0.7000122,0.1000061-1.2999878,0.1000061-1.6000061,0.1000061c-0.5,0-1-0.2000122-1.2999878-0.6000061
		c-0.3999939-0.3999939-0.6000061-0.7999878-0.6000061-1.3999939c0-1.3999939,0.8999939-2.1000061,2.6000061-2.1000061
		c0.2999878,0,0.6000061,0,0.7999878,0.1000061l3.5,0.5c0.8999939,0.1000061,1.8999939,0.2000122,3,0.2000122
		s2-0.1000061,2.7000122-0.2000122l2.6000061-0.3999939c0.7000122-0.1000061,1.2000122-0.2000122,1.3999939-0.2000122
		c1.7000122,0,2.5,0.7000122,2.5,2c0,1.3999939-0.7999878,2-2.5,2h-0.7000122c-0.1000061,0-0.2999878,0-0.6000061,0
		c-1.2000122,0-1.8999939,0.6000061-2.2000122,1.7999878c-0.2999878,1.2000122-0.3999939,4.2999878-0.3999939,9.2000122v10.5
		c0,2.6000061-0.1000061,4.5-0.2000122,5.6000061c-0.2999878,2-1,3.7000122-2,5.2000122
		c-2.3999939,3.5-6.5,5.2000122-12.2000122,5.2000122c-7,0-11.6000061-2.2999878-13.6000061-6.8999939
		c-0.6000061-1.3999939-1-3.6000061-1-6.5c0-1.3999939,0.1000061-3.6000061,0.2000122-6.3999939
		s0.2000122-4.8999939,0.2000122-6.3999939v-3.2000122c0-2.8999939,0-4.5-0.1000061-4.8999939
		c-0.2999878-2.2000122-1.1000061-3.2999878-2.2999878-3.2999878c-0.1000061,0-0.2000122,0-0.3999939,0
		c-0.2000122,0-0.3999939,0-0.5,0s-0.3999939,0-0.7999878,0c-1.7000122,0-2.5-0.7000122-2.5-2c0-1.3999939,0.7999878-2,2.2999878-2
		c0.6000061,0,1.2999878,0.1000061,2,0.2000122c2,0.2999878,3.7999878,0.5,5.5,0.5s3.7000122-0.2000122,5.8999939-0.5
		c0.5-0.1000061,1-0.1000061,1.6000061-0.1000061c1.6000061,0,2.5,0.7000122,2.5,2c0,1.3999939-0.7000122,2-2.1000061,2
		c-0.2999878,0-0.7999878,0-1.3999939-0.2000122c-0.6000061-0.1000061-1.1000061-0.2000122-1.3999939-0.2000122
		c-1.2999878,0-2.1000061,0.7000122-2.6000061,2C403.5,322.2999878,403.3999939,323.5,403.3999939,325.2999878z"/>
</g>
<path style="fill:#FFFFFF;" d="M346.9885559,210.3634644c1.3525696-0.5644531,4.0306091,0.5807037,4.9805603,1.5974274
	c1.7747498,1.8992462,1.5876465,2.3965149,1.4877625,4.8770294c-0.1330566,3.3143616-3.3521118,6.3604431-6.6665344,6.3296356
	c-4.8799744-0.0453644-6.6401062-1.8927765-6.3449707-6.7816162c0.1063538-1.7601929,1.2988586-2.7971649,2.4667358-3.9470367
	c0.6416016-0.6317749,1.3100891-1.2442627,2.1895752-1.5092926c0.2684021-0.0808868,0.5452576-0.1344147,0.8167725-0.2041168
	C346.286438,210.6312408,346.6378479,210.5098419,346.9885559,210.3634644L346.9885559,210.3634644z M257.9146729,209.5088654
	c0.1986084-0.1186523,0.4104919-0.2129059,0.6314697-0.2818451c1.8351135-0.5714111,3.8875427,0.6532288,5.1085815,1.9452515
	c1.0092163,1.0678558,1.8296204,2.5437317,1.7792664,4.0512695c-0.1142273,3.4146576-2.9074707,5.8012695-5.9176025,6.867569
	c-0.7168884,0.2539978-1.47229,0.3271484-2.2251892,0.2234039c-2.8540039-0.3933258-5.0853729-3.1508331-5.0952148-5.9953918
	c-0.0056305-1.6229706,0.4256744-3.0415192,1.5928497-4.202652
	C254.9450378,210.9663239,256.5315552,210.3355408,257.9146729,209.5088654L257.9146729,209.5088654z M96.3937225,232.7375488
	c0.0813065-0.0249634,0.1510773-0.0480347,0.1963806-0.0635223c0.5249939-0.1803436,1.0459061-0.4142761,1.5462875-0.65448
	c0.5136032-0.2466736,1.0210114-0.5110016,1.5184326-0.7888336c0.3079376-0.1717529,0.645134-0.3583679,0.9347839-0.5597382
	c3.1378784-2.1827698,5.2001572-5.8825684,5.6731033-9.6524353c0.2610931-2.0814819-0.1394043-5.7024994,2.0883102-6.8213501
	l0.2205811-0.1108551l0.2385788,0.0632324c0.2807846,0.0744171,0.5424423,0.1972961,0.7779312,0.3673706
	c1.3524399,0.9766388,1.4784851,3.2189026,1.4194031,4.7344666c-0.0493774,1.2685242-0.2502594,2.72612-0.5964584,3.9515991
	c-0.2055283,0.7279205-0.4004974,1.458786-0.6074295,2.186142c-0.1564331,0.5495453-0.3218689,1.0960693-0.5275345,1.6295013
	c-0.5134583,1.3327484-1.2954636,2.5630951-2.0722656,3.7548828c-1.3383789,2.0531311-3.7620544,3.8786011-5.8832779,5.0631409
	c-1.5256119,0.8519287-3.0363083,1.4004059-4.740715,1.7607422c-0.5800018,0.1227417-1.1640854,0.2193909-1.7446442,0.3371277
	c-0.3467636,0.0702057-0.7030869,0.1503143-1.0412674,0.2671509c-1.5330734,4.2387238-7.4463043,10.8876038-11.0406723,13.2945404
	c-4.5714874,3.0613556-11.7599411,7.2934113-17.3733978,7.1961823c-0.8244934-0.0142822-1.6813393,0.115509-2.4978142,0.2251587
	c-0.9861259,0.1325989-1.9657784,0.2533569-2.9631577,0.2442932c-0.9119911-0.0081787-1.8727951-0.0939026-2.7819748-0.1741638
	c-0.5490494-0.0484009-1.0985222-0.102417-1.6457443-0.1681213c-0.3999367-0.0479431-0.8229446-0.0986633-1.2161293-0.1856689
	c-1.6389961-0.362793-3.1354866-0.836731-4.6200218-1.6285095c-1.290966-0.6885376-2.5189095-1.553833-3.746151-2.3514557
	c-0.9633369-0.6260681-1.8082275-1.4134979-2.5149727-2.3183136c-3.4078331-4.3625793-3.4603043-11.2118683,0.6331749-15.168045
	c1.814415-1.7533569,4.1926498-2.8162994,6.7285843-2.8416138c2.1835442-0.0218048,4.4019737,0.7540741,5.8873558,2.3992004
	c1.6114197,1.7848663,1.9458046,4.1109161,1.3815575,6.395752c-0.3726425,1.5093536-1.1002121,2.7409515-2.4927444,3.499115
	c-1.6510925,0.8987732-3.6302376,0.850235-5.3540573,1.5509338c-0.625721,0.2542725-1.5498085,0.7464905-1.6405449,1.5076141
	c-0.113102,0.9502563,1.0238266,1.9541016,1.7034264,2.4414673c1.4852371,1.0653992,3.4268227,1.7510376,5.207756,2.1029358
	c2.2796249,0.4502258,4.6730537,0.4408112,6.9408646-0.0767365c2.6172409-0.5973053,4.9593277-1.843399,6.9239807-3.6736298
	c3.1280289-2.9140015,5.7466812-6.3742981,7.3842697-10.3420105c0.2115707-0.512558,0.4328537-1.0201721,0.647522-1.5310974
	c0.0212402-0.0502319,0.0538788-0.124649,0.0877762-0.2055359c-0.0699081-0.0099182-0.1398239-0.0205383-0.2094574-0.0326385
	c-0.4785767-0.0825653-0.9342194-0.2215576-1.3808594-0.4123077c-0.5209198-0.2225494-1.0550537-0.401062-1.5908813-0.583374
	c-0.9834595-0.3343811-1.8647766-0.6753845-2.7567978-1.2221069c-1.2709885-0.7792053-2.2510681-1.8244781-3.4096603-2.7332306
	c-1.7359161-1.3617249-4.4028168-6.1352234-4.4893303-8.3440247c-0.0257454-0.658844-0.120842-1.2974396-0.2197342-1.9476929
	c-0.1973648-1.296814-0.2968216-2.3827515-0.1429253-3.7007141c0.5379372-4.6107483,2.8133392-9.182373,6.0858459-12.4686584
	c2.0726929-2.0814209,4.2044678-4.0692902,6.5880508-5.7942963c2.3855515-1.7265625,4.9504623-3.1397858,7.5686951-4.4774475
	c1.2721176-0.6499176,2.6062698-1.2230225,3.9297333-1.7597656c1.6062164-0.651535,3.2359238-1.2548218,4.8763275-1.8150482
	c1.6909027-0.5773926,3.4037476-1.1138611,5.1303864-1.5736542c4.0518341-1.0785522,12.5705032-2.5431824,16.8350372-2.8158112
	c1.0457687-0.0668793,2.0951996-0.1095734,3.1430817-0.1201324c1.1792755-0.0119476,2.4028549,0.0083008,3.5738297,0.1516571
	c0.7624512,0.0932617,1.948761,0.2837372,2.4918976,0.8766785c0.4407349,0.480545,0.7808838,1.1184998,0.542305,1.7790985
	c-0.4410172,1.2206268-2.5999451,1.5025482-3.7294159,1.515625c-1.4198227,0.0166016-2.6877213,0.969101-3.7824478,1.7788239
	c-1.0584335,0.7827148-2.0923843,2.0262756-2.9054794,3.0590973c-0.8395462,1.0666046-1.6254959,2.1754608-2.3939972,3.2938843
	c-3.3771667,4.9150238-5.7527237,10.3556671-8.2063675,15.762619c-0.4508591,0.9937897-0.8688049,2.0207062-1.2918091,3.0272369
	c-0.7414932,1.7637787-1.4770813,3.530365-2.2085876,5.2983551c-0.7663879,1.8522491-1.5295486,3.7063446-2.2789154,5.5654144
	c-0.2620773,0.6501312-0.5233078,1.3011017-0.7762451,1.9548035
	C96.4146805,232.6833954,96.4042664,232.7104645,96.3937225,232.7375488L96.3937225,232.7375488z M106.9674911,194.3244324
	c-0.3903732,0.0696259-0.7350235,0.1425629-0.8959503,0.1782379c-1.6304169,0.3610992-3.2629395,0.8421326-4.8556519,1.3421631
	c-5.1848297,1.6278839-8.1531906,2.7508087-12.7477493,5.9163361c-2.0784607,1.4322052-4.0014801,3.033432-5.8106918,4.7927704
	c-1.6945572,1.6477203-3.2975388,3.3483887-4.7243958,5.2357483c-1.3953476,1.8453674-2.5902328,3.8180389-3.7319489,5.8272095
	c-1.0079269,1.7739716-1.7087708,3.9319153-2.026413,5.9427185c-0.3684235,2.3350525-0.3121567,5.1257477,1.0203094,7.1703644
	c0.2599716,0.3987427,0.5656509,0.763443,0.9159317,1.0858765c0.2775497,0.2553864,0.6712952,0.5042419,0.9925995,0.7010498
	c0.5130386,0.3142548,1.0519562,0.6008148,1.600029,0.8492432c0.579155,0.2626343,1.2410278,0.5187378,1.869278,0.6265564
	c0.2350616,0.0402374,0.7599182,0.1010132,0.9619293-0.0704041c0.0582352-0.0493011,0.0866547-0.1240082,0.1036758-0.1964417
	c0.9605255-4.0833588,6.7962494-15.4334412,9.8117371-19.984314c5.1361542-7.7514343,8.5586166-13.0977478,16.2489929-18.5250397
	C106.1214752,194.9185028,106.5447693,194.6220245,106.9674911,194.3244324L106.9674911,194.3244324z M405.6509399,259.7626648
	c-1.0917664,0.9561768-2.2454224,1.8541565-3.4473572,2.6619873c-2.8053284,1.8855896-6.8443604,3.908783-10.3041077,2.8990173
	c-1.996582-0.5826721-3.3587341-2.0456848-4.2680359-3.8660278c-0.3429871-0.6868896-0.5967407-1.411499-0.7635803-2.1608887
	c-0.7711792-3.4646606,0.3514099-7.2190399,1.7585449-10.3754883c1.1795654-2.6460114,2.6674805-5.1165314,4.1846619-7.5778351
	c0.2205505-0.3577271,1.0986633-1.7410583,1.6551514-2.79245c-0.12323,0.0990295-0.2450562,0.1991882-0.3660278,0.2992859
	c-1.0522461,0.8712616-2.0747986,1.7932434-3.0858154,2.7119904c-2.8780518,2.6147003-5.7052002,5.2917328-8.5455322,7.9475861
	c-2.5463562,2.3809814-5.098877,4.7649841-7.7050171,7.0806427c-1.0201721,0.9064331-2.052002,1.8072815-3.1101685,2.6691284
	c-0.6999817,0.5701599-1.4718628,1.191925-2.2468567,1.6555176c-2.5985107,1.5552368-5.7158508,4.063446-8.8748474,4.0121765
	c-3.7132263-0.0602722-7.3320618-1.4224243-8.128418-5.4571533c-0.8181763-4.1471558-0.1118469-6.8036499,1.6413879-10.5556335
	c0.2990723-0.6399384,0.570282-1.2955475,0.8479614-1.9451141c0.343811-0.8035278,0.7000122-1.6415863,1.1310425-2.4014435
	c0.1761169-0.3099823,0.3498535-0.6221313,0.521759-0.9352722c-0.5161438,0.4984131-1.0284729,1.0011749-1.5395508,1.5040894
	c-0.7940979,0.781311-1.5844116,1.5662689-2.3758545,2.3500977c-0.5134583,0.5085449-1.0277405,1.0280457-1.5552673,1.5217438
	c-1.277771,1.1956635-2.4851685,2.4817047-3.7049561,3.7366638c-1.3981628,1.4382477-2.8665161,2.9393768-4.4530334,4.1681671
	c-1.5220947,1.1789246-2.9805908,2.4396362-4.5185852,3.5968933c-1.5702209,1.1816101-3.1785278,2.2005005-4.9811401,2.9945984
	c-4.2997131,1.8941345-9.9481812,1.5952454-12.2373962-3.1077576c-0.3875427-0.7961426-0.6258545-1.6427917-0.7276917-2.5217896
	c-0.4132996-3.5743256,1.4160156-7.2350159,2.8745422-10.3873138c0.3905029-0.8444672,0.7967529-1.6834564,1.2204895-2.5115967
	c0.1168823-0.227829,0.2356262-0.457901,0.3570251-0.6881104c-0.1271667,0.1203461-0.2602539,0.2385101-0.3843384,0.3235474
	c-0.7059021,0.4842682-1.3788757,1.0697632-2.0102234,1.6468048c-0.7731323,0.7065277-1.5195618,1.4456329-2.2545776,2.1916351
	c-1.2556763,1.2744293-2.4740295,2.5891724-3.7401123,3.8519287c-2.6719666,2.6650848-5.6812744,4.9337311-8.6039124,7.3081818
	c-0.7495117,0.6088867-1.556427,1.1753235-2.368103,1.6980591c-0.8193054,0.5277405-1.690918,1.0439453-2.5770264,1.4512024
	c-1.0588379,0.4866028-2.2860718,1.0692749-3.4607239,1.1654968c-0.4751892,0.0389404-0.9447632,0.0063171-1.4168701-0.0499573
	c-0.6096802-0.072876-1.2201843-0.1765442-1.8274841-0.2689514c-4.5861206-0.697052-6.4653931-7.3456726-6.0305786-11.2757416
	c0.4968872-4.4900513,3.4378052-8.5487823,6.2524109-11.9210205c1.1200562-1.3418121,2.2845459-2.6446686,3.4358215-3.9592743
	c1.0508423-1.1997375,2.1026611-2.4159393,3.0596619-3.692337c0.0906067-0.121048,0.3121643-0.4255371,0.4833679-0.7066803
	c-0.3574524,0.1258392-0.7728577,0.3170776-0.9343567,0.3945923c-0.8766785,0.4204712-1.7373352,0.9228973-2.5650635,1.4323425
	c-0.8184204,0.5036163-1.6270142,1.0330353-2.4121399,1.5871582c-0.2997742,0.2115021-0.5979919,0.4275818-0.8877869,0.6526489
	c-0.1654358,0.1284485-0.3509827,0.2713623-0.4989624,0.4194946c-2.6631165,2.6615601-5.33255,5.3166351-7.9867859,7.9870605
	c-1.3529968,1.3614502-2.5650635,2.9128723-3.7426453,4.4272919c-1.1260681,1.4482422-2.2421875,2.9223633-3.4590149,4.2958374
	c-0.4777527,0.5392761-0.9284668,1.1821594-1.3478088,1.7687073c-0.6213684,0.8685913-1.2279358,1.7487946-1.8348083,2.6275177
	c-0.7059021,1.0222778-1.4098511,2.0487671-2.1365662,3.0562744c-0.2758484,0.3823547-0.5559387,0.7647705-0.8493958,1.1337585
	c-0.1873779,0.2357788-0.4172363,0.5237427-0.6507568,0.7134399l-0.1687927,0.137146l-16.5911255,0.6342468l-0.0346069-0.6400757
	c-0.0279846-0.5144348,0.5708618-1.441925,0.8356018-1.8712463c0.6347351-1.0291748,1.3254395-2.0375366,2.0108032-3.033783
	c1.9792786-2.8772125,4.0159607-5.7177734,6.0177612-8.5800018c1.9252625-2.753418,3.8651733-5.5396729,5.6407471-8.391983
	c0.6220703-0.9993591,1.2517395-2.0392151,1.7703857-3.0963135c0.020813-0.0424042,0.0502319-0.1032562,0.0845642-0.1766815
	c-0.0619202,0.0554962-0.1236572,0.1112061-0.1851501,0.1669006c-0.9717712,0.8792267-1.9201965,1.7915649-2.8625793,2.7021484
	c-2.6872864,2.5966949-5.3392639,5.2320862-8.0064697,7.8496094c-2.4654541,2.4193878-4.9383545,4.840744-7.4652863,7.1959076
	c-0.964325,0.8987732-1.9403229,1.7940063-2.9431915,2.6502991c-0.61586,0.5256958-1.3383636,1.1437683-2.0346985,1.5567017
	c-1.3068695,0.775116-2.586441,1.6430664-3.9647675,2.2859497c-1.6515198,0.7702026-3.2644806,1.1033325-5.089035,1.0560608
	c-2.3810425-0.0618286-4.6245117-0.8309631-6.0861206-2.7994995c-2.2361603-3.0120544-1.727478-7.5337982-0.5142975-10.847168
	c0.2743073-0.7484589,0.5970154-1.4801788,0.9672699-2.1862183c0.6943665-1.324585,1.3684845-2.6660614,2.0493469-3.9982452
	c0.1136627-0.2223969,0.2271881-0.444809,0.3407135-0.6670685c-0.3516998,0.3893738-0.6999969,0.7825012-1.0471802,1.1738434
	c-3.4261169,3.8586273-7.4336548,7.3051453-11.4880219,10.484375c-1.9024811,1.4915771-3.8733215,2.9071808-5.9437561,4.1573639
	c-4.6837463,2.8278809-9.9571991,4.8445129-15.5111542,4.3174744c-0.9581451-0.0907898-8.8918762,14.5606995-10.7268372,17.5692444
	c-1.8595734,3.0488892-3.4794312,6.2380981-5.3347778,9.2898865c-0.1613617,0.2651672-0.3058319,0.5369568-0.4629669,0.8036194
	c-0.5757751,0.9767761-1.3378143,1.0929565-2.4572906,1.2306213c-3.4694519,0.3143311-6.4394989,0.4445801-11.0399628,0.4080811
	c2.252182-4.1150818,4.0799713-8.0936279,6.5476685-12.2857666c1.3645477-2.3182373,2.7468109-4.6260071,4.1354065-6.9299622
	c0.7987366-1.3257141,1.6174622-2.6488953,2.3980713-3.9845886c2.1568146-3.6906738,4.319397-7.3787842,6.415863-11.1042786
	c0.070343-0.1251831,0.5774689-0.9880066,0.5686035-1.1148987c-0.0080109-0.1115723-0.5635376-0.9436493-0.6385193-1.0646973
	c-0.6746674-1.0876923-0.6742554-3.4192963-0.0405121-4.5257721c0.0302429-0.0527496,0.0607758-0.1057892,0.0917206-0.1587524
	c-0.0637207,0.0519867-0.127594,0.1040344-0.191452,0.1560822c-1.1343994,0.9233856-2.2749939,1.8359375-3.3569183,2.8213654
	c-3.270813,2.978775-10.6477661,7.0380707-15.017807,7.6528168c-1.5281372,0.2150879-3.0038147,0.2312622-4.5389862,0.2743225
	c-0.7198334,0.0201721-1.436142,0.0536499-2.1516113,0.1311035c-1.8307343,2.5035706-3.6417847,6.2055359-5.171051,8.9623413
	c-1.0279083,1.8526917-2.0518646,3.7078857-3.0917358,5.5539551c-0.4016266,0.7127991-0.8056335,1.4249573-1.2185211,2.131073
	c-0.2688293,0.4590149-0.5429993,0.9306946-0.8401031,1.3716431c-1.0182037,1.5112-1.9213257,3.1304932-2.7961731,4.7284241
	c-0.8035431,1.4672852-1.5856781,2.947876-2.4097595,4.403656c-0.7883301,1.3918152-3.9848785,1.6569214-6.313446,1.7762756
	c-2.3342133,0.17453-4.1325836,0.1612244-7.7618408,0.225647l20.1774597-35.2263489
	c-0.1554413-0.3862915-0.3504181-0.736145-0.5750732-1.0976868c-0.2563171-0.4126587-0.5272522-0.8153381-0.6942291-1.2751312
	c-0.4020538-1.1058502-0.0208282-2.2122498,0.5100861-3.2042084c-0.3355103,0.3226318-0.6728516,0.6430969-1.0127258,0.9609375
	c-2.1139069,1.9768982-4.3085632,3.9016113-6.6353149,5.6245728c-2.413681,1.7876892-6.6341858,4.6144104-9.7840271,4.1626282
	c-1.9055634-0.2733459-3.5828247-1.0960083-4.8753357-2.5350342c-3.4314728-3.8204193-3.0776825-10.7292023-0.834198-15.0484619
	c0.3197479-0.6156616,0.6817017-1.2204132,1.0463257-1.8103333c0.4580383-0.740448,0.9352112-1.4704742,1.4277039-2.1884003
	c0.4812469-0.7020416,0.9788055-1.3963318,1.5005646-2.0688324c0.4256897-0.5489044,0.8828735-1.1122284,1.3770599-1.6009979
	c0.3808136-0.3765259,0.7521973-0.8125458,1.1044464-1.2165527c0.58815-0.6747437,1.1650543-1.3611755,1.7271881-2.0575104
	c0.56073-0.6942291,1.1187897-1.406311,1.6264801-2.1403503c0.1143646-0.1653595,0.4144287-0.6052551,0.5883026-0.9347076
	c-0.836731-0.1311798-2.2839966,0.7689972-2.780014,1.0931091c-0.9091797,0.5939178-1.776001,1.2865295-2.601059,1.992157
	c-0.9515228,0.8141479-1.8697052,1.6714935-2.7656555,2.5462646c-1.483551,1.4484558-2.9140625,2.9544373-4.3157501,4.4820862
	c-0.8849792,0.9646759-1.748291,1.9557953-2.639328,2.912735c-2.4107285,2.5888214-4.323616,5.5133667-6.5150375,8.2722015
	c-0.4020462,0.506012-0.784256,1.0623779-1.1597137,1.5892029c-0.6268463,0.8794861-1.2480621,1.7631989-1.8684387,2.6473389
	c-0.7106857,1.0130005-1.4194031,2.0274811-2.1286774,3.0415192c-0.2354889,0.3365784-0.4706955,0.6731873-0.7071686,1.0090637
	c-0.1174622,0.166748-0.3017502,0.4671631-0.4742126,0.5714722l-0.1446152,0.0871582l-16.4978409,0.6118469
	c1.3323212-2.7059326,3.0377121-5.8093414,4.2939377-7.6995697c0.9020004-1.3577881,1.8059769-2.714447,2.7161331-4.0670319
	c0.328476-0.4882202,0.6579361-0.9762115,0.9904861-1.4617462c0.1814728-0.2648926,0.3653336-0.5415344,0.5596008-0.7967834
	c0.6207962-0.8152008,1.2074127-1.6835175,1.7761536-2.5353699c0.8280106-1.2398987,1.6304169-2.5006256,2.3976517-3.7789307
	c0.8361664-1.3930969,1.6641769-2.8432312,2.3450394-4.3189697c0.1281509-0.2779846,0.3601227-0.7981873,0.5463791-1.3234711
	c-0.7936859,0.7051392-1.7477341,1.6605225-2.0366821,1.9420776c-0.5686035,0.5534821-1.1403046,1.1090088-1.734375,1.6351318
	c-0.4483261,0.3968353-0.9910431,0.8620453-1.5216675,1.1405792c-0.9361877,0.4915161-2.344902,0.4428406-3.0298386-0.4545135
	c-0.3097687-0.4058533-0.3951569-0.9081268-0.2985153-1.4033661c0.1304092-0.6681366,0.9536285-1.6334381,1.3930969-2.1437988
	c0.8081741-0.9385834,1.6851349-1.8377686,2.5598526-2.714386c0.7846756-0.7861481,1.5817337-1.5599365,2.3828735-2.3291473
	c0.5431442-0.5215454,1.0937424-1.0386658,1.6305542-1.5667572c0.9979477-0.9820404,2.0553894-1.928009,3.2017441-2.7342072
	c2.4252243-1.7055359,5.5491791-2.9259491,8.0106888-0.5627594c2.1822815,2.0951996,2.7790222,5.0563812,2.6563568,7.9709473
	c-0.0458679,1.089798-0.1911774,2.1699677-0.3933258,3.2407074c0.3581543-0.3713837,0.7154694-0.7438202,1.0726318-1.1161804
	c0.8288574-0.8644409,1.6522217-1.7456207,2.4928894-2.5974731c0.957428-0.9697418,1.9560852-1.8404388,3.0216827-2.6873016
	c0.8873749-0.7053375,1.7893829-1.3895874,2.6660614-2.1091309c0.5570679-0.4573364,1.1394501-0.8848419,1.7442169-1.2769623
	c4.4355927-2.875885,9.837204-3.660553,13.2801971,1.1424713c3.4880219,4.8659973,1.6651611,11.9650421-1.4268494,16.5448303
	c-0.1941376,0.2878265-0.4034576,0.5702972-0.6085663,0.8506622c-0.33255,0.4552917-0.6679077,0.9087524-1.003006,1.3621521
	c-0.8876495,1.2019196-1.7748871,2.4039764-2.6507111,3.6143341c-0.8951111,1.2371674-1.7889557,2.4855042-2.6313171,3.7589569
	c-0.3034363,0.4586029-0.6060181,0.9260559-0.8785095,1.4038544c-0.0132294,0.0232849-0.029541,0.0516968-0.0476837,0.0836334
	c0.129837-0.0422668,0.2440643-0.0865784,0.2980804-0.109436c0.7118073-0.300766,1.4364319-0.775116,2.069458-1.2155762
	c0.9036865-0.628952,1.7758789-1.317276,2.6249847-2.0181732c0.9669952-0.7984009,1.9124603-1.624588,2.8441467-2.4638367
	c1.602417-1.4431763,3.1685486-2.9289856,4.7128601-4.4339142c0.9554596-0.9311981,1.8960114-1.8749695,2.8455658-2.8115845
	c2.4807892-2.4468231,5.0466766-4.8044434,7.5276184-7.2495728c2.6434021-2.605423,5.1057587-5.2811127,7.3621826-8.2332306
	c0.8392487-1.0979004,1.6374359-2.2319489,2.4204407-3.3704834c0.9288635-1.3505402,1.837616-2.7155151,2.7434235-4.0815277
	c2.0482178-3.088562,4.0812378-6.1860809,6.1992188-9.2274475c1.3178406-1.8924866,2.6674652-3.7652893,4.0758972-5.5915222
	c1.3258514-1.7189636,2.7084045-3.4064178,4.1815491-5.0016632c2.2278442-2.4124298,5.2365875-5.2513733,8.3795319-6.3722534
	c2.0906982-0.7458649,4.4405212-1.2266846,6.6616211-0.8944092c1.7301483,0.2589111,3.2951508,1.00737,4.4502258,2.3414459
	c1.4621735,1.6887207,1.9525604,3.9410553,1.8221588,6.1275635c-0.1588287,2.661972-1.2113495,5.274292-2.6515656,7.4945526
	c-5.9616394,9.1899567-14.4649658,16.6928101-23.655777,22.5508423c-0.9449005,0.6022949-1.9072571,1.1820068-2.8461151,1.7923279
	c-0.5866089,0.3813019-1.1711121,0.7840424-1.6748657,1.2723236c-0.4901123,0.4748535-0.8802032,1.0128632-1.2401886,1.5903168
	c-0.56987,0.914032-1.071228,1.9017792-1.5595093,2.8617401c-0.2290192,0.4503021-0.4864502,0.8969421-0.7348785,1.3368988
	c-0.4263916,0.7551422-0.8582611,1.5073242-1.2904053,2.2591553c-1.1673126,2.030426-2.3412476,4.0571899-3.5096741,6.0867615
	c-1.2195129,2.1182709-2.4388733,4.2385864-3.6293945,6.3731689c-0.4193573,0.7520447-0.8375854,1.5070496-1.237381,2.2696381
	c-0.082428,0.1573486-0.164444,0.3152466-0.2442017,0.4742737c6.7788086,0.8666992,16.4895477-7.236557,21.0136261-11.2283173
	c2.9777832-2.6277313,5.835022-5.3959045,8.6311951-8.2151642c2.2032471-2.2214508,4.3563995-4.4894104,6.552887-6.7161407
	c0.4954529-0.5020599,0.9619293-1.0445709,1.4116669-1.5874329c0.5816803-0.7021027,1.1432648-1.422287,1.6938629-2.1488037
	c1.3034821-1.7198029,2.5549164-3.485611,3.7779388-5.263382c1.2365265-1.7977448,2.4466095-3.6157532,3.626297-5.4513397
	c0.8818817-1.3722076,1.7636414-2.7638245,2.5780029-4.1770325c0.852478-1.4794006,1.8335419-2.9180145,2.8340149-4.3006897
	c1.2066956-1.6681213,2.4834595-3.2936096,3.8139648-4.8649445c1.3774719-1.6271667,2.8276825-3.2176361,4.365387-4.6951294
	c1.2595978-1.2105103,2.6812592-2.4592743,4.1747894-3.3722534c2.2832794-1.3960419,4.9575043-2.3991852,7.6587219-2.4369659
	c2.1708832-0.0303802,4.3583679,0.5852814,5.9387054,2.1338196c1.3369751,1.3100281,1.9843445,3.0415192,2.0828247,4.8906708
	c0.1277313,2.3951263-0.653717,4.8465118-1.6920319,6.9758911c-0.734314,1.5060577-1.7565918,3.0059357-2.7361145,4.3631592
	c-1.2591705,1.7450562-2.6142883,3.4358215-4.0142822,5.0694733c-1.3798676,1.6102905-2.8210754,3.1851349-4.3288116,4.676712
	c-1.1861725,1.1729431-2.4955597,2.3982086-3.8605347,3.359726c-3.1166229,2.1953583-6.0825958,4.5944824-9.2168274,6.7675476
	c-1.0342255,0.7170868-2.0800018,1.3871918-3.1568604,2.0370331c-0.5459595,0.3294525-1.1450958,0.6687622-1.6356201,1.0767822
	c-0.4797058,0.3989563-0.8516388,0.881958-1.2038879,1.3935242c-0.6904297,1.003006-1.3178406,2.0947113-1.9359589,3.1440735
	c-1.9559326,3.3195496-3.8810577,6.6634521-5.8064728,10.0008698c-1.2815399,2.2210999-2.5608215,4.4442444-3.8238068,6.675766
	c-0.4396057,0.7771454-0.8787842,1.5555115-1.3078461,2.3387756c-0.0869293,0.1587524-0.1737366,0.3178406-0.2591248,0.4776001
	c0.9717865,0.1837158,2.053421,0.0359192,2.9745636-0.1820374c1.561203-0.3694763,3.1219788-1.0348816,4.5586853-1.7418976
	c1.301239-0.6401367,2.5678711-1.3547058,3.8125458-2.0981598c1.0010376-0.5977936,1.9846344-1.2208405,2.9797668-1.8272858
	c1.2169647-0.7414246,2.3693695-1.6254272,3.4636841-2.5360107c1.2216034-1.0163727,2.3962402-2.0926666,3.5517273-3.1828918
	c5.2474365-4.9509583,10.5041504-9.9343414,15.6452179-14.9918518c2.2119598-2.1758728,3.288681-4.653717,6.8117371-4.6800842
	c0.6189575-0.004715,1.2522736-0.0419922,1.8710938-0.0689392c1.0532379-0.045929,2.1060333-0.0948181,3.1591187-0.1421509
	c1.1681519-0.0527496,2.3363342-0.1054993,3.5047607-0.1471405c0.3985291-0.0142059,0.79776-0.0279999,1.1965637-0.033905
	c0.2276306-0.0033722,0.5759277-0.0234985,0.78302,0.0709076l0.2481384,0.1130981l0.0934143,0.2561646
	c0.117157,0.3203888-0.0441895,0.6555481-0.1762695,0.9437866c-0.1667175,0.3632202-0.353241,0.7220001-0.5389404,1.0758667
	c-0.6258545,1.1947479-1.2846375,2.377182-1.9407349,3.5558319c-1.9567566,3.5143127-3.9445038,7.0118256-5.9070435,10.523056
	c-1.8604126,3.3284149-3.721817,6.6716156-5.4792633,10.0554504c-0.6182556,1.1903992-1.235672,2.3980103-1.7852936,3.6215973
	c-0.0962219,0.214386-0.3564606,0.7943115-0.5134583,1.2433472c0.0821533-0.0230713,0.1530609-0.0466919,0.1907501-0.0606384
	c0.5227509-0.1913147,1.0601196-0.5148621,1.5257568-0.8171692c1.4011078-0.9097443,2.7572174-2.0473785,4.0152588-3.1456146
	c1.916687-1.6733246,3.7167511-3.4271698,5.5400391-5.1963654c1.8657684-1.8106232,3.7097015-3.6462708,5.5215912-5.5106964
	c1.8335571-1.8863678,3.7354736-3.6970673,5.526825-5.6259155c1.7204285-1.8526001,3.5452576-3.6592865,5.4274902-5.3464661
	c1.169281-1.0481567,2.3869324-2.0738068,3.6622925-2.99086c0.9968262-0.7167358,2.194519-1.4955139,3.3612671-1.8939056
	c3.3970032-1.1594391,6.7886658,0.656662,7.4352112,4.2403412c0.3182068,1.7625122,0.7448425,3.491394,0.4355164,5.2908325
	c-0.1274414,0.7421265-0.2835999,1.4879761-0.426239,2.2280579c-0.0206909,0.1076202-0.0415039,0.2151642-0.0621948,0.3229218
	c0.4158325-0.4028168,0.831543-0.8057098,1.2469482-1.2088776c0.8803406-0.8539734,1.759552-1.7090607,2.6400452-2.5628052
	c0.9136658-0.8861084,1.8384705-1.7602539,2.8077087-2.5855865c0.9520874-0.8106384,1.9398804-1.5641632,2.9603271-2.2861023
	c0.6496582-0.4597168,1.3148804-0.8987732,1.9984436-1.306366c4.7309875-2.8223572,9.9269409-3.8118591,13.4681396,1.3746643
	c3.2498474,4.7599945,0.8704834,12.3682098-2.2381287,16.6275482c-0.5386353,0.7377625-1.1170959,1.463562-1.6748657,2.187973
	c-0.9357605,1.214859-1.8684387,2.4320374-2.7895813,3.6578827c-0.9343567,1.2438354-1.8667297,2.4992828-2.7489014,3.7806091
	c-0.3093567,0.4492493-0.617981,0.9067078-0.8992004,1.3745422c0.2353516-0.0957336,0.4573364-0.2039795,0.5549622-0.2544861
	c0.9267578-0.4786377,1.8418579-1.118866,2.6829529-1.7336121c1.1599731-0.8480377,2.2866516-1.7515259,3.3919067-2.6694946
	c1.2499084-1.0378265,2.4778442-2.1029358,3.6927185-3.1815491c2.1382446-1.8986816,4.2386475-3.8426666,6.3121948-5.811264
	c1.2549438-1.1914368,2.5083618-2.3921509,3.7346191-3.6130676c1.6657104-1.6581268,3.5915527-3.019989,5.2571106-4.6850891
	c1.656311-1.6559448,3.3199158-3.3049927,4.9663696-4.9707794c0.6242981-0.631485,1.2084045-1.2806396,1.809906-1.9311829
	c0.3609924-0.3902283,0.740509-0.7894592,1.2218933-1.030365c0.4889832-0.2447662,1.027771-0.2999878,1.5662842-0.3274231
	c0.8797607-0.0451508,1.7757263-0.0371399,2.6578979-0.0592194c0.6575012-0.0164642,1.3209229-0.0730133,1.9753418-0.1349792
	c0.7910156-0.0747681,1.5809021-0.1633911,2.3700867-0.2519531c0.8323669-0.0934753,1.6650085-0.1885681,2.4983521-0.2699432
	c0.7016907-0.0685883,1.4137878-0.132309,2.1187134-0.1504517l0.4877014-0.0126648l0.1494141,0.4643707
	c0.1062012,0.330368-0.0216675,0.7132874-0.1409607,1.0241089c-0.1579895,0.4111786-0.3587341,0.8194275-0.5574951,1.2121887
	c-0.6341553,1.2519989-1.3444214,2.4850006-2.0477905,3.6994476c-2.055542,3.5501862-4.1923828,7.0583954-6.290802,10.5838318
	c-2.0132141,3.382431-4.0414429,6.7947693-5.8941345,10.2677307c-0.6473694,1.2137451-1.3002319,2.4692688-1.8335266,3.737915
	c-0.0811768,0.1930847-0.2983704,0.7293396-0.4315796,1.1773682c0.4318542-0.1789246,0.8635864-0.4360046,1.2577515-0.6863403
	c1.2895508-0.8187866,2.5424194-1.8176575,3.7221069-2.7865448c1.6171875-1.3276062,3.1921692-2.7139435,4.7457886-4.1150665
	c1.7561646-1.5837097,3.4880066-3.1952667,5.2069092-4.8192139c2.9505005-2.787674,5.8621521-5.6158447,8.7679443-8.4500122
	c1.1121521-1.0845947,2.2226257-2.1708221,3.3390198-3.2507782c0.7059021-0.6830292,1.4164429-1.3774109,2.1469727-2.0339355
	c0.8088684-0.727005,1.5606384-1.536438,2.2713318-2.3591766c0.8522034-0.9868927,1.659668-2.0160675,2.4405518-3.0601501
	c1.7772827-2.3771057,3.4375305-4.8573303,5.0509033-7.3480377c1.4039307-2.16716,2.7738037-4.3559875,4.1438293-6.5446625
	c1.1811218-1.8869934,2.3595276-3.7810364,3.5853882-5.6390686c0.951355-1.4420471,1.8232727-2.9338226,2.7818298-4.3713684
	c0.4343872-0.651535,0.8275757-1.376709,1.2151184-2.0587006c0.2719421-0.4785004,0.5430298-0.9579163,0.8235168-1.4312134
	c0.1991882-0.3360748,0.4204712-0.717514,0.663269-1.0228424l0.1899109-0.2387238l14.6882324-0.3490143l-8.7886353,14.5337524
	l7.0914001,0.1703491l-1.3352966,4.615387l-0.274292,0.1237946c-0.6898804,0.3110962-2.6815491,0.2533417-3.4700317,0.2398376
	c-0.6040344-0.0105438-1.2080994-0.0292511-1.8120117-0.0488739c-0.4092102-0.0133667-0.8226624-0.031723-1.2317505-0.0336914
	c-0.5944824-0.0028839-1.178833-0.0419922-1.770813-0.0584564c-0.2221069-0.0062561-0.556366-0.0163879-0.765686,0.0715332
	c-0.4047241,0.1699371-0.9014282,1.1049194-1.1024475,1.4634399c-0.4037476,0.7201691-0.8364563,1.4241028-1.2812805,2.1197357
	c-1.1805115,1.8462067-2.4776917,3.6549377-3.515564,5.5853271c-2.8580933,5.3148804-6.5094299,10.1802368-9.535614,15.3998108
	c-1.4790344,2.550705-3.0003052,5.0704651-4.4118042,7.6602783c-0.8218384,1.5075989-1.612854,3.0397491-2.3179016,4.6053925
	c-0.6123657,1.3599701-1.1851807,2.7882233-1.5686646,4.2310638c-0.0212402,0.079895-0.0665283,0.2726135-0.0768127,0.4161072
	c0.1994934-0.039032,0.499115-0.1668396,0.6096802-0.2179871c0.539917-0.2493286,1.0736389-0.5876465,1.5671387-0.918396
	c1.4084167-0.9441833,2.7684631-2.0441284,4.0691223-3.1316681c1.3783264-1.1529083,2.7279663-2.3436432,4.0570374-3.5531464
	c0.6856689-0.6239014,1.3722839-1.253418,2.0423279-1.8943939c4.260437-4.0758209,8.8271484-7.812973,12.9289246-12.0580292
	c1.9602966-2.0288696,3.8878174-4.0312347,6.0473022-5.8571777c1.4831238-1.2541046,3.1470337-2.5026703,4.8972778-3.3557892
	c1.4782104-0.72052,3.2420044-1.2529755,4.8760681-0.7705383c1.8443604,0.5447693,2.7580566,1.3759308,3.9487305,2.8366241
	c3.4117432,4.1861115,0.4913635,11.0294952-1.55896,15.2074432c-0.1908875,0.3890991-0.4366455,0.7822876-0.6629944,1.1519775
	c-0.3675842,0.5998383-0.7457275,1.1936188-1.1246948,1.7861481c-1.0028687,1.5675201-2.0196533,3.1264801-3.0275879,4.690918
	c-1.0446472,1.6214752-2.0908508,3.2492065-3.0868225,4.9010925c-0.3563232,0.5905457-0.7116699,1.1894531-1.0352173,1.7987976
	c-0.0078735,0.0149841-0.0168762,0.0319214-0.0267334,0.050293c0.3591614-0.1831055,0.712677-0.4204102,1.0328369-0.6488647
	c1.1168213-0.7970581,2.1864929-1.762085,3.1874084-2.6995544c0.9332275-0.8735046,1.8418274-1.7733307,2.7417297-2.6806793
	c0.5947571-0.5992584,1.1871338-1.2254028,1.8002014-1.8042755c3.2218628-3.0418091,5.7089844-6.6344757,8.5498962-10.0027161
	c1.2895508-1.5287781,2.525116-3.1099548,3.7147827-4.7174377c1.4368591-1.9415741,2.8267212-3.9423828,4.1002197-5.9949646
	c0.461853-0.7443085,0.9596863-1.5610657,1.5194397-2.2348938c0.3823547-0.460144,0.8094177-0.8558655,1.3839417-1.0563202
	c0.5505981-0.1920166,1.1473389-0.1699371,1.721283-0.1413727c0.8384399,0.0413513,1.6477356,0.0839844,2.4900818,0.0649872
	l0.0116882-0.0002747l0.0116577,0.0001373c0.800293,0.0108337,1.6101685-0.0161133,2.4101868-0.0393219
	c1.086853-0.0315857,2.1735535-0.0694885,3.2604065-0.1015015c1.1148376-0.0329132,2.2312317-0.0621033,3.3466187-0.0672302
	l1.1581726-0.0052795l-17.6606445,29.363266c0.8180237-0.442627,1.6834412-1.0080566,2.0615845-1.2593079
	c2.0248413-1.3440704,3.9897766-2.844574,5.899292-4.3477478c1.7505493-1.3781128,3.4770508-2.7909088,5.1789246-4.2287445
	c1.1322937-0.9568634,2.2821655-1.9310303,3.3684387-2.940155c2.7879028-2.5907288,5.9087524-4.8000183,8.6769409-7.4046021
	c2.1099548-1.9854736,4.7602539-4.1491852,7.5861206-4.9463806c0.2087708-0.0589447,0.6338806-0.0016937,0.8551636,0.0198364
	c0.4118958,0.0402985,0.8236389,0.08638,1.2348328,0.1336365c0.4207458,0.0484009,0.8415222,0.0984802,1.2614136,0.1510162
	c0.2494202,0.0311584,0.6884766,0.052536,0.8908997,0.2039032l0.3118896,0.2331696l-0.0579529,0.3851013
	c-0.0501099,0.3355103-0.368866,0.5517273-0.6163025,0.7442322c-0.3198853,0.2487793-0.6477966,0.4895477-0.9747314,0.7290497
	c-0.9616394,0.7043457-1.9320374,1.3978729-2.8995667,2.0943604c-0.8481445,0.610733-1.6966858,1.2220306-2.5368042,1.8440857
	c-0.3164978,0.2345123-0.6325989,0.4705658-0.9434814,0.7123718c-0.1764221,0.1372986-0.368866,0.2837524-0.5313416,0.4367981
	c-2.4976501,2.3487701-5.2060547,4.4595184-7.6786804,6.8355713c-1.1702881,1.1246948-2.3769836,2.2173004-3.5970459,3.2879028
	c-1.4475403,1.2707062-2.9222412,2.5132904-4.4227905,3.7210388c-1.4059143,1.1315155-2.8381042,2.2363739-4.3059082,3.2865143
	c-1.2761841,0.9128418-2.5999451,1.8061218-3.967865,2.5762329c-1.5388184,0.866333-2.9855042,1.8786316-4.590332,2.6277161
	c-0.7827148,0.3652039-1.5820007,0.701416-2.3723145,1.0505676c-0.8069153,0.3565369-1.6985168,0.7403564-2.4595642,1.1917725
	c-0.1080322,0.1181641-0.2294312,0.2962036-0.3187561,0.4187927c-0.2363281,0.3242493-0.4661865,0.6542664-0.6940918,0.984375
	c-0.6372375,0.9217529-1.2621155,1.8527527-1.8853149,2.7839966c-0.5889893,0.8803406-1.1754761,1.7625732-1.7623596,2.6444092
	c-0.364624,0.547699-0.7267151,1.1018982-1.1014709,1.6426392c-1.9288025,2.7824097-3.8869629,5.5462341-5.9716187,8.2148743
	c-2.1742554,2.7835999-4.4759827,5.4368591-6.9629517,7.9464722c-1.3500671,1.3623047-2.780426,2.5346069-4.3865051,3.5820007
	c-1.3731384,0.8954468-2.8185425,1.6764221-4.2628479,2.4492188c-0.3514099,0.1879883-0.7675171,0.344574-1.1403198,0.4865112
	c-0.5404663,0.2055359-1.087677,0.3968506-1.6367188,0.5783081c-0.559906,0.184845-1.1260986,0.3616638-1.6955566,0.5150146
	c-0.3851624,0.1036682-0.8792114,0.2367554-1.2767639,0.2529907c-0.9408264,0.0386963-1.8085022,0.2485657-2.7327271,0.3445129
	c-0.1741638,0.018158-0.3486023,0.0310364-0.5237427,0.0367126c-0.925354,0.0306091-1.9449463-0.2582703-2.8746643-0.3648376
	c-0.1409607-0.0162354-0.2827759-0.0292664-0.4245605-0.0374146c-4.0699768-0.2340698-6.9334106-3.9468994-7.9520264-7.6034241
	c-0.3103333-1.1140137-0.3595581-2.2503662-0.1758423-3.3902588c0.4537964-2.8117981,2.259491-5.3506775,4.050415-7.4876709
	c3.9016113-4.6556091,12.690918-8.8581848,18.3474426-11.045929c1.6465759-0.6367798,3.2738953-1.3251038,4.9172668-1.9709167
	c1.0003357-0.3929138,2.0069885-0.7741394,3.0252075-1.118927c0.9213867-0.3120117,1.8641968-0.6013794,2.8148804-0.8092957
	c0.0625916-0.0137329,0.1236572-0.0327759,0.1830139-0.0565491c0.6625671-0.2650452,1.1975708-1.1683044,1.5274353-1.763855
	c0.3583069-0.6466064,0.676239-1.3485718,1.0855713-1.9617004
	C405.495636,260.0123596,405.5738525,259.8881531,405.6509399,259.7626648L405.6509399,259.7626648z M222.4464874,226.980957
	c0.6535645-0.4441833,1.2868805-0.9252167,1.9058533-1.4162445c1.5108337-1.1981964,2.9690704-2.4825439,4.3929749-3.7818146
	c2.3448944-2.1392365,4.6641846-4.3731384,6.8699646-6.6565552c2.2814484-2.3613586,4.4005585-4.7088623,5.9946899-7.6061096
	c0.7677917-1.3952179,1.4545593-2.9692078,1.9531097-4.4790649c0.4176636-1.2642365,1.214447-4.1041107,0.2276154-5.2599487
	c-0.2306976-0.2700958-0.5085297-0.4806213-0.8581085-0.5646057c-2.2064819-0.5295563-5.8834229,4.0227966-7.0373688,5.5114746
	c-1.1144257,1.4373474-2.1556854,2.9431152-3.1371765,4.4740753c-0.6236115,0.9724731-1.25354,1.9825897-1.8049927,2.9983215
	c-0.6148834,1.1325684-1.2127533,2.2776642-1.8108978,3.4190979c-0.977829,1.8663177-1.9470673,3.7372894-2.9044952,5.6140137
	c-1.0170746,1.9933624-2.0281067,3.995575-2.9903107,6.0159302
	C222.9745789,225.8224945,222.7030792,226.3992615,222.4464874,226.980957L222.4464874,226.980957z M187.0095367,226.1830444
	c0.5116425-0.3622284,1.0135651-0.7410736,1.5088806-1.1235657c1.5482483-1.1960144,3.0582581-2.4557495,4.5413818-3.7313843
	c1.4389496-1.2377167,2.8614502-2.5011749,4.2496185-3.7958069c0.5558014-0.5180969,1.107254-1.0422516,1.645752-1.5781555
	c0.3706818-0.3686371,0.7471161-0.7487335,1.0886688-1.1445923c1.9739532-2.2879181,3.8724823-4.7874908,5.4478912-7.3644257
	c1.4727173-2.4091949,4.1695862-7.3734436,2.4587097-10.1748962c-0.0873566-0.1427917-0.1984863-0.2539825-0.3493042-0.328125
	c-0.9526367-0.4688721-2.9118042,0.6055298-3.6732788,1.160141c-1.9132996,1.3928833-3.605896,3.5818481-4.9432831,5.5185699
	c-1.3545532,1.961853-2.5591431,4.0121002-3.7650146,6.066925c-0.2261963,0.3854523-0.4359436,0.7921448-0.6442871,1.1878662
	c-0.3672943,0.6977386-0.7284088,1.3988495-1.0876923,2.1006775c-0.9702301,1.896225-1.9261017,3.8005219-2.871994,5.7089844
	c-0.9873962,1.992157-1.9678955,3.9907837-2.9144897,6.0027008
	C187.4678497,225.1844025,187.2351837,225.6823883,187.0095367,226.1830444L187.0095367,226.1830444z M399.9000549,269.8487854
	c-0.0517883,0.0170898-0.1026917,0.0341187-0.1529236,0.0511475c-0.7039185,0.2372437-1.3999939,0.510498-2.0866089,0.7935486
	c-1.7546387,0.7232056-3.4880371,1.532135-5.1893311,2.372467c-1.6351929,0.8074646-3.2615356,1.6555786-4.8434143,2.5630798
	c-0.6352844,0.3647766-1.2674866,0.7408752-1.881958,1.1401672c-0.4189148,0.2724915-0.8596497,0.5683289-1.2401733,0.8934937
	c-1.0184631,0.8701477-2.085907,1.6816711-3.0987549,2.5568237c-1.2375183,1.0686951-2.2672424,2.1663208-3.1720581,3.5351257
	c-1.0169373,1.5385742-1.8872986,3.4175415-2.0371094,5.2779541c-0.0941162,1.1687317,0.1014099,2.5014038,0.9937134,3.3449707
	c0.800293,0.7566833,1.9221802,0.8849792,2.9718933,0.7447205c1.8200378-0.2431641,3.7064819-1.2982178,5.1880493-2.3340759
	c0.5231628-0.3656006,1.0204468-0.8440247,1.4646912-1.3009338c0.5691833-0.5857239,1.1079712-1.2072754,1.6253662-1.8388977
	c0.9066467-1.1062012,1.7868347-2.281311,2.5757446-3.4749451c1.6422119-2.4850159,3.2470398-5.0105286,4.8273621-7.5350647
	c1.0561829-1.6869507,2.1071777-3.384491,3.1089172-5.1042175
	C399.2770081,270.9786072,399.5991516,270.4176941,399.9000549,269.8487854L399.9000549,269.8487854z M274.0167847,270.9060364
	c0.2492676,0.0719604,0.4512939,0.2444763,0.5316162,0.4967957c0.1088867,0.342041-0.050354,0.6537781-0.2903442,0.8868103
	c-0.1309814,0.1271057-0.2843018,0.2398376-0.4352417,0.342041c-0.085968,0.0580139-0.1734619,0.1138-0.262085,0.1677551
	c-2.2854004,1.4781189-5.417511,1.3674316-8.0119629,1.0447083c-1.2372437-0.1539001-2.4631958-0.374054-3.6905823-0.591095
	c-1.0093384-0.1785278-2.0503235-0.3716736-3.0718994-0.4552917c-2.3237915-0.1900024-4.6487274-0.4040833-6.9749146-0.5603027
	c-2.5588531-0.1718445-5.1075897-0.2452698-7.6720886-0.2663879c-3.4884338-0.0286865-7.4143677,0.5608826-10.5649109,2.1305237
	c-0.9921722,0.4943237-2.0645294,1.1695557-2.7988434,2.012207c-0.4090881,0.4694214-0.820282,1.1247559-0.735733,1.7770691
	c0.1040955,0.802887,0.9368896,1.347168,1.6041107,1.6629639c1.5531769,0.7354431,3.6790466,0.9814758,5.3747406,1.0719299
	c2.0611572,0.1100159,4.1442566,0.0461426,6.2019043-0.1063232c2.341507-0.1733398,4.6781158-0.4661255,6.9981079-0.826416
	c5.1196899-0.7951355,10.2142029-1.9213867,15.2410583-3.1711426c4.6587219-1.15802,9.2868958-2.43927,13.8987427-3.7711792
	c4.0116272-1.1586609,8.0092773-2.3627625,12.0162659-3.5368347c7.0380554-2.062439,14.4465332-3.5933838,21.7885742-3.9196167
	c2.8382568-0.1261597,5.6980286-0.0710449,8.5228882,0.2445679c2.3526306,0.2629395,4.7010498,0.7090149,6.9636536,1.410614
	c3.4085388,1.0568848,6.8526611,2.7798767,9.2946167,5.4404297c1.8847656,2.0534363,3.1011658,4.6339417,3.0336609,7.4589844
	c-0.0699158,2.9272156-1.490448,5.5093384-3.5693359,7.5073547c-2.696167,2.5910645-6.3753357,4.1401062-9.9707031,4.9901123
	c-5.1917114,1.2273865-10.8057556,1.1833496-16.0745544,0.5371094c-7.5246582-0.9229736-15.0120544-3.1360474-22.0568542-5.8905334
	l-0.0118103-0.0046997l-0.0118408-0.0050659c-0.1161804-0.0507812-0.2305603-0.1052856-0.3401489-0.1697388
	c-0.3840332-0.2260437-0.6861877-0.5850525-0.6062927-1.0597534l0.0042114-0.0255432l0.0064697-0.025177
	c0.1372986-0.5461731,0.8041077-0.6186218,1.258606-0.7362976l0.033905-0.0086365l0.0344849-0.0053406
	c3.6262817-0.5351257,7.2209473-0.5068665,10.8673401-0.2427979c3.3380737,0.2416687,6.6606445,0.6617126,9.9974365,0.9221191
	c3.5302124,0.2755127,7.0234375,0.3587036,10.5535278,0.0126343c1.2767639-0.1251831,2.5571594-0.2151489,3.8327942-0.3459167
	c1.071106-0.1098633,2.1428833-0.2532043,3.1885376-0.5165405c1.910614-0.4811096,3.4906921-1.3231812,5.0507507-2.5193481
	c0.5521545-0.4234009,1.5417786-1.2801208,1.3783264-2.0895691c-0.2579956-1.2753296-3.0038147-2.229248-4.0705566-2.5536499
	c-0.8336182-0.2536316-1.6883545-0.4580994-2.5444946-0.6203003c-0.6383972-0.1210632-1.3040466-0.2283936-1.9522705-0.2776184
	c-0.8569946-0.0649109-1.7519836-0.0344543-2.6092224,0.0155334c-1.1601562,0.0675964-2.3211365,0.1860352-3.4749451,0.3248901
	c-2.7857666,0.3352356-5.5704041,0.7953796-8.3301697,1.301178c-2.5734863,0.4715881-5.1410828,0.9907532-7.6959839,1.5557861
	c-1.9607239,0.4336853-3.9343872,0.8894653-5.8711853,1.420929c-4.24823,1.1661987-8.4671936,2.4489441-12.70401,3.6576233
	c-2.4412537,0.6963806-4.8892517,1.3736572-7.3510742,1.9941101c-2.2654114,0.5711365-4.5516357,1.0997925-6.851532,1.5121765
	c-2.6743469,0.4794922-5.3432312,0.9871826-8.0171509,1.4695435c-2.1497803,0.3877258-4.3040771,0.7541809-6.4718628,1.0296021
	c-2.3004456,0.2923279-4.5980682,0.4725342-6.9156799,0.553009c-2.953598,0.1026917-5.9166107,0.0578003-8.8696442-0.042511
	c-3.0365906-0.103241-6.276886-0.8804626-9.080658-2.0352478c-5.6746521-2.3370361-11.0343475-6.9067688-9.6568604-13.6729736
	c1.9588928-9.6218262,16.0284119-11.2056885,23.9826965-11.0897827c2.9293976,0.0427856,5.8317871,0.336792,8.7158813,0.8463135
	c2.7169952,0.4799805,5.3900909,1.144928,8.0417938,1.9026184
	C266.5717468,268.5373535,270.2754211,269.7848511,274.0167847,270.9060364L274.0167847,270.9060364z"/>
</svg>
