<?xml version="1.0" encoding="utf-8"?>
<!-- Generator: Adobe Illustrator 24.0.3, SVG Export Plug-In . SVG Version: 6.00 Build 0)  -->
<svg version="1.1" id="Слой_1" xmlns="http://www.w3.org/2000/svg" xmlns:xlink="http://www.w3.org/1999/xlink" x="0px" y="0px"
	 viewBox="0 0 500 500" style="enable-background:new 0 0 500 500;" xml:space="preserve">
<style type="text/css">
	.st0{fill:#FFFFFF;}
	.st1{fill:none;stroke:#FFFFFF;stroke-width:5;stroke-miterlimit:10;}
	.st2{enable-background:new    ;}
</style>
<g>
	<path class="st0" d="M82.4,253.9c-1.8-0.4-3.4-1.2-4.9-2.1c-1.5-1-2.8-2.3-3.7-4.1c-1-1.7-1.4-3.8-1.4-6.4c0-2.4,0.8-4.5,2.5-6.3
		c1.7-1.8,3.6-2.7,5.8-2.7c1.6,0,2.9,0.5,3.8,1.5c0.9,1,1.4,2.1,1.4,3.4c0,1.8-0.4,3.1-1.3,4c-0.9,0.9-2.2,1.4-4,1.5
		c-1.3,0.1-2.4,0.6-3.4,1.3c-0.9,0.7-1.4,1.7-1.4,2.8c0,1.9,1.1,3.5,3.4,4.9c2.3,1.4,4.7,2,7.3,2c3.9,0,7.7-1.9,11.4-5.7
		c3.7-3.8,6.7-8.7,9-14.6c-3.9-0.7-7-2.7-9.5-5.8c-2.4-3.2-3.7-6.7-3.7-10.6c0-4.5,1.5-8.7,4.6-12.8c3.1-4,7.1-7.6,12.1-10.6
		c5-3,10.5-5.4,16.3-7c5.9-1.7,11.5-2.5,16.9-2.5c0.6,0.1,1,0.1,1.1,0.1c0.1,0,0.6,0.1,1.6,0.3c-3,0.5-5.6,1.9-7.8,4
		c-2.2,2.1-4.2,4.7-5.8,7.7c-1.6,3.1-3,6.2-4.1,9.4c-1.1,3.2-2.3,7.2-3.7,11.9c-1.1,3.8-2,6.7-2.6,8.7c-0.7,2-1.4,3.8-2.1,5.3
		c2-0.5,3.9-1.5,5.6-2.9c1.7-1.4,3.1-3,4.3-4.9c1.2-1.8,2-3.7,2.6-5.5c0.6-1.8,0.9-3.4,0.9-4.8c0-1.4,0-2.3-0.1-2.8
		c0-0.5-0.1-1.1-0.2-1.5c0.5,0.2,0.8,0.7,0.9,1.5c0.1,0.8,0.2,1.8,0.2,2.9c0,2-0.4,4-1.1,6c-0.7,2-1.8,4-3.2,5.8
		c-1.4,1.8-2.9,3.4-4.7,4.6c-1.8,1.3-3.6,2.1-5.6,2.5c-1.9,3.9-4.1,7.3-6.7,10.2c-2.6,2.9-5.3,5.2-8.2,6.9c-2.9,1.7-5.8,3-8.7,3.8
		c-2.9,0.8-5.8,1.2-8.6,1.2C85.9,254.5,84.2,254.3,82.4,253.9z M113.5,218.8c2.4-4.8,5-9.4,7.8-13.9c2.8-4.5,5.7-8.4,8.7-11.8
		c3-3.4,6-5.9,8.9-7.4c-5.4,0.3-10.5,1.8-15.5,4.3c-5,2.5-9.4,5.7-13.2,9.5c-3.8,3.8-6.8,7.8-8.9,12c-2.1,4.2-3.2,8-3.2,11.5
		c0,2.2,0.8,4.2,2.5,6c1.7,1.8,3.9,3,6.7,3.6C109.1,228.2,111.1,223.6,113.5,218.8z"/>
	<path class="st0" d="M159.7,225.5c3.9-3.9,7-5.8,9.2-5.8c1.8,0,3.2,0.8,4.1,2.3c0.9,1.5,1.4,3.4,1.4,5.7c0,2.6-0.6,5.2-1.9,7.7
		c-1.3,2.5-3,5.4-5.3,8.6c-1.5,2.2-2.6,3.9-3.3,5.1c-0.7,1.3-1,2.4-1,3.3c0,0.7,0.5,1,1.5,1c0.9,0,2-0.5,3.5-1.4
		c1.4-0.9,2.9-2.2,4.5-3.7c1.6-1.5,3.1-3.2,4.5-5c1.5-1.8,2.7-3.5,3.6-5v1.8c-0.9,1.5-2.1,3.1-3.4,4.7c-1.3,1.7-2.7,3.2-4.2,4.7
		c-1.5,1.5-3,2.6-4.6,3.6c-1.6,0.9-3,1.4-4.3,1.4c-0.6,0-1.2-0.1-1.9-0.2c-0.6-0.1-1.3-0.5-2-1c-0.7-0.5-1.3-1.3-1.7-2.4
		c-0.5-1.1-0.7-2.5-0.7-4.2c0-2.9,0.7-5.7,2-8.4c1.4-2.7,3.3-5.8,5.8-9.3c1.4-1.9,2.5-3.4,3.1-4.5c0.6-1.1,1-2.1,1-2.9
		c0-0.5-0.4-0.8-1.1-0.8c-1.2,0-2.8,1-5,2.8c-2.2,1.9-4.6,4.4-7.3,7.5c-2.7,3.1-5.4,6.7-8.2,10.7c-2.8,4-5.3,7.9-7.5,11.7
		c-0.5,0-1.3,0-2.1,0.1c-0.9,0.1-2.1,0.2-3.7,0.3c-1.6,0.1-2.8,0.3-3.7,0.4c-0.9,0.1-1.6,0.2-2.2,0.3c0.7-1.1,2.1-3.3,4-6.5
		c1.9-3.3,3.9-6.6,5.8-10.1c1.9-3.5,3.6-6.7,4.9-9.5c1.3-2.8,2-4.8,2-5.8c0-0.7-0.2-1.1-0.7-1.1c-0.7,0-1.7,0.6-3,1.9
		c-1.3,1.3-2.8,2.8-4.3,4.7c-1.6,1.9-3.1,3.9-4.7,6c-1.6,2.1-3,4.1-4.1,5.9v-1.8c1.2-1.8,2.5-3.7,4.2-5.9c1.6-2.2,3.3-4.3,5-6.2
		c1.7-1.9,3.4-3.5,5.2-4.8c1.8-1.3,3.3-1.9,4.7-1.9c1.4,0,2.4,0.6,3,1.9c0.6,1.3,0.9,2.7,0.9,4.3c0,1.8-0.4,4-1.3,6.8
		c-0.8,2.7-1.9,5.6-3.1,8.7C151.6,234.6,155.7,229.3,159.7,225.5z"/>
	<path class="st0" d="M203.5,245.3c-1.1,1.4-2.4,2.9-3.8,4.4c-1.5,1.5-3,2.7-4.7,3.8c-1.7,1-3.3,1.5-5,1.5c-2.2,6-4.7,11.7-7.4,17.3
		c-2.7,5.6-5.5,10.8-8.4,15.6c-0.5,0.1-1.5,0.2-3,0.3c-3,0.4-5.4,0.7-7,1c1.2-2.2,2.6-4.9,4.2-8.2c1.7-3.3,3.3-6.7,5-10.2
		c1.7-3.5,3.3-6.8,4.8-10.1c1.5-3.2,2.7-6,3.7-8.4c-1.2-1.3-1.7-2.9-1.7-5c0.1-1.1,0.4-2.1,1-3c0.6-0.9,1.4-1.4,2.6-1.4
		c0.9,0,1.5,0.2,1.9,0.6c0.7-2,1.5-4.2,2.4-6.5c0.9-2.3,2.1-4.9,3.5-7.8c0.2-0.3,0.3-0.6,0.4-0.8c-1.6,0.7-3.5,2.1-5.5,4.3
		c-2.1,2.2-4,4.6-5.8,7.3v-1.8c1.5-2.5,3.3-4.8,5.5-7c2.2-2.1,4.4-3.6,6.5-4.4c1.7-4.5,3.8-9.3,6.3-14.2c2.5-4.9,5.2-9.4,8-13.5
		c2.8-4.1,5.6-7.4,8.4-9.9c2.7-2.5,5.2-3.8,7.3-3.8c1.4,0,2.6,0.5,3.5,1.4c0.9,0.9,1.3,2.1,1.3,3.4c-0.1,2.6-1.1,5.8-3.2,9.7
		c-2.1,3.9-4.6,7.8-7.7,11.7c-3.1,3.9-6.1,7.3-9.1,10.1c-3,2.8-5.3,4.4-6.8,4.8c-0.5,1.4-1.5,4.1-3.2,8.3c-1.3,3.1-2.6,6.3-3.8,9.7
		c-1.3,3.3-2.3,6.2-3.1,8.6c1.4,0,2.7-0.4,4-1.1c1.3-0.7,2.6-1.7,3.9-3c1.3-1.3,2.4-2.5,3.5-3.8c1-1.3,2.2-2.8,3.5-4.6
		c0.8-1.1,1.4-1.9,1.8-2.4v1.8C205.7,242.2,204.5,243.9,203.5,245.3z M206.6,220c2.5-3.1,5.2-6.7,7.9-10.9c2.7-4.2,5-8.1,6.8-11.8
		c1.8-3.7,2.7-6.4,2.7-8c0-0.8-0.2-1.5-0.5-2c-0.3-0.5-0.9-0.8-1.6-0.8c-1.6,0-3.3,1.3-5.2,3.8c-1.9,2.5-3.9,5.8-5.8,9.8
		c-1.9,4-3.8,8.2-5.5,12.6c-1.7,4.4-3.2,8.6-4.5,12.5C202.1,224.8,204,223,206.6,220z"/>
	<path class="st0" d="M230,245.3c-1.1,1.4-2.4,2.9-3.8,4.4c-1.5,1.5-3,2.7-4.7,3.8c-1.7,1-3.3,1.5-5,1.5c-2.2,6-4.7,11.7-7.4,17.3
		c-2.7,5.6-5.5,10.8-8.4,15.6c-0.5,0.1-1.5,0.2-3,0.3c-3,0.4-5.4,0.7-7,1c1.2-2.2,2.6-4.9,4.2-8.2c1.7-3.3,3.3-6.7,5-10.2
		c1.7-3.5,3.3-6.8,4.8-10.1c1.5-3.2,2.7-6,3.7-8.4c-1.2-1.3-1.7-2.9-1.7-5c0.1-1.1,0.4-2.1,1-3c0.6-0.9,1.4-1.4,2.6-1.4
		c0.9,0,1.5,0.2,1.9,0.6c0.7-2,1.5-4.2,2.4-6.5c0.9-2.3,2.1-4.9,3.5-7.8c0.2-0.3,0.3-0.6,0.4-0.8c-1.6,0.7-3.5,2.1-5.5,4.3
		c-2.1,2.2-4,4.6-5.8,7.3v-1.8c1.5-2.5,3.3-4.8,5.5-7c2.2-2.1,4.4-3.6,6.5-4.4c1.7-4.5,3.8-9.3,6.3-14.2c2.5-4.9,5.2-9.4,8-13.5
		c2.8-4.1,5.6-7.4,8.4-9.9c2.7-2.5,5.2-3.8,7.3-3.8c1.4,0,2.6,0.5,3.5,1.4c0.9,0.9,1.3,2.1,1.3,3.4c-0.1,2.6-1.1,5.8-3.2,9.7
		c-2.1,3.9-4.6,7.8-7.7,11.7c-3.1,3.9-6.1,7.3-9.1,10.1c-3,2.8-5.3,4.4-6.8,4.8c-0.5,1.4-1.5,4.1-3.2,8.3c-1.3,3.1-2.6,6.3-3.8,9.7
		c-1.3,3.3-2.3,6.2-3.1,8.6c1.4,0,2.7-0.4,4-1.1c1.3-0.7,2.6-1.7,3.9-3c1.3-1.3,2.4-2.5,3.5-3.8c1-1.3,2.2-2.8,3.5-4.6
		c0.8-1.1,1.4-1.9,1.8-2.4v1.8C232.3,242.2,231.1,243.9,230,245.3z M233.1,220c2.5-3.1,5.2-6.7,7.9-10.9c2.7-4.2,5-8.1,6.8-11.8
		c1.8-3.7,2.7-6.4,2.7-8c0-0.8-0.2-1.5-0.5-2c-0.3-0.5-0.9-0.8-1.6-0.8c-1.6,0-3.3,1.3-5.2,3.8c-1.9,2.5-3.9,5.8-5.8,9.8
		c-1.9,4-3.8,8.2-5.5,12.6c-1.7,4.4-3.2,8.6-4.5,12.5C228.6,224.8,230.5,223,233.1,220z"/>
	<path class="st0" d="M240.5,230.7c-1.5,1.8-3.2,4.2-5.3,7.2c-0.7,1-1.2,1.8-1.6,2.3v-1.8c1.8-2.8,3.9-5.9,6.5-9.3
		c2.6-3.4,4.9-6.3,7.1-8.6c2,0,3.9-0.1,5.9-0.2c2-0.1,3.9-0.3,5.6-0.6c-0.7,0.9-2.1,2.9-3.9,6c-1.9,3-3.8,6.5-5.9,10.4
		c-2.1,3.9-3.8,7.3-5.2,10.2c-1.4,2.9-2.1,4.8-2.1,5.6c0,0.6,0.4,0.9,1.1,0.9c0.9,0,2.1-0.5,3.5-1.6c1.4-1,2.8-2.4,4.4-4
		c1.6-1.6,3-3.3,4.3-4.9c1.3-1.6,2.2-3,2.8-4.1v1.8c-0.7,1.1-1.6,2.4-2.9,4c-1.3,1.6-2.7,3.2-4.3,4.8c-1.6,1.6-3.2,2.9-4.7,4
		c-1.6,1.1-2.9,1.6-4.2,1.6c-1.9,0-3.4-0.7-4.4-2.1c-1.1-1.4-1.6-3.1-1.6-5.2c0-2,0.7-4.7,2-8.1c1.4-3.5,3.4-7.2,6-11.2
		C243,227.9,242,228.8,240.5,230.7z"/>
	<path class="st0" d="M288.7,225.5c3.9-3.9,7-5.8,9.2-5.8c1.8,0,3.2,0.8,4.1,2.3c0.9,1.5,1.4,3.4,1.4,5.7c0,2.6-0.6,5.2-1.9,7.7
		c-1.3,2.5-3,5.4-5.3,8.6c-1.5,2.2-2.6,3.9-3.3,5.1c-0.7,1.3-1,2.4-1,3.3c0,0.7,0.5,1,1.5,1c0.9,0,2-0.5,3.5-1.4
		c1.4-0.9,2.9-2.2,4.5-3.7c1.6-1.5,3.1-3.2,4.5-5c1.5-1.8,2.7-3.5,3.6-5v1.8c-0.9,1.5-2.1,3.1-3.4,4.7c-1.3,1.7-2.7,3.2-4.2,4.7
		c-1.5,1.5-3,2.6-4.6,3.6c-1.6,0.9-3,1.4-4.3,1.4c-0.6,0-1.2-0.1-1.9-0.2c-0.6-0.1-1.3-0.5-2-1c-0.7-0.5-1.3-1.3-1.7-2.4
		c-0.5-1.1-0.7-2.5-0.7-4.2c0-2.9,0.7-5.7,2-8.4c1.4-2.7,3.3-5.8,5.8-9.3c1.4-1.9,2.5-3.4,3.1-4.5c0.6-1.1,1-2.1,1-2.9
		c0-0.5-0.4-0.8-1.1-0.8c-1.2,0-2.8,1-5,2.8c-2.2,1.9-4.6,4.4-7.3,7.5c-2.7,3.1-5.4,6.7-8.2,10.7c-2.8,4-5.3,7.9-7.5,11.7
		c-0.5,0-1.3,0-2.1,0.1c-0.9,0.1-2.1,0.2-3.7,0.3c-1.6,0.1-2.8,0.3-3.7,0.4c-0.9,0.1-1.6,0.2-2.2,0.3c0.7-1.1,2.1-3.3,4-6.5
		c1.9-3.3,3.9-6.6,5.8-10.1c1.9-3.5,3.6-6.7,4.9-9.5c1.3-2.8,2-4.8,2-5.8c0-0.7-0.2-1.1-0.7-1.1c-0.7,0-1.7,0.6-3,1.9
		c-1.3,1.3-2.8,2.8-4.3,4.7c-1.6,1.9-3.1,3.9-4.7,6c-1.6,2.1-3,4.1-4.1,5.9v-1.8c1.2-1.8,2.5-3.7,4.2-5.9c1.6-2.2,3.3-4.3,5-6.2
		c1.7-1.9,3.4-3.5,5.2-4.8c1.8-1.3,3.3-1.9,4.7-1.9c1.4,0,2.4,0.6,3,1.9c0.6,1.3,0.9,2.7,0.9,4.3c0,1.8-0.4,4-1.3,6.8
		c-0.8,2.7-1.9,5.6-3.1,8.7C280.6,234.6,284.8,229.3,288.7,225.5z"/>
	<path class="st0" d="M316.5,230.7c-1.5,1.8-3.2,4.2-5.3,7.2c-0.7,1-1.2,1.8-1.6,2.3v-1.8c1.8-2.8,3.9-5.9,6.5-9.3
		c2.6-3.4,4.9-6.3,7.1-8.6c2,0,3.9-0.1,5.9-0.2c2-0.1,3.9-0.3,5.6-0.6c-0.7,0.9-2.1,2.9-3.9,6c-1.9,3-3.8,6.5-5.9,10.4
		c-2.1,3.9-3.8,7.3-5.2,10.2c-1.4,2.9-2.1,4.8-2.1,5.6c0,0.6,0.4,0.9,1.1,0.9c0.9,0,2.1-0.5,3.5-1.6c1.4-1,2.8-2.4,4.4-4
		c1.6-1.6,3-3.3,4.3-4.9c1.3-1.6,2.2-3,2.8-4.1v1.8c-0.7,1.1-1.6,2.4-2.9,4c-1.3,1.6-2.7,3.2-4.3,4.8c-1.6,1.6-3.2,2.9-4.7,4
		c-1.6,1.1-2.9,1.6-4.2,1.6c-1.9,0-3.4-0.7-4.4-2.1c-1.1-1.4-1.6-3.1-1.6-5.2c0-2,0.7-4.7,2-8.1c1.4-3.5,3.4-7.2,6-11.2
		C319,227.9,318,228.8,316.5,230.7z"/>
	<path class="st0" d="M343.9,226.3c-1,1.2-2.2,2.7-3.5,4.4c-1.3,1.7-2.6,3.5-3.8,5.2c-1.2,1.8-2.2,3.2-2.9,4.3v-1.8
		c0.5-0.9,1.3-2,2.2-3.3c0.9-1.3,2-2.9,3.4-4.7c1.3-1.8,2.8-3.7,4.3-5.8c1.6-2.1,2.6-3.4,3.1-4.1c2.7-3.7,4.4-5.9,5-6.7
		c1-1.8,2-3.6,2.9-5.2c0.9-1.7,2-3.5,3.1-5.5c1.2-2,2.4-4,3.6-6c1.2-2,2.3-3.8,3.3-5.3c1,0,2.6-0.1,4.8-0.4c2.2-0.2,3.7-0.5,4.6-0.8
		c-0.5,0.9-1.2,2-2,3.5c-0.8,1.4-1.6,2.8-2.3,4.1c-1.9,3.5-3.3,5.8-4.1,7.1h9.1v3.3h-9.8c-1,1.8-2.5,2.6-4.6,6.4
		c-2.8,5.2-5,9.4-6.7,12.6c-1.7,3.2-3.3,6.5-5,9.9c-1.7,3.4-3.1,6.3-4.1,8.8c-1.1,2.5-1.6,4.2-1.6,5.1c0,1.2,0.4,1.8,1.1,1.8
		c0.7,0,1.6-0.4,2.6-1.2c1.1-0.8,2.3-1.8,3.8-3.2c2.7-2.8,5.6-6.2,8.7-10.4v1.8c-3,4.2-5.9,7.6-8.8,10.3c-2.9,2.7-5.2,4-6.8,4
		c-1.9,0-3.5-0.8-4.7-2.5c-1.2-1.7-1.8-3.5-1.8-5.4c0-1.9,0.6-4.2,1.7-7c1.2-2.7,2.9-6.5,5.3-11.1c1.3-2.6,2-4.1,2.1-4.3
		C345.7,224.4,344.9,225.1,343.9,226.3z"/>
	<path class="st0" d="M386.1,242.3c-1.5,1.8-2.8,3.3-3.9,4.5c-1.1,1.2-2.3,2.3-3.6,3.5c-1.3,1.1-2.5,2-3.7,2.7
		c-1.2,0.7-2.3,1.1-3.3,1.1c-1.5,0-2.8-0.5-3.8-1.6c-1.1-1.1-1.6-2.9-1.6-5.4c0-1,0-1.9,0.2-2.7c0.1-0.8,0.3-1.7,0.7-2.7
		c0.4-1,0.9-2.2,1.7-3.6c0.7-1.4,1.8-3.1,3.3-5.2c0.5-0.9,1.8-2.4,3.7-4.5c1.4-1.6,2.4-2.8,3.2-3.8c0.7-0.9,1.1-1.6,1.1-2
		c0-1.1-0.5-1.6-1.5-1.6c-1,0-2.3,0.6-3.9,1.9c-1.6,1.3-3.3,2.8-5.1,4.7c-1.8,1.9-3.6,4-5.4,6.2c-1.8,2.2-3.5,4.4-5,6.5v-1.8
		c1.8-2.4,3.5-4.5,5.1-6.5c1.6-2,3.4-3.9,5.2-5.8c1.8-1.9,3.6-3.5,5.3-4.7c1.7-1.2,3.1-1.8,4.3-1.8c1.6,0,2.9,0.5,3.8,1.5
		c0.9,1,1.3,2.5,1.3,4.4c0,2-0.5,4.1-1.5,6.4c-1,2.3-2.3,4.6-4,7c-0.3,0.3-0.7,0.9-1.2,1.6c-0.9,1.2-1.7,2.3-2.4,3.4
		c-0.7,1-1.4,2.1-2.1,3.2c-0.7,1.1-1.3,2.1-1.7,2.9c-0.4,0.9-0.7,1.6-0.7,2c0,0.7,0.4,1,1.2,1c1.1,0,2.9-1,5.3-3.2
		c2.4-2.1,5-4.8,7.9-8.2c2.9-3.4,5.6-6.8,8.2-10.4c2.6-3.6,4.7-6.7,6.1-9.3c0.5-0.1,1.6-0.1,3.3-0.2c1.9-0.1,3.4-0.1,4.4-0.2
		c1.1-0.1,1.9-0.2,2.6-0.3c-0.6,1-1.3,2.2-2.2,3.7c-0.8,1.4-2.5,4.3-5,8.5c-3.1,5.4-5.4,9.3-7,11.8c-1.5,2.5-2.8,4.6-3.7,6.1
		c1.2-0.3,2.6-1,4.1-2c1.5-1,3.1-2.1,4.6-3.4c1.5-1.3,2.9-2.6,4.2-4c1.3-1.4,11.6-13.2,12.3-14.2l4.2-1.6
		c-0.7,1-15.3,18.2-16.5,19.4c-1.3,1.3-2.6,2.6-4.2,3.8c-1.5,1.3-3.1,2.4-4.7,3.4c-1.6,1-3.1,1.6-4.5,2c-2.8,5.5-5.5,8.1-7.8,12
		c-2.4,3.9-4.8,7.4-7.3,10.4c-2.5,3-5.2,5.4-8,7c-2.8,1.7-5.8,2.5-8.9,2.5c-2.8,0-4.8-0.6-5.9-1.9c-1.2-1.3-1.8-3.3-1.8-5.9
		c0-4.3,2.6-8.3,7.8-12.2c5.2-3.9,12.2-7.4,20.9-10.6c0.8-1.4,1.8-3.2,2.9-5.3c1.2-2.1,1.9-3.5,2.3-4.2c2.6-4.7,4.1-7.4,4.5-8.2
		C389.3,238.9,388,240.2,386.1,242.3z M362.2,284.5c1.4-1,2.9-2.6,4.5-4.8c1.6-2.2,3.4-5,5.3-8.5c2-3.5,4.4-8,7.3-13.7
		c-3.6,1.2-7,2.8-10.1,4.8c-3.2,2-5.9,4.2-8.3,6.5c-2.4,2.3-4.2,4.7-5.5,7c-1.3,2.3-1.9,4.3-1.9,6c0,1.3,0.4,2.3,1.3,3.1
		c0.9,0.7,1.9,1.1,3.1,1.1C359.4,286,360.8,285.5,362.2,284.5z"/>
</g>
<g>
	<path class="st0" d="M271.4,261.5c0.2,0.1,0.4,0.2,0.5,0.5c0.1,0.3,0,0.6-0.3,0.9c-0.1,0.1-0.3,0.2-0.4,0.3
		c-0.1,0.1-0.2,0.1-0.3,0.2c-2.2,1.4-5.2,1.3-7.8,1c-1.2-0.1-2.4-0.4-3.6-0.6c-1-0.2-2-0.4-3-0.4c-2.3-0.2-4.5-0.4-6.8-0.5
		c-2.5-0.2-4.9-0.2-7.4-0.3c-3.4,0-7.2,0.5-10.2,2.1c-1,0.5-2,1.1-2.7,1.9c-0.4,0.5-0.8,1.1-0.7,1.7c0.1,0.8,0.9,1.3,1.6,1.6
		c1.5,0.7,3.6,1,5.2,1c2,0.1,4,0,6-0.1c2.3-0.2,4.5-0.5,6.8-0.8c5-0.8,9.9-1.9,14.8-3.1c4.5-1.1,9-2.4,13.5-3.7
		c3.9-1.1,7.8-2.3,11.6-3.4c6.8-2,14-3.5,21.1-3.8c2.8-0.1,5.5-0.1,8.3,0.2c2.3,0.3,4.6,0.7,6.7,1.4c3.3,1,6.6,2.7,9,5.3
		c1.8,2,3,4.5,2.9,7.2c-0.1,2.8-1.4,5.3-3.5,7.3c-2.6,2.5-6.2,4-9.7,4.8c-5,1.2-10.5,1.1-15.6,0.5c-7.3-0.9-14.5-3-21.4-5.7l0,0l0,0
		c-0.1,0-0.2-0.1-0.3-0.2c-0.4-0.2-0.7-0.6-0.6-1l0,0l0,0c0.1-0.5,0.8-0.6,1.2-0.7l0,0l0,0c3.5-0.5,7-0.5,10.5-0.2
		c3.2,0.2,6.5,0.6,9.7,0.9c3.4,0.3,6.8,0.3,10.2,0c1.2-0.1,2.5-0.2,3.7-0.3c1-0.1,2.1-0.2,3.1-0.5c1.9-0.5,3.4-1.3,4.9-2.4
		c0.5-0.4,1.5-1.2,1.3-2c-0.2-1.2-2.9-2.2-3.9-2.5c-0.8-0.2-1.6-0.4-2.5-0.6c-0.6-0.1-1.3-0.2-1.9-0.3c-0.8-0.1-1.7,0-2.5,0
		c-1.1,0.1-2.2,0.2-3.4,0.3c-2.7,0.3-5.4,0.8-8.1,1.3c-2.5,0.5-5,1-7.5,1.5c-1.9,0.4-3.8,0.9-5.7,1.4c-4.1,1.1-8.2,2.4-12.3,3.5
		c-2.4,0.7-4.7,1.3-7.1,1.9c-2.2,0.6-4.4,1.1-6.6,1.5c-2.6,0.5-5.2,1-7.8,1.4c-2.1,0.4-4.2,0.7-6.3,1c-2.2,0.3-4.5,0.5-6.7,0.5
		c-2.9,0.1-5.7,0.1-8.6,0c-2.9-0.1-6.1-0.9-8.8-2c-5.5-2.3-10.7-6.7-9.4-13.2c1.9-9.3,15.5-10.9,23.2-10.7c2.8,0,5.7,0.3,8.4,0.8
		c2.6,0.5,5.2,1.1,7.8,1.8C264.2,259.2,267.8,260.4,271.4,261.5L271.4,261.5z"/>
</g>
<line class="st1" x1="236" y1="304" x2="441" y2="304"/>
<g class="st2">
	<path class="st0" d="M267.1,320.3l9.2,30.4l10.1-32.3c0.5-1.7,1.4-2.5,2.7-2.5h0.3c0.4,0,0.9,0.1,1.6,0.2c0.8,0.2,1.3,0.3,1.6,0.3
		c0.6,0.1,1.5,0.1,2.6,0.1c1.2,0,2.1-0.1,2.8-0.2l2.1-0.4c0.1,0,0.4-0.1,0.7-0.1c1.8,0,2.8,0.7,2.8,2.1c0,1.3-0.6,1.9-1.9,1.9
		c-0.3,0-0.8,0-1.4-0.1s-1.1-0.2-1.4-0.2c-2,0-3.1,1.5-3.1,4.5v4.2v5.3v5.1v9.5c0,3,1,4.5,3,4.5c0.4,0,0.8-0.1,1.3-0.2
		c0.9-0.1,1.4-0.1,1.6-0.1c1.3,0,1.9,0.6,1.9,1.9c0,1.4-0.9,2.2-2.6,2.2c0.1,0-0.2,0-0.9-0.1c-2.8-0.3-5.1-0.5-7-0.5
		c-1.9,0-3.7,0.1-5.4,0.4c-0.7,0.1-1.4,0.2-1.9,0.2c-1.6,0-2.3-0.7-2.3-2c0-1.4,0.8-2.1,2.4-2.1c0.4,0,0.7,0,0.9,0.1
		c0.9,0.1,1.4,0.2,1.6,0.2c1.5,0,2.4-1.5,2.7-4.5c0.1-0.6,0.1-2.7,0.1-6.1c0-1.3,0-3.2,0.1-5.7v-5.4v-10.6c0-0.2-0.1-0.4-0.3-0.4
		c-0.1,0-0.2,0.1-0.4,0.4l-11,34.2c-0.5,1.5-1.6,2.3-3.4,2.3c-1,0-1.8-0.1-2.3-0.4c-0.5-0.3-0.9-0.9-1.2-1.8l-10.9-34.2
		c-0.1-0.2-0.3-0.4-0.4-0.4c-0.2,0-0.2,0.1-0.2,0.4l0.4,27.7c0,2.9,0.8,4.4,2.4,4.4c0.4,0,1,0,1.8,0h0.7c1.6,0,2.3,0.7,2.3,2
		c0,1.4-0.8,2-2.4,2c-0.3,0-0.7,0-1.3-0.1c-0.9-0.1-1.8-0.3-2.8-0.4c-0.8-0.1-1.8-0.2-3.1-0.2c-2.2,0-3.6,0.1-4.3,0.2l-2.5,0.5
		c-0.1,0-0.2,0-0.4,0.1c-0.2,0-0.3,0-0.4,0c-1.8,0-2.8-0.7-2.8-2.1c0-0.6,0.2-1,0.5-1.4c0.4-0.4,0.8-0.6,1.3-0.6
		c0.4,0,1,0.1,1.6,0.2c0.6,0.1,1,0.2,1.3,0.2c2,0,3.1-1.5,3.1-4.5v-24.1c0-3-1-4.5-3.1-4.5c-0.3,0-0.8,0.1-1.4,0.2
		c-0.6,0.1-1.1,0.1-1.4,0.1c-1.2,0-1.9-0.6-1.9-1.9c0-1.4,0.9-2.1,2.7-2.1c0.2,0,0.4,0,0.8,0.1l2.1,0.2c1,0.1,2,0.2,2.9,0.2
		c0.8,0,1.8-0.1,3.1-0.2c1.3-0.2,2.2-0.2,2.8-0.2c1.6,0,2.6,1,3.1,2.9L267.1,320.3z"/>
	<path class="st0" d="M313.7,324.1c0-3-1-4.4-3.1-4.4c-0.6,0-1,0-1.3,0.1c-0.6,0.1-1.2,0.2-1.6,0.2c-0.5,0-1-0.2-1.3-0.6
		c-0.4-0.4-0.5-0.8-0.5-1.4c0-1.4,0.8-2.1,2.5-2.1c0,0,0.3,0,0.9,0.1c6,0.4,8.8,0.6,8.4,0.6h0.6l14.4-0.4c0.3,0,1.3-0.1,3.1-0.2
		c0.6,0,1.2-0.1,1.7-0.1c2.1,0,3.1,0.9,3.1,2.8c0,0.3-0.1,1.3-0.2,3.1c-0.1,1.3-0.1,2.5-0.1,3.5c0,1.4,0,2.4,0.1,2.9
		c0.1,1.2,0.2,2,0.2,2.6c0,1.5-0.7,2.3-2.1,2.3s-2.1-1.1-2.1-3.2v-3.1c0-3.4-0.7-5.3-2.1-5.9c-1-0.4-3.7-0.7-8-0.7
		c-2.8,0-4.5,0.1-5,0.2c-1.7,0.4-2.6,1.6-2.6,3.6v2.7c0,0.3,0,0.8,0,1.3c0,0.6,0,1,0,1.2v0.8c0,1.6,0.4,2.5,1.1,2.8
		c0.3,0.1,0.7,0.1,1.4,0.1h2.4c2.5,0,3.7-0.9,3.7-2.6c0-0.5-0.1-1.1-0.1-1.9c-0.1-0.8-0.2-1.4-0.2-2c0-1.6,0.7-2.4,2.1-2.4
		s2.1,0.9,2.1,2.6c0,0.3-0.1,1.6-0.4,3.7c-0.2,1.8-0.3,3.5-0.3,4.9c0,0.8,0.1,2.2,0.2,4.3c0,0.3,0.1,1,0.3,2.1
		c0.1,0.9,0.2,1.6,0.2,2.1c0,1.4-0.7,2.2-2.2,2.2c-1.4,0-2.1-0.8-2.1-2.5c0-0.4,0-1.1,0.2-1.9c0.1-0.8,0.1-1.5,0.1-1.9
		c0-1.7-1.1-2.6-3.4-2.6h-2.7c-1.2,0-1.9,0.2-2.1,0.6c-0.3,0.4-0.4,1.3-0.4,2.6v3.7c0,0.6,0,1.5,0.1,2.6c0,1.3,0.1,2.2,0.1,2.6
		c0,1.6,0.4,2.6,1,3c0.4,0.3,1.5,0.4,3.1,0.4h8.2c2.4,0,4-0.3,4.9-1s1.3-2,1.3-3.9c0-0.6,0-1.5-0.1-2.7c-0.1-1.2-0.1-2.1-0.1-2.7
		c0-1.8,0.7-2.7,2.1-2.7c1.5,0,2.2,0.9,2.2,2.8c0,0.7,0,1.8-0.1,3.3c-0.1,1.5-0.1,2.6-0.1,3.3c0,0.6,0,1.4,0.1,2.5
		c0.1,1.1,0.1,1.9,0.1,2.5c0,1.9-0.9,2.8-2.8,2.8c-0.4,0-1.1,0-2.1-0.1c-0.5,0-1.4-0.1-2.6-0.1c0.3,0-1.3,0-4.7-0.1
		s-6.3-0.1-8.8-0.1c-3.8,0-7.4,0.1-11,0.4c-0.2,0-0.3,0-0.5,0.1c-0.2,0-0.3,0-0.4,0c-1.7,0-2.5-0.7-2.5-2.2c0-1.3,0.6-1.9,1.9-1.9
		c0.2,0,0.7,0,1.6,0.1c0.4,0.1,0.9,0.2,1.3,0.2c2,0,3.1-1.5,3.1-4.5V324.1z"/>
	<path class="st0" d="M362.9,318.5l16.1,33.5v-24.2c0-3.1,0-4.8-0.1-5.2c-0.4-2.1-1.4-3.1-3-3.1c-0.3,0-0.8,0.1-1.4,0.2
		c-0.6,0.1-1.1,0.2-1.4,0.2c-0.5,0-1-0.2-1.3-0.6c-0.4-0.4-0.6-0.8-0.6-1.3c0-1.4,0.9-2.2,2.7-2.2c0.4,0,0.6,0,0.8,0.1l2.7,0.4
		c1.2,0.2,2.3,0.2,3.4,0.2c1,0,2.4-0.1,4.1-0.3c0.6-0.1,1.3-0.2,2.1-0.3c0.1,0,0.2,0,0.4-0.1c0.2,0,0.3,0,0.4,0
		c1.7,0,2.6,0.7,2.6,2.1c0,1.3-0.8,2-2.4,2c-0.3,0-0.5,0-0.7,0h-0.6c-1.2,0-2,0.3-2.4,0.8c-0.4,0.5-0.6,1.7-0.7,3.4v3.4v6.1v16
		c0,2.8-0.3,4.7-0.9,5.8c-0.6,1.1-1.7,1.7-3.2,1.7c-2,0-3.6-1.4-5-4.2l-15.8-32.7v27.9c0,3,1,4.5,3.1,4.5c0.3,0,0.8,0,1.4-0.1
		c0.6-0.1,1.1-0.1,1.4-0.1c1.3,0,1.9,0.6,1.9,1.9c0,1.4-0.9,2-2.7,2c-0.1,0-0.2,0-0.4,0c-0.2,0-0.3-0.1-0.4-0.1l-2.5-0.4
		c-1.4-0.2-2.6-0.3-3.8-0.3c-1,0-2.4,0.1-4,0.3l-2.9,0.4c-0.1,0-0.2,0-0.4,0.1c-0.2,0-0.4,0-0.5,0c-1.7,0-2.6-0.7-2.6-2.1
		c0-1.2,0.6-1.9,1.9-1.9c0.2,0,0.7,0,1.6,0.1c0.4,0.1,0.9,0.2,1.3,0.2c2,0,3.1-1.5,3.1-4.5V344v-5.3v-5.2v-9.5c0-3-1-4.5-3.1-4.5
		c-0.3,0-0.7,0-1.2,0.1c-0.8,0.1-1.3,0.2-1.7,0.2c-1.3,0-1.9-0.7-1.9-2c0-1.4,0.9-2.1,2.6-2.1c0.2,0,0.6,0,1,0.1
		c2,0.2,3.5,0.3,4.6,0.3c0.6,0,1.5-0.1,2.7-0.2c1.2-0.1,2.1-0.2,2.7-0.2c1.2,0,2.1,0.4,2.5,1.3L362.9,318.5z"/>
	<path class="st0" d="M403.4,325.3v3.8L403,334v9.2c0,2.8,0.3,4.8,0.9,6.1c0.6,1.3,1.8,2.3,3.5,3c1.6,0.7,3.2,1,4.9,1
		c2.2,0,4.1-0.4,5.6-1.3c1.6-0.8,2.6-2,3-3.4s0.7-3.2,0.8-5.4v-15.4c0-3,0-4.8-0.1-5.2c-0.4-2-1.4-3.1-3-3.1c-0.3,0-0.7,0-1.2,0.1
		c-0.7,0.1-1.3,0.1-1.6,0.1c-0.5,0-1-0.2-1.3-0.6c-0.4-0.4-0.6-0.8-0.6-1.4c0-1.4,0.9-2.1,2.6-2.1c0.3,0,0.6,0,0.8,0.1l3.5,0.5
		c0.9,0.1,1.9,0.2,3,0.2c1.1,0,2-0.1,2.7-0.2l2.6-0.4c0.7-0.1,1.2-0.2,1.4-0.2c1.7,0,2.5,0.7,2.5,2c0,1.4-0.8,2-2.5,2h-0.7
		c-0.1,0-0.3,0-0.6,0c-1.2,0-1.9,0.6-2.2,1.8c-0.3,1.2-0.4,4.3-0.4,9.2v10.5c0,2.6-0.1,4.5-0.2,5.6c-0.3,2-1,3.7-2,5.2
		c-2.4,3.5-6.5,5.2-12.2,5.2c-7,0-11.6-2.3-13.6-6.9c-0.6-1.4-1-3.6-1-6.5c0-1.4,0.1-3.6,0.2-6.4s0.2-4.9,0.2-6.4v-3.2
		c0-2.9,0-4.5-0.1-4.9c-0.3-2.2-1.1-3.3-2.3-3.3c-0.1,0-0.2,0-0.4,0c-0.2,0-0.4,0-0.5,0s-0.4,0-0.8,0c-1.7,0-2.5-0.7-2.5-2
		c0-1.4,0.8-2,2.3-2c0.6,0,1.3,0.1,2,0.2c2,0.3,3.8,0.5,5.5,0.5c1.7,0,3.7-0.2,5.9-0.5c0.5-0.1,1-0.1,1.6-0.1c1.6,0,2.5,0.7,2.5,2
		c0,1.4-0.7,2-2.1,2c-0.3,0-0.8,0-1.4-0.2c-0.6-0.1-1.1-0.2-1.4-0.2c-1.3,0-2.1,0.7-2.6,2C403.5,322.3,403.4,323.5,403.4,325.3z"/>
</g>
</svg>
