<?xml version="1.0" encoding="utf-8"?>
<!-- Generator: Adobe Illustrator 24.0.3, SVG Export Plug-In . SVG Version: 6.00 Build 0)  -->
<svg version="1.1" id="Слой_1" xmlns="http://www.w3.org/2000/svg" xmlns:xlink="http://www.w3.org/1999/xlink" x="0px" y="0px"
	 viewBox="0 0 500 500" style="enable-background:new 0 0 500 500;" xml:space="preserve">
<g>
	<path style="fill:#FFFFFF;" d="M82.4119644,253.8808136c-1.7628784-0.4404602-3.4047852-1.1518097-4.9298553-2.1340637
		c-1.5250626-0.9822388-2.7616653-2.3377533-3.7097931-4.0664978c-0.9501953-1.7277222-1.4227066-3.8442078-1.4227066-6.3525696
		c0-2.3708344,0.8457642-4.4718018,2.5404053-6.3008575c1.6935959-1.8300781,3.6239777-2.7451172,5.7942276-2.7451172
		c1.6253586,0,2.89608,0.492157,3.8111191,1.4743958c0.9150391,0.9832916,1.3720474,2.1185608,1.3720474,3.4047852
		c0,1.7628784-0.4414978,3.084259-1.3213806,3.9641418c-0.880928,0.8809204-2.2023087,1.3896332-3.9641495,1.5240479
		c-1.287262,0.1364746-2.4059906,0.5769348-3.3541183,1.3213806c-0.9491577,0.7465057-1.4227066,1.6946259-1.4227066,2.8464508
		c0,1.8972778,1.1342392,3.5236816,3.4047775,4.8781433c2.269516,1.3565369,4.6910095,2.0327454,7.267601,2.0327454
		c3.9289932,0,7.7246017-1.8962555,11.3837357-5.6918793c3.6591339-3.7935333,6.6730804-8.6727295,9.0459824-14.6354828
		c-3.8628159-0.7454834-7.0132446-2.6934357-9.4523239-5.8448944c-2.4401093-3.1504364-3.6591263-6.6906586-3.6591263-10.6217194
		c0-4.4718018,1.5240326-8.7233887,4.5731354-12.7557831c3.0501404-4.030304,7.080452-7.5540009,12.0961227-10.5700073
		c5.0135956-3.0149841,10.4511185-5.3527374,16.3125534-7.0132599c5.8603973-1.6594696,11.5016022-2.4907684,16.9236145-2.4907684
		c0.6100159,0.0682373,0.9656982,0.102356,1.0670319,0.102356c0.102356,0,0.6255341,0.1013336,1.5757294,0.3039856
		c-2.9829407,0.5438538-5.5905457,1.8652344-7.8259277,3.9641418c-2.2364349,2.1009827-4.1678314,4.6755066-5.7942352,7.7246094
		c-1.6263885,3.0501404-2.9819031,6.1850586-4.0654755,9.4026947c-1.0846024,3.2186737-2.304657,7.2003937-3.6591263,11.9420624
		c-1.08461,3.7956085-1.9655304,6.7082367-2.6427612,8.7409668c-0.6782684,2.0327454-1.3896255,3.7956085-2.1340637,5.2855377
		c2.0327377-0.5417938,3.8959045-1.5240479,5.590538-2.9477844c1.6925735-1.4227142,3.1152802-3.0491028,4.2681274-4.8781586
		c1.1518097-1.8300781,2.015152-3.6591187,2.5921021-5.489212c0.5748749-1.8290405,0.8643799-3.4202881,0.8643799-4.776825
		c0-1.3544617-0.0175781-2.302597-0.0516968-2.8454132c-0.0341187-0.5417938-0.0847931-1.0504913-0.1519928-1.5250702
		c0.4735413,0.2036896,0.7785645,0.7113495,0.9150391,1.5250702c0.1344147,0.8126831,0.202652,1.7959595,0.202652,2.9467468
		c0,1.9665527-0.3732452,3.9641418-1.117691,5.9968719c-0.7465057,2.0327454-1.7959595,3.9641571-3.1504364,5.7942352
		c-1.3565369,1.8290405-2.9146881,3.3716888-4.675499,4.6237946c-1.7628708,1.2552185-3.6260452,2.0844421-5.590538,2.4907837
		c-1.8983231,3.9310608-4.1337128,7.3358307-6.7082367,10.2143402c-2.5765915,2.8816071-5.3031006,5.1842041-8.1826401,6.9119263
		c-2.8805695,1.7277222-5.7776794,2.9829254-8.6903076,3.7604523c-2.9136581,0.7806244-5.79319,1.1693878-8.6386108,1.1693878
		C85.9346161,254.5415039,84.1727676,254.3202362,82.4119644,253.8808136z M113.514061,218.8145752
		c2.3708344-4.776825,4.9629364-9.4016724,7.7752686-13.8734741c2.8112946-4.4728546,5.7249527-8.4194183,8.7409744-11.8417816
		c3.0139465-3.4202881,5.9792938-5.8779755,8.8939972-7.368927c-5.353775,0.3401794-10.520401,1.7628784-15.5009079,4.269165
		c-4.9805145,2.5073242-9.368576,5.6763611-13.1621246,9.5029907c-3.7956085,3.8297272-6.7588959,7.8445435-8.8939896,12.0444183
		c-2.1340637,4.2029877-3.2010956,8.0296173-3.2010956,11.4860992c0,2.16922,0.8292236,4.1667938,2.4897385,5.9968872
		c1.6594849,1.8290405,3.8783264,3.0149841,6.6575699,3.5567627
		C109.0753326,228.1831512,111.1411591,223.5914001,113.514061,218.8145752z"/>
	<path style="fill:#FFFFFF;" d="M159.6569519,225.4721375c3.9290009-3.8628082,7.0132599-5.7931824,9.2496796-5.7931824
		c1.8290405,0,3.2010956,0.7620087,4.1161346,2.2860413c0.9150391,1.5250702,1.3720398,3.4399414,1.3720398,5.743576
		c0,2.6427612-0.627594,5.2183075-1.8807373,7.7245941c-1.2541809,2.5073242-3.0325623,5.3868561-5.3351593,8.6396484
		c-1.4919891,2.16922-2.5765839,3.879364-3.2527924,5.1325073c-0.6782684,1.2541656-1.0163727,2.3553162-1.0163727,3.3034515
		c0,0.6782684,0.5076752,1.0163727,1.5240479,1.0163727c0.8798828,0,2.0327301-0.4735565,3.4564667-1.4227142
		c1.4227142-0.9481354,2.9126282-2.1857605,4.471817-3.7097931c1.5581512-1.5250702,3.0656433-3.1845551,4.5235138-4.9805145
		c1.4557953-1.7949371,2.6582642-3.4719849,3.6074219-5.0311737v1.8290405
		c-0.9491577,1.4909515-2.0833893,3.0666809-3.4047852,4.7261658c-1.3213654,1.6615448-2.7285767,3.2197113-4.217453,4.6755066
		c-1.4919739,1.4578552-3.0160217,2.6427612-4.574173,3.5578003c-1.5591888,0.9150391-2.9829254,1.3720398-4.2691498,1.3720398
		c-0.6100311,0-1.2366028-0.0682373-1.8807526-0.2036896c-0.6441498-0.1344147-1.3048401-0.4570007-1.9810333-0.9656982
		c-0.6782684-0.5076752-1.2552185-1.3038025-1.7287598-2.3884125c-0.4745789-1.0825348-0.7113495-2.472168-0.7113495-4.1667938
		c0-2.9126282,0.6772308-5.7084198,2.0327301-8.3852997c1.3554993-2.6758423,3.2858734-5.7766571,5.7942352-9.3003387
		c1.422699-1.8962555,2.4545746-3.4047699,3.099762-4.5234985c0.6431122-1.1177063,0.9656982-2.0834045,0.9656982-2.8960876
		c0-0.5417938-0.3732452-0.8137207-1.1187286-0.8137207c-1.1528473,0-2.8299103,0.9501953-5.0311737,2.8464508
		c-2.202301,1.8972931-4.6413727,4.4056396-7.3172302,7.5209198c-2.6779175,3.1173401-5.4219971,6.6751556-8.2333069,10.6723785
		c-2.8123169,3.9992981-5.3031006,7.8952026-7.4702454,11.6887512c-0.5438538,0-1.2552032,0.0351562-2.1351013,0.1013336
		c-0.8809204,0.0692749-2.1009674,0.1705933-3.6591339,0.3050079c-1.5591888,0.1364746-2.794754,0.2708893-3.7097931,0.4073792
		c-0.9150391,0.1344147-1.6439667,0.235733-2.1847229,0.3050079c0.7444458-1.0835724,2.0834045-3.2527924,4.0148163-6.5055847
		c1.9303741-3.2527924,3.8617859-6.6224213,5.7931824-10.1130066c1.9314117-3.489563,3.5578156-6.6575775,4.8791962-9.5040283
		c1.320343-2.8454132,1.9810333-4.776825,1.9810333-5.7931976c0-0.7444305-0.2378082-1.117691-0.7113495-1.117691
		c-0.6782684,0-1.677063,0.6265717-2.9984436,1.879715c-1.3213806,1.2552032-2.761673,2.8133545-4.3198242,4.6754913
		c-1.5591888,1.8652496-3.1349182,3.8628235-4.7261658,5.9968872c-1.5922699,2.1351013-2.9643097,4.1171722-4.1161346,5.9462128
		v-1.8290405c1.151825-1.7618408,2.5414429-3.7439117,4.1668091-5.946228
		c1.6263885-2.2012634,3.2858734-4.2691498,4.9804993-6.2005615c1.6936035-1.9314117,3.4213257-3.5391998,5.1842041-4.8274841
		c1.7608185-1.2862396,3.3189697-1.9314117,4.6755066-1.9314117c1.422699,0,2.4390717,0.627594,3.0491028,1.8807373
		c0.6100311,1.2541809,0.9150391,2.6934357,0.9150391,4.3198242c0,1.7628784-0.4239197,4.0148163-1.2707214,6.7588959
		c-0.8478394,2.7440948-1.8807373,5.6412048-3.099762,8.6903076
		C151.5590973,234.5532837,155.7259064,229.3349609,159.6569519,225.4721375z"/>
	<path style="fill:#FFFFFF;" d="M203.4631348,245.2918396c-1.0845947,1.4237366-2.3553162,2.8816071-3.812149,4.3704834
		c-1.4578552,1.4919739-3.0160217,2.7451172-4.6755066,3.7614899c-1.6605072,1.0163727-3.3375702,1.5240326-5.0311737,1.5240326
		c-2.2353821,5.961731-4.6930695,11.7394104-7.368927,17.3299561c-2.6758423,5.5915833-5.4705963,10.7902527-8.3852844,15.6001587
		c-0.4735565,0.0703125-1.4899139,0.1695557-3.0491028,0.3060608c-3.0491028,0.405304-5.3868561,0.7444153-7.0132599,1.017395
		c1.1528473-2.1712952,2.559021-4.896759,4.2185059-8.1805725c1.6605072-3.2879639,3.3375702-6.6772156,5.0311737-10.165741
		c1.6946411-3.4906006,3.286911-6.8447266,4.776825-10.0623779c1.4909515-3.219696,2.7089386-6.0144501,3.6591339-8.3852844
		c-1.1528473-1.287262-1.7277222-2.9477692-1.7277222-4.9805145c0.0682373-1.0835724,0.3908234-2.0844269,0.9656982-2.9984283
		c0.5748749-0.9150543,1.4382172-1.3720551,2.5910645-1.3720551c0.8798981,0,1.5250702,0.202652,1.9314117,0.6089935
		c0.6772308-2.0327301,1.4899139-4.1822968,2.4390717-6.4538879c0.9481354-2.2695007,2.0999451-4.8616028,3.4564819-7.7752533
		c0.202652-0.3381042,0.3381042-0.6100311,0.4063416-0.8137207c-1.6263885,0.6782684-3.4730225,2.102005-5.5398712,4.269165
		c-2.066864,2.1692047-4.0148163,4.609314-5.8438568,7.3182526v-1.8290405
		c1.4899139-2.5062866,3.3365326-4.8285217,5.5398712-6.9625854c2.2002411-2.1351013,4.3529053-3.6084747,6.4538879-4.4211578
		c1.6925659-4.5390167,3.7935486-9.2651825,6.3018951-14.1795197c2.5062866-4.9122772,5.1831665-9.4171753,8.0296173-13.5177917
		c2.8454132-4.0995941,5.6412048-7.4030457,8.3852844-9.9103699c2.7440948-2.5062714,5.1656036-3.7604523,7.2676086-3.7604523
		c1.4227142,0,2.5734863,0.4570007,3.4554443,1.3720398c0.8798828,0.9150391,1.3213806,2.0503235,1.3213806,3.4047852
		c-0.0682373,2.5755615-1.1352692,5.7931976-3.2021332,9.6560059c-2.0678864,3.8628235-4.6413727,7.7597656-7.7245941,11.6887512
		c-3.084259,3.9310608-6.1157837,7.3017273-9.0966492,10.1130219c-2.9829407,2.8123322-5.2524414,4.4211426-6.8095703,4.8285217
		c-0.4756165,1.3554993-1.5250702,4.1337128-3.1514587,8.3346252c-1.2882996,3.1173553-2.5579834,6.3360138-3.8111267,9.6549835
		c-1.2552032,3.3210297-2.2870789,6.2005615-3.1007996,8.6396484c1.3554993,0,2.694458-0.3711853,4.0148163-1.1177063
		c1.3213806-0.7444305,2.6262207-1.7442627,3.9134827-2.9984283c1.2862244-1.2531433,2.4390717-2.5238647,3.4564667-3.8111267
		c1.0163727-1.287262,2.16716-2.8112946,3.4554443-4.574173c0.8126831-1.0835724,1.4227142-1.8962555,1.8290558-2.4390717v1.8290405
		C205.7326508,242.1765594,204.5456848,243.8691254,203.4631348,245.2918396z M206.562912,219.983963
		c2.5414276-3.0501404,5.166626-6.674118,7.8776245-10.8760681c2.7089386-4.2009125,4.9794769-8.1474915,6.8095551-11.840744
		c1.8290558-3.6932373,2.7440948-6.3525543,2.7440948-7.9789429c0-0.8137207-0.1695709-1.474411-0.5076599-1.9820709
		c-0.3401794-0.5087128-0.881958-0.7620239-1.6264038-0.7620239c-1.5602264,0-3.3034515,1.2696838-5.2348633,3.8111267
		c-1.9314117,2.5414276-3.8617859,5.7931824-5.7931976,9.7573395c-1.9313965,3.9641418-3.7614899,8.1660919-5.489212,12.6037903
		c-1.7277222,4.4387207-3.2362518,8.588974-4.5224762,12.4507599
		C202.1065979,224.760788,204.0214691,223.0330658,206.562912,219.983963z"/>
	<path style="fill:#FFFFFF;" d="M229.990036,245.2918396c-1.08461,1.4237366-2.3553314,2.8816071-3.8121643,4.3704834
		c-1.4578552,1.4919739-3.0160065,2.7451172-4.6754913,3.7614899c-1.6605225,1.0163727-3.3375702,1.5240326-5.0311737,1.5240326
		c-2.2353973,5.961731-4.6930847,11.7394104-7.368927,17.3299561c-2.6758575,5.5915833-5.4706116,10.7902527-8.3852997,15.6001587
		c-0.4735413,0.0703125-1.4899139,0.1695557-3.0491028,0.3060608c-3.0491028,0.405304-5.3868561,0.7444153-7.0132446,1.017395
		c1.1528473-2.1712952,2.5590057-4.896759,4.2184906-8.1805725c1.6605225-3.2879639,3.3375702-6.6772156,5.0311737-10.165741
		c1.6946411-3.4906006,3.286911-6.8447266,4.776825-10.0623779c1.4909515-3.219696,2.7089386-6.0144501,3.6591339-8.3852844
		c-1.1528473-1.287262-1.7277222-2.9477692-1.7277222-4.9805145c0.0682373-1.0835724,0.3908386-2.0844269,0.9657135-2.9984283
		c0.5748749-0.9150543,1.4382172-1.3720551,2.5910645-1.3720551c0.8798828,0,1.5250702,0.202652,1.9314117,0.6089935
		c0.6772308-2.0327301,1.4899139-4.1822968,2.4390717-6.4538879c0.9481201-2.2695007,2.0999451-4.8616028,3.4564819-7.7752533
		c0.202652-0.3381042,0.338089-0.6100311,0.4063416-0.8137207c-1.6264038,0.6782684-3.4730225,2.102005-5.5398865,4.269165
		c-2.0668488,2.1692047-4.014801,4.609314-5.8438568,7.3182526v-1.8290405
		c1.4899139-2.5062866,3.3365479-4.8285217,5.5398865-6.9625854c2.2002258-2.1351013,4.3529053-3.6084747,6.4538727-4.4211578
		c1.6925812-4.5390167,3.7935486-9.2651825,6.3018951-14.1795197c2.5062866-4.9122772,5.1831665-9.4171753,8.0296173-13.5177917
		c2.8454285-4.0995941,5.6412048-7.4030457,8.3852997-9.9103699c2.7440948-2.5062714,5.1655884-3.7604523,7.2675934-3.7604523
		c1.4227142,0,2.5735016,0.4570007,3.4554443,1.3720398c0.8798981,0.9150391,1.3213806,2.0503235,1.3213806,3.4047852
		c-0.0682373,2.5755615-1.1352692,5.7931976-3.2021179,9.6560059c-2.0678864,3.8628235-4.6413879,7.7597656-7.7246094,11.6887512
		c-3.084259,3.9310608-6.1157837,7.3017273-9.0966492,10.1130219c-2.9829254,2.8123322-5.2524414,4.4211426-6.8095551,4.8285217
		c-0.4756165,1.3554993-1.5250702,4.1337128-3.151474,8.3346252c-1.2882843,3.1173553-2.5579681,6.3360138-3.8111115,9.6549835
		c-1.2552185,3.3210297-2.2870941,6.2005615-3.1007996,8.6396484c1.3554993,0,2.694458-0.3711853,4.014801-1.1177063
		c1.3213806-0.7444305,2.6262207-1.7442627,3.9134827-2.9984283c1.2862244-1.2531433,2.4390717-2.5238647,3.4564819-3.8111267
		c1.0163727-1.287262,2.1671448-2.8112946,3.4554443-4.574173c0.8126831-1.0835724,1.422699-1.8962555,1.8290405-2.4390717
		v1.8290405C232.2595367,242.1765594,231.0725708,243.8691254,229.990036,245.2918396z M233.089798,219.983963
		c2.5414429-3.0501404,5.166626-6.674118,7.8776245-10.8760681c2.7089386-4.2009125,4.9794922-8.1474915,6.8095703-11.840744
		c1.8290405-3.6932373,2.7440948-6.3525543,2.7440948-7.9789429c0-0.8137207-0.1695709-1.474411-0.5076752-1.9820709
		c-0.3401642-0.5087128-0.881958-0.7620239-1.6263885-0.7620239c-1.5602264,0-3.3034668,1.2696838-5.2348633,3.8111267
		c-1.9314117,2.5414276-3.8618011,5.7931824-5.7931976,9.7573395c-1.9314117,3.9641418-3.7614899,8.1660919-5.489212,12.6037903
		c-1.7277222,4.4387207-3.2362518,8.588974-4.5224762,12.4507599
		C228.6334991,224.760788,230.5483704,223.0330658,233.089798,219.983963z"/>
	<path style="fill:#FFFFFF;" d="M240.5083618,230.655304c-1.4578705,1.8300934-3.2372894,4.236084-5.3361969,7.2169495
		c-0.6782684,1.0163574-1.220047,1.7959595-1.6263885,2.337738v-1.8290405
		c1.7608032-2.7782135,3.9289856-5.8779755,6.5045471-9.3003387c2.5745239-3.4213257,4.9463959-6.284317,7.1156006-8.5889893
		c1.9644928,0,3.946579-0.0506592,5.946228-0.1519775c1.9975739-0.1023712,3.8772888-0.2874451,5.6401672-0.5593719
		c-0.746521,0.9491577-2.0503235,2.9477844-3.9124451,5.9968872c-1.8652496,3.0491028-3.8473206,6.5221252-5.946228,10.4180298
		c-2.1009674,3.8969421-3.8462677,7.3027496-5.2348633,10.2153778c-1.3896179,2.9136505-2.0833893,4.776825-2.0833893,5.5895081
		c0,0.6100159,0.3711853,0.9150391,1.117691,0.9150391c0.9481201,0,2.0999451-0.5242157,3.4564819-1.5757294
		c1.3544617-1.0494537,2.810257-2.3884125,4.3704834-4.0148163c1.5581512-1.6263885,2.9808655-3.2517548,4.2691498-4.8781586
		c1.2862396-1.6263885,2.2353973-2.9808502,2.8454132-4.0654602v1.8290405
		c-0.6782532,1.08461-1.6439667,2.4235687-2.89711,4.0148163c-1.2541656,1.5933075-2.6768799,3.1855774-4.2681274,4.776825
		c-1.5933075,1.5933075-3.1690369,2.9146881-4.7271881,3.9641418c-1.5591888,1.0515289-2.9467468,1.5757294-4.1667938,1.5757294
		c-1.8983307,0-3.3717041-0.6937714-4.4211578-2.0833893c-1.0515137-1.3885956-1.5757294-3.1338959-1.5757294-5.2348633
		c0-1.9645081,0.6761932-4.6755066,2.0327301-8.1309509c1.3544769-3.4564819,3.354126-7.181778,5.9968872-11.181076
		C242.9980927,227.9112244,241.9641571,228.8262634,240.5083618,230.655304z"/>
	<path style="fill:#FFFFFF;" d="M288.7367249,225.4721375c3.9289856-3.8628082,7.0132446-5.7931824,9.2496643-5.7931824
		c1.8290405,0,3.2011108,0.7620087,4.1161499,2.2860413c0.9150391,1.5250702,1.3720398,3.4399414,1.3720398,5.743576
		c0,2.6427612-0.6276245,5.2183075-1.8807373,7.7245941c-1.2541809,2.5073242-3.0325623,5.3868561-5.3351746,8.6396484
		c-1.4919739,2.16922-2.5765991,3.879364-3.2527771,5.1325073c-0.6782837,1.2541656-1.0163879,2.3553162-1.0163879,3.3034515
		c0,0.6782684,0.5076904,1.0163727,1.5240479,1.0163727c0.8798828,0,2.0327454-0.4735565,3.4564819-1.4227142
		c1.422699-0.9481354,2.9126282-2.1857605,4.4718018-3.7097931c1.5581665-1.5250702,3.0656433-3.1845551,4.5234985-4.9805145
		c1.4558105-1.7949371,2.6582947-3.4719849,3.6074524-5.0311737v1.8290405
		c-0.9491577,1.4909515-2.0834045,3.0666809-3.4047852,4.7261658c-1.3213806,1.6615448-2.7285767,3.2197113-4.2174683,4.6755066
		c-1.4919739,1.4578552-3.0160217,2.6427612-4.5741577,3.5578003c-1.5592041,0.9150391-2.9829407,1.3720398-4.269165,1.3720398
		c-0.6100159,0-1.2366028-0.0682373-1.8807373-0.2036896c-0.644165-0.1344147-1.3048401-0.4570007-1.9810486-0.9656982
		c-0.6782532-0.5076752-1.2552185-1.3038025-1.7287598-2.3884125c-0.4745789-1.0825348-0.7113647-2.472168-0.7113647-4.1667938
		c0-2.9126282,0.6772461-5.7084198,2.0327454-8.3852997c1.3554993-2.6758423,3.2858887-5.7766571,5.79422-9.3003387
		c1.4227295-1.8962555,2.4545898-3.4047699,3.0997925-4.5234985c0.6430969-1.1177063,0.9656982-2.0834045,0.9656982-2.8960876
		c0-0.5417938-0.3732605-0.8137207-1.1187439-0.8137207c-1.152832,0-2.829895,0.9501953-5.0311584,2.8464508
		c-2.202301,1.8972931-4.6413879,4.4056396-7.3172302,7.5209198c-2.6779175,3.1173401-5.4220276,6.6751556-8.2333069,10.6723785
		c-2.8123474,3.9992981-5.3031006,7.8952026-7.4702454,11.6887512c-0.5438538,0-1.2552185,0.0351562-2.1351013,0.1013336
		c-0.8809204,0.0692749-2.1009827,0.1705933-3.6591492,0.3050079c-1.5591736,0.1364746-2.7947388,0.2708893-3.7097778,0.4073792
		c-0.9150391,0.1344147-1.6439819,0.235733-2.1847229,0.3050079c0.7444458-1.0835724,2.0834045-3.2527924,4.014801-6.5055847
		c1.9303589-3.2527924,3.8617859-6.6224213,5.7931824-10.1130066c1.931427-3.489563,3.5578003-6.6575775,4.8792114-9.5040283
		c1.320343-2.8454132,1.9810181-4.776825,1.9810181-5.7931976c0-0.7444305-0.237793-1.117691-0.7113342-1.117691
		c-0.6782837,0-1.677063,0.6265717-2.9984436,1.879715c-1.3213806,1.2552032-2.7616882,2.8133545-4.3198242,4.6754913
		c-1.5592041,1.8652496-3.1349182,3.8628235-4.7261658,5.9968872c-1.5922852,2.1351013-2.964325,4.1171722-4.1161499,5.9462128
		v-1.8290405c1.151825-1.7618408,2.5414429-3.7439117,4.1668091-5.946228
		c1.6264038-2.2012634,3.2858887-4.2691498,4.9804993-6.2005615c1.6936035-1.9314117,3.4213257-3.5391998,5.1842041-4.8274841
		c1.7608032-1.2862396,3.3189697-1.9314117,4.6755066-1.9314117c1.422699,0,2.4390869,0.627594,3.0491028,1.8807373
		c0.6100159,1.2541809,0.9150391,2.6934357,0.9150391,4.3198242c0,1.7628784-0.4239197,4.0148163-1.2707214,6.7588959
		c-0.8478394,2.7440948-1.8807373,5.6412048-3.099762,8.6903076
		C280.638855,234.5532837,284.8056641,229.3349609,288.7367249,225.4721375z"/>
	<path style="fill:#FFFFFF;" d="M316.5343323,230.655304c-1.4578552,1.8300934-3.2372742,4.236084-5.3361816,7.2169495
		c-0.6782837,1.0163574-1.2200623,1.7959595-1.6264038,2.337738v-1.8290405
		c1.7608032-2.7782135,3.9289856-5.8779755,6.5045471-9.3003387c2.5745239-3.4213257,4.9463806-6.284317,7.1156006-8.5889893
		c1.9645081,0,3.9465637-0.0506592,5.946228-0.1519775c1.9975891-0.1023712,3.8772888-0.2874451,5.6401672-0.5593719
		c-0.746521,0.9491577-2.0503235,2.9477844-3.9124451,5.9968872c-1.8652344,3.0491028-3.8473206,6.5221252-5.946228,10.4180298
		c-2.1009521,3.8969421-3.8462524,7.3027496-5.2348633,10.2153778c-1.3896179,2.9136505-2.0834045,4.776825-2.0834045,5.5895081
		c0,0.6100159,0.3712158,0.9150391,1.1177063,0.9150391c0.9481201,0,2.0999451-0.5242157,3.4564819-1.5757294
		c1.3544617-1.0494537,2.8102722-2.3884125,4.3704834-4.0148163c1.5581665-1.6263885,2.9808655-3.2517548,4.269165-4.8781586
		c1.2862244-1.6263885,2.2353821-2.9808502,2.8453979-4.0654602v1.8290405
		c-0.6782532,1.08461-1.6439514,2.4235687-2.8970947,4.0148163c-1.2541809,1.5933075-2.6768799,3.1855774-4.2681274,4.776825
		c-1.5933228,1.5933075-3.1690369,2.9146881-4.7272034,3.9641418c-1.5591736,1.0515289-2.9467468,1.5757294-4.1668091,1.5757294
		c-1.8983154,0-3.3716736-0.6937714-4.4211426-2.0833893c-1.0515137-1.3885956-1.5757141-3.1338959-1.5757141-5.2348633
		c0-1.9645081,0.676178-4.6755066,2.0327148-8.1309509c1.3544617-3.4564819,3.354126-7.181778,5.9968872-11.181076
		C319.0240784,227.9112244,317.9901123,228.8262634,316.5343323,230.655304z"/>
	<path style="fill:#FFFFFF;" d="M343.9266357,226.2848206c-1.0163574,1.2200623-2.1857605,2.6934357-3.5071411,4.4221802
		c-1.3213806,1.7277222-2.5921021,3.4730225-3.8111267,5.2338409c-1.2200623,1.7628784-2.2033386,3.1855774-2.9477844,4.2691498
		v-1.8290405c0.5418091-0.8798981,1.2707214-1.9820709,2.1857605-3.3034515
		c0.914032-1.3213959,2.0327454-2.8795471,3.354126-4.6755066c1.3213806-1.7949219,2.759613-3.7263336,4.3187866-5.79422
		c1.5581665-2.0658264,2.5745239-3.4378815,3.0501404-4.1161499c2.7089539-3.6591187,4.3704834-5.8955536,4.9805298-6.7082214
		c1.0163574-1.8290558,1.9810181-3.5733185,2.8970947-5.2348633c0.9140015-1.6594849,1.9645081-3.5061188,3.1494141-5.5388489
		c1.1848755-2.0327301,2.3718567-4.0478973,3.5588379-6.0475464c1.184906-1.9986115,2.2870789-3.7769928,3.3023987-5.3361816
		c1.0174255,0,2.6076355-0.1178741,4.776825-0.3556824c2.16922-0.2367706,3.6932678-0.4911194,4.5741882-0.7630463
		c-0.5438538,0.8819427-1.2200623,2.0327301-2.0327454,3.4564667c-0.8126831,1.4227142-1.5922546,2.7792511-2.3367004,4.0654755
		c-1.8983459,3.4554443-3.2528076,5.8283539-4.0675354,7.1145782h9.1483459v3.3375702h-9.7563171
		c-0.9512329,1.8290558-2.4752808,2.5579834-4.5741882,6.4197693c-2.7792358,5.2193451-4.9980774,9.4192352-6.6585999,12.6037903
		c-1.6605225,3.1855774-3.3375549,6.4714508-5.0311584,9.8596954c-1.6946411,3.3882446-3.0666809,6.3184357-4.1161499,8.7916412
		c-1.0515137,2.4742279-1.5757141,4.1843719-1.5757141,5.1324921c0,1.2200623,0.3721924,1.8300934,1.1187134,1.8300934
		c0.6762085,0,1.5581665-0.389801,2.6427612-1.1694031c1.08255-0.7775269,2.3377686-1.8455811,3.7604675-3.2010956
		c2.7089233-2.7781982,5.6225891-6.2336426,8.7409668-10.3673553v1.8290405
		c-2.9819031,4.2019501-5.9296875,7.6408539-8.8422852,10.3167114c-2.9147034,2.6779175-5.1842041,4.014801-6.8106079,4.014801
		c-1.8972778,0-3.4554443-0.8292236-4.6755066-2.4907684c-1.2190247-1.6594849-1.8290405-3.4709625-1.8290405-5.4375153
		c0-1.8962555,0.5748596-4.2174683,1.7277222-6.9625854c1.1507874-2.7440948,2.9126282-6.4538879,5.2855225-11.1293945
		c1.2862244-2.6427612,1.9975891-4.0654602,2.1340637-4.2691498
		C345.6543579,224.3885651,344.9429932,225.0657959,343.9266357,226.2848206z"/>
	<path style="fill:#FFFFFF;" d="M386.1064148,242.3440552c-1.4909363,1.8300781-2.7937012,3.3386078-3.9124451,4.5235138
		c-1.1187134,1.1859283-2.3036194,2.3377533-3.5567627,3.4554443c-1.2552185,1.1187286-2.4752808,2.0327301-3.6601562,2.7451172
		c-1.184906,0.7113647-2.2871094,1.0670319-3.3024292,1.0670319c-1.4909363,0-2.7626953-0.5417786-3.8111267-1.6263885
		c-1.0525513-1.0835724-1.5757141-2.8795319-1.5757141-5.3868561c0-1.0163727,0.0496216-1.9314117,0.1530151-2.7440948
		c0.1013184-0.8137054,0.3370667-1.7287445,0.7113342-2.7451172c0.3701782-1.0163727,0.9305725-2.2178192,1.677063-3.6074371
		c0.7444458-1.3885803,1.8280334-3.1338806,3.2507324-5.2348633c0.5417786-0.8798828,1.7618408-2.3708344,3.6601562-4.4728394
		c1.3544922-1.5571289,2.4049683-2.8102722,3.1514893-3.7604675c0.7444153-0.9481201,1.1166382-1.6263885,1.1166382-2.0327301
		c0-1.08255-0.5066223-1.6264038-1.5240173-1.6264038c-1.0153503,0-2.3222656,0.6276093-3.9124451,1.8807526
		c-1.5943604,1.2541809-3.2879639,2.8299103-5.0828857,4.7261658c-1.7969971,1.8983154-3.5919189,3.9641418-5.3868408,6.2005615
		c-1.7969971,2.2353973-3.4740601,4.4046021-5.031189,6.5045471v-1.8290405
		c1.7618408-2.3718719,3.4554443-4.5390167,5.0828857-6.5055847c1.6253357-1.9644928,3.3540955-3.9134827,5.1821289-5.8438568
		c1.8300781-1.9314117,3.5919189-3.5071411,5.2855225-4.7261658c1.6936035-1.220047,3.1163025-1.8300781,4.2702026-1.8300781
		c1.6253357,0,2.878479,0.492157,3.7593994,1.4733734c0.8809204,0.9832764,1.3213806,2.4576874,1.3213806,4.4221802
		c0,1.9655304-0.492157,4.1006165-1.4723206,6.4032135c-0.984314,2.3046722-2.3222351,4.6424255-4.0158386,7.0132599
		c-0.2709045,0.3391266-0.6782837,0.8809204-1.2200623,1.6263885c-0.8809204,1.2190247-1.677063,2.3377533-2.3884277,3.354126
		c-0.7113342,1.0163574-1.422699,2.0678864-2.1340637,3.1504211c-0.7113342,1.08461-1.288269,2.0678864-1.7287292,2.9477844
		c-0.4404602,0.8809204-0.659668,1.5591888-0.659668,2.0327301c0,0.6782684,0.405304,1.0163727,1.2200623,1.0163727
		c1.1497498,0,2.9301758-1.0494537,5.335144-3.1504364c2.4049683-2.0999451,5.0477295-4.8285217,7.9282837-8.1826324
		c2.8785095-3.354126,5.6246643-6.8095703,8.2322693-10.3673706c2.607605-3.556778,4.6589661-6.6575775,6.1499023-9.3003387
		c0.4735413-0.0661774,1.5571289-0.1344147,3.2528076-0.202652c1.8962402-0.0671997,3.3706665-0.1354523,4.4211426-0.2036896
		c1.0504761-0.0661774,1.9128113-0.1685333,2.5910645-0.3050079c-0.6100159,1.0163574-1.3379211,2.2364197-2.1836853,3.6591339
		c-0.8478394,1.422699-2.5249023,4.2691498-5.031189,8.5383148c-3.1183777,5.3537598-5.4385376,9.2993011-6.9625854,11.8407288
		c-1.5260925,2.5414429-2.7626953,4.5917511-3.7097778,6.14888c1.2179871-0.3381042,2.5910645-0.9987946,4.1150818-1.9810486
		c1.526123-0.9822388,3.0501404-2.1175079,4.5741882-3.4058075c1.5240173-1.2862244,2.9136658-2.6251831,4.1668091-4.014801
		c1.2531128-1.387558,11.6339417-13.1786652,12.3121948-14.1950378L421,226.2341614
		c-0.6782532,0.9501953-15.2941284,18.1612396-16.5472412,19.447464c-1.2531433,1.2882996-2.6427917,2.559021-4.1668091,3.8111267
		c-1.5240479,1.2552185-3.099762,2.3729095-4.7251282,3.3551483c-1.6274414,0.982254-3.1183777,1.6429443-4.4728394,1.9810486
		c-2.8454285,5.4891968-5.4551086,8.0626831-7.8269653,11.9606628c-2.3718872,3.8948669-4.8119812,7.3513489-7.3182678,10.3684082
		c-2.5062866,3.0108337-5.1676636,5.3516846-7.9779358,7.0101624c-2.8123169,1.6625671-5.7776794,2.4897156-8.8939819,2.4897156
		c-2.7771912,0-4.7602844-0.6410217-5.946228-1.9272766c-1.184906-1.2903442-1.7783813-3.2548523-1.7783813-5.8976135
		c0-4.2681274,2.6086426-8.3335876,7.8259277-12.1964111c5.2172852-3.8617859,12.1964111-7.3865051,20.9374084-10.5710449
		c0.8147278-1.4227142,1.7949219-3.2011108,2.9487915-5.3351593c1.151825-2.1351013,1.931427-3.5402374,2.336731-4.2185059
		c2.5745239-4.6754913,4.0654602-7.4195862,4.4728394-8.2333069
		C389.2578735,238.8886108,388.0026855,240.2451477,386.1064148,242.3440552z M362.1705933,284.5238342
		c1.3875732-1.0132446,2.8805847-2.6096802,4.4728394-4.776825c1.59021-2.1671448,3.3706665-4.9960022,5.3351746-8.4855652
		c1.9644775-3.4906006,4.4046021-8.0472107,7.3182678-13.6708374c-3.5919495,1.2200623-6.9625854,2.8288879-10.1119995,4.8274841
		c-3.1514587,1.9986267-5.9141541,4.1678467-8.2839661,6.5055847c-2.3718567,2.3377686-4.2019348,4.6579285-5.4881897,6.9605103
		c-1.288269,2.3036499-1.9334717,4.3053589-1.9334717,5.9968872c0,1.2862244,0.4425354,2.3036499,1.3234558,3.0522156
		c0.8809204,0.7444458,1.9313965,1.1166687,3.1493835,1.1166687
		C359.3748169,286.0499573,360.7809753,285.5412598,362.1705933,284.5238342z"/>
</g>
<g>
	<path style="fill:#FFFFFF;" d="M271.4185486,261.5336304c0.241333,0.0696411,0.4370728,0.2368164,0.5149231,0.4812622
		c0.1054993,0.3314514-0.0488892,0.6334534-0.2814026,0.8591614c-0.1268311,0.1231995-0.2753601,0.2324219-0.4217529,0.3313904
		c-0.0831909,0.0562744-0.1680603,0.1103516-0.2537842,0.1626282c-2.2143555,1.4320984-5.2489624,1.3248901-7.7628479,1.012207
		c-1.1986694-0.1491089-2.3866577-0.3624268-3.5756531-0.5727539c-0.9779663-0.1730042-1.9867249-0.360199-2.9764099-0.4410706
		c-2.2515869-0.184082-4.5040131-0.3915405-6.7578278-0.5428772c-2.4794159-0.1665344-4.948822-0.2376709-7.4335938-0.2581177
		c-3.3800507-0.027832-7.1837158,0.5433044-10.2364044,2.06427c-0.9611816,0.4788818-2.0002136,1.1331787-2.7116699,1.949585
		c-0.3963928,0.454834-0.7948151,1.0897522-0.7128296,1.7218018c0.1008911,0.7778931,0.9078522,1.3053284,1.5542297,1.6113281
		c1.504837,0.7124023,3.5643768,0.9507751,5.2075195,1.0385132c1.9972229,0.1066284,4.0153961,0.0446167,6.0090027-0.1030273
		c2.2687378-0.1680298,4.5327759-0.4516602,6.7804108-0.8007507c4.960434-0.7704468,9.8966217-1.8616028,14.766983-3.0723877
		c4.5137634-1.1221008,8.9980774-2.3634338,13.4663086-3.6539612c3.8869324-1.1226196,7.7602539-2.2892456,11.6426697-3.4268799
		c6.8192139-1.99823,13.9969788-3.4815674,21.1107483-3.7976379c2.75-0.1221924,5.520752-0.0688477,8.2578125,0.2369995
		c2.2792664,0.2546997,4.5547791,0.6868591,6.7472534,1.3666382c3.3020935,1.0239868,6.6392822,2.693512,9.0053406,5.2713013
		c1.8260803,1.989502,3.0046387,4.4898071,2.9390564,7.2269287c-0.067688,2.8361511-1.4437866,5.3378906-3.4581909,7.2738037
		c-2.6123047,2.5106201-6.1768494,4.0113525-9.6603394,4.8348999c-5.030426,1.189209-10.4697571,1.1466064-15.574707,0.5204468
		c-7.2906189-0.8942871-14.545166-3.0385742-21.3707581-5.7073059l-0.0114746-0.0044861l-0.011322-0.0049438
		c-0.1127319-0.0492554-0.2234802-0.1020508-0.3295898-0.1644897c-0.372345-0.2190247-0.664917-0.5668945-0.5875854-1.0268555
		l0.0041504-0.0247498l0.006134-0.024353c0.1330261-0.5292358,0.7792358-0.5993347,1.219635-0.7134094l0.0326843-0.0085144
		l0.0334778-0.0049133c3.5135803-0.5186157,6.9963684-0.4911499,10.5293884-0.235321
		c3.2342224,0.2341309,6.4533386,0.6410828,9.6864929,0.8934021c3.4203186,0.2669983,6.8050537,0.3475952,10.2252197,0.0122986
		c1.2369995-0.1212463,2.4775085-0.2085571,3.713562-0.3352051c1.0379028-0.1063843,2.0760498-0.2452698,3.0892639-0.5003967
		c1.8511963-0.4662476,3.3822327-1.282135,4.8935852-2.4410706c0.5350342-0.4102478,1.4941406-1.240387,1.3355713-2.0245056
		c-0.2499084-1.2357788-2.9104309-2.1600342-3.9437256-2.4743042c-0.8079224-0.245697-1.6360168-0.4438171-2.4656677-0.6009827
		c-0.6183777-0.1171875-1.2632751-0.2213135-1.8913879-0.2689514c-0.8304443-0.0629272-1.6973572-0.0333862-2.5282288,0.0150146
		c-1.1240234,0.0655212-2.2489014,0.1802368-3.3666687,0.3147583c-2.6992188,0.3248291-5.3971252,0.7706909-8.0710449,1.2606812
		c-2.4935913,0.4569702-4.9812622,0.960022-7.456604,1.5074768c-1.8997498,0.420166-3.8121033,0.8617249-5.6885376,1.3768005
		c-4.1161499,1.1298218-8.2037964,2.3726196-12.3088074,3.5437012c-2.3652954,0.6747437-4.7373352,1.3309937-7.1224976,1.9321899
		c-2.1947937,0.5532227-4.4101257,1.0655212-6.6384583,1.4651184c-2.5911865,0.4646301-5.1770325,0.9564819-7.7675781,1.4237366
		c-2.0830994,0.3757629-4.1702881,0.7308044-6.2705383,0.9976501c-2.2290802,0.2832031-4.4551544,0.4577942-6.7007904,0.5358276
		c-2.8615875,0.0993958-5.7325592,0.0560608-8.5936584-0.0412292c-2.9420929-0.1000671-6.0818481-0.8531189-8.7983398-1.9718933
		c-5.4979553-2.2643738-10.69104-6.6919556-9.3563385-13.2477417c1.8979187-9.3225403,15.5298309-10.8570709,23.2367554-10.7447052
		c2.8380585,0.0413513,5.6503601,0.3261871,8.4446564,0.8199005c2.6323395,0.4650879,5.22258,1.109314,7.7917633,1.8434143
		C264.2048645,259.238678,267.7935181,260.4473267,271.4185486,261.5336304L271.4185486,261.5336304z"/>
</g>
<line style="fill:none;stroke:#FFFFFF;stroke-width:5;stroke-miterlimit:10;" x1="236" y1="304" x2="441" y2="304"/>
<text transform="matrix(1 0 0 1 247.9238281 356.1005859)" style="fill:#FFFFFF; font-family:'AmericanTypewriter'; font-size:60px;">MENU</text>
</svg>
