<?xml version="1.0" encoding="utf-8"?>
<!-- Generator: Adobe Illustrator 23.1.0, SVG Export Plug-In . SVG Version: 6.00 Build 0)  -->
<svg version="1.1" id="Слой_1" xmlns="http://www.w3.org/2000/svg" xmlns:xlink="http://www.w3.org/1999/xlink" x="0px" y="0px"
	 viewBox="0 0 1607.5303955 859.3548584" style="enable-background:new 0 0 1607.5303955 859.3548584;" xml:space="preserve">
<path style="fill:#FFFFFF;" d="M1170.1120605,177.4393616c4.6948242-1.9592285,13.9902344,2.015625,17.2875977,5.5446777
	c6.1601563,6.5922852,5.5107422,8.3183594,5.1640625,16.9282227c-0.4619141,11.5041504-11.6352539,22.0771484-23.1396484,21.9702148
	c-16.9384766-0.1574707-23.0478516-6.5698242-22.0234375-23.5390625c0.3691406-6.1096191,4.5083008-9.7089844,8.5620117-13.7001953
	c2.2270508-2.1928711,4.5473633-4.3188477,7.6000977-5.2387695c0.9316406-0.2807617,1.8925781-0.4665527,2.8349609-0.7084961
	C1167.6750488,178.3688049,1168.8947754,177.9474182,1170.1120605,177.4393616L1170.1120605,177.4393616z M860.935791,174.473053
	c0.6894531-0.4118652,1.4248047-0.7390137,2.1918945-0.9782715c6.3696289-1.9833984,13.4936523,2.267334,17.7319336,6.7519531
	c3.5029297,3.706543,6.3505859,8.8293457,6.1757813,14.0620117c-0.3964844,11.8522949-10.0917969,20.1362305-20.5400391,23.8374023
	c-2.4882813,0.8815918-5.1103516,1.135498-7.7236328,0.7753906c-9.90625-1.3652344-17.6513672-10.9365234-17.6855469-20.8100586
	c-0.0195313-5.6333008,1.4775391-10.5571289,5.5288086-14.5874023
	C850.6281738,179.5318909,856.1350098,177.3424377,860.935791,174.473053L860.935791,174.473053z M300.295166,255.1000061
	c0.2822266-0.0866699,0.5244141-0.166748,0.6816406-0.220459c1.8222656-0.6259766,3.6303711-1.4379883,5.3671875-2.2717285
	c1.7827148-0.8562012,3.5439453-1.7736816,5.2705078-2.7380371c1.0688477-0.5961914,2.2392578-1.2438965,3.2446289-1.9428711
	c10.8916016-7.576416,18.0498047-20.418457,19.6914063-33.5036621c0.90625-7.2248535-0.4838867-19.793457,7.2485352-23.677002
	l0.765625-0.3847656l0.828125,0.2194824c0.9746094,0.2583008,1.8828125,0.6848145,2.7001953,1.2751465
	c4.6943359,3.3898926,5.1318359,11.1728516,4.9267578,16.4333496c-0.1713867,4.4030762-0.8686523,9.4624023-2.0703125,13.7160645
	c-0.7133789,2.5266113-1.3901367,5.0634766-2.1083984,7.5881348c-0.5429688,1.9074707-1.1171875,3.8044434-1.8310547,5.6560059
	c-1.7822266,4.6259766-4.496582,8.8964844-7.1928711,13.0332031c-4.6455078,7.1264648-13.0581055,13.4626465-20.4208984,17.5742188
	c-5.2954102,2.9570313-10.5390625,4.8608398-16.4550781,6.1115723c-2.0131836,0.4260254-4.0405273,0.7614746-6.0556641,1.170166
	c-1.2036133,0.2436523-2.4404297,0.5217285-3.6142578,0.9272461c-5.3212891,14.7126465-25.8461914,37.7910156-38.3222809,46.1455078
	c-15.8676758,10.6259766-40.8188477,25.3154297-60.3032227,24.9780273
	c-2.8618164-0.0495605-5.8359375,0.4008789-8.6699219,0.7814941c-3.4228516,0.4602051-6.8232422,0.8793945-10.2851563,0.8479004
	c-3.1655273-0.0283203-6.5004883-0.3259277-9.65625-0.6044922c-1.9057617-0.1679688-3.8129883-0.3554688-5.7124023-0.5834961
	c-1.3881836-0.1665039-2.8564453-0.3425293-4.2211914-0.6445313c-5.6889648-1.2592773-10.8833008-2.9042969-16.0361328-5.6525879
	c-4.480957-2.3898926-8.7431641-5.3933105-13.0029221-8.1618652c-3.34375-2.1730957-6.2763672-4.90625-8.7294922-8.046875
	c-11.8286133-15.1425781-12.0107422-38.9165039,2.1977539-52.6484375
	c6.2978516-6.0859375,14.5527267-9.7753906,23.3549728-9.8632813c7.5791016-0.0756836,15.2792969,2.6174316,20.4350586,8.3276367
	c5.5932617,6.1953125,6.7539063,14.269043,4.7954102,22.199707c-1.293457,5.2390137-3.8188477,9.513916-8.6523438,12.1455078
	c-5.730957,3.1196289-12.6005859,2.9511719-18.5839844,5.3833008c-2.171875,0.8825684-5.3793945,2.5910645-5.6943359,5.2329102
	c-0.3925781,3.2983398,3.5537109,6.7827148,5.9125977,8.4743652c5.1552734,3.697998,11.8945313,6.0778809,18.0761719,7.2993164
	c7.9125977,1.5627441,16.2202148,1.5300293,24.0917969-0.2663574c9.0844727-2.0732422,17.2138672-6.3984375,24.0332031-12.7512207
	c10.8574219-10.114502,19.9467773-22.1252441,25.6308594-35.8972168c0.734375-1.7790527,1.5024414-3.5410156,2.2475586-5.3144531
	c0.0737305-0.1743164,0.1870117-0.4326172,0.3046875-0.7133789c-0.2426758-0.0344238-0.4853516-0.0712891-0.7270508-0.1132813
	c-1.6611328-0.2866211-3.2426758-0.769043-4.7929688-1.4311523c-1.8081055-0.7724609-3.6621094-1.3920898-5.5219727-2.0249023
	c-3.4135742-1.1606445-6.4726563-2.3442383-9.5688477-4.2419434c-4.4116211-2.7045898-7.8134766-6.3327637-11.8349609-9.4870605
	c-6.0253906-4.7265625-15.2822266-21.2954102-15.5825195-28.9621582c-0.0893555-2.2868652-0.4194336-4.503418-0.7626953-6.760498
	c-0.6850586-4.5012207-1.0302734-8.2705078-0.4960938-12.8452148c1.8671875-16.0039063,9.7651367-31.8720703,21.1240234-43.2788086
	c7.1943359-7.2246094,14.59375-14.1245117,22.8671875-20.1120605c8.2802734-5.9929199,17.1831055-10.8981934,26.2709961-15.5412598
	c4.4155426-2.2558594,9.046402-4.2451172,13.640152-6.1081543c5.5751953-2.2614746,11.2319336-4.3554688,16.9257813-6.3000488
	c5.8691406-2.0041504,11.8144531-3.8662109,17.8076172-5.4621582c14.0639648-3.7436523,43.6323242-8.8273926,58.4345703-9.7736816
	c3.6298828-0.2321777,7.2724609-0.3803711,10.909668-0.4169922c4.0932617-0.0415039,8.340332,0.0288086,12.4047852,0.5263672
	c2.6464844,0.3237305,6.7641602,0.9848633,8.6494141,3.0429688c1.5297852,1.6679688,2.7104492,3.8823242,1.8823242,6.175293
	c-1.5307617,4.2368164-9.0244141,5.215332-12.9448242,5.2607422c-4.9282227,0.0576172-9.3291016,3.3637695-13.1289063,6.1743164
	c-3.6738281,2.7167969-7.2626953,7.0332031-10.0849609,10.6181641c-2.9140625,3.7021484-5.6420898,7.5510254-8.3095703,11.4331055
	c-11.722168,17.0600586-19.9677734,35.9445801-28.484375,54.7121582c-1.5649414,3.4494629-3.015625,7.013916-4.4838867,10.5075684
	c-2.5737305,6.1220703-5.1269531,12.2539063-7.6660156,18.390625c-2.6601563,6.4291992-5.309082,12.8647461-7.9101563,19.317627
	c-0.909668,2.2565918-1.8164063,4.5161133-2.6943359,6.7851563
	C300.3679199,254.9120178,300.3317871,255.006012,300.295166,255.1000061L300.295166,255.1000061z M336.9968262,121.7677307
	c-1.3549805,0.2416992-2.5512695,0.494873-3.1098633,0.6186523c-5.6591797,1.253418-11.3256836,2.9230957-16.8540039,4.6586914
	c-17.996582,5.6503906-28.2998047,9.5480957-44.2475586,20.5356445
	c-7.2143555,4.9711914-13.8891602,10.5290527-20.1689606,16.6357422
	c-5.8818359,5.7192383-11.4458008,11.6223145-16.3984375,18.1733398
	c-4.8432617,6.4052734-8.9907227,13.2524414-12.9536133,20.2263184c-3.4985352,6.1574707-5.9311523,13.6477051-7.0336914,20.6271973
	c-1.2788086,8.1049805-1.0834961,17.7915039,3.5415039,24.8884277c0.9023438,1.3840332,1.9633789,2.6499023,3.1791992,3.769043
	c0.9633789,0.8864746,2.3300781,1.7502441,3.4453125,2.4333496c1.7807617,1.0908203,3.6513672,2.0854492,5.5537109,2.9477539
	c2.0102539,0.9116211,4.3076172,1.8005371,6.4882813,2.1748047c0.815918,0.1396484,2.6376953,0.3505859,3.3388672-0.2443848
	c0.2021484-0.1711426,0.3007813-0.4304199,0.3598633-0.6818848c3.3339844-14.1733398,23.589859-53.5695801,34.0566559-69.3657227
	c17.8276367-26.9052734,29.7070313-45.4624023,56.4003906-64.3005371
	C334.0603027,123.8297424,335.529541,122.8006897,336.9968262,121.7677307L336.9968262,121.7677307z M1373.7297363,348.9044495
	c-3.7895508,3.3188477-7.7939453,6.435791-11.9658203,9.2397461c-9.7373047,6.5449219-23.7568359,13.5673828-35.765625,10.0625
	c-6.9301758-2.0224609-11.6582031-7.1005859-14.8144531-13.4189453c-1.1904297-2.3842773-2.0712891-4.8994141-2.6503906-7.5004883
	c-2.6767578-12.0258789,1.2197266-25.057373,6.1040039-36.0134277c4.0942383-9.1843262,9.2587891-17.7595215,14.5249023-26.3027344
	c0.765625-1.2416992,3.8134766-6.0432129,5.7451172-9.692627c-0.4277344,0.34375-0.8505859,0.6914063-1.2705078,1.0388184
	c-3.6523438,3.0241699-7.2016602,6.2243652-10.7109375,9.4133301c-9.9897461,9.0756836-19.8027344,18.3676758-29.6616211,27.5861816
	c-8.8383789,8.2644043-17.6982422,16.5393066-26.7441406,24.5769043c-3.5410156,3.1462402-7.1225586,6.2731934-10.7954102,9.2646484
	c-2.4296875,1.9790039-5.1088867,4.137207-7.7988281,5.7463379c-9.0195313,5.3981934-19.8398438,14.104248-30.8046875,13.9262695
	c-12.8886719-0.2092285-25.449707-4.9372559-28.2138672-18.9418945
	c-2.8398438-14.3947754-0.3881836-23.6154785,5.6972656-36.6386719c1.0380859-2.2211914,1.9794922-4.4968262,2.9433594-6.7514648
	c1.1933594-2.7890625,2.4296875-5.697998,3.9257813-8.3354492c0.6113281-1.0759277,1.2143555-2.1594238,1.8110352-3.2463379
	c-1.7915039,1.7299805-3.5698242,3.4750977-5.34375,5.2207031c-2.7563477,2.7119141-5.4995117,5.4365234-8.246582,8.1572266
	c-1.7822266,1.7651367-3.5673828,3.5683594-5.3984375,5.2819824c-4.4350586,4.1501465-8.6259766,8.6140137-12.8598633,12.9699707
	c-4.8530273,4.9921875-9.949707,10.2026367-15.456543,14.4677734c-5.2832031,4.092041-10.3457031,8.4680176-15.684082,12.4848633
	c-5.4501953,4.1013184-11.0327148,7.6379395-17.2895508,10.3942871
	c-14.9243164,6.5744629-34.5302734,5.5371094-42.4760742-10.7871094c-1.3452148-2.7634277-2.1723633-5.7021484-2.5258789-8.7531738
	c-1.4345703-12.4064941,4.9150391-25.112793,9.9775391-36.0544434c1.3554688-2.9311523,2.765625-5.8432617,4.2363281-8.7177734
	c0.4057617-0.7907715,0.8178711-1.5893555,1.2392578-2.3884277c-0.4414063,0.4177246-0.9033203,0.8278809-1.3339844,1.1230469
	c-2.4501953,1.6809082-4.7861328,3.7131348-6.9775391,5.7160645c-2.6835938,2.4523926-5.2744141,5.0178223-7.8256836,7.6071777
	c-4.3583984,4.423584-8.5874023,8.9870605-12.9819336,13.3701172c-9.2744141,9.2504883-19.7197266,17.125-29.8642578,25.3666992
	c-2.6015625,2.1135254-5.4023438,4.0795898-8.2197266,5.894043c-2.84375,1.8317871-5.8691406,3.6235352-8.9448242,5.0371094
	c-3.675293,1.6889648-7.9350586,3.7114258-12.012207,4.0454102c-1.6494141,0.1352539-3.2792969,0.0219727-4.9179688-0.1733398
	c-2.1162109-0.2529297-4.2353516-0.612793-6.3432617-0.9335938c-15.918457-2.4194336-22.4414063-25.4968262-20.9321289-39.1381836
	c1.7246094-15.5849609,11.9326172-29.6728516,21.7021484-41.3779297c3.8876953-4.6574707,7.9296875-9.1796875,11.9257813-13.7426758
	c3.6474609-4.1643066,7.2983398-8.3857422,10.6201172-12.8161621c0.3144531-0.420166,1.0834961-1.4770508,1.6777344-2.4528809
	c-1.2407227,0.4367676-2.6826172,1.1005859-3.2431641,1.3696289c-3.0429688,1.4594727-6.0302734,3.2033691-8.9033203,4.9716797
	c-2.8408203,1.7480469-5.6474609,3.5856934-8.3725586,5.5090332c-1.0405273,0.7341309-2.0756836,1.4841309-3.081543,2.2653809
	c-0.5742188,0.4458008-1.2182617,0.9418945-1.7319336,1.4560547c-9.2436523,9.2382813-18.5092773,18.4541016-27.722168,27.7231445
	c-4.6962891,4.7255859-8.9033203,10.1105957-12.9907227,15.3671875
	c-3.9086914,5.0268555-7.7827148,10.1435547-12.0063477,14.9108887c-1.6582031,1.8718262-3.2226563,4.1032715-4.6782227,6.1391602
	c-2.1567383,3.0148926-4.262207,6.0700684-6.3686523,9.1201172c-2.4501953,3.5483398-4.8935547,7.1113281-7.4160156,10.6083984
	c-0.9575195,1.3271484-1.9296875,2.654541-2.9482422,3.9353027c-0.6503906,0.8183594-1.4482422,1.8178711-2.2587891,2.4763184
	l-0.5859375,0.4760742l-57.5878906,2.201416l-0.1201172-2.2216797c-0.097168-1.7856445,1.9814453-5.0048828,2.9003906-6.4951172
	c2.203125-3.5722656,4.6005859-7.0722656,6.9794922-10.5302734c6.8701172-9.9868164,13.9394531-19.8464355,20.8876953-29.78125
	c6.6826172-9.5571289,13.4160156-19.2282715,19.5791016-29.1286621c2.1591797-3.46875,4.3447266-7.078125,6.1450195-10.7473145
	c0.0722656-0.1472168,0.1743164-0.3583984,0.293457-0.6132813c-0.2148438,0.192627-0.4291992,0.3859863-0.6425781,0.5793457
	c-3.3730469,3.0517578-6.6650391,6.2185059-9.9360352,9.3791504c-9.3276367,9.0131836-18.5327148,18.1606445-27.7905273,27.2460938
	c-8.5576172,8.3977051-17.1411133,16.8022461-25.9121094,24.9770508c-3.347168,3.1196289-6.7348633,6.2270508-10.2158203,9.1992188
	c-2.1376953,1.824707-4.6455078,3.9699707-7.0625,5.4033203c-4.5361328,2.6904297-8.9775391,5.703125-13.7617188,7.9345703
	c-5.7324219,2.6733398-11.3310547,3.8295898-17.6640625,3.6655273c-8.2646484-0.2145996-16.0517578-2.8842773-21.125-9.717041
	c-7.7617188-10.454834-5.9960938-26.1499023-1.7851563-37.6506348c0.9521484-2.5979004,2.0722656-5.1376953,3.3574219-7.5883789
	c2.4101563-4.5976563,4.75-9.2539063,7.1132813-13.8779297c0.3945313-0.7719727,0.7885742-1.5439453,1.1826172-2.3154297
	c-1.2207031,1.3515625-2.4296875,2.7160645-3.6347656,4.0744629c-11.8920898,13.3933105-25.8022461,25.3562012-39.875,36.3913574
	c-6.6035156,5.1772461-13.4443359,10.0908203-20.6308594,14.4301758
	c-16.2573242,9.8156738-34.5615234,16.8154297-53.8393555,14.986084
	c-3.3256836-0.3151855-30.8637695,50.5402832-37.2329102,60.9829102
	c-6.4545898,10.5827637-12.0771484,21.6525879-18.5170898,32.2453613c-0.5600586,0.9204102-1.0615234,1.8637695-1.6069336,2.7893066
	c-1.9985352,3.3903809-4.6435547,3.7937012-8.5292969,4.2714844c-12.0424805,1.0910645-22.3515625,1.5432129-38.3198242,1.4165039
	c7.8173828-14.2834473,14.1616211-28.0930176,22.7270508-42.644043c4.7363281-8.0466309,9.5341797-16.0568848,14.3540039-24.0539551
	c2.7724609-4.6015625,5.6142578-9.1943359,8.3237305-13.8305664c7.4863281-12.8103027,14.9926758-25.6118164,22.2695313-38.5429688
	c0.2441406-0.4345703,2.0043945-3.4294434,1.9736328-3.869873c-0.027832-0.387207-1.9560547-3.2753906-2.2163086-3.6955566
	c-2.3417969-3.7753906-2.340332-11.8684082-0.140625-15.7089844c0.1049805-0.1831055,0.2109375-0.3671875,0.3183594-0.5510254
	c-0.2211914,0.1804199-0.4428711,0.361084-0.6645508,0.541748c-3.9375,3.2050781-7.8964844,6.3725586-11.6518555,9.7929688
	c-11.3530273,10.3393555-36.9584961,24.4291992-52.1269531,26.5629883
	c-5.3041992,0.746582-10.4262695,0.8027344-15.7548828,0.9521484c-2.4985352,0.0700684-4.9848633,0.1862793-7.4682617,0.4550781
	c-6.3544922,8.6899414-12.640625,21.5395508-17.9487305,31.1083984c-3.5678711,6.4306641-7.1220703,12.8701172-10.7314453,19.277832
	c-1.394043,2.4741211-2.7963867,4.9460449-4.2294922,7.3969727c-0.9331055,1.5932617-1.8847656,3.2304688-2.9160156,4.7609863
	c-3.5341797,5.2453613-6.6689453,10.8659668-9.7055664,16.4123535c-2.7890625,5.0930176-5.5039063,10.2321777-8.3642578,15.2851563
	c-2.7363281,4.8310547-13.831543,5.7512207-21.9140625,6.1655273c-8.1020508,0.6057129-14.3442383,0.5595703-26.9414063,0.7832031
	l70.0361328-122.2709961c-0.5395508-1.3408203-1.2163086-2.5551758-1.9960938-3.8100586
	c-0.8896484-1.432373-1.8300781-2.8300781-2.409668-4.4260254c-1.3955078-3.8383789-0.0722656-7.6787109,1.7705078-11.1218262
	c-1.1645508,1.119873-2.3354492,2.2321777-3.5151367,3.3354492c-7.3374023,6.8618164-14.9550781,13.5424805-23.03125,19.5229492
	c-8.3779297,6.2050781-23.0273438,16.0166016-33.9604492,14.4484863
	c-6.6142578-0.9487305-12.4360352-3.8041992-16.9223633-8.7990723
	c-11.9106445-13.2607422-10.6826172-37.2412109-2.8955078-52.2333984c1.1098633-2.1369629,2.3662109-4.236084,3.6318359-6.2836914
	c1.5898438-2.5700684,3.2460938-5.1040039,4.9555664-7.5959473c1.6704102-2.4367676,3.3974609-4.8466797,5.2084961-7.1809082
	c1.4775391-1.9052734,3.0644531-3.8605957,4.7797852-5.5571289c1.3217773-1.3068848,2.6108398-2.8203125,3.8334961-4.2226563
	c2.0415039-2.342041,4.0439453-4.7246094,5.9951172-7.1416016c1.9462891-2.409668,3.8833008-4.8813477,5.6455078-7.4291992
	c0.3969727-0.5739746,1.4384766-2.1008301,2.0419922-3.2443848c-2.9042969-0.4553223-7.9277344,2.6691895-9.6494141,3.7941895
	c-3.1557617,2.0615234-6.1645508,4.4655762-9.0283203,6.9147949c-3.3027344,2.8259277-6.4897461,5.8017578-9.5996094,8.8381348
	c-5.1494141,5.0275879-10.1147461,10.2548828-14.9799805,15.557373c-3.0717773,3.3483887-6.0683594,6.7885742-9.1611328,10.1101074
	c-8.3676758,8.9858398-15.0073242,19.1369629-22.6137695,28.7128906c-1.3955078,1.7563477-2.722168,3.6875-4.0253906,5.5161133
	c-2.1757813,3.0527344-4.3320313,6.1201172-6.4853516,9.1889648c-2.4667969,3.5161133-4.9267578,7.0373535-7.3886719,10.5571289
	c-0.8173828,1.1682129-1.6337891,2.3366699-2.4545898,3.5024414c-0.4077148,0.5788574-1.0473633,1.621582-1.6459961,1.9836426
	l-0.5019531,0.3024902l-57.2641602,2.1237793c4.6245117-9.392334,10.5439453-20.1643066,14.9042969-26.7253418
	c3.1308594-4.7128906,6.2685547-9.421875,9.4277344-14.1166992c1.1401367-1.6945801,2.2836914-3.3884277,3.4379883-5.0737305
	c0.6298828-0.9194336,1.2680664-1.8796387,1.9423828-2.765625c2.1547852-2.8295898,4.190918-5.8435059,6.1650391-8.800293
	c2.8740234-4.3037109,5.6591797-8.6796875,8.3222656-13.1166992c2.9023438-4.8354492,5.7763672-9.8688965,8.1396484-14.9912109
	c0.4448242-0.9648438,1.25-2.7705078,1.8964844-4.59375c-2.7548828,2.4475098-6.0664063,5.7636719-7.0693359,6.7409668
	c-1.9736328,1.9211426-3.9580078,3.8493652-6.0200195,5.6755371c-1.5561523,1.3774414-3.4399414,2.9921875-5.2817383,3.9589844
	c-3.2495117,1.7060547-8.1391602,1.5371094-10.5166016-1.5776367c-1.0751953-1.4086914-1.371582-3.1520996-1.0361328-4.8710938
	c0.4526367-2.3190918,3.3100586-5.6696777,4.8354492-7.4411621c2.8051758-3.2578125,5.8491211-6.3789063,8.8852539-9.4216309
	c2.7236328-2.7287598,5.4902344-5.4145508,8.2709961-8.0844727c1.8852539-1.8103027,3.7963867-3.6052246,5.659668-5.4382324
	c3.4638672-3.4086914,7.1342773-6.6921387,11.1132813-9.4904785c8.4179688-5.9199219,19.2612305-10.1560059,27.8051758-1.9533691
	c7.574707,7.2724609,9.6459961,17.5507813,9.2202148,27.6672363c-0.1591797,3.7827148-0.6635742,7.5319824-1.3652344,11.2485352
	c1.2431641-1.2890625,2.4833984-2.5817871,3.7231445-3.8742676c2.8769531-3.0004883,5.7348633-6.059082,8.652832-9.0158691
	c3.3232422-3.3659668,6.7895508-6.3881836,10.4882813-9.3276367c3.0800781-2.4482422,6.2109375-4.8232422,9.2539063-7.3208008
	c1.9335938-1.5874023,3.9550781-3.0712891,6.0541992-4.432373c15.3959961-9.9821777,34.1450195-12.7058105,46.0957031,3.9655762
	c12.1069336,16.8898926,5.7797852,41.5307617-4.9526367,57.4272461c-0.6738281,0.9990234-1.4003906,1.9794922-2.1123047,2.9526367
	c-1.1542969,1.5803223-2.3183594,3.1542969-3.4814453,4.7280273c-3.0810547,4.171875-6.1606445,8.3442383-9.2006836,12.5454102
	c-3.1069336,4.2941895-6.2094727,8.6271973-9.1333008,13.0473633c-1.0532227,1.5917969-2.1035156,3.2143555-3.0493164,4.8728027
	c-0.0458984,0.0808105-0.1025391,0.1794434-0.1655273,0.2902832c0.4506836-0.1467285,0.847168-0.3005371,1.034668-0.3798828
	c2.4707031-1.0439453,4.9858398-2.6904297,7.1831055-4.2192383c3.1367188-2.1831055,6.1640625-4.5722656,9.1113281-7.005127
	c3.3564453-2.7712402,6.6381836-5.638916,9.8720703-8.552002c5.5620117-5.0092773,10.9980469-10.1665039,16.3583984-15.3901367
	c3.3164063-3.2321777,6.5810547-6.5080566,9.8769531-9.7590332c8.6108398-8.4929199,17.5170898-16.6762695,26.128418-25.1633301
	c9.175293-9.043457,17.722168-18.3308105,25.5541992-28.5776367c2.9130859-3.810791,5.6835938-7.7470703,8.4013672-11.6989746
	c3.2241211-4.6877441,6.378418-9.4255371,9.5224609-14.1669922c7.109375-10.720459,14.1660156-21.4719238,21.5175781-32.0285645
	c4.5742188-6.5688477,9.2587891-13.0693359,14.1474609-19.4082031c4.6020508-5.9665527,9.4008789-11.8237305,14.5141602-17.3608398
	c7.7329102-8.3735352,18.1762695-18.2275391,29.0854492-22.1181641c7.2568359-2.5888672,15.4130859-4.2578125,23.1225586-3.1044922
	c6.0053711,0.8986816,11.4375,3.496582,15.4467773,8.1271973c5.0751953,5.8615723,6.7773438,13.6794434,6.324707,21.2687988
	c-0.5512695,9.2397461-4.2045898,18.3071289-9.2036133,26.0136719
	c-20.6928711,31.8984375-50.2080078,57.940918-82.109375,78.2741699c-3.2797852,2.0905762-6.6201172,4.1027832-9.8789063,6.2211914
	c-2.0361328,1.3234863-4.0649414,2.7214355-5.8134766,4.4162598c-1.7011719,1.6481934-3.0551758,3.515625-4.3046875,5.5200195
	c-1.9780273,3.1726074-3.7182617,6.6010742-5.4130859,9.9331055c-0.7949219,1.5629883-1.6884766,3.1132813-2.5507813,4.6403809
	c-1.4799805,2.6210938-2.9790039,5.2319336-4.4790039,7.8415527c-4.0517578,7.0476074-8.1264648,14.0825195-12.1821289,21.1271973
	c-4.2329102,7.3525391-8.465332,14.7121582-12.5976563,22.1213379c-1.4555664,2.6103516-2.9072266,5.230957-4.2949219,7.8779297
	c-0.2861328,0.5461426-0.5708008,1.0942383-0.8476563,1.6462402c23.5292969,3.0083008,57.2353516-25.1181641,72.9384766-38.9736328
	c10.3359375-9.1208496,20.253418-18.729248,29.9589844-28.5148926c7.6474609-7.7106934,15.1210938-15.5827637,22.7451172-23.3117676
	c1.7197266-1.7426758,3.3388672-3.6257324,4.8999023-5.5100098c2.019043-2.4370117,3.9682617-4.9367676,5.8793945-7.4584961
	c4.5244141-5.9694824,8.8681641-12.0986328,13.1132813-18.2692871c4.2919922-6.2399902,8.4921875-12.550293,12.5869141-18.9216309
	c3.0610352-4.7629395,6.121582-9.5932617,8.9482422-14.4985352c2.9589844-5.1350098,6.3642578-10.128418,9.8369141-14.9277344
	c4.1884766-5.7900391,8.6201172-11.4321289,13.2382813-16.8862305c4.78125-5.6479492,9.8149414-11.168457,15.1523438-16.296875
	c4.3720703-4.2016602,9.3066406-8.5361328,14.4907227-11.7050781c7.925293-4.8457031,17.2075195-8.3276367,26.5834961-8.4587402
	c7.5351563-0.1054688,15.1279297,2.0314941,20.6132813,7.4064941c4.640625,4.5471191,6.8876953,10.5571289,7.2294922,16.9755859
	c0.4433594,8.3134766-2.269043,16.8222656-5.8730469,24.2133789c-2.5488281,5.2275391-6.097168,10.4335938-9.4970703,15.1445313
	c-4.3706055,6.0571289-9.0742188,11.9257813-13.9335938,17.5961914
	c-4.7895508,5.5893555-9.7919922,11.0556641-15.0253906,16.2329102c-4.1171875,4.0712891-8.6621094,8.3242188-13.3999023,11.6616211
	c-10.8178711,7.6201172-21.112793,15.9475098-31.9916992,23.4902344c-3.5898438,2.4890137-7.2197266,4.8149414-10.9575195,7.0705566
	c-1.8950195,1.1435547-3.9746094,2.3212891-5.6772461,3.7375488c-1.6650391,1.3847656-2.9560547,3.0612793-4.1787109,4.8369141
	c-2.3964844,3.4814453-4.5742188,7.270752-6.7197266,10.9130859c-6.7890625,11.5222168-13.4711914,23.1289063-20.1542969,34.7131348
	c-4.4482422,7.7094727-8.8886719,15.4260254-13.2724609,23.1716309c-1.5258789,2.6975098-3.050293,5.3991699-4.5395508,8.1179199
	c-0.3017578,0.5510254-0.6030273,1.1032715-0.8994141,1.6577148c3.3730469,0.6376953,7.1274414,0.1247559,10.324707-0.6318359
	c5.4189453-1.2824707,10.8364258-3.592041,15.8232422-6.0461426c4.5166016-2.2219238,8.9130859-4.7021484,13.2333984-7.2827148
	c3.4746094-2.0749512,6.8886719-4.2375488,10.3427734-6.3425293c4.2241211-2.5734863,8.2241211-5.6418457,12.0224609-8.8024902
	c4.2402344-3.527832,8.3173828-7.2636719,12.328125-11.0478516c18.2138672-17.1848145,36.4599609-34.4821777,54.3046875-52.0368652
	c7.6777344-7.5524902,11.4150391-16.1530762,23.6435547-16.2446289c2.1484375-0.0163574,4.3466797-0.145752,6.4946289-0.2392578
	c3.6557617-0.1594238,7.3100586-0.3291016,10.965332-0.4934082c4.0546875-0.1831055,8.109375-0.3662109,12.1650391-0.5107422
	c1.3833008-0.0493164,2.769043-0.097168,4.1533203-0.1176758c0.7900391-0.0117188,1.9990234-0.081543,2.7177734,0.2460938
	l0.8613281,0.3925781l0.3242188,0.8891602c0.4067383,1.1120605-0.1533203,2.2753906-0.6118164,3.2758789
	c-0.5786133,1.2607422-1.2260742,2.5061035-1.8706055,3.734375c-2.1723633,4.1469727-4.4589844,8.2512207-6.7363281,12.3422852
	c-6.7919922,12.1982422-13.6914063,24.3381348-20.503418,36.5256348
	c-6.4575195,11.5529785-12.918457,23.1572266-19.0185547,34.9025879c-2.1459961,4.1318359-4.2890625,8.3234863-6.1967773,12.5705566
	c-0.3339844,0.7441406-1.2373047,2.7570801-1.7822266,4.3156738c0.2851563-0.0800781,0.53125-0.1621094,0.6621094-0.2104492
	c1.8144531-0.6640625,3.6796875-1.7871094,5.2958984-2.8364258c4.8632813-3.1577148,9.5703125-7.1064453,13.9370117-10.918457
	c6.652832-5.8081055,12.9008789-11.895752,19.2294922-18.0366211c6.4760742-6.284668,12.8764648-12.65625,19.1655273-19.1276855
	c6.3642578-6.5476074,12.9658203-12.8325195,19.1835938-19.5275879c5.9716797-6.4304199,12.3056641-12.701416,18.8388672-18.5576172
	c4.0585938-3.6381836,8.2851563-7.1982422,12.7119141-10.3813477c3.4599609-2.487793,7.6171875-5.190918,11.6669922-6.5737305
	c11.7910156-4.0244141,23.5634766,2.2792969,25.8076172,14.7182617c1.1044922,6.1176758,2.5854492,12.1186523,1.5117188,18.364502
	c-0.4423828,2.5759277-0.984375,5.1647949-1.4794922,7.7336426c-0.0717773,0.3735352-0.144043,0.7468262-0.2158203,1.1208496
	c1.4433594-1.3981934,2.8862305-2.7966309,4.328125-4.1960449c3.0556641-2.9641113,6.1074219-5.9321289,9.1635742-8.8955078
	c3.1713867-3.0756836,6.3813477-6.1098633,9.7456055-8.9746094c3.3046875-2.8137207,6.7333984-5.4291992,10.2753906-7.9350586
	c2.2548828-1.5957031,4.5639648-3.1196289,6.9365234-4.5344238c16.4213867-9.7963867,34.456543-13.230957,46.7480469,4.7714844
	c11.2802734,16.5219727,3.0214844,42.9301758-7.7685547,57.7143555c-1.8696289,2.560791-3.8774414,5.0800781-5.8134766,7.5944824
	c-3.2480469,4.2167969-6.4853516,8.4416504-9.6826172,12.6965332c-3.2431641,4.3173828-6.4794922,8.6750488-9.5415039,13.1225586
	c-1.0737305,1.5593262-2.1450195,3.1472168-3.1210938,4.7709961c0.8168945-0.3322754,1.5874023-0.7080078,1.9262695-0.8833008
	c3.2167969-1.661377,6.3930664-3.8835449,9.3125-6.017334c4.0263672-2.9436035,7.9370117-6.0795898,11.7734375-9.2658691
	c4.3383789-3.6022949,8.6005859-7.2993164,12.8173828-11.0432129c7.421875-6.590332,14.7124023-13.3378906,21.909668-20.1708984
	c4.355957-4.135498,8.706543-8.3032227,12.9628906-12.5410156c5.7817383-5.7553711,12.4663086-10.4824219,18.2475586-16.2619629
	c5.7490234-5.7478027,11.5234375-11.4716797,17.2382813-17.2536621c2.1669922-2.1918945,4.1943359-4.4450684,6.2822266-6.703125
	c1.2529297-1.3544922,2.5703125-2.7402344,4.2412109-3.576416c1.6972656-0.8496094,3.5673828-1.0412598,5.4365234-1.1364746
	c3.0537109-0.1567383,6.1635742-0.1289063,9.2255859-0.2055664c2.2822266-0.0571289,4.5849609-0.253418,6.8564453-0.4685059
	c2.7456055-0.2595215,5.4873047-0.5671387,8.2265625-0.8745117c2.8891602-0.3244629,5.7792969-0.654541,8.671875-0.9370117
	c2.4355469-0.2380371,4.9072266-0.4592285,7.3540039-0.5222168l1.6928711-0.0439453l0.5185547,1.6118164
	c0.3686523,1.1467285-0.0751953,2.4758301-0.4892578,3.5546875c-0.5483398,1.4272461-1.2451172,2.8442383-1.9350586,4.2075195
	c-2.2011719,4.3457031-4.6665039,8.6254883-7.1079102,12.8408203
	c-7.1347656,12.3227539-14.5517578,24.4997559-21.8354492,36.7365723
	c-6.987793,11.7404785-14.027832,23.5847168-20.4584961,35.6394043c-2.2470703,4.2128906-4.5131836,8.5708008-6.3642578,12.9743652
	c-0.2817383,0.670166-1.0356445,2.5314941-1.4980469,4.0866699c1.4990234-0.6210938,2.9975586-1.5134277,4.3657227-2.3823242
	c4.4760742-2.842041,8.824707-6.309082,12.9194336-9.6721191c5.6132813-4.6081543,11.0800781-9.420166,16.4726563-14.2834473
	c6.0957031-5.4970703,12.1069336-11.0908203,18.0732422-16.7275391
	c10.2412109-9.6760254,20.3476563-19.4926758,30.4335938-29.3300781c3.8603516-3.7646484,7.7148438-7.5349121,11.5898438-11.2834473
	c2.4501953-2.3708496,4.9165039-4.7810059,7.4521484-7.0598145c2.8076172-2.5234375,5.4169922-5.3330078,7.8837891-8.1887207
	c2.9580078-3.4255371,5.7607422-6.9978027,8.4711914-10.6218262c6.1689453-8.2509766,11.9316406-16.8598633,17.5317383-25.505127
	c4.8730469-7.5222168,9.6279297-15.1196289,14.3833008-22.7165527c4.0996094-6.5498047,8.1899414-13.1240234,12.4448242-19.5732422
	c3.3022461-5.0053711,6.3286133-10.1833496,9.6557617-15.1730957c1.5078125-2.2614746,2.8725586-4.7785645,4.2177734-7.145752
	c0.9438477-1.6608887,1.8847656-3.3249512,2.8583984-4.9677734c0.6914063-1.1665039,1.4594727-2.4904785,2.3022461-3.550293
	l0.6591797-0.8286133l50.9829102-1.2114258l-30.5053711,50.4467773l24.6142578,0.5913086l-4.6347656,16.0200195
	l-0.9521484,0.4296875c-2.3945313,1.079834-9.3076172,0.8793945-12.0444336,0.8325195
	c-2.0966797-0.0366211-4.1933594-0.1015625-6.2895508-0.1696777c-1.4204102-0.0463867-2.8554688-0.1101074-4.2753906-0.1169434
	c-2.0634766-0.0100098-4.0917969-0.145752-6.1464844-0.2028809c-0.7709961-0.0217285-1.9311523-0.0568848-2.6577148,0.248291
	c-1.4047852,0.5898438-3.1289063,3.8352051-3.8266602,5.0795898c-1.4013672,2.4997559-2.9033203,4.9431152-4.4472656,7.357666
	c-4.0976563,6.4082031-8.6000977,12.6862793-12.2026367,19.3867188
	c-9.9204102,18.447998-22.5942383,35.3356934-33.0981445,53.4528809
	c-5.1337891,8.8535156-10.4140625,17.5996094-15.3134766,26.5888672
	c-2.8525391,5.2329102-5.5981445,10.5510254-8.0454102,15.9853516c-2.1254883,4.720459-4.1137695,9.6779785-5.4448242,14.6860352
	c-0.0737305,0.2773438-0.230957,0.9462891-0.2666016,1.4443359c0.6923828-0.135498,1.7324219-0.5791016,2.1162109-0.7565918
	c1.8740234-0.8654785,3.7265625-2.0397949,5.4394531-3.1877441c4.8886719-3.2773438,9.609375-7.0952148,14.1240234-10.8701172
	c4.7841797-4.001709,9.46875-8.1347656,14.0820313-12.3330078c2.3798828-2.1655273,4.7631836-4.3505859,7.0888672-6.5754395
	c14.7880859-14.1472168,30.6391602-27.1188965,44.8764648-41.8535156
	c6.8041992-7.0422363,13.4946289-13.9924316,20.9902344-20.3303223c5.1479492-4.3530273,10.9233398-8.6867676,16.9985352-11.6479492
	c5.1308594-2.5009766,11.2529297-4.3491211,16.9248047-2.6745605c6.4018555,1.8908691,9.5732422,4.7758789,13.7060547,9.8459473
	c11.8422852,14.5300293,1.7055664,38.2834473-5.4111328,52.7851563c-0.6625977,1.3505859-1.515625,2.715332-2.3012695,3.9985352
	c-1.2758789,2.0820313-2.5883789,4.1430664-3.9038086,6.199707c-3.480957,5.440918-7.0102539,10.8520508-10.5087891,16.2822266
	c-3.6259766,5.6281738-7.2573242,11.2780762-10.7143555,17.0117188c-1.2368164,2.0498047-2.4702148,4.1286621-3.5932617,6.2436523
	c-0.0273438,0.052002-0.0585938,0.1108398-0.0927734,0.1745605c1.246582-0.635498,2.4736328-1.4592285,3.5849609-2.2521973
	c3.8764648-2.7666016,7.5893555-6.1162109,11.0634766-9.3701172c3.2392578-3.0319824,6.3930664-6.1552734,9.5166016-9.3046875
	c2.0644531-2.0800781,4.1206055-4.253418,6.2485352-6.2626953c11.1831055-10.5581055,19.815918-23.0283203,29.6767578-34.7194824
	c4.4760742-5.3063965,8.7646484-10.7946777,12.894043-16.3742676c4.9873047-6.7392578,9.8115234-13.684082,14.2319336-20.8085938
	c1.6030273-2.5834961,3.3310547-5.418457,5.2739258-7.7573242c1.3271484-1.597168,2.8095703-2.9707031,4.8037109-3.6665039
	c1.9111328-0.6665039,3.9824219-0.5898438,5.9746094-0.4907227c2.9101563,0.1435547,5.7192383,0.2915039,8.6430664,0.2255859
	l0.0405273-0.0009766l0.0405273,0.0004883c2.777832,0.0375977,5.5888672-0.0559082,8.3657227-0.1364746
	c3.7724609-0.1096191,7.5444336-0.2412109,11.3168945-0.3522949c3.8696289-0.1142578,7.7446289-0.2155762,11.6162109-0.2333984
	l4.0200195-0.0183105l-61.300293,101.920166c2.8393555-1.536377,5.8432617-3.4990234,7.1557617-4.3710938
	c7.0283203-4.6652832,13.8486328-9.8735352,20.4765625-15.0910645c6.0761719-4.7834473,12.0688477-9.6872559,17.9760742-14.6779785
	c3.9301758-3.3212891,7.9213867-6.7026367,11.6918945-10.2053223c9.6767578-8.9924316,20.5092773-16.6608887,30.1176758-25.701416
	c7.3237305-6.8916016,16.5229492-14.4018555,26.331543-17.1689453c0.7246094-0.2045898,2.2001953-0.0058594,2.9682617,0.0688477
	c1.4296875,0.1398926,2.8588867,0.2998047,4.2861328,0.4638672c1.4604492,0.1679688,2.9208984,0.3417969,4.378418,0.5241699
	c0.8657227,0.1081543,2.3896484,0.182373,3.0922852,0.7077637l1.0825195,0.8093262l-0.2011719,1.3366699
	c-0.1738281,1.1645508-1.2802734,1.9150391-2.1391602,2.583252c-1.1103516,0.8635254-2.2485352,1.6992188-3.3833008,2.5305176
	c-3.3378906,2.4448242-6.7060547,4.8520508-10.0644531,7.2695313c-2.9438477,2.119873-5.8891602,4.2416992-8.8051758,6.4008789
	c-1.0986328,0.8139648-2.1958008,1.6333008-3.2749023,2.4726563c-0.6123047,0.4765625-1.2802734,0.9848633-1.8442383,1.5161133
	c-8.6694336,8.1525879-18.0703125,15.4790039-26.652832,23.7263184c-4.0620117,3.9038086-8.2504883,7.6962891-12.4853516,11.4123535
	c-5.0244141,4.4106445-10.1430664,8.7236328-15.3515625,12.9157715c-4.8798828,3.9274902-9.8510742,7.7624512-14.9458008,11.4074707
	c-4.4296875,3.168457-9.0244141,6.269043-13.7724609,8.9421387c-5.3413086,3.0070801-10.362793,6.520752-15.9331055,9.1208496
	c-2.7167969,1.2675781-5.4912109,2.4345703-8.234375,3.6464844c-2.8007813,1.2375488-5.8955078,2.5698242-8.5371094,4.1367188
	c-0.375,0.4101563-0.7963867,1.0280762-1.1064453,1.4536133c-0.8203125,1.1254883-1.6181641,2.2709961-2.4091797,3.416748
	c-2.2119141,3.1994629-4.3808594,6.4309082-6.5439453,9.6633301c-2.0444336,3.0556641-4.0800781,6.1179199-6.1171875,9.1787109
	c-1.265625,1.901123-2.5224609,3.824707-3.8232422,5.7016602c-6.6948242,9.6577148-13.4916992,19.2509766-20.7275391,28.513916
	c-7.546875,9.6618652-15.5361328,18.8713379-24.168457,27.5822754c-4.6860352,4.7285156-9.6508789,8.7976074-15.2255859,12.4331055
	c-4.7661133,3.1081543-9.7832031,5.8188477-14.7963867,8.5012207c-1.2197266,0.6525879-2.6640625,1.1960449-3.9580078,1.6887207
	c-1.8759766,0.7133789-3.7753906,1.3774414-5.6811523,2.0073242c-1.9433594,0.6416016-3.9086914,1.2553711-5.8852539,1.7875977
	c-1.3369141,0.3598633-3.0517578,0.8217773-4.4316406,0.8781738c-3.265625,0.1342773-6.2773438,0.862793-9.4853516,1.1958008
	c-0.6044922,0.0629883-1.2099609,0.107666-1.8178711,0.1274414c-3.2119141,0.1062012-6.7509766-0.8964844-9.9780273-1.2663574
	c-0.4892578-0.0563965-0.9814453-0.1015625-1.4736328-0.1298828c-14.1269531-0.8125-24.065918-13.699707-27.6015625-26.3916016
	c-1.0771484-3.8666992-1.2480469-7.8110352-0.6103516-11.7675781c1.5751953-9.7597656,7.8427734-18.5722656,14.059082-25.9897461
	c13.5424805-16.159668,44.050293-30.7468262,63.684082-38.3405762c5.715332-2.2102051,11.3637695-4.5993652,17.0678711-6.8410645
	c3.472168-1.3637695,6.9663086-2.6870117,10.5004883-3.8837891c3.1982422-1.0830078,6.4707031-2.0874023,9.7705078-2.809082
	c0.2172852-0.0476074,0.4291992-0.1137695,0.6352539-0.1962891c2.2998047-0.9199219,4.1567383-4.0551758,5.3017578-6.1223145
	c1.2436523-2.2443848,2.347168-4.6809082,3.7680664-6.809082
	C1373.1906738,349.7711487,1373.4621582,349.3399963,1373.7297363,348.9044495L1373.7297363,348.9044495z M737.8254395,235.1188049
	c2.2685547-1.541748,4.4667969-3.2114258,6.6152344-4.9157715c5.2441406-4.1589355,10.3056641-8.6169434,15.2480469-13.126709
	c8.1391602-7.425293,16.1894531-15.1791992,23.8457031-23.1049805c7.9189453-8.1962891,15.2744141-16.3444824,20.8076172-26.4008789
	c2.6650391-4.8427734,5.0488281-10.3061523,6.7792969-15.546875c1.449707-4.3881836,4.215332-14.2453613,0.7900391-18.2573242
	c-0.8007813-0.9375-1.7651367-1.6682129-2.9785156-1.9597168c-7.6586914-1.8381348-20.4213867,13.9631348-24.4267578,19.1303711
	c-3.8681641,4.9890137-7.4824219,10.2155762-10.8891602,15.529541c-2.1645508,3.3754883-4.3510742,6.8815918-6.2651367,10.4072266
	c-2.1342773,3.9311523-4.2094727,7.9057617-6.2856445,11.8676758c-3.394043,6.4780273-6.7583008,12.972168-10.081543,19.4863281
	c-3.5302734,6.9189453-7.0395508,13.8686523-10.3793945,20.8813477
	C739.6584473,231.0978088,738.7160645,233.099762,737.8254395,235.1188049L737.8254395,235.1188049z M614.8234863,232.3492737
	c1.7758789-1.2573242,3.5180664-2.5722656,5.2373047-3.8999023c5.3740234-4.1513672,10.6152344-8.5239258,15.7631836-12.9516602
	c4.9946289-4.2961426,9.9321289-8.6816406,14.7504883-13.175293c1.9291992-1.7983398,3.8432617-3.6176758,5.7124023-5.4777832
	c1.2866211-1.279541,2.5932617-2.598877,3.7788086-3.9729004c6.8515625-7.9414063,13.4414063-16.6174316,18.909668-25.5620117
	c5.1118164-8.3623047,14.4726563-25.5932617,8.5341797-35.3171387c-0.3032227-0.4956055-0.6889648-0.8815918-1.2124023-1.138916
	c-3.3066406-1.6274414-10.1069336,2.1018066-12.75,4.0268555c-6.6411133,4.8347168-12.5161133,12.4326172-17.1582031,19.1550293
	c-4.7016602,6.8095703-8.8828125,13.9260254-13.0683594,21.0583496c-0.7851563,1.3378906-1.5131836,2.7495117-2.2363281,4.1230469
	c-1.2749023,2.421875-2.5283203,4.8554688-3.7753906,7.2915039c-3.3676758,6.5817871-6.6855469,13.1916504-9.96875,19.815918
	c-3.4272461,6.9147949-6.8305664,13.8520508-10.1162109,20.8354492
	C616.4143066,228.8829651,615.6066895,230.6114807,614.8234863,232.3492737L614.8234863,232.3492737z M1353.7683105,383.9134827
	c-0.1796875,0.0593262-0.3564453,0.1184082-0.5307617,0.1774902c-2.4433594,0.8234863-4.859375,1.7719727-7.2426758,2.7543945
	c-6.090332,2.5102539-12.1069336,5.3181152-18.012207,8.2348633c-5.6757813,2.8027344-11.3208008,5.746582-16.8115234,8.8964844
	c-2.2050781,1.2661133-4.3994141,2.5715332-6.5322266,3.9575195c-1.4541016,0.9458008-2.9838867,1.9726563-4.3046875,3.1013184
	c-3.5351563,3.0202637-7.2402344,5.8371582-10.7558594,8.8747559c-4.2954102,3.7094727-7.8696289,7.5192871-11.0102539,12.2705078
	c-3.5297852,5.340332-6.5507813,11.8623047-7.0708008,18.3198242c-0.3266602,4.0566406,0.3520508,8.682373,3.4492188,11.6103516
	c2.777832,2.6264648,6.671875,3.0717773,10.3154297,2.5849609c6.3173828-0.8439941,12.8652344-4.5061035,18.0078125-8.1015625
	c1.815918-1.269043,3.5419922-2.9296875,5.0839844-4.515625c1.9755859-2.032959,3.8457031-4.1904297,5.6416016-6.3828125
	c3.1469727-3.8395996,6.2021484-7.918457,8.9404297-12.0615234c5.7001953-8.6254883,11.2705078-17.3916016,16.7558594-26.1542969
	c3.6660156-5.8554688,7.3139648-11.7475586,10.7910156-17.7167969
	C1351.6057129,387.8351135,1352.723877,385.888092,1353.7683105,383.9134827L1353.7683105,383.9134827z M916.826416,387.5831604
	c0.8652344,0.2497559,1.5664063,0.8486328,1.8452148,1.7243652c0.3779297,1.1872559-0.1748047,2.2692871-1.0078125,3.078125
	c-0.4545898,0.4411621-0.9868164,0.8325195-1.5107422,1.1872559c-0.2983398,0.201416-0.6020508,0.3950195-0.909668,0.5822754
	c-7.9326172,5.1306152-18.8041992,4.7463379-27.8095703,3.6262207c-4.2944336-0.5341797-8.5498047-1.2983398-12.8100586-2.0517578
	c-3.503418-0.6196289-7.1166992-1.2900391-10.6625977-1.5803223c-8.065918-0.6594238-16.1357422-1.4025879-24.2099609-1.9448242
	c-8.8818359-0.5964355-17.7285156-0.8513184-26.6298828-0.9245605c-12.1083984-0.0996094-25.7353516,1.9467773-36.6708984,7.3950195
	c-3.4438477,1.7158203-7.1660156,4.0595703-9.7148438,6.984375c-1.4199219,1.6293945-2.847168,3.9040527-2.5537109,6.1682129
	c0.3613281,2.7868652,3.2519531,4.6760254,5.5678711,5.7722168c5.3911133,2.5527344,12.7700195,3.4067383,18.6557617,3.7207031
	c7.1542969,0.3818359,14.3847656,0.1601563,21.5268555-0.3691406c8.1274414-0.6015625,16.237793-1.6179199,24.2905273-2.8684082
	c17.7705078-2.7600098,35.4536133-6.6691895,52.9018555-11.0070801
	c16.1704102-4.0195313,32.2348633-8.4667969,48.2426758-13.0898438c13.9243164-4.0217285,27.800293-8.2011719,41.7084961-12.2763672
	c24.4291992-7.1586914,50.144043-12.4726563,75.628418-13.6049805c9.8515625-0.4379883,19.777832-0.246582,29.5830078,0.848877
	c8.1660156,0.9125977,16.3173828,2.4609375,24.1708984,4.8962402c11.8310547,3.668457,23.7856445,9.6489258,32.2617188,18.8837891
	c6.5419922,7.1274414,10.7641602,16.0844727,10.5297852,25.8901367
	c-0.2426758,10.1604004-5.1733398,19.1230469-12.3891602,26.0581055
	c-9.3583984,8.9936523-22.1289063,14.3703613-34.6083984,17.3208008
	c-18.0205078,4.2602539-37.5068359,4.1074219-55.7949219,1.8642578
	c-26.1181641-3.2036133-52.1069336-10.8852539-76.5595703-20.4460449l-0.0410156-0.0163574l-0.0410156-0.0175781
	c-0.4033203-0.1762695-0.800293-0.3654785-1.1806641-0.5891113c-1.3330078-0.784668-2.3818359-2.0307617-2.1044922-3.6784668
	l0.0146484-0.088623l0.0224609-0.0874023c0.4765625-1.895752,2.7910156-2.1472168,4.3686523-2.5556641l0.1176758-0.0300293
	l0.1196289-0.0185547c12.5869141-1.8574219,25.0639648-1.7592773,37.7207031-0.8427734
	c11.5864258,0.8388672,23.1191406,2.296875,34.7011719,3.2006836c12.253418,0.9562988,24.378418,1.2451172,36.6313477,0.0439453
	c4.4316406-0.4345703,8.8759766-0.7468262,13.3037109-1.2006836c3.7177734-0.3813477,7.4379883-0.8789063,11.0673828-1.7929688
	c6.6318359-1.6699219,12.1162109-4.5927734,17.53125-8.7446289c1.9165039-1.4697266,5.3515625-4.4433594,4.7841797-7.2529297
	c-0.8955078-4.4267578-10.4262695-7.737793-14.1289063-8.8637695c-2.8935547-0.8803711-5.8603516-1.5900879-8.8320313-2.1530762
	c-2.2158203-0.420166-4.5263672-0.7927246-6.7763672-0.963623c-2.9746094-0.2253418-6.0810547-0.1196289-9.0566406,0.0539551
	c-4.0268555,0.2346191-8.0566406,0.645752-12.0615234,1.1276855c-9.6694336,1.1635742-19.3349609,2.7607422-28.9140625,4.5163574
	c-8.9326172,1.6369629-17.8447266,3.4389648-26.7128906,5.4001465c-6.8056641,1.5053711-13.65625,3.0874023-20.3789063,4.9321289
	c-14.7456055,4.0478516-29.3896484,8.5002441-44.0957031,12.6955566c-8.4736328,2.4172363-16.9707031,4.7680664-25.515625,6.9216309
	c-7.8632813,1.9824219-15.7988281,3.8173828-23.7817383,5.2487793c-9.2827148,1.6643066-18.5463867,3.4265137-27.8276367,5.1008301
	c-7.4619141,1.3457031-14.9394531,2.6176758-22.4638672,3.5737305c-7.9848633,1.0146484-15.9599609,1.6401367-24.0043945,1.9194336
	c-10.2519531,0.3564453-20.5366211,0.2006836-30.7866211-0.1474609c-10.5400391-0.3583984-21.7871094-3.0561523-31.519043-7.0644531
	c-19.6967773-8.1118164-38.300293-23.9733887-33.519043-47.4589844
	c6.7993164-33.3974609,55.6347656-38.8950195,83.2441406-38.4926758c10.1679688,0.1484375,20.2421875,1.1689453,30.2529297,2.9375
	c9.4306641,1.6660156,18.7089844,3.9741211,27.9130859,6.6040039
	C890.9846191,379.3614807,903.8400879,383.6915588,916.826416,387.5831604L916.826416,387.5831604z"/>
<g>
	<path style="fill:#FFFFFF;" d="M723.3242188,652.1929321h-93.6005859V457.4927673h21.8999023v174.2997742h71.7006836V652.1929321z"
		/>
	<path style="fill:#FFFFFF;" d="M841.8232422,555.8931274v50.3994141c0,25.0039063-6.5996094,40.0039063-19.7998047,45
		c-7.0029297,2.5976563-17.203125,3.9003906-30.6005859,3.9003906c-9.8007813,0-16.9492188-0.3515625-21.4492188-1.0498047
		c-4.5-0.703125-9.3515625-2.7470703-14.5507813-6.1503906c-9.4023438-5.5966797-14.0996094-19.5-14.0996094-41.7001953v-50.3994141
		c0-26.7988281,6.5996094-42.796875,19.7998047-47.9999695c6.3984375-2.5966797,16.5-3.9003906,30.2998047-3.9003906
		c13.8007813,0,24,1.3037109,30.6005859,3.9003906c4.7998047,2.0009766,8.3994141,4.7528992,10.7998047,8.2499695
		c2.4003906,3.5009766,4.5,8.6533203,6.2998047,15.4501953
		C840.9228516,538.1929321,841.8232422,546.2925415,841.8232422,555.8931274z M821.1230469,610.1929321v-58.7998047
		c0-13.2001953-2.0996094-21.4970703-6.2998047-24.9003906c-3.8017578-3.1962891-11.6015625-4.7998047-23.4003906-4.7998047
		c-11.6015625,0-19.4013672,1.6035156-23.3994141,4.7998047c-4.0029297,3.4033203-6,11.7001953-6,24.9003906v58.7998047
		c0,12.5996094,2.4980469,20.4003906,7.5,23.4003906c3.9980469,2.6015625,11.296875,3.8994141,21.8994141,3.8994141
		c4.8007813,0,7.9501953-0.046875,9.4501953-0.1494141c1.5-0.0986328,3.4501953-0.3984375,5.8505859-0.9003906
		c2.3994141-0.4970703,4.6962891-1.4482422,6.8994141-2.8496094
		C818.6201172,630.5933228,821.1230469,622.7925415,821.1230469,610.1929321z"/>
	<path style="fill:#FFFFFF;" d="M911.1220703,655.1929321c-13.4013672,0-23.0527344-3.046875-28.9501953-9.1503906
		c-5.9013672-6.0976563-8.8496094-16.9492188-8.8496094-32.5498047V506.9927673h20.0996094v104.9999695
		c0,12.2021484,3.6005859,19.5,10.7998047,21.9003906c3,1.4013672,7.2001953,2.0996094,12.6005859,2.0996094
		c11.1982422,0,18.9980469-1.3964844,23.3994141-4.2001953c4.3974609-2.7978516,6.6005859-7.8984375,6.6005859-15.2998047
		V506.9927673h20.0996094v145.2001648h-20.0996094v-17.7001953
		C944.8203125,648.2925415,932.9189453,655.1929321,911.1220703,655.1929321z"/>
	<path style="fill:#FFFFFF;" d="M1058.1201172,503.9927673c13.3964844,0,23.0488281,3.1035156,28.9501953,9.2997742
		c5.8964844,6.2021484,8.8496094,17.0019531,8.8496094,32.4003906v106.5h-20.0996094v-105
		c0-12-3.6005859-19.3964844-10.7998047-22.2001953c-3.2021484-1.2001953-7.4023438-1.7998047-12.6005859-1.7998047
		c-11.6015625,0-19.6025391,1.7011719-24,5.0996094c-4.0029297,3.4033203-6,9.703125-6,18.9003906v105h-20.0996094V506.9927673
		h20.0996094v17.7001648C1024.4169922,510.893158,1036.3183594,503.9927673,1058.1201172,503.9927673z"/>
	<path style="fill:#FFFFFF;" d="M1127.1171875,551.9927368c0-18,3.5996094-30.4970703,10.7998047-37.5
		c7.2001953-6.9980164,18.4970703-10.4999695,33.9003906-10.4999695c18.796875,0,29.8964844,5.7001953,33.2998047,17.1005554
		v-14.1005554h18.9003906v158.9999695c0,20.5966797-4.3037109,34.5-12.9003906,41.7001953
		c-8.8027344,6.9980469-21.703125,10.5-38.7001953,10.5c-15,0-27.5009766-1.1015625-37.5-3.2998047v-19.2001953
		c17.7988281,2.7988281,30.9003906,4.2001953,39.2998047,4.2001953c9.9990234,0,17.4472656-2.0537109,22.3505859-6.1503906
		c4.8984375-4.1015625,7.3496094-11.5498047,7.3496094-22.3496094v-34.7998047
		c-0.8017578,12.4023438-11.9013672,18.5996094-33.2998047,18.5996094c-16.7998047,0-28.3027344-3.2998047-34.5-9.9003906
		c-6-6.5996094-9-18-9-34.1992188V551.9927368z M1203.9169922,612.8931274v-65.7001953
		c0-9.1972656-1.9033203-15.6982422-5.7001953-19.5c-4.0029297-3.3984375-11.9013672-5.0996094-23.6992188-5.0996094
		c-11.4003906,0-18.8017578,1.7011719-22.2001953,5.0996094c-3.4033203,3.4033203-5.1005859,9.9003906-5.1005859,19.5v65.7001953
		c0,10.0029297,1.8007813,16.5,5.4003906,19.5c3.3984375,3.2011719,10.7998047,4.7998047,22.2001953,4.7998047
		c10.2001953,0,17.5966797-1.6972656,22.2001953-5.0996094
		C1201.6152344,628.6948853,1203.9169922,622.2964478,1203.9169922,612.8931274z"/>
	<path style="fill:#FFFFFF;" d="M1303.5136719,503.9927673c15.6005859,0,27.046875,3.6005859,34.3505859,10.7997742
		c7.2978516,7.2001953,10.9492188,20.1005859,10.9492188,38.7001953v32.1005859h-73.1992188v21.8994141
		c0,10.6035156,2.7978516,17.953125,8.3994141,22.0498047c5.5966797,4.1015625,13.5986328,6.1503906,24,6.1503906
		c10.2001953,0,22.3974609-2.4003906,36.6005859-7.2001953v20.7001953c-13.8007813,3.9980469-26.9023438,6-39.3007813,6
		c-33.4023438,0-50.0996094-14.7988281-50.0996094-44.4003906v-57.2998047c0-18.3984375,3.9472656-31.2470703,11.8496094-38.5498047
		C1274.9619141,507.6441345,1287.1123047,503.9927673,1303.5136719,503.9927673z M1322.2636719,526.6431274
		c-4.3027344-3.0986328-10.9501953-4.6503906-19.9501953-4.6503906s-15.703125,1.5517578-20.0996094,4.6503906
		c-4.4013672,3.1025391-6.5996094,9.2529297-6.5996094,18.4501953v22.7998047h53.0996094v-22.7998047
		C1328.7138672,535.8960571,1326.5625,529.7456665,1322.2636719,526.6431274z"/>
</g>
</svg>
